<?xml version="1.0" encoding="UTF-8"?>
<!DOCTYPE svg PUBLIC "-//W3C//DTD SVG 1.1//EN" "http://www.w3.org/Graphics/SVG/1.1/DTD/svg11.dtd">
<svg xmlns="http://www.w3.org/2000/svg" version="1.1" width="2000px" height="1023px" style="shape-rendering:geometricPrecision; text-rendering:geometricPrecision; image-rendering:optimizeQuality; fill-rule:evenodd; clip-rule:evenodd" xmlns:xlink="http://www.w3.org/1999/xlink">
<g><path style="opacity:1" fill="#3365ff" d="M -0.5,-0.5 C 666.167,-0.5 1332.83,-0.5 1999.5,-0.5C 1999.5,38.1667 1999.5,76.8333 1999.5,115.5C 1332.83,115.5 666.167,115.5 -0.5,115.5C -0.5,76.8333 -0.5,38.1667 -0.5,-0.5 Z"/></g>
<g><path style="opacity:1" fill="#fed800" d="M -0.5,115.5 C 666.167,115.5 1332.83,115.5 1999.5,115.5C 1999.5,119.5 1999.5,123.5 1999.5,127.5C 1332.83,127.5 666.167,127.5 -0.5,127.5C -0.5,123.5 -0.5,119.5 -0.5,115.5 Z"/></g>
<g><path style="opacity:1" fill="#fefffe" d="M -0.5,127.5 C 666.167,127.5 1332.83,127.5 1999.5,127.5C 1999.5,168.5 1999.5,209.5 1999.5,250.5C 1332.83,250.5 666.167,250.5 -0.5,250.5C -0.5,209.5 -0.5,168.5 -0.5,127.5 Z"/></g>
<g><path style="opacity:1" fill="#fed800" d="M -0.5,250.5 C 666.167,250.5 1332.83,250.5 1999.5,250.5C 1999.5,254.5 1999.5,258.5 1999.5,262.5C 1332.83,262.5 666.167,262.5 -0.5,262.5C -0.5,258.5 -0.5,254.5 -0.5,250.5 Z"/></g>
<g><path style="opacity:1" fill="#3366fe" d="M -0.5,262.5 C 666.167,262.5 1332.83,262.5 1999.5,262.5C 1999.5,427.833 1999.5,593.167 1999.5,758.5C 1332.83,758.5 666.167,758.5 -0.5,758.5C -0.5,593.167 -0.5,427.833 -0.5,262.5 Z"/></g>
<g><path style="opacity:1" fill="#f9d415" d="M 1007.5,313.5 C 1008.12,313.611 1008.62,313.944 1009,314.5C 1010.87,321.265 1013.03,327.932 1015.5,334.5C 1023.15,335.331 1030.81,335.831 1038.5,336C 1032.28,340.604 1026.28,345.437 1020.5,350.5C 1023,357.837 1025.17,365.171 1027,372.5C 1020.95,367.447 1014.61,362.781 1008,358.5C 1001.51,363.603 995.012,367.937 988.5,371.5C 991.033,364.568 993.366,357.568 995.5,350.5C 989.762,345.448 983.762,340.615 977.5,336C 985.188,335.831 992.855,335.331 1000.5,334.5C 1003.04,327.55 1005.37,320.55 1007.5,313.5 Z"/></g>
<g><path style="opacity:1" fill="#f9d415" d="M 953.5,350.5 C 954.117,350.611 954.617,350.944 955,351.5C 956.866,358.265 959.033,364.932 961.5,371.5C 969.145,372.331 976.812,372.831 984.5,373C 978.278,377.604 972.278,382.437 966.5,387.5C 969.005,394.837 971.172,402.171 973,409.5C 966.948,404.447 960.615,399.781 954,395.5C 947.512,400.603 941.012,404.937 934.5,408.5C 937.033,401.568 939.366,394.568 941.5,387.5C 935.762,382.448 929.762,377.615 923.5,373C 931.188,372.831 938.855,372.331 946.5,371.5C 949.039,364.55 951.372,357.55 953.5,350.5 Z"/></g>
<g><path style="opacity:1" fill="#f9d415" d="M 1061.5,352.5 C 1062.12,352.611 1062.62,352.944 1063,353.5C 1064.87,360.265 1067.03,366.932 1069.5,373.5C 1077.15,374.331 1084.81,374.831 1092.5,375C 1086.28,379.604 1080.28,384.437 1074.5,389.5C 1077,396.837 1079.17,404.171 1081,411.5C 1074.95,406.447 1068.61,401.781 1062,397.5C 1055.51,402.603 1049.01,406.937 1042.5,410.5C 1045.03,403.568 1047.37,396.568 1049.5,389.5C 1043.76,384.448 1037.76,379.615 1031.5,375C 1039.19,374.831 1046.85,374.331 1054.5,373.5C 1057.04,366.55 1059.37,359.55 1061.5,352.5 Z"/></g>
<g><path style="opacity:1" fill="#fefeff" d="M 1050.5,453.5 C 1114.43,487.133 1178.1,521.299 1241.5,556C 1243.81,556.497 1246.14,556.663 1248.5,556.5C 1248.5,560.833 1248.5,565.167 1248.5,569.5C 1087.17,569.5 925.833,569.5 764.5,569.5C 764.5,565.167 764.5,560.833 764.5,556.5C 820.339,529.247 876.006,501.414 931.5,473C 936.723,469.221 942.39,466.221 948.5,464C 949.047,463.075 949.713,462.242 950.5,461.5C 973.089,474.236 995.589,487.236 1018,500.5C 1016.75,494.717 1013.92,489.717 1009.5,485.5C 1021.69,476.141 1034.03,466.974 1046.5,458C 1048.04,456.629 1049.37,455.129 1050.5,453.5 Z"/></g>
<g><path style="opacity:1" fill="#f9d415" d="M 1311.5,471.5 C 1312.12,471.611 1312.62,471.944 1313,472.5C 1314.87,479.265 1317.03,485.932 1319.5,492.5C 1327.15,493.331 1334.81,493.831 1342.5,494C 1336.28,498.604 1330.28,503.437 1324.5,508.5C 1327,515.837 1329.17,523.171 1331,530.5C 1324.95,525.447 1318.61,520.781 1312,516.5C 1305.51,521.603 1299.01,525.937 1292.5,529.5C 1295.03,522.568 1297.37,515.568 1299.5,508.5C 1293.76,503.448 1287.76,498.615 1281.5,494C 1289.19,493.831 1296.85,493.331 1304.5,492.5C 1307.04,485.55 1309.37,478.55 1311.5,471.5 Z"/></g>
<g><path style="opacity:1" fill="#f9d415" d="M 708.5,479.5 C 709.117,479.611 709.617,479.944 710,480.5C 711.866,487.265 714.033,493.932 716.5,500.5C 724.145,501.331 731.812,501.831 739.5,502C 733.278,506.604 727.278,511.437 721.5,516.5C 724.005,523.837 726.172,531.171 728,538.5C 721.948,533.447 715.615,528.781 709,524.5C 702.512,529.603 696.012,533.937 689.5,537.5C 692.033,530.568 694.366,523.568 696.5,516.5C 690.762,511.448 684.762,506.615 678.5,502C 686.188,501.831 693.855,501.331 701.5,500.5C 704.039,493.55 706.372,486.55 708.5,479.5 Z"/></g>
<g><path style="opacity:1" fill="#fad414" d="M 1270.5,548.5 C 1271.12,548.611 1271.62,548.944 1272,549.5C 1273.87,556.265 1276.03,562.932 1278.5,569.5C 1286.15,570.331 1293.81,570.831 1301.5,571C 1295.28,575.604 1289.28,580.437 1283.5,585.5C 1286,592.837 1288.17,600.171 1290,607.5C 1283.95,602.447 1277.61,597.781 1271,593.5C 1264.51,598.603 1258.01,602.937 1251.5,606.5C 1254.03,599.568 1256.37,592.568 1258.5,585.5C 1252.76,580.448 1246.76,575.615 1240.5,571C 1248.19,570.831 1255.85,570.331 1263.5,569.5C 1266.04,562.55 1268.37,555.55 1270.5,548.5 Z"/></g>
<g><path style="opacity:1" fill="#fad414" d="M 756.5,561.5 C 757.117,561.611 757.617,561.944 758,562.5C 759.866,569.265 762.033,575.932 764.5,582.5C 772.145,583.331 779.812,583.831 787.5,584C 781.278,588.604 775.278,593.437 769.5,598.5C 772.005,605.837 774.172,613.171 776,620.5C 769.948,615.447 763.615,610.781 757,606.5C 750.512,611.603 744.012,615.937 737.5,619.5C 740.033,612.568 742.366,605.568 744.5,598.5C 738.762,593.448 732.762,588.615 726.5,584C 734.188,583.831 741.855,583.331 749.5,582.5C 752.039,575.55 754.372,568.55 756.5,561.5 Z"/></g>
<g><path style="opacity:1" fill="#fad414" d="M 1197.5,613.5 C 1198.12,613.611 1198.62,613.944 1199,614.5C 1200.87,621.265 1203.03,627.932 1205.5,634.5C 1213.15,635.331 1220.81,635.831 1228.5,636C 1222.28,640.604 1216.28,645.437 1210.5,650.5C 1213,657.837 1215.17,665.171 1217,672.5C 1210.95,667.447 1204.61,662.781 1198,658.5C 1191.51,663.603 1185.01,667.937 1178.5,671.5C 1181.03,664.568 1183.37,657.568 1185.5,650.5C 1179.76,645.448 1173.76,640.615 1167.5,636C 1175.19,635.831 1182.85,635.331 1190.5,634.5C 1193.04,627.55 1195.37,620.55 1197.5,613.5 Z"/></g>
<g><path style="opacity:1" fill="#fad414" d="M 821.5,618.5 C 822.117,618.611 822.617,618.944 823,619.5C 824.866,626.265 827.033,632.932 829.5,639.5C 837.145,640.331 844.812,640.831 852.5,641C 846.278,645.604 840.278,650.437 834.5,655.5C 837.005,662.837 839.172,670.171 841,677.5C 834.948,672.447 828.615,667.781 822,663.5C 815.512,668.603 809.012,672.937 802.5,676.5C 805.033,669.568 807.366,662.568 809.5,655.5C 803.762,650.448 797.762,645.615 791.5,641C 799.188,640.831 806.855,640.331 814.5,639.5C 817.039,632.55 819.372,625.55 821.5,618.5 Z"/></g>
<g><path style="opacity:1" fill="#fad414" d="M 915.5,639.5 C 916.117,639.611 916.617,639.944 917,640.5C 918.866,647.265 921.033,653.932 923.5,660.5C 931.145,661.331 938.812,661.831 946.5,662C 940.278,666.604 934.278,671.437 928.5,676.5C 931.005,683.837 933.172,691.171 935,698.5C 928.948,693.447 922.615,688.781 916,684.5C 909.512,689.603 903.012,693.937 896.5,697.5C 899.033,690.568 901.366,683.568 903.5,676.5C 897.762,671.448 891.762,666.615 885.5,662C 893.188,661.831 900.855,661.331 908.5,660.5C 911.039,653.55 913.372,646.55 915.5,639.5 Z"/></g>
<g><path style="opacity:1" fill="#fad414" d="M 1117.5,640.5 C 1118.12,640.611 1118.62,640.944 1119,641.5C 1120.87,648.265 1123.03,654.932 1125.5,661.5C 1133.15,662.331 1140.81,662.831 1148.5,663C 1142.28,667.604 1136.28,672.437 1130.5,677.5C 1133,684.837 1135.17,692.171 1137,699.5C 1130.95,694.447 1124.61,689.781 1118,685.5C 1111.51,690.603 1105.01,694.937 1098.5,698.5C 1101.03,691.568 1103.37,684.568 1105.5,677.5C 1099.76,672.448 1093.76,667.615 1087.5,663C 1095.19,662.831 1102.85,662.331 1110.5,661.5C 1113.04,654.55 1115.37,647.55 1117.5,640.5 Z"/></g>
<g><path style="opacity:1" fill="#fad414" d="M 1015.5,652.5 C 1016.12,652.611 1016.62,652.944 1017,653.5C 1018.87,660.265 1021.03,666.932 1023.5,673.5C 1031.15,674.331 1038.81,674.831 1046.5,675C 1040.28,679.604 1034.28,684.437 1028.5,689.5C 1031,696.837 1033.17,704.171 1035,711.5C 1028.95,706.447 1022.61,701.781 1016,697.5C 1009.51,702.603 1003.01,706.937 996.5,710.5C 999.033,703.568 1001.37,696.568 1003.5,689.5C 997.762,684.448 991.762,679.615 985.5,675C 993.188,674.831 1000.85,674.331 1008.5,673.5C 1011.04,666.55 1013.37,659.55 1015.5,652.5 Z"/></g>
<g><path style="opacity:1" fill="#fed800" d="M -0.5,758.5 C 666.167,758.5 1332.83,758.5 1999.5,758.5C 1999.5,762.5 1999.5,766.5 1999.5,770.5C 1332.83,770.5 666.167,770.5 -0.5,770.5C -0.5,766.5 -0.5,762.5 -0.5,758.5 Z"/></g>
<g><path style="opacity:1" fill="#fefffe" d="M -0.5,770.5 C 666.167,770.5 1332.83,770.5 1999.5,770.5C 1999.5,811.5 1999.5,852.5 1999.5,893.5C 1332.83,893.5 666.167,893.5 -0.5,893.5C -0.5,852.5 -0.5,811.5 -0.5,770.5 Z"/></g>
<g><path style="opacity:1" fill="#fed800" d="M -0.5,893.5 C 666.167,893.5 1332.83,893.5 1999.5,893.5C 1999.5,897.5 1999.5,901.5 1999.5,905.5C 1332.83,905.5 666.167,905.5 -0.5,905.5C -0.5,901.5 -0.5,897.5 -0.5,893.5 Z"/></g>
<g><path style="opacity:1" fill="#3365ff" d="M -0.5,905.5 C 666.167,905.5 1332.83,905.5 1999.5,905.5C 1999.5,944.5 1999.5,983.5 1999.5,1022.5C 1332.83,1022.5 666.167,1022.5 -0.5,1022.5C -0.5,983.5 -0.5,944.5 -0.5,905.5 Z"/></g>
</svg>
