<?xml version="1.0" encoding="UTF-8"?>
<!DOCTYPE svg PUBLIC "-//W3C//DTD SVG 1.1//EN" "http://www.w3.org/Graphics/SVG/1.1/DTD/svg11.dtd">
<!-- Creator: CorelDRAW -->
<svg xmlns="http://www.w3.org/2000/svg" xml:space="preserve" width="114.3mm" height="76.2mm" style="shape-rendering:geometricPrecision; text-rendering:geometricPrecision; image-rendering:optimizeQuality; fill-rule:evenodd; clip-rule:evenodd"
viewBox="0 0 114.3 76.2"
 xmlns:xlink="http://www.w3.org/1999/xlink">
 <defs>
  <style type="text/css">
   <![CDATA[
    .fil0 {fill:#0099FF}
    .fil1 {fill:white}
   ]]>
  </style>
 </defs>
 <g id="Layer_x0020_1">
  <metadata id="CorelCorpID_0Corel-Layer"/>
  <g id="_59401832">
   <polygon id="_58892880" class="fil0" points="0,7.7611 114.3,7.7611 114.3,0 0,0 "/>
   <polygon id="_58342168" class="fil1" points="0,17.6389 114.3,17.6389 114.3,7.7611 0,7.7611 "/>
   <path id="_58569792" class="fil0" d="M49.0299 33.1521l8.1863 5.3951 7.6788 -5.3625 20.1244 14.0875 -56.2496 -0.2304 20.2601 -13.8897zm-49.0299 25.409l114.3 0 0 -40.9222 -114.3 0 0 40.9222z"/>
   <polygon id="_58380160" class="fil1" points="28.7698,47.0418 85.0194,47.2722 64.895,33.1847 57.2162,38.5472 49.0299,33.1521 "/>
   <polygon id="_59251040" class="fil1" points="0,68.4389 114.3,68.4389 114.3,58.5611 0,58.5611 "/>
   <polygon id="_59297512" class="fil0" points="0,76.2 114.3,76.2 114.3,68.4389 0,68.4389 "/>
  </g>
 </g>
</svg>
