<?xml version="1.0" encoding="UTF-8"?>
<!DOCTYPE svg PUBLIC "-//W3C//DTD SVG 1.1//EN" "http://www.w3.org/Graphics/SVG/1.1/DTD/svg11.dtd">
<!-- Creator: CorelDRAW X8 -->
<svg xmlns="http://www.w3.org/2000/svg" xml:space="preserve" width="59.2666mm" height="42.3332mm" version="1.1" style="shape-rendering:geometricPrecision; text-rendering:geometricPrecision; image-rendering:optimizeQuality; fill-rule:evenodd; clip-rule:evenodd"
viewBox="0 0 5927 4233"
 xmlns:xlink="http://www.w3.org/1999/xlink"
 xmlns:dc="http://purl.org/dc/elements/1.1/"
 xmlns:cc="http://creativecommons.org/ns#"
 xmlns:rdf="http://www.w3.org/1999/02/22-rdf-syntax-ns#"
 xmlns:svg="http://www.w3.org/2000/svg"
 xmlns:sodipodi="http://sodipodi.sourceforge.net/DTD/sodipodi-0.dtd"
 xmlns:inkscape="http://www.inkscape.org/namespaces/inkscape"
 sodipodi:docname="Flag of the Philippines_resized_corrected.svg"
 inkscape:version="0.92.4 (5da689c313, 2019-01-14)">
 <defs>
  <style type="text/css">
   <![CDATA[
    .fil5 {fill:black}
    .fil1 {fill:#008C00}
    .fil2 {fill:#00C6FF}
    .fil6 {fill:#640000}
    .fil0 {fill:#FE0000}
    .fil4 {fill:#FEC703}
    .fil3 {fill:white}
   ]]>
  </style>
 </defs>
 <g id="Слой_x0020_1">
  <metadata id="CorelCorpID_0Corel-Layer"/>
  <g id="Flag_of_Negros_Republic.svg">
   <sodipodi:namedview pagecolor="#ffffff" bordercolor="#666666" borderopacity="1" objecttolerance="10" gridtolerance="10" guidetolerance="10" inkscape:pageopacity="0" inkscape:pageshadow="2" inkscape:window-width="1024" inkscape:window-height="548" id="namedview20153" showgrid="false" fit-margin-top="0" fit-margin-left="0" fit-margin-right="0" fit-margin-bottom="0" inkscape:zoom="0.42656978" inkscape:cx="450" inkscape:cy="191.36289" inkscape:window-x="-8" inkscape:window-y="-8" inkscape:window-maximized="1" inkscape:current-layer="g32"/>
   <rect id="rect8" class="fil0" y="1" width="5927" height="4242"/>
   <rect id="rect10" class="fil1" y="2122" width="5927" height="2121"/>
   <g>
    <path id="path12" class="fil2" d="M2566 2122l-2566 2121 0 -4242 2566 2121zm0 0l0 0 0 0z" inkscape:connector-curvature="0"/>
   </g>
  </g>
  <g>
   <path class="fil3" d="M2337 2070c17,6 70,38 83,33 14,-6 51,-56 61,-56l-9 86 75 42 -85 17 -17 85 -43 -75 -87 11 61 -63 -39 -80zm237 264c-44,206 -311,280 -462,129 -74,-75 -100,-181 -67,-281 15,-45 40,-84 74,-116 13,-12 114,-79 123,-64 -129,99 -176,257 -52,382 84,84 218,95 315,24 8,-6 67,-76 69,-75l0 1zm109 -573c-2,0 -100,34 -115,37 -137,36 -282,44 -423,32 -238,-21 -264,-116 -404,125 -26,44 -89,173 -65,220 2,4 128,128 151,157 86,107 175,279 205,413 30,136 18,117 160,146 72,15 210,11 281,-10 49,-14 50,-53 56,-96 6,-41 20,-80 36,-119 51,-131 148,-268 246,-369 50,-52 138,-99 123,-170 -14,-67 -57,-158 -97,-215 -20,-29 -122,-150 -154,-151z"/>
   <path class="fil4" d="M1158 2554l11 -7c8,13 10,19 11,34 2,20 9,10 17,27 13,28 -13,32 -16,45 -2,6 3,4 -9,11 -14,-11 -20,-37 -14,-55 12,-32 12,-22 0,-55zm25 -950c-90,25 -94,132 -121,188 -37,-4 -26,-101 -28,-128 -68,40 -66,287 -67,288 -77,30 -65,-154 -70,-193 -52,35 -61,187 -25,245 13,20 66,89 28,106 -30,14 -82,-40 -104,-52 9,49 46,121 72,164 19,31 85,124 94,145l-108 113 3 6 175 -99c19,12 -40,47 -52,54 -24,13 -64,22 -57,56 42,4 43,-24 82,37 18,27 36,55 56,81 36,50 82,102 129,143 76,67 133,207 231,139 50,-34 4,-77 27,-88l14 33c17,-23 16,-42 12,-70 -6,-44 -20,-31 -46,-41 -10,-18 -20,-59 -22,-80 -8,-59 -10,-33 -34,-68 3,-51 23,-81 -6,-136 -28,-56 -68,-42 -101,-60 26,-42 216,-24 262,-12 75,19 144,55 207,100 135,95 198,193 293,321 12,-23 -79,-240 -97,-276 -121,-241 -344,-441 -606,-519 -315,-93 -458,141 -334,276 75,82 220,23 214,-86 -3,-53 -40,-104 -96,-75 -76,39 -10,113 -17,122 -23,17 -69,-102 17,-137 75,-32 116,47 109,111 -13,122 -193,170 -263,37 -67,-127 17,-168 48,-244 10,-25 27,-52 43,-74 106,-137 205,-101 349,-111 -15,-92 7,-93 42,-166 -99,0 -168,114 -184,124 -59,-88 105,-174 118,-194 -63,-13 -150,95 -177,144 -5,9 -21,49 -26,51 -20,6 -28,-36 -27,-51 4,-49 28,-81 43,-124z"/>
   <path class="fil5" d="M2303 3064c40,0 82,-3 122,-9 14,-3 98,-23 102,-18 17,22 41,183 200,320 29,26 39,36 75,54 18,8 92,30 94,32l-165 21c-272,0 -472,-155 -556,-408l128 8zm919 -102c-7,-8 -12,-27 -7,-39 4,-13 24,-11 35,-9 5,17 -14,40 -28,48zm-1185 -118c-148,-51 -307,-232 -349,-382 90,48 324,289 349,382zm-311 -262c157,275 476,393 786,300 3,38 0,69 8,108 7,42 -29,38 -65,45 -68,13 -144,18 -213,12 -126,-10 -236,-45 -345,-110 -192,-116 -335,-323 -367,-546 173,44 123,63 196,191zm992 169c-11,-51 65,-251 89,-306 14,-33 118,-246 135,-260 28,78 -13,264 -50,341 -20,44 -134,220 -174,225zm412 573c-8,-71 -9,-142 -106,-155 -67,-9 -141,45 -156,109 -20,86 101,105 156,69 102,-67 -7,-170 -46,-102 -20,36 67,-41 72,21 3,36 -20,67 -54,79 -83,27 -159,-32 -88,-112 138,-156 296,73 157,172 -119,85 -292,-12 -375,-104 -96,-106 -158,-223 -162,-369 -8,-247 180,-544 367,-696 -72,166 -149,268 -185,459 -17,89 -20,193 26,274 31,52 141,142 200,113 8,-55 -101,-16 -29,-176 24,-54 59,-112 93,-160 23,-33 100,-124 146,-97 43,27 -9,55 -25,71 -79,78 -134,248 -32,237 73,-9 54,-117 75,-179 9,-29 24,-61 43,-84 22,-27 66,-39 77,4 10,40 -11,67 -20,103 -11,49 15,53 -20,97 -59,12 -47,20 -36,73l-24 20 4 5c10,9 63,-38 70,-52 14,-23 -6,-80 39,-81 33,41 9,121 23,162 18,51 69,58 107,79 -30,77 -156,12 -179,81 -13,38 -71,140 -118,139zm-447 -1563c32,1 134,122 154,151 40,57 83,148 97,215 15,71 -73,118 -123,170 -98,101 -195,238 -246,369 -16,39 -30,78 -36,119 -6,43 -7,82 -56,96 -71,21 -209,25 -281,10 -142,-29 -130,-10 -160,-146 -30,-134 -119,-306 -205,-413 -23,-29 -149,-153 -151,-157 -24,-47 39,-176 65,-220 140,-241 166,-146 404,-125 141,12 286,4 423,-32 15,-3 113,-37 115,-37zm-1669 254c36,-95 121,-166 222,-179 88,-11 296,1 388,11l-5 -2 -96 228 5 2c-84,-29 -136,-74 -240,-98 -114,-26 -175,-16 -274,38zm1808 -329c191,148 284,430 259,665 -13,123 -55,241 -123,345 -21,32 -197,248 -229,214 -13,-13 -17,-83 -17,-102 1,-39 17,-50 45,-72 36,-28 81,-88 106,-127 141,-221 130,-503 -21,-714 -37,-53 -68,-81 -116,-122 -37,-31 58,-62 96,-87zm-929 92c77,-53 113,-81 205,-112 56,-19 230,-48 277,-27 -86,53 -383,138 -482,139zm-710 -174c-15,43 -39,75 -43,124 -1,15 7,57 27,51 5,-2 21,-42 26,-51 27,-49 114,-157 177,-144 -13,20 -177,106 -118,194 16,-10 85,-124 184,-124 -35,73 -57,74 -42,166 -144,10 -243,-26 -349,111 -16,22 -33,49 -43,74 -31,76 -115,117 -48,244 70,133 250,85 263,-37 7,-64 -34,-143 -109,-111 -86,35 -40,154 -17,137 7,-9 -59,-83 17,-122 56,-29 93,22 96,75 6,109 -139,168 -214,86 -124,-135 19,-369 334,-276 262,78 485,278 606,519 18,36 109,253 97,276 -95,-128 -158,-226 -293,-321 -63,-45 -132,-81 -207,-100 -46,-12 -236,-30 -262,12 33,18 73,4 101,60 29,55 9,85 6,136 24,35 26,9 34,68 2,21 12,62 22,80 26,10 40,-3 46,41 4,28 5,47 -12,70l-14 -33c-23,11 23,54 -27,88 -98,68 -155,-72 -231,-139 -47,-41 -93,-93 -129,-143 -20,-26 -38,-54 -56,-81 -39,-61 -40,-33 -82,-37 -7,-34 33,-43 57,-56 12,-7 71,-42 52,-54l-175 99 -3 -6 108 -113c-9,-21 -75,-114 -94,-145 -26,-43 -63,-115 -72,-164 22,12 74,66 104,52 38,-17 -15,-86 -28,-106 -36,-58 -27,-210 25,-245 5,39 -7,223 70,193 1,-1 -1,-248 67,-288 2,27 -9,124 28,128 27,-56 31,-163 121,-188zm467 554c-20,-18 -44,-33 -66,-48 -35,-24 -49,-15 -32,-63 20,-60 36,-104 67,-160 50,-93 125,-177 209,-242 211,-162 455,-194 709,-125 -29,36 -66,62 -105,88 -48,30 -113,10 -169,13 -196,11 -381,110 -497,269 -81,112 -72,154 -116,268zm591 -816c26,-14 35,-36 47,-61 4,11 8,31 7,42 -16,10 -35,19 -54,19zm-20 -5c-7,-18 -18,-102 -15,-120 19,1 64,31 67,55 2,23 -33,60 -52,65zm6 -129c12,-12 41,-23 51,-43l6 93c-8,-24 -38,-38 -57,-50zm-25 120c-37,-7 -173,-124 -189,-163 23,10 53,36 81,49 42,20 58,17 98,28l10 86zm940 152c3,145 -61,282 -143,398 -10,-10 -42,-65 -55,-83 -91,-122 -125,-100 -87,-144 22,-26 40,-49 59,-78 96,-149 81,-274 20,-431 125,48 203,211 206,338zm-937 -399c18,-2 74,31 69,60 -3,21 -50,58 -72,60l3 -120zm-251 75c-7,-19 -4,-43 12,-56 15,20 5,42 -12,56zm56 -15c47,-15 122,-74 179,-64l1 148c-39,5 -163,-55 -180,-84zm471 82c-27,3 16,52 -88,15 -39,-13 -56,-34 -59,-76 -5,-96 71,-110 145,-127 82,-19 167,-26 251,-19 24,2 94,11 115,19 12,6 56,65 56,74 -14,4 -78,-15 -126,-3 -149,36 -107,204 -5,231 90,23 149,-107 74,-136 -35,-14 -83,16 -75,54 13,64 89,16 56,-7l-19 26c-59,-7 8,-102 48,-48 28,38 -11,93 -53,99 -82,10 -157,-127 -70,-186 41,-27 93,-27 140,-20 56,9 62,43 77,91 32,97 31,191 -8,286 -72,177 -207,247 -385,291 -100,25 -202,35 -305,34 -31,-1 -292,-20 -302,-36 189,-44 377,-75 537,-197 76,-57 135,-135 133,-234 -2,-105 -54,-157 -73,-203 -7,-16 -11,-57 -31,-50 -8,38 126,247 -135,228 -97,-6 -70,-113 -21,-91 33,15 45,19 81,27 44,10 53,-34 42,-42zm-181 35c-7,-18 -7,-90 -5,-111 4,-35 7,-61 47,-67 -3,15 -20,35 -22,67 -2,38 8,42 17,72 -8,7 -14,6 -23,16 -6,8 -9,17 -14,23zm-29 -206l28 29c-2,5 -11,30 -13,34 -9,-8 -16,-17 -26,-25 -10,-7 -22,-11 -32,-18l43 -20zm11 -7c3,-7 7,-9 12,-17 5,-6 5,-12 9,-18l34 15c-3,10 -24,33 -33,42l-22 -22zm-75 18c2,-24 17,-91 32,-107 92,38 33,96 -32,107zm611 -76l17 30 -30 -10 13 -20zm-107 13c4,-9 15,-16 22,-22l39 28 -61 -6zm-169 7c12,-23 51,-23 75,-26 13,-2 32,-9 43,-2 4,2 26,18 27,20 -21,2 -50,0 -74,2 -18,1 -56,7 -71,6zm-48 -32c15,9 21,13 30,26 -18,19 -37,21 -53,-4l23 -22zm-89 22c4,-7 12,-16 16,-21l53 44c-4,3 -14,6 -21,6 -11,2 -9,1 -18,-6 -10,-8 -21,-14 -30,-23zm-62 -27l84 62 -106 39c3,-10 26,-26 30,-41 5,-22 -22,-22 -35,-31l27 -29zm-340 159c29,-61 147,-161 215,-172l-26 104c-108,18 -104,37 -189,68zm300 -206c11,5 30,16 37,27l-38 43c-5,-5 -7,-12 -12,-18 -5,-7 -11,-9 -15,-15l28 -37zm443 47c3,-17 7,-5 2,-27 -3,-10 1,-12 10,-18 17,8 58,50 35,72 -18,1 -33,-18 -47,-27zm-464 -44l-20 27 -15 -10 35 -17zm416 2c15,6 31,10 38,25 -4,9 -28,30 -38,36l-28 -22c12,-26 -6,-29 -21,-44 31,-6 20,-8 49,5zm-272 -29l65 56c-6,12 -20,26 -32,33l-29 -23c4,-36 -7,-23 -27,-46l23 -20zm75 -5c11,6 73,47 76,53 -1,16 -28,35 -41,45l-31 -28c4,-31 -19,-27 -34,-48l30 -22zm73 6c16,7 84,40 86,56 -11,8 -62,14 -77,15 4,-12 15,-17 4,-34 -6,-11 -20,-13 -29,-23l16 -14zm-260 11c31,-15 31,-20 56,1 12,10 39,29 47,38 -2,10 -17,32 -25,38l-39 -29c-2,-40 -20,-25 -39,-48zm422 17c-10,-2 -34,-13 -45,-18 -7,-4 -21,-28 -24,-36 20,4 65,27 79,41 -3,7 -4,8 -10,13zm-282 -62c13,-2 30,-8 42,-5 8,18 -2,19 -37,47l-22 -20c13,-12 11,-8 17,-22zm-22 6l-40 39 -25 -22 65 -17zm112 34l-32 -21c-1,-13 3,-12 -2,-26 9,-3 32,-5 41,-3 9,1 20,14 25,23l-32 27zm42 -16c5,-16 5,-23 -10,-33 15,-1 44,3 59,7 14,4 27,25 32,39 -27,18 -58,3 -81,-13zm-663 231c-60,-2 -161,-20 -175,-92 -11,-56 38,-152 77,-191 123,-125 281,-122 375,-161 -21,95 -131,186 -212,232 -41,24 -119,44 -141,83 -29,52 37,107 76,129zm-47 -345c3,-12 92,-97 108,-110 22,-19 123,-62 152,-63 -1,4 -19,21 -24,35 -9,31 12,32 14,42l-2 -6 -248 102zm77 -179c-42,64 3,60 2,74 0,7 -409,365 -122,450 26,8 101,7 57,27 -205,91 -220,-111 -159,-254 38,-88 142,-244 222,-297zm58 -53c-127,60 -249,232 -299,360 -70,178 -3,320 146,271 27,-9 34,-13 58,-27 26,-15 19,17 37,24 42,-6 6,-62 56,13 15,23 41,50 62,69 21,17 135,103 154,105 39,5 66,-28 96,-25 56,6 159,29 211,-33 33,-41 14,-58 29,-93 34,69 58,136 33,217 -38,121 -66,71 -167,55 -300,-46 -587,76 -767,316 -40,53 -22,37 -94,32 -44,-3 -89,-4 -133,-6 -91,-2 29,-180 29,-181 -98,-27 -183,97 -205,103 2,-99 118,-130 167,-174 -89,2 -99,-4 -170,55 -39,32 -85,127 -94,134 -27,-56 42,-137 52,-179 -38,4 -81,36 -104,65 -24,31 -52,114 -55,117l-5 -132c-114,72 -79,287 -96,313 -49,0 -35,-184 -40,-218 -179,191 2,326 -16,371 -27,11 -95,-56 -117,-73 -3,99 112,259 162,339l-118 136 6 7 88 -29 -30 50c77,1 45,-74 129,50 28,42 62,89 98,125 41,41 189,211 225,224 73,26 103,-35 137,-78 20,-25 17,-62 9,-91 -11,-48 -43,-20 -55,-57 -8,-25 -11,-75 -19,-93 -29,-58 -20,-1 -16,-79 5,-80 -21,-103 -80,-144l2 -8 192 4 0 7c36,101 40,165 97,267 81,148 227,277 383,344 53,23 85,28 138,44 56,16 50,64 75,109 95,172 213,282 413,317 139,24 195,-3 323,-19 214,-26 103,-53 231,-135 40,-25 66,-57 80,-101 23,-73 69,-42 125,-56 33,-8 99,-48 35,-74 -59,-24 -78,-29 -82,-101 -5,-108 19,-59 -43,-137 -32,-39 24,-84 12,-140 -20,-94 -124,-45 -156,119 -8,41 6,126 -60,122 -80,-5 -13,-170 64,-230 62,-47 9,-95 -35,-80 -93,34 -203,222 -231,315 -31,105 37,89 45,124 -83,0 -152,-62 -187,-132 50,-56 112,-93 167,-156 52,-59 96,-128 127,-200 75,-171 89,-371 35,-551 -42,-135 -84,-96 -8,-217 39,-63 77,-162 90,-235 32,-172 -29,-358 -188,-445 -126,-69 -113,-264 -357,-294 -94,-11 -184,12 -271,44 -42,16 -191,83 -221,106 -30,24 -62,50 -83,82 -33,51 -30,21 -66,21 -46,-1 -48,20 -87,-34 -79,-110 105,-96 228,-217 47,-47 121,-134 120,-204 -18,11 -77,59 -96,14 -13,-30 54,-63 64,-76 -59,-7 -213,82 -239,69 -12,-26 46,-83 60,-105z"/>
   <path class="fil4" d="M3130 3324c47,1 105,-101 118,-139 23,-69 149,-4 179,-81 -38,-21 -89,-28 -107,-79 -14,-41 10,-121 -23,-162 -45,1 -25,58 -39,81 -7,14 -60,61 -70,52l-4 -5 24 -20c-11,-53 -23,-61 36,-73 35,-44 9,-48 20,-97 9,-36 30,-63 20,-103 -11,-43 -55,-31 -77,-4 -19,23 -34,55 -43,84 -21,62 -2,170 -75,179 -102,11 -47,-159 32,-237 16,-16 68,-44 25,-71 -46,-27 -123,64 -146,97 -34,48 -69,106 -93,160 -72,160 37,121 29,176 -59,29 -169,-61 -200,-113 -46,-81 -43,-185 -26,-274 36,-191 113,-293 185,-459 -187,152 -375,449 -367,696 4,146 66,263 162,369 83,92 256,189 375,104 139,-99 -19,-328 -157,-172 -71,80 5,139 88,112 34,-12 57,-43 54,-79 -5,-62 -92,15 -72,-21 39,-68 148,35 46,102 -55,36 -176,17 -156,-69 15,-64 89,-118 156,-109 97,13 98,84 106,155z"/>
   <path class="fil4" d="M2481 1223c11,8 2,52 -42,42 -36,-8 -48,-12 -81,-27 -49,-22 -76,85 21,91 261,19 127,-190 135,-228 20,-7 24,34 31,50 19,46 71,98 73,203 2,99 -57,177 -133,234 -160,122 -348,153 -537,197 10,16 271,35 302,36 103,1 205,-9 305,-34 178,-44 313,-114 385,-291 39,-95 40,-189 8,-286 -15,-48 -21,-82 -77,-91 -47,-7 -99,-7 -140,20 -87,59 -12,196 70,186 42,-6 81,-61 53,-99 -40,-54 -107,41 -48,48l19 -26c33,23 -43,71 -56,7 -8,-38 40,-68 75,-54 75,29 16,159 -74,136 -102,-27 -144,-195 5,-231 48,-12 112,7 126,3 0,-9 -44,-68 -56,-74 -21,-8 -91,-17 -115,-19 -84,-7 -169,0 -251,19 -74,17 -150,31 -145,127 3,42 20,63 59,76 104,37 61,-12 88,-15z"/>
   <path class="fil4" d="M2822 1686c-38,25 -133,56 -96,87 48,41 79,69 116,122 151,211 162,493 21,714 -25,39 -70,99 -106,127 -28,22 -44,33 -45,72 0,19 4,89 17,102 32,34 208,-182 229,-214 68,-104 110,-222 123,-345 25,-235 -68,-517 -259,-665z"/>
   <path class="fil4" d="M2512 2882c-310,93 -629,-25 -786,-300 -73,-128 -23,-147 -196,-191 32,223 175,430 367,546 109,65 219,100 345,110 69,6 145,1 213,-12 36,-7 72,-3 65,-45 -8,-39 -5,-70 -8,-108z"/>
   <path class="fil4" d="M1650 2158c44,-114 35,-156 116,-268 116,-159 301,-258 497,-269 56,-3 121,17 169,-13 39,-26 76,-52 105,-88 -254,-69 -498,-37 -709,125 -84,65 -159,149 -209,242 -31,56 -47,100 -67,160 -17,48 -3,39 32,63 22,15 46,30 66,48z"/>
   <path class="fil4" d="M2303 3064l-128 -8c84,253 284,408 556,408l165 -21c-2,-2 -76,-24 -94,-32 -36,-18 -46,-28 -75,-54 -159,-137 -183,-298 -200,-320 -4,-5 -88,15 -102,18 -40,6 -82,9 -122,9z"/>
   <path class="fil4" d="M2999 1878c82,-116 146,-253 143,-398 -3,-127 -81,-290 -206,-338 61,157 76,282 -20,431 -19,29 -37,52 -59,78 -38,44 -4,22 87,144 13,18 45,73 55,83z"/>
   <path class="fil4" d="M1014 2015c99,-54 160,-64 274,-38 104,24 156,69 240,98l-5 -2 96 -228 5 2c-92,-10 -300,-22 -388,-11 -101,13 -186,84 -222,179z"/>
   <path class="fil4" d="M1923 1121c-39,-22 -105,-77 -76,-129 22,-39 100,-59 141,-83 81,-46 191,-137 212,-232 -94,39 -252,36 -375,161 -39,39 -88,135 -77,191 14,72 115,90 175,92z"/>
   <path class="fil3" d="M2718 2751c40,-5 154,-181 174,-225 37,-77 78,-263 50,-341 -17,14 -121,227 -135,260 -24,55 -100,255 -89,306z"/>
   <path class="fil4" d="M2524 2412c-116,72 -239,86 -343,-18 -44,-43 -71,-103 -75,-164 -5,-86 19,-111 56,-179 -138,89 -156,286 -40,402 115,115 314,98 402,-41z"/>
   <path class="fil4" d="M1953 597c-80,53 -184,209 -222,297 -61,143 -46,345 159,254 44,-20 -31,-19 -57,-27 -287,-85 122,-443 122,-450 1,-14 -44,-10 -2,-74z"/>
   <path class="fil3" d="M2037 2844c-25,-93 -259,-334 -349,-382 42,150 201,331 349,382z"/>
   <path class="fil5" d="M2524 2412c-88,139 -287,156 -402,41 -116,-116 -98,-313 40,-402 -37,68 -61,93 -56,179 4,61 31,121 75,164 104,104 227,90 343,18zm50 -78l0 -1c-2,-1 -61,69 -69,75 -97,71 -231,60 -315,-24 -124,-125 -77,-283 52,-382 -9,-15 -110,52 -123,64 -34,32 -59,71 -74,116 -33,100 -7,206 67,281 151,151 418,77 462,-129z"/>
   <path class="fil3" d="M1893 1778c99,-1 396,-86 482,-139 -47,-21 -221,8 -277,27 -92,31 -128,59 -205,112z"/>
   <path class="fil4" d="M2010 1141c17,29 141,89 180,84l-1 -148c-57,-10 -132,49 -179,64z"/>
   <path class="fil4" d="M1876 776l248 -102 2 6c-2,-10 -23,-11 -14,-42 5,-14 23,-31 24,-35 -29,1 -130,44 -152,63 -16,13 -105,98 -108,110z"/>
   <path class="fil4" d="M2003 1129c85,-31 81,-50 189,-68l26 -104c-68,11 -186,111 -215,172z"/>
   <path class="fil5" d="M2505 2168l-55 12 -10 55 -30 -49 -56 8 38 -42 -25 -52 52 22 43 -38c1,17 -11,46 -2,58 10,12 36,16 45,26zm-168 -98l39 80 -61 63 87 -11 43 75 17 -85 85 -17 -75 -42 9 -86c-10,0 -47,50 -61,56 -13,5 -66,-27 -83,-33z"/>
   <path class="fil4" d="M2202 1328l-10 -86c-40,-11 -56,-8 -98,-28 -28,-13 -58,-39 -81,-49 16,39 152,156 189,163z"/>
   <path class="fil4" d="M2505 2168c-9,-10 -35,-14 -45,-26 -9,-12 3,-41 2,-58l-43 38 -52 -22 25 52 -38 42 56 -8 30 49 10 -55 55 -12z"/>
   <path class="fil4" d="M2202 1201c22,-2 69,-39 72,-60 5,-29 -51,-62 -69,-60l-3 120z"/>
   <path class="fil4" d="M2207 1063c65,-11 124,-69 32,-107 -15,16 -30,83 -32,107z"/>
   <path class="fil4" d="M2221 1337c19,-5 54,-42 52,-65 -3,-24 -48,-54 -67,-55 -3,18 8,102 15,120z"/>
   <path class="fil4" d="M2471 916c15,21 38,17 34,48l31 28c13,-10 40,-29 41,-45 -3,-6 -65,-47 -76,-53l-30 22z"/>
   <path class="fil4" d="M2300 1258c5,-6 8,-15 14,-23 9,-10 15,-9 23,-16 -9,-30 -19,-34 -17,-72 2,-32 19,-52 22,-67 -40,6 -43,32 -47,67 -2,21 -2,93 5,111z"/>
   <path class="fil4" d="M2316 999c13,9 40,9 35,31 -4,15 -27,31 -30,41l106 -39 -84 -62 -27 29z"/>
   <path class="fil4" d="M2314 911c19,23 37,8 39,48l39 29c8,-6 23,-28 25,-38 -8,-9 -35,-28 -47,-38 -25,-21 -25,-16 -56,-1z"/>
   <path class="fil4" d="M2403 919c20,23 31,10 27,46l29 23c12,-7 26,-21 32,-33l-65 -56 -23 20z"/>
   <path class="fil4" d="M2558 914c9,10 23,12 29,23 11,17 0,22 -4,34 15,-1 66,-7 77,-15 -2,-16 -70,-49 -86,-56l-16 14z"/>
   <path class="fil4" d="M2649 923c15,15 33,18 21,44l28 22c10,-6 34,-27 38,-36 -7,-15 -23,-19 -38,-25 -29,-13 -18,-11 -49,-5z"/>
   <path class="fil4" d="M2586 890c23,16 54,31 81,13 -5,-14 -18,-35 -32,-39 -15,-4 -44,-8 -59,-7 15,10 15,17 10,33z"/>
   <path class="fil5" d="M1171 2635c-2,-11 -3,-21 6,-29 13,9 11,30 -6,29zm26 -27c-8,-17 -15,-7 -17,-27 -1,-15 -3,-21 -11,-34l-11 7c12,33 12,23 0,55 -6,18 0,44 14,55 12,-7 7,-5 9,-11 3,-13 29,-17 16,-45z"/>
   <path class="fil4" d="M2542 1007c15,1 53,-5 71,-6 24,-2 53,0 74,-2 -1,-2 -23,-18 -27,-20 -11,-7 -30,0 -43,2 -24,3 -63,3 -75,26z"/>
   <path class="fil4" d="M2746 970c14,9 29,28 47,27 23,-22 -18,-64 -35,-72 -9,6 -13,8 -10,18 5,22 1,10 -2,27z"/>
   <path class="fil4" d="M2275 960c4,6 10,8 15,15 5,6 7,13 12,18l38 -43c-7,-11 -26,-22 -37,-27l-28 37z"/>
   <path class="fil4" d="M2510 859c5,14 1,13 2,26l32 21 32 -27c-5,-9 -16,-22 -25,-23 -9,-2 -32,0 -41,3z"/>
   <path class="fil4" d="M2227 1208c19,12 49,26 57,50l-6 -93c-10,20 -39,31 -51,43z"/>
   <path class="fil4" d="M2228 1072c10,7 22,11 32,18 10,8 17,17 26,25 2,-4 11,-29 13,-34l-28 -29 -43 20z"/>
   <path class="fil4" d="M2454 866c-6,14 -4,10 -17,22l22 20c35,-28 45,-29 37,-47 -12,-3 -29,3 -42,5z"/>
   <path class="fil4" d="M2736 928c6,-5 7,-6 10,-13 -14,-14 -59,-37 -79,-41 3,8 17,32 24,36 11,5 35,16 45,18z"/>
   <path class="fil4" d="M2282 1045l22 22c9,-9 30,-32 33,-42l-34 -15c-4,6 -4,12 -9,18 -5,8 -9,10 -12,17z"/>
   <path class="fil4" d="M2405 997c9,9 20,15 30,23 9,7 7,8 18,6 7,0 17,-3 21,-6l-53 -44c-4,5 -12,14 -16,21z"/>
   <path class="fil4" d="M3222 2962c14,-8 33,-31 28,-48 -11,-2 -31,-4 -35,9 -5,12 0,31 7,39z"/>
   <path class="fil4" d="M2471 997c16,25 35,23 53,4 -9,-13 -15,-17 -30,-26l-23 22z"/>
   <path class="fil4" d="M2241 1342c19,0 38,-9 54,-19 1,-11 -3,-31 -7,-42 -12,25 -21,47 -47,61z"/>
   <polygon class="fil4" points="2367,889 2392,911 2432,872 "/>
   <path class="fil4" d="M1954 1156c17,-14 27,-36 12,-56 -16,13 -19,37 -12,56z"/>
   <path class="fil4" d="M2711 1000l61 6 -39 -28c-7,6 -18,13 -22,22z"/>
   <polygon class="fil4" points="2805,1007 2835,1017 2818,987 "/>
   <path class="fil4" d="M1171 2635c17,1 19,-20 6,-29 -9,8 -8,18 -6,29z"/>
   <polygon class="fil4" points="2247,943 2262,953 2282,926 "/>
   <polygon class="fil6" points="2011,544 2014,543 2012,542 "/>
  </g>
 </g>
</svg>
