<?xml version="1.0" encoding="UTF-8" standalone="no"?>
<!-- Created with Inkscape (http://www.inkscape.org/) -->

<svg
   xmlns:dc="http://purl.org/dc/elements/1.1/"
   xmlns:cc="http://creativecommons.org/ns#"
   xmlns:rdf="http://www.w3.org/1999/02/22-rdf-syntax-ns#"
   xmlns:svg="http://www.w3.org/2000/svg"
   xmlns="http://www.w3.org/2000/svg"
   xmlns:sodipodi="http://sodipodi.sourceforge.net/DTD/sodipodi-0.dtd"
   xmlns:inkscape="http://www.inkscape.org/namespaces/inkscape"
   width="184.14999mm"
   height="92.074997mm"
   viewBox="0 0 184.14999 92.074997"
   version="1.1"
   id="svg7402"
   inkscape:version="0.92.4 (5da689c313, 2019-01-14)"
   sodipodi:docname="West Azerbaijan.svg">
  <defs
     id="defs7396" />
  <sodipodi:namedview
     id="base"
     pagecolor="#ffffff"
     bordercolor="#666666"
     borderopacity="1.0"
     inkscape:pageopacity="0.0"
     inkscape:pageshadow="2"
     inkscape:zoom="0.35"
     inkscape:cx="808.02497"
     inkscape:cy="-391.5621"
     inkscape:document-units="mm"
     inkscape:current-layer="layer1"
     showgrid="false"
     fit-margin-top="0"
     fit-margin-left="0"
     fit-margin-right="0"
     fit-margin-bottom="0"
     inkscape:window-width="1366"
     inkscape:window-height="705"
     inkscape:window-x="-8"
     inkscape:window-y="-8"
     inkscape:window-maximized="1" />
  <metadata
     id="metadata7399">
    <rdf:RDF>
      <cc:Work
         rdf:about="">
        <dc:format>image/svg+xml</dc:format>
        <dc:type
           rdf:resource="http://purl.org/dc/dcmitype/StillImage" />
        <dc:title></dc:title>
      </cc:Work>
    </rdf:RDF>
  </metadata>
  <g
     inkscape:label="Layer 1"
     inkscape:groupmode="layer"
     id="layer1"
     transform="translate(-12.925001,-102.4625)">
    <g
       id="g8623">
      <rect
         y="102.4625"
         x="12.925001"
         height="92.074997"
         width="184.14999"
         id="rect8589"
         style="fill:#eb2738;fill-opacity:1;stroke:none;stroke-width:0.65636426;stroke-opacity:1" />
      <g
         id="g8615">
        <path
           inkscape:connector-curvature="0"
           style="fill:#ffffff;stroke-width:0.15297222"
           d="m 101.96098,134.73552 a 13.7675,13.7675 0 0 0 -13.767632,13.76712 13.7675,13.7675 0 0 0 13.767632,13.76764 13.7675,13.7675 0 0 0 10.94094,-5.43946 11.472916,11.472916 0 0 1 -7.88169,3.14503 11.472916,11.472916 0 0 1 -11.472687,-11.47321 11.472916,11.472916 0 0 1 11.472687,-11.47268 11.472916,11.472916 0 0 1 7.92665,3.1967 13.7675,13.7675 0 0 0 -10.9859,-5.49114 z"
           id="circle7979" />
        <path
           d="m 117.25826,140.85423 1.46348,4.11542 3.94485,-1.87514 -1.87513,3.94485 4.11541,1.46349 -4.11541,1.46348 1.87513,3.94485 -3.94485,-1.87513 -1.46348,4.11541 -1.46349,-4.11541 -3.94484,1.87513 1.87513,-3.94485 -4.11541,-1.46348 4.11541,-1.46349 -1.87513,-3.94485 3.94484,1.87514 z"
           id="path7983"
           inkscape:connector-curvature="0"
           style="fill:#ffffff;stroke-width:0.15297222" />
      </g>
      <path
         style="fill:#00b7e3;stroke-width:0.26148272"
         d="m 12.925003,117.544 v -5.556 H 105 197.07499 v 5.556 5.556 H 105 12.925003 Z"
         id="path8571"
         inkscape:connector-curvature="0" />
      <path
         sodipodi:nodetypes="ccccccccc"
         style="fill:#3f9b34;stroke-width:0.26458332"
         d="m 12.925003,179.19166 v -5.55625 H 105 197.07499 v 5.55625 5.55625 H 105 12.925003 Z"
         id="path8567"
         inkscape:connector-curvature="0" />
    </g>
  </g>
</svg>
