<?xml version="1.0" encoding="utf-8"?>
<!-- Generator: Adobe Illustrator 22.0.0, SVG Export Plug-In . SVG Version: 6.00 Build 0)  -->
<svg version="1.1" id="Слой_1" xmlns="http://www.w3.org/2000/svg" xmlns:xlink="http://www.w3.org/1999/xlink" x="0px" y="0px"
	 viewBox="0 0 1000 600" style="enable-background:new 0 0 1000 600;" xml:space="preserve">
<style type="text/css">
	.st0{fill:#FE0000;}
	.st1{fill:#FFFFFF;}
</style>
<desc>Flag of Germany</desc>
<rect id="black_stripe" class="st0" width="1000" height="600"/>
<rect id="red_stripe" y="200" class="st0" width="1000" height="400"/>
<rect id="gold_stripe" y="400" class="st0" width="1000" height="200"/>
<path class="st1" d="M229.4,129l57.5,0.5l-48,31.6l20.3-51.6l15.3,52L229.4,129z M223.1,180.5c-25.4,40.1-79.2,51.2-118.5,23.7
	c-35.1-24.5-45.9-72.4-24.7-109.6c23.8-41.7,77.2-54.7,117.2-29.3c10.4,6.6,19.3,15.5,25.9,25.9c-25.2-28.1-68.9-29.8-96.2-3.3
	c-24.9,24.1-27,64-4.8,90.6c24.4,29.3,68,32.2,96,7C219.8,183.9,221.5,182.2,223.1,180.5z M260.9,94.7l57.5,0.5l-48,31.6l20.3-51.6
	l15.3,52L260.9,94.7z M289.6,129l57.5,0.5l-48,31.6l20.3-51.6l15.3,52L289.6,129z"/>
</svg>
