<?xml version="1.0" encoding="UTF-8" standalone="no"?>
<!-- Created with Inkscape (http://www.inkscape.org/) -->
<svg
   xmlns:dc="http://purl.org/dc/elements/1.1/"
   xmlns:cc="http://creativecommons.org/ns#"
   xmlns:rdf="http://www.w3.org/1999/02/22-rdf-syntax-ns#"
   xmlns:svg="http://www.w3.org/2000/svg"
   xmlns="http://www.w3.org/2000/svg"
   xmlns:sodipodi="http://sodipodi.sourceforge.net/DTD/sodipodi-0.dtd"
   xmlns:inkscape="http://www.inkscape.org/namespaces/inkscape"
   width="600"
   height="400"
   id="svg2"
   sodipodi:version="0.32"
   inkscape:version="0.46"
   version="1.0"
   sodipodi:docname="Flag of Hunza.svg"
   inkscape:output_extension="org.inkscape.output.svg.inkscape">
  <defs
     id="defs4">
    <inkscape:perspective
       sodipodi:type="inkscape:persp3d"
       inkscape:vp_x="0 : 526.18109 : 1"
       inkscape:vp_y="0 : 1000 : 0"
       inkscape:vp_z="744.09448 : 526.18109 : 1"
       inkscape:persp3d-origin="372.04724 : 350.78739 : 1"
       id="perspective10" />
    <inkscape:perspective
       id="perspective2390"
       inkscape:persp3d-origin="372.04724 : 350.78739 : 1"
       inkscape:vp_z="744.09448 : 526.18109 : 1"
       inkscape:vp_y="0 : 1000 : 0"
       inkscape:vp_x="0 : 526.18109 : 1"
       sodipodi:type="inkscape:persp3d" />
    <inkscape:perspective
       id="perspective2421"
       inkscape:persp3d-origin="372.04724 : 350.78739 : 1"
       inkscape:vp_z="744.09448 : 526.18109 : 1"
       inkscape:vp_y="0 : 1000 : 0"
       inkscape:vp_x="0 : 526.18109 : 1"
       sodipodi:type="inkscape:persp3d" />
    <inkscape:perspective
       id="perspective2434"
       inkscape:persp3d-origin="372.04724 : 350.78739 : 1"
       inkscape:vp_z="744.09448 : 526.18109 : 1"
       inkscape:vp_y="0 : 1000 : 0"
       inkscape:vp_x="0 : 526.18109 : 1"
       sodipodi:type="inkscape:persp3d" />
  </defs>
  <sodipodi:namedview
     id="base"
     pagecolor="#ffffff"
     bordercolor="#666666"
     borderopacity="1.0"
     gridtolerance="10000"
     guidetolerance="10"
     objecttolerance="10"
     inkscape:pageopacity="0.0"
     inkscape:pageshadow="2"
     inkscape:zoom="1"
     inkscape:cx="300"
     inkscape:cy="200"
     inkscape:document-units="px"
     inkscape:current-layer="layer1"
     showgrid="false"
     inkscape:window-width="1280"
     inkscape:window-height="750"
     inkscape:window-x="-8"
     inkscape:window-y="-8" />
  <metadata
     id="metadata7">
    <rdf:RDF>
      <cc:Work
         rdf:about="">
        <dc:format>image/svg+xml</dc:format>
        <dc:type
           rdf:resource="http://purl.org/dc/dcmitype/StillImage" />
      </cc:Work>
    </rdf:RDF>
  </metadata>
  <g
     inkscape:label="Layer 1"
     inkscape:groupmode="layer"
     id="layer1"
     transform="translate(-6.5512587,-405.36994)">
    <path
       style="fill:#00833d;fill-opacity:1"
       d="M 6.5512587,405.36994 L 6.5512587,605.36996 L 6.5512587,695.95607 L 6.5512587,750.67599 L 6.5512587,805.36994 L 306.55126,805.36994 L 606.55126,805.36994 L 606.55126,796.39699 L 606.55126,787.42388 L 606.55126,605.36996 L 606.55126,405.36994 L 306.55126,405.36994 L 6.5512587,405.36994 z"
       id="path2404" />
    <path
       style="fill:#000000"
       d="M 244.39656,551.71332 C 243.10472,551.71107 241.59668,551.91185 239.76086,552.23199 C 230.66051,553.81893 225.99855,556.80365 211.37688,570.43738 C 198.40068,582.53681 197.7487,582.99177 187.03296,588.25378 C 179.53885,591.93379 172.05728,596.55997 163.59546,602.6988 C 156.75844,607.6589 149.29988,612.37695 147.02087,613.20191 C 144.74187,614.02687 140.26673,616.28823 137.07612,618.23303 C 127.99329,623.76937 125.1421,625.01626 113.32784,628.58054 C 95.131198,634.07035 87.824242,638.69144 80.023289,649.63864 C 73.440821,658.8759 68.543033,662.23667 57.932474,664.75793 C 46.490766,667.47671 41.717611,670.29521 25.223566,684.18221 C 20.836489,687.8759 14.828407,692.09134 11.886204,693.5442 L 6.5512587,696.18951 L 6.5512587,750.77973 L 6.5512587,805.36994 L 306.55126,805.36994 L 606.55126,805.36994 L 606.55126,796.37102 L 606.55126,787.34612 L 602.87377,785.94571 C 600.85282,785.17284 596.92657,783.05127 594.14622,781.25176 C 591.36587,779.45218 588.96553,777.98413 588.81127,777.98405 C 588.80484,777.98405 588.7925,778.00504 588.78537,778.01002 L 588.96665,777.15417 L 581.81887,772.0194 C 577.87828,769.20205 571.59333,764.36994 567.85996,761.25691 C 564.12656,758.14396 560.85742,755.92637 560.60858,756.32952 C 560.58479,756.36803 560.53972,756.41749 560.47909,756.45923 C 560.43459,755.90919 559.24941,754.30047 557.55264,752.5691 L 553.97874,748.9384 L 549.55022,749.19782 C 549.84385,749.16081 550.13475,749.13508 550.43075,749.09408 L 554.39311,748.52346 L 548.17763,742.35134 C 543.36356,737.56877 542.05767,736.48877 540.04573,736.36064 C 540.16608,736.30894 540.25291,736.23657 540.25291,736.15317 C 540.25291,735.96736 535.31162,731.7418 529.27225,726.73923 C 517.20412,716.74296 505.67094,705.16412 501.35443,698.73092 C 495.18721,689.53955 490.09296,683.34997 486.67038,680.88864 C 483.38337,678.52481 468.86441,672.77589 467.45422,673.18636 C 466.83992,671.91871 466.121,670.93013 465.77087,670.93013 C 464.42013,670.93013 452.8041,662.84637 447.56472,658.2486 C 444.38426,655.4576 442.14669,653.97931 440.10616,653.34714 C 440.30591,653.33787 440.46123,653.27686 440.54642,653.19154 C 441.13543,652.60172 424.8823,637.60009 418.74049,633.06706 C 415.10748,630.38567 405.4284,624.82926 397.24532,620.72266 C 380.73657,612.43791 378.00088,610.22654 367.87722,597.04527 C 359.05311,585.55599 341.5312,572.98051 334.41728,573.03075 C 330.18692,573.0606 325.394,575.78051 318.46424,582.13344 C 314.86616,585.43203 310.35314,588.9096 308.4159,589.86166 L 304.8938,591.59921 L 300.75015,586.9571 C 295.09994,580.60892 288.53091,576.67249 273.42799,570.59299 C 266.37941,567.75567 259.60382,564.8327 258.38137,564.10958 C 257.15893,563.38647 254.79339,560.63903 253.12412,558.01518 C 250.17888,553.38568 248.27208,551.72005 244.39656,551.71332 z M 422.57335,644.01104 C 423.00175,644.23411 423.47367,644.50754 423.99773,644.81499 C 423.47277,644.50528 422.99157,644.23399 422.57335,644.01104 z M 471.80505,679.25482 C 472.66353,680.20302 473.54171,681.15254 474.7574,682.47059 C 476.12672,683.95519 477.23478,685.12486 478.20181,686.07532 C 477.26451,685.17991 476.19328,684.10729 474.91279,682.75586 C 473.82835,681.61135 472.78699,680.41087 471.80505,679.25482 z M 493.92177,695.20395 C 494.4688,695.65433 495.00548,696.13939 495.50154,696.63034 C 494.99843,696.13184 494.47756,695.6613 493.92177,695.20395 z M 490.37377,720.02246 C 491.03298,720.4662 491.66405,720.9286 492.29021,721.37101 C 494.19444,722.71632 496.13042,724.19018 498.68696,726.2984 C 496.57547,724.57981 494.27086,722.81599 492.29021,721.37101 C 491.57748,720.85101 490.97701,720.43549 490.37377,720.02246 z M 501.63931,728.78802 C 503.84969,730.66246 506.64971,733.0374 510.05609,735.99757 C 507.63167,733.95599 504.95124,731.66877 501.63931,728.78802 z M 534.4777,735.9457 C 534.86563,736.02512 535.25726,736.11558 535.64311,736.17906 C 535.88303,736.21856 536.10843,736.2501 536.34234,736.2828 C 536.10951,736.25641 535.87845,736.21707 535.64311,736.17906 C 535.25807,736.11699 534.87057,736.03923 534.4777,735.9457 z M 521.60651,744.78902 C 526.80333,747.76645 532.87089,749.40031 539.76086,749.66454 C 536.39992,749.66379 534.0227,749.3506 531.21459,748.6272 C 527.53616,747.67964 524.84614,746.7413 521.60651,744.78902 z M 557.81162,757.23715 C 557.06419,757.38886 556.25358,757.54354 555.37722,757.65209 C 554.71418,757.73433 554.13556,757.79715 553.59028,757.88554 C 554.07805,757.80413 554.58837,757.72902 555.17004,757.65209 C 556.1208,757.52637 557.00186,757.38006 557.81162,757.23715 z M 570.60512,778.50272 C 570.75515,778.65168 570.92129,778.8267 571.07129,778.9955 C 570.92251,778.82795 570.75394,778.65085 570.60512,778.50272 z M 571.84822,779.955 C 572.30831,780.55882 572.78973,781.24322 573.37619,782.10753 C 572.78886,781.24147 572.30889,780.55981 571.84822,779.955 z M 587.85305,781.90006 C 586.83221,786.22313 582.89508,788.75873 578.84062,787.70919 C 581.08755,788.17766 583.66467,787.56703 585.34097,786.07533 C 586.30438,785.21807 587.27909,783.56811 587.85305,781.90006 z M 543.9563,790.35442 C 545.01282,790.615 546.05695,790.97259 547.29711,791.46952 C 546.05212,790.98181 544.982,790.62015 543.9563,790.35442 z M 559.02881,795.3077 C 559.34726,795.34571 559.65254,795.38255 559.90934,795.38554 L 563.40554,795.41143 L 560.11652,795.41143 C 560.05623,795.41143 559.97494,795.38811 559.90934,795.38554 C 559.65172,795.37533 559.36058,795.35591 559.02881,795.3077 z"
       id="path2400" />
    <path
       id="path2402"
       d="M 561.38479,792.30737 C 557.38984,786.14927 556.74613,785.51674 551.77354,782.86272 C 547.91517,780.80338 545.97367,779.0555 543.51104,775.42404 C 538.92372,768.65956 536.79699,767.20363 531.50358,767.20363 C 525.85631,767.20363 524.50336,766.634 524.50336,764.25649 C 524.50336,761.015 521.29105,758.40321 509.18869,751.80487 C 492.37015,742.63516 487.58769,738.68255 477.08367,725.27084 C 471.73956,718.44736 468.06694,715.06553 462.58878,711.92346 C 460.40561,710.67134 458.46014,709.52271 458.26551,709.37101 C 458.07089,709.21931 458.63028,708.55076 459.50861,707.88528 C 460.59197,707.06454 463.23779,706.66877 467.7354,706.65458 C 475.18143,706.63101 477.27181,707.55773 481.58084,712.79259 C 482.96427,714.47325 486.5683,717.48943 489.58981,719.49533 C 494.98546,723.07715 497.94075,725.46885 510.89952,736.74072 C 514.46367,739.84089 519.28291,743.46778 521.60895,744.80047 C 529.34129,749.2306 539.00179,750.66545 550.42986,749.08114 L 554.39502,748.53143 L 548.17405,742.35118 C 542.43067,736.64545 541.70993,736.18537 538.78574,736.35807 C 533.96778,736.6428 528.87416,734.4413 521.97475,729.09217 C 518.53291,726.42379 513.49837,723.11815 510.7869,721.74645 C 504.21938,718.42379 503.22576,717.14205 501.74197,710.07864 C 501.04759,706.77308 499.89815,702.94288 499.18767,701.56702 C 496.75917,696.86437 491.87064,692.8418 486.29086,690.95491 C 481.71616,689.40785 480.17263,688.29408 474.91819,682.74856 C 471.57442,679.21957 468.30568,675.11852 467.65434,673.63512 C 467.003,672.15172 466.15,670.93803 465.7588,670.93803 C 464.40806,670.93803 452.80189,662.84066 447.56251,658.2429 C 443.80377,654.94444 441.36759,653.47185 439.00952,653.0729 C 437.19606,652.7661 433.22136,650.83748 430.17689,648.78709 C 423.373,644.20479 420.08348,642.45116 420.08348,643.4063 C 420.08348,644.82994 425.00032,650.89811 428.31551,653.56595 C 430.1691,655.05761 431.68568,656.589 431.68568,656.96903 C 431.68568,657.34907 430.51362,657.66002 429.0811,657.66002 C 426.38206,657.66002 423.52891,655.13375 415.52546,645.65737 C 412.63853,642.23913 411.62619,641.6266 407.68433,640.91299 C 401.15809,639.73154 398.99471,638.32758 395.29596,632.87342 C 391.94694,627.93493 389.12307,626.00129 383.61939,624.87786 C 379.46116,624.02908 377.15152,621.54892 376.50618,617.23949 C 375.45272,610.20484 370.00572,606.49888 359.41257,605.60956 C 354.6288,605.20795 353.78513,604.90368 353.78513,603.57994 C 353.78513,602.7235 354.71028,601.60066 355.84103,601.08474 C 360.44468,598.98428 359.23498,595.17818 352.61612,590.93829 C 350.17594,589.37516 347.18455,586.79011 345.96862,585.19373 C 343.0229,581.32636 338.7466,579.33412 334.93005,580.0511 C 332.78525,580.45402 330.55931,582.05788 326.76065,585.93744 C 323.88892,588.87033 321.12598,591.26997 320.62077,591.26997 C 320.08367,591.26997 319.81006,592.39001 319.96191,593.96706 C 320.18397,596.27342 320.85549,597.00433 324.59712,599.01222 C 327.00365,600.30365 332.78403,604.92924 337.44242,609.2913 C 342.10081,613.65336 348.62313,619.05488 351.93648,621.29468 C 355.24985,623.53449 361.08178,628.31093 364.89634,631.90898 C 372.78409,639.34905 378.1107,642.40114 384.54168,643.16559 C 392.08713,644.06251 394.10824,645.10044 401.53149,651.89055 C 406.96191,656.85781 410.64063,659.39176 416.67306,662.32029 C 433.57154,670.52387 447.02315,678.11688 450.99824,681.69575 C 455.66934,685.9013 458.15996,690.59889 458.18682,695.25424 C 458.2031,698.07607 457.90208,698.53541 455.33108,699.61109 C 448.68275,702.39275 445.15202,700.2808 433.00486,686.25599 C 423.31303,675.06601 416.45363,669.42769 410.28434,667.58009 C 408.60895,667.07833 401.64424,666.39775 394.80723,666.06768 C 379.10983,665.30988 377.36832,664.57705 366.27325,654.06055 C 344.96842,633.86669 330.09979,622.78861 316.6885,617.11673 C 309.37683,614.02449 305.48799,611.39911 296.17511,603.26799 C 286.93966,595.20446 284.28014,593.57608 275.10736,590.36853 C 265.83836,587.12734 264.0568,585.78013 260.98729,579.69105 C 258.06903,573.90202 255.14794,570.31668 251.60926,568.18046 C 249.0504,566.63574 242.73541,565.01255 242.73541,565.89956 C 242.73541,566.89175 247.8743,579.03739 251.78527,587.28864 C 254.10066,592.17359 255.99508,596.40001 255.99508,596.68067 C 255.99508,598.36525 247.03788,593.90829 246.40398,591.90828 C 245.9133,590.36016 245.40756,590.26019 240.42398,590.72621 C 231.61791,591.54967 231.47413,593.34323 239.90723,597.17227 C 246.02719,599.95102 250.09919,603.31974 253.73544,608.61215 C 255.17396,610.70585 258.27052,614.50981 260.61669,617.0654 C 262.96287,619.62098 266.29397,624.40172 268.01914,627.68927 C 271.40809,634.14737 274.59956,636.72137 281.4644,638.53324 C 285.01797,639.47115 286.65806,641.27609 286.65806,644.24893 C 286.65806,645.14862 287.96331,647.44917 289.55861,649.36126 C 291.15392,651.27335 292.45916,653.66731 292.45916,654.68115 C 292.45916,655.99193 293.47675,657.08558 295.98126,658.46649 C 297.91842,659.53457 301.50702,662.12408 303.95593,664.22096 C 306.40484,666.31783 313.49047,671.85308 319.70178,676.52151 C 330.99841,685.01207 332.2963,685.71516 357.51442,697.00495 C 365.44736,700.5564 365.08323,700.16205 365.67632,705.84437 C 366.32263,712.03649 368.4723,717.034 371.85705,720.21317 C 376.75445,724.81309 384.33391,722.76952 385.71407,716.47698 C 386.17831,714.3603 386.59192,714.09159 389.38486,714.09159 C 394.86634,714.09159 395.28782,716.0291 392.50679,728.44271 C 391.72103,731.95018 390.79661,733.75591 389.08866,735.11973 C 387.58572,736.31973 386.86377,737.56968 387.07214,738.61085 C 387.35615,740.03002 387.97884,740.19873 392.05535,739.96114 C 401.5478,739.40786 407.56103,746.09483 404.20459,753.47159 C 402.99496,756.1301 402.40615,756.11334 395.03598,753.21002 C 391.71956,751.90363 386.5416,750.02354 383.52942,749.03209 C 376.52589,746.72686 371.19739,743.32985 368.2364,739.28255 C 363.45622,732.74869 361.8781,731.53101 355.89423,729.75898 C 352.68312,728.80802 346.04261,726.37964 341.13755,724.36246 C 336.23248,722.34537 328.97452,719.92329 325.00877,718.98006 C 316.22006,716.88985 312.91361,715.24562 308.67101,710.85532 C 304.61865,706.66196 301.15349,705.44694 295.32572,706.17607 C 288.87665,706.98296 285.86534,705.32387 282.58173,699.15466 C 281.15545,696.47499 278.55374,693.14462 276.80014,691.75375 C 275.04655,690.36296 273.18407,688.19109 272.66131,686.92727 C 272.08405,685.53167 270.17104,683.81505 267.78942,682.55549 C 265.26316,681.21945 263.02217,679.15296 261.49058,676.74715 C 252.778,663.0615 243.1844,647.29611 237.50317,637.32806 C 228.20436,621.01278 225.56127,617.33524 218.04574,610.2554 C 214.41004,606.83046 210.5963,602.37131 209.57075,600.34619 C 206.56638,594.41354 204.31577,593.94654 198.82477,598.11644 C 192.4796,602.93501 191.23009,603.55362 185.75134,604.58881 C 179.69433,605.73326 177.26579,607.57506 177.26579,611.02419 C 177.26579,614.22775 181.00205,617.5244 190.11109,622.35811 C 194.21331,624.53494 199.24784,627.50508 201.29895,628.9584 C 203.35005,630.41173 208.28508,633.56425 212.26569,635.96401 C 220.5144,640.93684 221.32307,641.87008 223.77392,649.24511 C 225.26785,653.74059 226.68506,655.81293 232.58219,662.12517 C 238.89703,668.88454 240.1973,670.87091 245.39814,681.70368 C 248.58159,688.33441 252.30566,696.0574 253.67385,698.86586 C 256.64706,704.96885 260.81025,709.48686 267.80762,714.20429 C 270.65464,716.12362 275.51072,719.8608 278.5989,722.5091 C 286.07899,728.92371 289.83706,731.02396 299.91773,734.42354 C 309.68511,737.7174 312.9559,739.49234 324.36524,747.69043 C 328.92325,750.96562 334.00579,754.45765 335.65978,755.45068 C 339.90124,757.99707 344.67593,763.4301 348.62914,770.20828 C 352.66966,777.13616 358.10465,782.3838 364.07338,785.12015 C 368.33507,787.07392 368.83273,787.11168 385.4891,786.74529 C 401.16361,786.40048 402.93243,786.20795 407.37613,784.3628 C 420.80192,778.78819 426.22314,778.44687 435.89079,782.56753 C 450.24974,788.68786 458.29732,790.21517 463.55277,787.81724 C 465.89969,786.74645 466.35508,785.46089 464.38747,785.46089 C 462.04288,785.46089 456.99783,782.35683 451.81362,777.72463 C 443.27013,770.09093 433.95136,765.24512 419.66911,761.00952 C 415.5669,759.79292 411.75532,758.65085 411.19893,758.47168 C 409.73441,757.99981 411.7216,752.815 416.71485,744.07998 C 422.93864,733.19234 423.26908,728.13367 417.97072,724.85458 C 413.88443,722.32562 412.86763,720.40487 411.9155,713.41607 C 411.46069,710.07773 410.52893,706.49101 409.84492,705.4457 C 408.96319,704.09806 405.38822,702.39408 397.5606,699.59034 C 391.48823,697.41532 385.40115,695.07682 384.03375,694.39358 C 379.84905,692.30287 372.77283,686.66553 373.28715,685.83225 C 374.01566,684.65184 384.92895,684.91298 391.29115,686.26304 C 402.98781,688.74511 415.15859,697.42188 420.5929,707.15275 C 422.31605,710.23831 426.67495,715.67765 430.79073,719.8784 C 435.84915,725.04122 439.05074,729.20902 441.59607,733.94462 C 444.78405,739.87599 445.86214,741.10238 450.68448,744.28379 C 453.69374,746.26902 457.951,749.99749 460.14506,752.56919 C 464.05893,757.15674 464.21702,757.24512 468.51427,757.24512 C 472.1332,757.24512 473.43782,757.67765 476.0227,759.73475 C 477.74336,761.10404 479.96452,762.22438 480.95861,762.22438 C 481.95272,762.22438 484.7315,762.80886 487.13369,763.52321 C 490.72295,764.59052 493.02089,766.25433 500.02806,772.85931 C 510.10701,782.35965 515.31874,786.75044 518.47037,788.39666 C 520.13948,789.26853 523.85596,789.60944 531.96192,789.63425 C 542.81303,789.66753 543.34932,789.75384 549.77961,792.50305 C 553.67431,794.1682 557.85217,795.35442 559.90656,795.37849 L 563.40369,795.4194 L 561.38479,792.30737 z M 585.34905,786.0833 C 586.54771,785.01666 587.77396,782.70122 588.2091,780.68297 L 588.97083,777.14977 L 581.80616,772.02736 C 577.86559,769.21002 571.58689,764.3579 567.85352,761.24487 C 564.12013,758.13193 560.86194,755.91483 560.61308,756.31798 C 560.36424,756.72122 558.01136,757.31749 555.38448,757.64305 C 549.69223,758.34844 548.53651,759.14579 548.53651,762.3672 C 548.53651,768.2623 552.48673,771.50064 564.50893,775.46114 C 569.69829,777.17068 570.36959,777.67508 573.39707,782.1394 C 575.19823,784.79542 577.14737,787.15998 577.72851,787.394 C 580.17689,788.3799 583.389,787.82745 585.34905,786.0833 z M 213.77407,779.90853 C 216.9359,778.03824 218.2879,774.52745 218.2879,768.18753 L 218.2879,762.94736 L 220.87676,763.43367 C 222.30064,763.70114 226.58931,765.30197 230.40714,766.99093 C 236.76826,769.80504 237.97231,770.05906 244.80723,770.02886 C 252.44325,769.99516 260.03067,768.32222 264.19111,765.755 C 268.34954,763.18894 273.39839,757.76114 273.39839,755.85666 C 273.39839,753.41417 271.90751,752.68462 259.83873,749.22155 C 236.25943,742.45558 219.59516,731.18338 209.13092,714.92147 C 207.22184,711.95466 200.97551,700.19117 195.25017,688.78038 C 182.22415,662.81903 175.02881,650.74036 168.16035,643.30526 C 160.05435,634.53052 159.81354,634.46335 136.38502,634.44172 L 116.63686,634.4235 L 117.19714,636.978 C 118.22198,641.65053 116.95391,644.83971 111.81204,650.52141 C 108.28609,654.41754 106.76463,656.81943 106.39019,659.08083 C 106.10392,660.80976 105.46545,663.28579 104.9714,664.58314 C 103.92775,667.32367 105.26666,668.75993 108.06689,667.9037 C 112.15147,666.65475 113.51872,665.90574 113.06273,665.1669 C 112.79288,664.72968 113.43836,663.80355 114.49715,663.10885 C 116.08695,662.06573 117.34029,661.99383 121.69405,662.69594 C 127.67562,663.66058 128.87118,664.18109 131.45048,666.94354 C 134.27012,669.96342 135.89938,675.56867 136.4277,684.06706 L 136.90855,691.80188 L 139.02057,691.27109 C 140.1822,690.97914 143.62702,690.74819 146.67573,690.75781 C 159.77282,690.79922 173.36381,699.7237 179.52983,712.33126 C 181.49846,716.35649 181.83131,718.11259 181.95729,725.13815 C 182.05488,730.58047 182.49453,733.87026 183.28324,735.05973 C 184.38561,736.7223 184.69499,736.76977 187.98937,735.78139 C 189.92877,735.19948 191.74061,734.94877 192.01569,735.22421 C 192.29076,735.49964 192.53414,740.66039 192.55655,746.69251 C 192.60654,760.15242 191.45647,763.89998 185.86865,768.48504 C 182.1168,771.56371 177.47997,777.65317 178.27863,778.45301 C 179.27959,779.45533 188.40775,775.08487 191.53474,772.10612 C 195.38494,768.4384 195.49784,768.38247 195.49784,770.14122 C 195.49784,772.31143 198.65196,777.74487 200.97322,779.57326 C 203.75102,781.76131 210.34972,781.93417 213.77407,779.90853 z M 132.5144,749.53707 C 135.37306,748.09591 135.81468,742.57749 133.38625,738.64271 C 130.55948,734.06263 119.9979,724.60877 111.70845,719.23856 C 96.316489,709.26711 98.94216,712.45035 89.420923,692.21823 C 87.071293,687.22545 86.291185,686.32744 83.05974,684.89606 C 79.654707,683.38777 78.207095,683.30776 63.887498,683.83642 C 53.03216,684.23718 47.60498,684.77433 45.746297,685.63192 C 42.565577,687.09947 38.868001,691.70611 38.868001,694.20121 C 38.868001,697.63325 41.598748,701.7257 46.419499,705.51831 C 51.830478,709.77532 54.482064,713.57333 59.566289,724.3491 C 63.551203,732.79491 67.870834,737.9096 74.857949,742.45533 C 83.01423,747.76164 88.460549,749.03375 105.99507,749.72811 C 129.50195,750.65898 130.30053,750.65325 132.5144,749.53707 z"
       style="fill:#ffffff"
       sodipodi:nodetypes="csssssssssssssscccssssssssssssssssssssssssssssssssssssssssssssssssssssssssssssssssssssssssssssssssssssssssssssssssssssssssssssssssssssssssssssssssssssssssscccccccssssssscccccsssssssscccsssssssscccssssssssssssccsssssssssssc" />
    <path
       style="fill:#fff519;fill-opacity:1"
       d="M 466.30172,626.13312 C 462.6018,622.04476 464.08489,619.59389 490.95557,585.3917 C 502.23763,571.03141 511.57984,558.9563 511.71605,558.55812 C 511.91612,557.97325 480.32381,532.64507 477.28036,530.95035 C 476.81028,530.68859 474.31028,530.75951 471.72481,531.10795 L 467.02395,531.74148 L 456.12651,523.26998 C 450.13292,518.61064 445.22908,514.45478 445.22908,514.03472 C 445.22908,513.61466 447.056,513.03066 449.28891,512.73693 C 451.52181,512.44322 453.92566,512.11922 454.63079,512.01695 C 455.66763,511.86657 455.85766,510.63248 455.62436,505.56485 C 455.46569,502.11846 455.67022,499.43812 456.07887,499.60853 C 456.48751,499.77894 461.70083,503.72533 467.66402,508.37828 L 478.50617,516.83818 L 479.07398,521.85703 L 479.64181,526.87587 L 496.56657,540.11152 C 505.8752,547.39111 513.99772,553.51527 514.61662,553.72075 C 515.30033,553.94774 523.95909,543.47206 536.68207,527.02519 C 548.19917,512.13716 559.70002,497.73603 562.23953,495.02268 C 566.29072,490.69415 567.25406,490.08931 570.09705,490.08931 C 572.47651,490.08931 573.69073,490.59393 574.6678,491.98889 C 576.96617,495.27027 576.2912,497.73411 571.79012,502.49334 C 564.70279,509.98715 564.20424,516.2985 569.12416,536.24316 C 573.6998,554.79218 573.46524,563.90234 568.28751,568.73907 C 566.9489,569.98951 563.16807,571.86019 559.88564,572.89614 C 553.64013,574.86725 548.22053,577.9607 548.22053,579.55446 C 548.22053,580.06899 550.98666,582.65431 554.36748,585.29962 L 560.51443,590.10928 L 560.77774,586.63627 L 561.04105,583.16326 L 568.51968,593.39568 C 576.04965,603.69834 577.28563,606.12012 574.50259,605.11851 C 565.83406,601.99876 551.34885,595.59742 551.85187,595.10865 C 552.20506,594.76547 553.80595,594.36112 555.40941,594.21008 L 558.32478,593.93547 L 551.74752,588.90788 C 548.13004,586.14272 544.96478,584.08581 544.71362,584.33697 C 544.46246,584.58813 543.93215,588.19669 543.53515,592.356 C 542.70385,601.06548 541.92246,603.4834 539.12318,606.00815 C 534.27961,610.37671 528.6993,611.47763 507.60334,612.22659 C 490.38303,612.83794 489.97765,612.89507 485.38111,615.35819 C 481.68145,617.34072 480.09122,618.89817 477.80149,622.78162 C 475.00421,627.52589 474.77931,627.69615 471.31003,627.69615 C 468.91388,627.69615 467.24484,627.17526 466.30172,626.13312 z M 487.53677,601.41581 C 490.36669,600.58561 498.07588,599.97659 510.35861,599.61289 C 523.70831,599.2176 529.21446,598.75578 530.00414,597.96516 C 530.63207,597.33646 531.32958,593.63878 531.63503,589.31936 C 531.93749,585.04222 532.7819,580.54298 533.58389,578.93535 C 534.36223,577.37513 534.70465,575.81242 534.34483,575.46265 C 531.74756,572.93794 514.85987,560.18794 514.35652,560.37172 C 513.88152,560.54515 494.23514,585.41204 480.79117,602.85618 C 480.01309,603.86578 480.14893,603.95855 481.55387,603.37704 C 482.49404,602.98789 485.18634,602.10534 487.53677,601.41581 z M 539.41139,570.63627 C 541.92949,567.24451 546.32429,564.5421 552.22816,562.75509 C 555.665,561.71482 558.95771,560.46929 559.54532,559.98723 C 561.3927,558.4717 560.69829,551.58996 557.53747,540.08931 C 555.3098,531.98396 554.33019,526.3877 553.91622,519.40212 L 553.34874,509.82605 L 536.25472,531.73034 C 526.85301,543.7777 518.7304,554.24077 518.20446,554.98163 C 517.40354,556.10982 518.86131,557.60233 527.17881,564.1698 C 532.64065,568.48245 537.37607,572.04013 537.70199,572.07578 C 538.02789,572.11143 538.79712,571.46364 539.41139,570.63627 z"
       id="path2442" />
    <path
       style="fill:#ffffff;fill-opacity:1;stroke:none;stroke-width:4.19999980999999960;stroke-miterlimit:4;stroke-dasharray:none;stroke-opacity:1"
       d="M 327.28125 21.09375 C 306.91751 31.399487 292.9375 52.505441 292.9375 76.875 C 292.9375 111.375 320.9375 139.375 355.4375 139.375 C 382.12626 139.375 404.88795 122.6217 413.84375 99.0625 C 403.37455 108.9361 389.26541 115 373.75 115 C 341.48041 115 315.3125 88.832081 315.3125 56.5625 C 315.31249 43.236891 319.76533 30.929754 327.28125 21.09375 z "
       id="path3214"
       transform="translate(6.5512587,405.36994)" />
    <path
       sodipodi:type="star"
       style="fill:#ffffff;fill-opacity:1;stroke:none;stroke-width:4.19999980999999960;stroke-miterlimit:4;stroke-dasharray:none;stroke-opacity:1"
       id="path3221"
       sodipodi:sides="5"
       sodipodi:cx="386.88843"
       sodipodi:cy="62.609051"
       sodipodi:r1="25.27401"
       sodipodi:r2="9.6041231"
       sodipodi:arg1="-3.1415927"
       sodipodi:arg2="-2.5132741"
       inkscape:flatsided="false"
       inkscape:rounded="0"
       inkscape:randomized="0"
       d="M 361.61442,62.609052 L 379.11853,56.963889 L 379.07833,38.572039 L 389.85627,53.474987 L 407.33553,47.75336 L 396.49255,62.609051 L 407.33553,77.46474 L 389.85626,71.743115 L 379.07833,86.646063 L 379.11853,68.254213 L 361.61442,62.609052 z"
       transform="matrix(1.1680995,0,0,1.1680995,-76.261547,391.81493)" />
  </g>
</svg>
