<?xml version="1.0" encoding="UTF-8"?>
<!DOCTYPE svg PUBLIC "-//W3C//DTD SVG 1.1//EN" "http://www.w3.org/Graphics/SVG/1.1/DTD/svg11.dtd">
<svg xmlns="http://www.w3.org/2000/svg" version="1.1" width="2480px" height="1653px" style="shape-rendering:geometricPrecision; text-rendering:geometricPrecision; image-rendering:optimizeQuality; fill-rule:evenodd; clip-rule:evenodd" xmlns:xlink="http://www.w3.org/1999/xlink">
<g><path style="opacity:1" fill="#cecdeb" d="M -0.5,-0.5 C 826.167,-0.5 1652.83,-0.5 2479.5,-0.5C 2479.5,0.166667 2479.5,0.833333 2479.5,1.5C 1652.83,1.5 826.167,1.5 -0.5,1.5C -0.5,0.833333 -0.5,0.166667 -0.5,-0.5 Z"/></g>
<g><path style="opacity:1" fill="#13109c" d="M 2479.5,2.5 C 2479.5,551.833 2479.5,1101.17 2479.5,1650.5C 2478.83,1650.5 2478.17,1650.5 2477.5,1650.5C 2477.5,1101.5 2477.5,552.5 2477.5,3.5C 1652.17,3.5 826.833,3.5 1.5,3.5C 1.5,552.5 1.5,1101.5 1.5,1650.5C 1.16667,1650.5 0.833333,1650.5 0.5,1650.5C 0.5,1101.17 0.5,551.833 0.5,2.5C 826.833,2.5 1653.17,2.5 2479.5,2.5 Z"/></g>
<g><path style="opacity:1" fill="#4341b0" d="M -0.5,1.5 C 826.167,1.5 1652.83,1.5 2479.5,1.5C 2479.5,1.83333 2479.5,2.16667 2479.5,2.5C 1653.17,2.5 826.833,2.5 0.5,2.5C 0.5,551.833 0.5,1101.17 0.5,1650.5C 0.166667,1650.5 -0.166667,1650.5 -0.5,1650.5C -0.5,1100.83 -0.5,551.167 -0.5,1.5 Z"/></g>
<g><path style="opacity:1" fill="#030096" d="M 2477.5,1650.5 C 1652.17,1650.5 826.833,1650.5 1.5,1650.5C 1.5,1101.5 1.5,552.5 1.5,3.5C 826.833,3.5 1652.17,3.5 2477.5,3.5C 2477.5,552.5 2477.5,1101.5 2477.5,1650.5 Z"/></g>
<g><path style="opacity:1" fill="#fefefe" d="M 836.5,412.5 C 838.167,412.5 839.833,412.5 841.5,412.5C 853.621,414.315 865.954,415.315 878.5,415.5C 1003.46,433.721 1101.12,494.887 1171.5,599C 1152.47,580.326 1131.8,563.326 1109.5,548C 1071.6,524.053 1030.6,507.886 986.5,499.5C 983.026,498.475 979.36,497.808 975.5,497.5C 859.703,483.815 761.87,519.149 682,603.5C 649.177,640.462 625.677,682.796 611.5,730.5C 610.076,732.515 609.41,734.848 609.5,737.5C 585.009,834.224 599.843,924.558 654,1008.5C 712.533,1091.37 792.366,1139.37 893.5,1152.5C 904.796,1153.99 916.296,1154.66 928,1154.5C 935.5,1154.33 943,1154.17 950.5,1154C 956.747,1153.9 962.747,1153.07 968.5,1151.5C 973.414,1151.64 978.081,1150.97 982.5,1149.5C 996.758,1146.35 1011.09,1143.02 1025.5,1139.5C 1033.7,1137.99 1041.36,1135.33 1048.5,1131.5C 1096.23,1112.72 1137.4,1084.38 1172,1046.5C 1125.31,1119.83 1061.47,1173 980.5,1206C 858.635,1252.84 739.969,1245.84 624.5,1185C 543.313,1138.15 483.48,1071.98 445,986.5C 431.943,955.274 422.777,922.94 417.5,889.5C 417.165,884.823 416.665,880.156 416,875.5C 415.722,874.584 415.222,873.918 414.5,873.5C 411.704,849.251 410.87,824.917 412,800.5C 412.457,792.643 413.29,784.977 414.5,777.5C 415.889,772.731 416.556,767.731 416.5,762.5C 419.418,739.238 424.752,716.571 432.5,694.5C 433.117,694.389 433.617,694.056 434,693.5C 435.484,689.553 436.65,685.553 437.5,681.5C 477.681,576.146 548.681,498.979 650.5,450C 661.294,444.935 672.294,440.435 683.5,436.5C 691.168,434.943 698.501,432.609 705.5,429.5C 720.375,424.347 735.709,420.68 751.5,418.5C 758.141,418.55 764.474,417.55 770.5,415.5C 770.833,415.5 771.167,415.5 771.5,415.5C 793.123,413.598 814.79,412.598 836.5,412.5 Z"/></g>
<g><path style="opacity:1" fill="#adaadc" d="M 836.5,412.5 C 814.79,412.598 793.123,413.598 771.5,415.5C 793.055,411.742 814.721,410.742 836.5,412.5 Z"/></g>
<g><path style="opacity:1" fill="#c1bee5" d="M 841.5,412.5 C 854.047,412.657 866.381,413.657 878.5,415.5C 865.954,415.315 853.621,414.315 841.5,412.5 Z"/></g>
<g><path style="opacity:1" fill="#c3c1e6" d="M 770.5,415.5 C 764.474,417.55 758.141,418.55 751.5,418.5C 757.587,416.74 763.92,415.74 770.5,415.5 Z"/></g>
<g><path style="opacity:1" fill="#aeaadd" d="M 705.5,429.5 C 698.501,432.609 691.168,434.943 683.5,436.5C 690.499,433.391 697.832,431.057 705.5,429.5 Z"/></g>
<g><path style="opacity:1" fill="#665cbc" d="M 975.5,497.5 C 979.36,497.808 983.026,498.475 986.5,499.5C 982.511,499.884 978.845,499.217 975.5,497.5 Z"/></g>
<g><path style="opacity:1" fill="#4240b0" d="M 1296.5,631.5 C 1295.5,680.33 1295.17,729.33 1295.5,778.5C 1295.17,778.5 1294.83,778.5 1294.5,778.5C 1294.17,729.162 1294.5,679.829 1295.5,630.5C 1296.11,630.624 1296.44,630.957 1296.5,631.5 Z"/></g>
<g><path style="opacity:1" fill="#bfbee4" d="M 1296.5,631.5 C 1296.83,632.167 1297.17,632.833 1297.5,633.5C 1296.83,681.833 1296.17,730.167 1295.5,778.5C 1295.17,729.33 1295.5,680.33 1296.5,631.5 Z"/></g>
<g><path style="opacity:1" fill="#fdfdfe" d="M 1297.5,633.5 C 1325.5,672.818 1354,711.818 1383,750.5C 1428.94,735.298 1474.94,720.298 1521,705.5C 1521.5,705.833 1522,706.167 1522.5,706.5C 1493.46,745.418 1464.79,784.584 1436.5,824C 1465.1,864.269 1494.1,904.269 1523.5,944C 1477.54,929.235 1431.54,914.235 1385.5,899C 1384.17,898.333 1382.83,898.333 1381.5,899C 1352.79,937.597 1324.46,976.43 1296.5,1015.5C 1295.83,966.833 1295.17,918.167 1294.5,869.5C 1247.9,854.244 1201.23,839.077 1154.5,824C 1201.05,808.538 1247.72,793.372 1294.5,778.5C 1294.83,778.5 1295.17,778.5 1295.5,778.5C 1296.17,730.167 1296.83,681.833 1297.5,633.5 Z"/></g>
<g><path style="opacity:1" fill="#ada8dc" d="M 437.5,681.5 C 436.65,685.553 435.484,689.553 434,693.5C 433.617,694.056 433.117,694.389 432.5,694.5C 433.599,689.856 435.266,685.522 437.5,681.5 Z"/></g>
<g><path style="opacity:1" fill="#645bbc" d="M 611.5,730.5 C 611.59,733.152 610.924,735.485 609.5,737.5C 609.41,734.848 610.076,732.515 611.5,730.5 Z"/></g>
<g><path style="opacity:1" fill="#aba7db" d="M 416.5,762.5 C 416.556,767.731 415.889,772.731 414.5,777.5C 414.444,772.269 415.111,767.269 416.5,762.5 Z"/></g>
<g><path style="opacity:1" fill="#b2afde" d="M 414.5,873.5 C 415.222,873.918 415.722,874.584 416,875.5C 416.665,880.156 417.165,884.823 417.5,889.5C 415.857,884.415 414.857,879.082 414.5,873.5 Z"/></g>
<g><path style="opacity:1" fill="#817fca" d="M 1294.5,869.5 C 1295.17,918.167 1295.83,966.833 1296.5,1015.5C 1296.44,1016.04 1296.11,1016.38 1295.5,1016.5C 1294.5,967.505 1294.17,918.505 1294.5,869.5 Z"/></g>
<g><path style="opacity:1" fill="#b8b5e1" d="M 1048.5,1131.5 C 1041.36,1135.33 1033.7,1137.99 1025.5,1139.5C 1032.94,1136.46 1040.61,1133.8 1048.5,1131.5 Z"/></g>
<g><path style="opacity:1" fill="#b4b0df" d="M 982.5,1149.5 C 978.081,1150.97 973.414,1151.64 968.5,1151.5C 972.919,1150.03 977.586,1149.36 982.5,1149.5 Z"/></g>
<g><path style="opacity:1" fill="#c1bfe5" d="M 968.5,1151.5 C 962.747,1153.07 956.747,1153.9 950.5,1154C 943,1154.17 935.5,1154.33 928,1154.5C 916.296,1154.66 904.796,1153.99 893.5,1152.5C 918.527,1154.02 943.527,1153.68 968.5,1151.5 Z"/></g>
<g><path style="opacity:1" fill="#e1e0f2" d="M -0.5,1650.5 C -0.166667,1650.5 0.166667,1650.5 0.5,1650.5C 0.833333,1650.5 1.16667,1650.5 1.5,1650.5C 826.833,1650.5 1652.17,1650.5 2477.5,1650.5C 2478.17,1650.5 2478.83,1650.5 2479.5,1650.5C 2479.5,1651.17 2479.5,1651.83 2479.5,1652.5C 1652.83,1652.5 826.167,1652.5 -0.5,1652.5C -0.5,1651.83 -0.5,1651.17 -0.5,1650.5 Z"/></g>
</svg>
