<?xml version="1.0" encoding="UTF-8"?>
<!DOCTYPE svg PUBLIC "-//W3C//DTD SVG 1.1//EN" "http://www.w3.org/Graphics/SVG/1.1/DTD/svg11.dtd">
<!-- Creator: CorelDRAW X8 -->
<svg xmlns="http://www.w3.org/2000/svg" xml:space="preserve" width="76.2mm" height="50.8mm" version="1.1" style="shape-rendering:geometricPrecision; text-rendering:geometricPrecision; image-rendering:optimizeQuality; fill-rule:evenodd; clip-rule:evenodd"
viewBox="0 0 7620 5080"
 xmlns:xlink="http://www.w3.org/1999/xlink">
 <defs>
  <style type="text/css">
   <![CDATA[
    .str0 {stroke:#33CD62;stroke-width:16.93}
    .fil0 {fill:#33CD62}
    .fil1 {fill:#EEFA00}
   ]]>
  </style>
 </defs>
 <g id="Слой_x0020_1">
  <metadata id="CorelCorpID_0Corel-Layer"/>
  <rect class="fil0 str0" width="7612" height="5080"/>
  <g id="_2673753325584">
   <path class="fil1" d="M2732 3095c51,12 105,24 152,47l41 13c18,7 35,12 46,31 5,10 5,13 9,22 6,14 6,10 12,24 4,10 5,14 9,23 4,8 8,18 12,25l39 92c6,12 6,8 11,20l259 580c10,14 29,14 48,20 32,9 70,21 105,26l56 11c12,1 35,1 56,4l182 21c62,6 123,13 184,4 18,-3 43,-1 64,-4l76 -9c7,-1 24,-6 30,-7l121 -11 189 -42c33,-12 50,-73 63,-104l202 -459c23,-43 40,-95 61,-138 22,-44 34,-110 79,-125l95 -36c20,-6 34,-10 53,-15 14,-3 55,-2 55,-13 0,-63 -83,-136 -128,-171 -14,-12 -3,-4 -19,-12 -59,-29 -83,-43 -153,-36 -30,4 -43,8 -68,18 -2,1 -5,2 -7,3l-94 78c-11,11 -19,22 -27,35 -17,25 -56,123 -75,130 -9,-15 -4,-4 -10,-22 -4,-11 -5,-13 -11,-24l-33 -67c-26,-43 -58,-76 -99,-105 -4,-3 -6,-4 -11,-7 -23,-16 -73,-36 -113,-41 -25,-4 -40,2 -62,3 -104,6 -179,103 -219,189 -4,9 -8,17 -12,25 -8,15 -1,13 -18,17 -5,-20 -7,-21 -16,-38l-20 -39c-17,-30 -35,-57 -60,-81l-17 -14c-77,-61 -99,-59 -195,-59 -43,0 -69,18 -98,34 -27,14 -53,35 -73,58l-41 54c-53,86 -37,80 -55,117 -21,-6 -20,-17 -27,-36 -7,-18 -12,-30 -22,-46 -52,-85 -114,-172 -222,-182 -38,-3 -87,1 -127,20l-33 17c-12,7 -2,1 -11,7 -8,6 -14,10 -21,16l-34 29c-27,27 -43,58 -65,88 -1,1 -2,2 -2,3l-5 8c-4,9 -6,20 -6,31z"/>
   <path class="fil1" d="M3117 1782l-5 72c0,81 21,183 50,258 5,15 10,22 17,38 7,17 5,25 19,35 0,-35 -4,-51 -4,-86 0,-83 1,-140 25,-220 6,-23 12,-40 20,-61 4,-8 8,-19 12,-29l45 -82c70,-106 159,-194 271,-253l19 -9c1,0 2,-1 3,-1l26 -11c10,-4 20,-6 31,-10 73,-23 81,-30 170,-43 11,-1 25,-2 37,-3l189 18c21,6 47,13 66,20 57,21 110,40 159,76 70,51 137,104 186,177l25 38c0,0 8,13 9,14 34,61 54,118 75,183 20,66 28,162 14,234 -3,16 -1,35 -1,52 21,-14 8,-7 16,-29 5,-14 10,-17 15,-34 9,-29 31,-80 35,-106 21,-122 28,-191 9,-314 -2,-18 -11,-57 -17,-74 -8,-23 -15,-45 -23,-67l-60 -126c-12,-21 -22,-35 -36,-54l-133 -143c-10,-7 -17,-11 -27,-19 -43,-35 -94,-62 -144,-87 -113,-56 -309,-89 -429,-62 -52,12 -97,16 -146,36 -13,5 -21,6 -34,11 -12,4 -21,9 -35,14 -50,21 -100,50 -143,84l-48 43c-12,9 -15,11 -26,23 -96,96 -171,212 -207,346 -13,49 -25,101 -25,151z"/>
   <path class="fil1" d="M3741 2008c-63,0 -96,-8 -167,-1l-227 -4 26 30c1,1 3,3 4,4l5 4c1,1 2,1 3,2l218 158c4,3 6,4 11,7 69,45 64,42 45,98l-32 95c-4,17 -7,31 -14,49 -6,15 -11,29 -17,42 -6,17 -7,35 -12,51 -10,29 -28,63 -28,99l15 -3c1,0 2,-1 3,-2l148 -109c15,-10 25,-18 39,-29 23,-17 105,-85 125,-85 10,0 25,10 32,15l5 4c1,1 4,3 5,4l60 44c8,7 12,11 20,17l179 129c0,0 1,1 2,2l6 3c9,7 12,9 26,10l-70 -233c-56,-166 -69,-142 23,-208l236 -172c15,-10 13,1 15,-21 -38,-9 -286,-8 -324,-3 -30,5 -82,9 -92,-24 -3,-10 -3,-12 -6,-22l-112 -349c-13,9 -15,29 -21,47l-75 228c-4,10 -5,17 -9,27 -6,17 -12,31 -17,51 -5,17 -7,45 -28,45z"/>
  </g>
 </g>
</svg>
