<svg width="900mm" height="600mm" version="1.1" viewBox="0 0 900 600" xmlns="http://www.w3.org/2000/svg"><g><rect width="900" height="600" fill="#fff"/><path d="m250.54 0c21.647 2.9287 54.138 6.9416 86.962 16.667 56.25 16.667 112.5 16.666 112.5 16.666v4.1656s-28.125 8.3349-42.187 8.3349c-14.062 0-70.312-8.3349-98.437-8.3349s-84.375 16.668-84.375 22.918c0 6.2501 56.25 6.2502 112.5 22.917 56.25 16.667 112.5 16.666 112.5 16.666v4.1656s-28.125 8.3349-42.187 8.3349c-14.062 0-70.312-8.3349-98.437-8.3349s-84.375 16.668-84.375 22.918 56.25 6.2502 112.5 22.917c56.25 16.667 112.5 16.666 112.5 16.666v4.1656s-28.125 8.3344-42.187 8.3344c-14.062 0-70.312-8.3344-98.437-8.3344s-84.375 16.668-84.375 22.918c0 6.2501 56.25 6.2497 112.5 22.916 56.25 16.667 112.5 16.667 112.5 16.667v4.1656s-28.125 8.3344-42.187 8.3344c-14.062 0-70.312-8.3344-98.437-8.3344s-84.375 16.667-84.375 22.917c0 6.2501 56.25 6.2502 112.5 22.917s112.5 16.667 112.5 16.667v4.1656s-28.125 8.3344-42.187 8.3344c-14.062 0-70.312-8.3344-98.437-8.3344s-84.375 16.667-84.375 22.917c0 6.2501 56.25 6.2502 112.5 22.917 56.25 16.667 112.5 16.667 112.5 16.667v4.1656s-28.125 8.3344-42.187 8.3344c-14.062 0-70.312-8.3344-98.437-8.3344s-84.375 16.667-84.375 22.917 56.25 6.2502 112.5 22.917c56.25 16.667 112.5 16.667 112.5 16.667v4.1656s-28.125 8.3344-42.187 8.3344c-14.062 0-70.312-8.3344-98.437-8.3344s-84.375 16.667-84.375 22.917c0 6.2501 56.25 6.2502 112.5 22.917 56.25 16.667 112.5 16.666 112.5 16.666v4.1662s-28.125 8.3344-42.187 8.3344c-14.062 0-70.312-8.3344-98.437-8.3344s-84.375 16.667-84.375 22.917c0 6.2501 56.25 6.2502 112.5 22.917 56.25 16.667 112.5 16.666 112.5 16.666v2.0831s-28.125 8.3344-42.187 8.3344c-14.062 0-70.312-8.3344-98.437-8.3344s-84.375 16.667-84.375 22.917c0 3.3926 16.639 4.9588 40.789 8.3334h184.21v-5.2e-4h450v-600h-450-199.46z" fill="#0047bb"/></g></svg>
