<?xml version="1.0" encoding="utf-8"?>
<!-- Generator: Adobe Illustrator 22.0.0, SVG Export Plug-In . SVG Version: 6.00 Build 0)  -->
<svg version="1.1" id="Слой_1" xmlns="http://www.w3.org/2000/svg" xmlns:xlink="http://www.w3.org/1999/xlink" x="0px" y="0px"
	 viewBox="0 0 1000 600" style="enable-background:new 0 0 1000 600;" xml:space="preserve">
<style type="text/css">
	.st0{fill:#E30A17;}
	.st1{fill:#25ADFE;}
	.st2{fill:#007000;}
	.st3{fill:#FFFFFF;}
</style>
<desc>Flag of Germany</desc>
<rect id="black_stripe" class="st0" width="1000" height="600"/>
<rect id="red_stripe" y="200" class="st1" width="1000" height="400"/>
<rect id="gold_stripe" y="400" class="st2" width="1000" height="200"/>
<path class="st3" d="M536.7,300l75.5-24.5l-46.7,64.2v-79.4l46.7,64.2L536.7,300z M541.8,344.7c-24.7,39-76.2,50.6-115.2,25.9
	s-50.6-76.2-25.9-115.2c24.7-39,76.2-50.6,115.2-25.9c10.4,6.6,19.3,15.5,25.9,25.9c-24.7-27.4-66.9-29.7-94.3-5s-29.7,66.9-5,94.3
	c24.7,27.4,66.9,29.7,94.3,5C538.6,348.1,540.3,346.4,541.8,344.7z"/>
</svg>
