<?xml version="1.0" encoding="UTF-8"?>
<!DOCTYPE svg PUBLIC "-//W3C//DTD SVG 1.1//EN" "http://www.w3.org/Graphics/SVG/1.1/DTD/svg11.dtd">
<!-- Creator: CorelDRAW X8 -->
<svg xmlns="http://www.w3.org/2000/svg" xml:space="preserve" width="135.467mm" height="90.0852mm" version="1.1" style="shape-rendering:geometricPrecision; text-rendering:geometricPrecision; image-rendering:optimizeQuality; fill-rule:evenodd; clip-rule:evenodd"
viewBox="0 0 13547 9009"
 xmlns:xlink="http://www.w3.org/1999/xlink">
 <defs>
  <style type="text/css">
   <![CDATA[
    .str0 {stroke:#007CC2;stroke-width:16.93}
    .fil0 {fill:#007CC3}
    .fil10 {fill:#726F6A}
    .fil6 {fill:#88887C}
    .fil5 {fill:#9DA19B}
    .fil7 {fill:#C6CACA}
    .fil8 {fill:#DDE3E2}
    .fil1 {fill:#EB931C}
    .fil4 {fill:#EBAC0C}
    .fil9 {fill:#F3C30C}
    .fil3 {fill:#FAFAFA}
    .fil2 {fill:#FDF500}
   ]]>
  </style>
 </defs>
 <g id="Слой_x0020_1">
  <metadata id="CorelCorpID_0Corel-Layer"/>
  <rect class="fil0 str0" x="-34" y="-42" width="13597" height="9025"/>
  <g id="_1768066132448">
   <path class="fil1" d="M2969 4174l-126 -273 28 -16 174 252 172 -246c-27,91 -3,97 -65,201 -60,101 -42,97 -183,82zm-101 -471l191 274 142 -215c14,68 -140,330 -179,286 -60,-69 -158,-250 -154,-345zm-5 -224l211 310 -9 0 148 -254c12,157 -64,227 -145,339 -72,-72 -226,-282 -205,-395zm-14 -241l223 329 152 -248 15 11c0,111 -90,279 -169,345 -74,-65 -238,-322 -221,-437zm221 147c63,-71 -16,-140 174,-264 7,77 -19,153 -68,206 -33,36 -101,151 -112,160 -26,-36 -236,-386 -236,-406 1,-116 118,54 139,86 35,56 77,191 103,218zm-263 -544c152,24 197,240 251,345 36,-38 17,-199 186,-315 14,197 -89,253 -180,407 -1,-1 -118,-177 -138,-203 -58,-74 -113,-126 -119,-234zm244 214c-37,-39 -74,-111 -117,-162 -39,-47 -123,-102 -122,-166 2,-112 120,18 142,52 52,79 60,146 89,195 18,-11 104,-271 207,-285 29,99 -135,292 -199,366zm3 -315c-19,-75 -38,-120 -44,-201 -3,-52 -4,-164 24,-203 43,29 72,140 74,194 1,64 -31,154 -54,210zm-390 -509c-58,-69 18,-143 43,-208 10,-28 25,-89 37,-109 0,0 65,-76 65,-76 -16,65 -33,151 -57,211 -21,53 -35,47 -53,81 -16,29 -16,75 -35,101zm278 1954l197 -9c54,-155 94,-96 97,-303 2,-117 12,-265 23,-382 22,-220 37,-561 37,-781l0 -75 -50 3 -139 111c7,-121 75,-382 -81,-465 -25,103 -57,106 -66,242 -6,102 43,188 34,268 -28,-22 -78,-166 -257,-172l-4 -64 -42 -163 223 -663 18 -19 -4 5 29 26 55 -136c-26,-64 -65,41 -99,81 -73,88 -341,318 -346,333 -3,17 116,407 126,496 56,495 87,678 87,1196 0,364 41,216 162,471z"/>
   <path class="fil1" d="M5039 3902c63,49 183,215 149,248 -32,31 -89,-62 -99,-88 -31,-74 -51,-64 -50,-160zm195 247c-12,-50 125,-243 166,-255 -4,61 -84,299 -166,255zm-182 -384c68,44 139,264 171,182 25,-65 111,-208 170,-238l22 12 -194 363 -169 -319zm-19 -235c26,50 68,82 97,137 19,36 57,171 83,103 31,-79 104,-259 186,-289 4,96 -143,359 -209,387 -79,-39 -147,-249 -157,-338zm180 48c16,-96 104,-308 197,-337 8,110 -154,386 -223,428 -68,-47 -167,-236 -172,-329l19 -14 179 252zm-197 -448c118,8 161,240 171,247 1,0 113,-222 144,-262 140,-178 113,-17 24,111 -48,68 -122,208 -160,255 -3,-2 -101,-135 -115,-153 -53,-69 -64,-104 -64,-198zm205 50c-20,-180 277,-444 227,-293 -12,38 -243,377 -257,385 -116,-166 -159,-183 -184,-396 134,51 139,212 214,304zm-16 -454c-29,-37 -56,-152 -54,-202 3,-48 35,-170 73,-186 36,69 24,336 -19,388zm-212 -103l-43 -133c0,253 18,627 42,879 9,94 23,597 36,637 15,43 75,123 78,153l209 1c1,-8 144,-167 155,-239 17,-113 2,-273 8,-392 12,-238 40,-505 40,-732l-66 -118c0,165 -192,229 -245,382 -50,-43 -227,-293 -204,-377 122,37 173,255 222,291l59 -174 -22 -17c-12,-14 106,-372 -47,-501 -139,123 -63,335 -65,461l-157 -121z"/>
   <path class="fil2" d="M3087 4473c-22,-8 -44,-18 -62,0l8 346c-7,-128 -117,-550 -237,-609 -6,192 65,423 131,604 52,143 70,125 72,298 2,121 2,244 -1,365 -6,239 -16,472 -25,709 -3,86 -52,671 -48,690 163,24 86,-407 133,-488l18 -812c0,-327 -9,-652 117,-956 93,-222 278,-523 545,-522 3,-182 -158,-80 -231,-23 -74,58 -152,186 -205,225 72,-184 227,-253 371,-344l-33 -64c-118,-11 -305,192 -359,288 -61,108 -147,392 -193,455l-1 -162z"/>
   <path class="fil2" d="M5193 5947l0 303c43,94 -31,651 133,626 3,-5 -32,-622 -34,-691 -4,-136 -25,-218 -35,-335 -9,-102 -2,-248 -3,-358 -1,-122 -3,-246 -4,-368 -2,-149 22,-167 71,-291 71,-181 141,-415 135,-610l-19 -10 -153 303c0,28 -9,38 -39,37l-10 -38c-2,-16 0,-13 -7,-29 -105,-9 -33,104 -54,147 -13,-9 -158,-382 -195,-444 -61,-105 -221,-303 -353,-300l-43 65c89,59 139,52 225,145 31,35 141,166 152,204 -82,-82 -260,-341 -397,-312l-45 102c305,0 526,407 595,670 83,317 80,846 80,1184z"/>
   <path class="fil3" d="M5497 4149l-1 22 0 82 161 -2 11 5 -17 250 -26 204 109 39 60 -273 588 -80c0,241 139,156 129,118 4,-28 0,-50 7,-79 19,-81 19,-39 82,-80 18,-11 35,-28 54,-31 -1,23 0,15 -10,35 -17,31 -14,25 -6,33 39,-58 35,-122 -16,-175 -36,-38 -55,-26 -82,-46 -34,-23 -6,-49 -43,-84l-93 -5 -20 164 -592 -77 -52 -287 -117 38 28 235 -154 -6z"/>
   <path class="fil2" d="M4993 2623l157 121c2,-126 -74,-338 65,-461 153,129 35,487 47,501 74,-148 236,-153 242,-157 55,-78 -37,-267 -56,-332 -15,-51 -50,-88 -65,-139 -12,-37 -31,-129 -46,-158l-14 4 118 398 -40 10 -136 -789 -14 -3 -26 303 -12 3 -28 -172 -19 -3 -59 415 -38 -3 7 -287c-105,74 -60,258 -47,353 21,163 -40,239 -36,396z"/>
   <path class="fil2" d="M2957 1744c-12,128 -31,267 -61,392 -65,271 -8,157 13,361 -8,-22 -59,-139 -54,-151l-43 11 47 -197 -126 398 4 64c179,6 229,150 257,172 9,-80 -40,-166 -34,-268 9,-136 41,-139 66,-242 156,83 88,344 81,465l139 -111c7,-10 -7,-354 -3,-416 10,-143 0,-250 -74,-370l0 -1 19 501 -10 2 -92 -605 -24 3 -46 431 -16 -1 6 -574 6 0 -55 136z"/>
   <path class="fil4" d="M5540 2032c23,76 101,134 48,216 -8,-9 -1,1 -7,-14 -2,-5 -3,-9 -4,-14 -3,-12 -2,-14 -7,-27 -26,-66 -54,-78 -74,-134 -26,-75 -40,-150 -55,-229 6,6 67,80 70,86 7,12 22,91 29,116zm-60 263c-42,-67 -51,-100 -74,-175 -25,-80 -91,-343 -77,-414 82,121 83,254 133,400 30,90 44,105 84,183 20,39 3,180 -22,215 -21,-29 0,-139 -44,-209zm-530 195l43 133c-4,-157 57,-233 36,-396 -13,-95 -58,-279 47,-353l-7 287 38 3 59 -415 19 3 28 172 12 -3 26 -303 14 3 136 789 40 -10 -118 -398 14 -4c15,29 34,121 46,158 15,51 50,88 65,139 19,65 111,254 56,332 -6,4 -168,9 -242,157l22 17 166 -145 2 23 66 118c7,-14 52,-324 65,-382 30,-136 74,-235 105,-354 15,-60 -160,-194 -212,-237 -37,-32 -212,-241 -215,-243 -25,13 -91,219 -279,355 -51,37 -61,28 -56,100 8,116 24,356 24,454z"/>
   <path class="fil5" d="M2751 4189l22 98 -1136 31c-114,71 492,136 523,138 113,7 588,-9 646,35l-37 -325 -18 23z"/>
   <path class="fil3" d="M3760 4172c-51,6 -116,2 -169,0 -77,-5 -60,28 -116,54l-39 49 1 -9 1385 1c-182,-185 -246,-54 -324,-106l-738 11z"/>
   <path class="fil2" d="M3447 4522c-45,40 -180,806 -139,833l-15 -7 393 -828c11,-65 -16,-49 -76,-46 -47,2 -81,-8 -130,-1l-33 49z"/>
   <path class="fil1" d="M5460 4155l-76 87c-6,33 -19,69 -45,89l1 3c-6,56 -47,90 -56,182l153 -303 19 10c6,195 -64,429 -135,610 -49,124 -73,142 -71,291 1,122 3,246 4,368 1,110 -6,256 3,358 10,117 31,199 35,335 2,69 37,686 34,691 -164,25 -90,-532 -133,-626 0,183 10,345 24,521 7,90 -28,133 32,217 35,50 104,103 165,108 0,-70 -54,-219 -66,-306 -15,-118 -20,-227 -31,-346 -23,-234 -5,-476 -27,-703 -23,-232 3,-435 2,-658 -1,-144 180,-522 157,-592l47 -320 1 -22 -37 6z"/>
   <path class="fil2" d="M4583 4549l383 807 11 2 -167 -841c-41,-55 -162,-44 -238,-38l11 70z"/>
   <path class="fil1" d="M2872 7056c17,-60 88,-137 145,-156 0,51 -28,60 -51,97 -15,25 -21,20 -39,38 -25,24 -14,22 -55,21zm-103 -2890l37 325c-18,121 160,425 160,568 0,226 13,469 1,687 -13,226 -28,478 -30,700 -1,95 -13,245 -28,339 -7,46 -68,283 -61,302 97,27 207,-149 192,-257 -11,-86 18,-321 18,-442 -47,81 30,512 -133,488 -4,-19 45,-604 48,-690 9,-237 19,-470 25,-709 3,-121 3,-244 1,-365 -2,-173 -20,-155 -72,-298 -66,-181 -137,-412 -131,-604 120,59 230,481 237,609l-8 -346c-20,30 4,44 -19,75 -48,-29 -33,-96 -61,-141 -6,-10 -67,-130 -67,-133l-56 -90 -53 -18z"/>
   <path class="fil6" d="M4427 4416l-1101 -4 -6 7 14 43c95,35 115,-40 113,60l33 -49c49,-7 83,3 130,1 60,-3 87,-19 76,46l28 -46 827 1 4 5 38 69 -11 -70c76,-6 197,-17 238,38l-9 -50 172 24 -51 -86 -495 11z"/>
   <path class="fil3" d="M1637 4318l1136 -31 -22 -98c-201,9 -1020,-17 -1114,129z"/>
   <path class="fil1" d="M4498 4161c78,52 142,-79 324,106l48 56 9 23 43 59 51 86c118,188 181,435 180,667 -1,84 28,780 40,789 0,-338 3,-867 -80,-1184 -69,-263 -290,-670 -595,-670l45 -102c137,-29 315,230 397,312 -11,-38 -121,-169 -152,-204 -86,-93 -136,-86 -225,-145l43 -65c132,-3 292,195 353,300 37,62 182,435 195,444 21,-43 -51,-156 54,-147 -25,-20 -35,7 -79,-2 -32,-30 -28,-57 -43,-89l-21 -53c-22,-21 -39,-82 -55,-115l-41 -78c-59,-108 -240,-285 -369,-271l-12 -6 -110 289z"/>
   <path class="fil7" d="M3394 4317l-97 151 37 -6 -14 -43 6 -7 1101 4 -444 -12c0,-67 20,-47 83,-50l350 -11c87,-1 402,-18 463,3l-9 -23 -1476 -6z"/>
   <path class="fil1" d="M3255 4172l-16 34c0,55 -6,36 -31,69 -22,28 -3,45 -25,73 -27,35 -25,18 -33,67 -9,50 -24,30 -39,63l-24 -5 1 162c46,-63 132,-347 193,-455 54,-96 241,-299 359,-288l33 64c-144,91 -299,160 -371,344 53,-39 131,-167 205,-225 73,-57 234,-159 231,23 -267,-1 -452,300 -545,522 -126,304 -117,629 -117,956 21,-16 27,-546 39,-622 28,-172 88,-336 182,-486l97 -151 81 -91c56,-26 39,-59 116,-54 53,2 118,6 169,0l-114 -307 -15 7c-158,-1 -296,187 -376,300z"/>
   <polygon class="fil6" points="3394,4317 4870,4323 4822,4267 3437,4266 3436,4275 3475,4226 "/>
   <path class="fil2" d="M3058 3186c-54,-105 -99,-321 -251,-345 6,108 61,160 119,234 20,26 137,202 138,203 91,-154 194,-210 180,-407 -169,116 -150,277 -186,315z"/>
   <path class="fil2" d="M5221 3180c-75,-92 -80,-253 -214,-304 25,213 68,230 184,396 14,-8 245,-347 257,-385 50,-151 -247,113 -227,293z"/>
   <path class="fil8" d="M4427 4416l495 -11 -43 -59c-61,-21 -376,-4 -463,-3l-350 11c-63,3 -83,-17 -83,50l444 12z"/>
   <path class="fil4" d="M3246 2638l50 -3 0 75c15,-99 24,-372 23,-487 0,-51 21,-215 4,-247 -9,-16 -145,-123 -154,-124 74,120 84,227 74,370 -4,62 10,406 3,416z"/>
   <path class="fil2" d="M5016 3130c0,94 11,129 64,198 14,18 112,151 115,153 38,-47 112,-187 160,-255 89,-128 116,-289 -24,-111 -31,40 -143,262 -144,262 -10,-7 -53,-239 -171,-247z"/>
   <path class="fil2" d="M3051 3055c64,-74 228,-267 199,-366 -103,14 -189,274 -207,285 -29,-49 -37,-116 -89,-195 -22,-34 -140,-164 -142,-52 -1,64 83,119 122,166 43,51 80,123 117,162z"/>
   <path class="fil2" d="M2967 3167c-21,-32 -138,-202 -139,-86 0,20 210,370 236,406 11,-9 79,-124 112,-160 49,-53 75,-129 68,-206 -190,124 -111,193 -174,264 -26,-27 -68,-162 -103,-218z"/>
   <path class="fil2" d="M5284 2801l-59 174c-49,-36 -100,-254 -222,-291 -23,84 154,334 204,377 53,-153 245,-217 245,-382l-2 -23 -166 145z"/>
   <path class="fil9" d="M2914 1732c37,6 -144,660 -223,663l42 163 126 -398 -47 197 43 -11c-5,12 46,129 54,151 -21,-204 -78,-90 -13,-361 30,-125 49,-264 61,-392l-29 -26 4 -5 -18 19z"/>
   <path class="fil2" d="M5213 3578l-179 -252 -19 14c5,93 104,282 172,329 69,-42 231,-318 223,-428 -93,29 -181,241 -197,337z"/>
   <path class="fil2" d="M2849 3238c-17,115 147,372 221,437 79,-66 169,-234 169,-345l-15 -11 -152 248 -223 -329z"/>
   <polygon class="fil4" points="3169,1851 3006,1608 3000,2182 3016,2183 3062,1752 3086,1749 3178,2354 3188,2352 "/>
   <path class="fil2" d="M5524 2504c25,-35 42,-176 22,-215 -40,-78 -54,-93 -84,-183 -50,-146 -51,-279 -133,-400 -14,71 52,334 77,414 23,75 32,108 74,175 44,70 23,180 44,209z"/>
   <path class="fil2" d="M5033 3530c10,89 78,299 157,338 66,-28 213,-291 209,-387 -82,30 -155,210 -186,289 -26,68 -64,-67 -83,-103 -29,-55 -71,-87 -97,-137z"/>
   <path class="fil3" d="M2942 4185l-120 -1 56 90c49,31 149,11 211,11 158,-2 79,-11 150,-79l16 -34 -116 4 -197 9z"/>
   <path class="fil3" d="M5030 4227c38,23 1,29 70,28 33,-1 66,-1 99,-1 61,-1 129,5 185,-12l76 -87 -145 5 -209 -1 -117 -10 41 78z"/>
   <path class="fil2" d="M2863 3479c-21,113 133,323 205,395 81,-112 157,-182 145,-339l-148 254 9 0 -211 -310z"/>
   <path class="fil5" d="M5481 4344c15,-6 149,-11 168,-7 12,28 11,41 5,71l-181 -4 8 -60zm-32 147l202 15 17 -250 -11 -5 -161 2 0 -82 -47 320z"/>
   <path class="fil2" d="M2969 4174c141,15 123,19 183,-82 62,-104 38,-110 65,-201l-172 246 -174 -252 -28 16 126 273z"/>
   <path class="fil2" d="M2868 3703c-4,95 94,276 154,345 39,44 193,-218 179,-286l-142 215 -191 -274z"/>
   <path class="fil2" d="M5052 3765l169 319 194 -363 -22 -12c-59,30 -145,173 -170,238 -32,82 -103,-138 -171,-182z"/>
   <path class="fil2" d="M3054 2740c23,-56 55,-146 54,-210 -2,-54 -31,-165 -74,-194 -28,39 -27,151 -24,203 6,81 25,126 44,201z"/>
   <path class="fil2" d="M5205 2726c43,-52 55,-319 19,-388 -38,16 -70,138 -73,186 -2,50 25,165 54,202z"/>
   <path class="fil7" d="M2910 4311c16,40 38,57 51,86 25,55 34,36 98,35 52,-2 63,2 86,-46 8,-15 41,-82 43,-94 -84,28 -188,32 -278,19z"/>
   <path class="fil5" d="M5085 4342c5,-21 95,-11 120,-11 43,0 91,-2 134,0 26,-20 39,-56 45,-89 -56,17 -124,11 -185,12 -33,0 -66,0 -99,1 -69,1 -32,-5 -70,-28 16,33 33,94 55,115z"/>
   <path class="fil2" d="M2691 2395c79,-3 260,-657 223,-663l-223 663z"/>
   <path class="fil10" d="M2910 4311c90,13 194,9 278,-19 -2,12 -35,79 -43,94 -23,48 -34,44 -86,46 -64,1 -73,20 -98,-35 -13,-29 -35,-46 -51,-86zm-32 -37c0,3 61,123 67,133 28,45 13,112 61,141 23,-31 -1,-45 19,-75 18,-18 40,-8 62,0l24 5c15,-33 30,-13 39,-63 8,-49 6,-32 33,-67 22,-28 3,-45 25,-73 25,-33 31,-14 31,-69 -71,68 8,77 -150,79 -62,0 -162,20 -211,-11z"/>
   <path class="fil2" d="M5588 2248c53,-82 -25,-140 -48,-216 -7,-25 -22,-104 -29,-116 -3,-6 -64,-80 -70,-86 15,79 29,154 55,229 20,56 48,68 74,134 5,13 4,15 7,27 1,5 2,9 4,14 6,15 -1,5 7,14z"/>
   <path class="fil8" d="M5085 4342l21 53 9 20 165 -2c34,-29 38,-57 60,-79l-1 -3c-43,-2 -91,0 -134,0 -25,0 -115,-10 -120,11z"/>
   <path class="fil2" d="M2664 2231c19,-26 19,-72 35,-101 18,-34 32,-28 53,-81 24,-60 41,-146 57,-211 0,0 -65,76 -65,76 -12,20 -27,81 -37,109 -25,65 -101,139 -43,208z"/>
   <path class="fil6" d="M5106 4395c15,32 11,59 43,89 44,9 54,-18 79,2 7,16 5,13 7,29l10 38c30,1 39,-9 39,-37 9,-92 50,-126 56,-182 -22,22 -26,50 -60,79l-165 2 -9 -20z"/>
   <path class="fil2" d="M5234 4149c82,44 162,-194 166,-255 -41,12 -178,205 -166,255z"/>
   <path class="fil2" d="M5039 3902c-1,96 19,86 50,160 10,26 67,119 99,88 34,-33 -86,-199 -149,-248z"/>
   <path class="fil3" d="M5481 4344l-8 60 181 4c6,-30 7,-43 -5,-71 -19,-4 -153,1 -168,7z"/>
   <path class="fil7" d="M6511 4514c2,-1 3,-5 3,-4l16 -40c11,-22 -3,-5 14,-14 16,-9 62,-15 94,-64 -8,-8 -11,-2 6,-33 10,-20 9,-12 10,-35 -19,3 -36,20 -54,31 -63,41 -63,-1 -82,80 -7,29 -3,51 -7,79z"/>
   <path class="fil2" d="M2872 7056c41,1 30,3 55,-21 18,-18 24,-13 39,-38 23,-37 51,-46 51,-97 -57,19 -128,96 -145,156z"/>
  </g>
 </g>
</svg>
