<?xml version="1.0" encoding="UTF-8"?>
<svg xmlns="http://www.w3.org/2000/svg" width="1200" height="800" viewBox="0 0 900 600">
  <rect fill="#0081C4" width="900" height="600"/>
  <circle fill="white" cx="450" cy="300" r="150"/>
  <path fill="white" d="M450 15l5 130c-3,0 -7,0 -11,0l6 -130zm155 280l130 5 -130 6c0,-4 0,-8 0,-11zm-150 160l-5 130 -6 -130c4,0 8,0 11,0zm-160 -149l-130 -6 130 -5c0,3 0,7 0,11z"/>
  <g id="goose">
   <path fill="white" stroke="black" stroke-width="3" d="M441 320c3,-4 57,-76 68,-83 11,-7 25,-17 34,-18 9,-1 10,1 8,5 -2,3 -20,28 -22,34 -3,7 -7,29 -19,38 -6,5 -29,25 -27,41 -10,2 -33,0 -33,0l-9 -17z"/>
   <path d="M483 336c-1,-15 19,-34 26,-39 -17,-3 -46,13 -60,29 -1,1 -1,2 0,3 8,10 24,7 34,7z"/>
   <path fill="white" stroke="black" stroke-width="3" d="M406 360c-1,3 -7,9 -17,13 -11,3 -22,5 -39,22 -3,2 0,4 9,5 9,0 56,0 64,0 7,-1 43,-7 54,-18 10,-10 12,-39 46,-41 11,-1 15,-1 17,-2 1,0 2,-1 1,-2 -1,-1 -2,-2 -6,-5 -4,-4 1,-9 -12,-5 -12,4 -17,7 -24,8 -6,0 -15,2 -26,1 -12,-1 -25,-1 -28,-15 -1,-7 2,-24 1,-33 0,-14 -8,-24 -30,-35 -11,-5 -19,-12 -26,-17 -15,-10 -23,-19 -31,-28 -4,-5 -4,-6 -4,-6 -1,-1 -5,-6 -3,6 -1,0 -6,1 0,12 -1,0 -7,0 -1,10 -2,1 -6,3 1,11 0,1 -4,6 4,12 0,4 -1,11 9,17 0,4 1,12 13,15 0,5 0,7 9,15 1,2 5,3 3,16 -1,8 3,21 5,26 3,6 9,15 11,18z"/>
   <path d="M535 332c-4,-4 1,-9 -12,-5 -1,0 -2,0 -2,0 1,4 1,11 1,14 0,0 1,0 1,0 11,-1 15,-2 17,-2 1,0 2,-2 1,-2 -1,-1 -2,-2 -6,-5z"/>
   <circle fill="white" cx="530" cy="332" r="2"/>
   <path d="M401 368c2,-1 4,-4 5,-6 0,-1 0,-2 -1,-2 -1,3 -7,9 -17,12 -10,4 -21,6 -38,23 -3,2 -1,3 5,4 0,-1 0,-3 2,-6 3,-5 18,-13 23,-15 6,-3 20,-9 21,-10z"/>
   <path d="M392 386c-5,3 -13,5 -18,4 -4,-1 -7,-1 -10,2 -1,2 1,4 3,3 2,-3 11,-1 15,-2 4,-1 8,-2 12,-5 1,-1 0,-4 -2,-2z"/>
   <path d="M484 336c-11,5 -27,6 -34,3 -8,-3 -10,-13 -11,-16 -1,-2 -1,-24 0,-35 1,-11 -21,-29 -23,-31 -1,0 -1,-2 0,-4 -2,-1 -4,-1 -5,-2 0,0 0,0 0,1 0,4 2,18 11,23 9,5 9,18 8,23 0,4 -1,20 1,27 1,7 5,10 8,16 3,5 1,8 0,9 0,0 3,-3 -4,4 -6,7 -12,7 -16,7 -3,1 -10,0 -14,-1 0,1 0,1 -1,2 7,3 17,4 28,-2 6,-3 15,-13 15,-15 0,-2 2,-2 5,-1 2,2 2,13 1,15 -1,3 -9,7 -10,7 -2,0 -10,0 -14,1 -4,0 -2,4 -4,6 -3,-1 -7,-1 -16,0 -10,1 -8,12 -6,12 2,1 11,2 21,0 10,-3 9,7 6,8 -1,1 -6,4 -10,7 1,0 2,0 2,0 8,-1 44,-7 54,-18 3,-2 5,-5 6,-9 -2,-1 -9,2 -8,5 0,4 -1,4 -4,5 -4,0 -10,-6 -6,-14 4,-8 0,-17 -1,-20 0,-2 0,-3 2,-4 2,0 21,-5 23,-6 2,-1 3,-2 3,-3 -2,0 -5,0 -7,0z"/>
   <path fill="#ED1C24" d="M523 341c5,-5 4,-13 0,-14 0,0 0,0 0,0 -12,3 -17,7 -24,8 -3,0 -7,1 -11,1 -5,2 -12,5 -15,6 -7,2 -8,3 -4,5 4,2 3,11 3,14 0,2 -3,12 -1,16 1,3 4,3 7,4 9,-11 12,-38 45,-40z"/>
   <path d="M544 223c-7,6 -11,14 -16,21 -3,6 -7,13 -6,20 0,2 2,1 2,0 2,-8 4,-14 9,-22 3,-6 9,-11 12,-18 0,-1 -1,-1 -1,-1z"/>
   <path d="M532 228c-11,7 -16,25 -16,37 0,2 3,2 3,0 1,-6 2,-12 4,-18 2,-7 7,-12 10,-18 1,-1 0,-2 -1,-1z"/>
   <path d="M523 231c-5,3 -8,11 -10,16 -2,6 -5,13 -2,20 1,2 4,1 4,-1 -2,-7 -1,-13 2,-20 1,-5 5,-9 7,-14 0,-1 -1,-1 -1,-1z"/>
   <path d="M511 238c-7,7 -8,21 -7,30 1,2 4,2 4,0 1,-10 1,-20 5,-29 1,-1 -1,-2 -2,-1z"/>
   <path d="M497 256c0,-3 -3,-3 -3,-2 -2,5 -1,12 0,17 0,3 4,2 4,0 -1,-6 -2,-9 -1,-15z"/>
   <path d="M492 273c-1,-2 -1,-5 -1,-7 0,-2 0,-5 -2,-5 -1,1 -1,4 -1,6 0,3 -1,5 0,8 1,2 5,0 4,-2z"/>
   <path d="M486 276c-1,-1 -1,-3 -1,-4 0,-2 1,-3 0,-4 -1,-1 -2,-1 -2,0 -1,1 -1,3 -1,5 -1,1 -1,3 0,5 1,3 5,1 4,-2z"/>
   <path d="M481 280c-1,-1 -1,-2 -1,-2 0,-1 0,-2 0,-3 0,-1 -2,-1 -3,0 -1,2 -1,5 0,6 1,3 5,1 4,-1z"/>
   <path d="M475 284c0,0 0,-2 0,-3 0,-1 -1,-1 -2,0 0,0 0,1 0,2 0,0 0,1 0,1 1,2 2,2 2,0z"/>
   <path d="M471 288c0,0 0,-1 0,-1 0,-1 0,-2 0,-2 0,-1 -2,0 -2,0 0,2 0,2 0,4 0,2 3,2 2,-1z"/>
   <path d="M510 271c-1,0 -1,0 -1,0 -4,1 -3,4 -5,8 0,3 -1,8 0,11 0,3 3,1 4,-2 0,-3 0,-7 1,-9 1,-2 2,-6 1,-8z"/>
   <path d="M502 280c0,-1 0,-6 -2,-6 -3,-1 -3,4 -3,6 1,3 -1,8 1,11 1,1 2,0 2,-1 1,-1 1,-3 1,-5 1,-2 1,-3 1,-5z"/>
   <path d="M493 279c0,-1 0,-2 0,-2 -3,0 -4,2 -4,4 0,5 1,8 2,12 1,2 3,2 3,0 1,-3 0,-5 0,-8 -1,-3 0,-4 -1,-6z"/>
   <path d="M483 283c-2,6 0,7 0,13 0,2 3,3 3,1 1,-2 0,-4 0,-5 0,-4 0,-6 0,-9 0,-2 -2,-2 -3,0z"/>
   <path d="M476 287c-2,5 -2,9 -1,15 0,2 4,1 4,-1 -1,-6 -1,-9 -1,-14 1,-1 -2,-2 -2,0z"/>
   <path d="M471 304c0,-3 -1,-7 0,-10 1,-2 -1,-3 -3,-2 -2,3 -1,10 -1,14 1,3 6,1 4,-2z"/>
   <path d="M465 307c0,0 0,0 0,0 0,-1 -1,-1 -1,-2 0,-1 0,-2 0,-3 0,-1 1,-2 0,-2 0,-1 0,-1 0,-2 0,0 0,0 0,0 -3,0 -3,2 -4,4 0,2 0,8 3,8 2,1 3,-1 2,-3z"/>
   <path d="M459 312c-1,-2 0,-5 -1,-8 0,-1 -2,-1 -2,0 -1,1 -1,4 -1,5 0,2 0,4 2,5 1,2 4,-1 2,-2z"/>
   <path d="M516 270c-2,3 -3,7 -4,11 -1,0 -2,5 -2,6 -1,1 1,3 2,3 1,0 2,-1 2,-2 0,0 0,0 0,-1 0,0 0,0 0,0 1,-3 1,-5 3,-8 1,-2 0,-4 1,-7 1,-2 -1,-3 -2,-2z"/>
   <path d="M503 268c-3,-10 1,-20 0,-22 -2,-3 -4,4 -4,6 -1,5 -1,13 0,17 1,3 5,2 4,-1z"/>
   <path d="M384 236c-12,-6 -20,-16 -28,-27 -1,-1 -2,0 -2,1 2,11 8,13 13,19 4,5 10,9 16,11 3,1 4,-3 1,-4z"/>
   <path d="M384 246c-4,-4 -10,-8 -15,-11 -4,-4 -8,-11 -13,-13 -1,0 -1,1 -1,1 1,5 7,10 10,14 5,4 11,10 18,11 1,0 2,-1 1,-2z"/>
   <path d="M389 256c-6,-4 -12,-7 -18,-12 -5,-4 -10,-10 -16,-14 -1,0 -2,1 -2,2 3,5 10,11 15,15 6,4 13,9 19,12 2,1 4,-2 2,-3z"/>
   <path d="M390 263c-3,-4 -11,-5 -16,-10 -5,-4 -10,-8 -16,-11 -2,-1 -4,1 -2,2 4,5 11,8 16,13 4,3 11,8 17,9 1,0 2,-2 1,-3z"/>
   <path d="M391 270c-10,-6 -20,-9 -29,-17 -1,0 -2,0 -2,0 0,0 -1,0 -1,0 0,0 0,1 0,1 -1,1 0,1 0,2 8,8 20,14 30,17 2,1 4,-2 2,-3z"/>
   <path d="M365 265c0,0 0,1 0,0 0,1 0,0 0,0z"/>
   <path d="M393 277c-9,-3 -17,-7 -25,-12 -3,-2 -5,2 -3,3 8,6 18,10 27,13 3,1 4,-3 1,-4z"/>
   <path d="M399 286c-5,-1 -8,-3 -12,-4 -4,-2 -8,-4 -12,-5 -1,0 -2,1 -1,2 2,3 6,5 10,6 4,3 9,4 13,5 3,1 4,-3 2,-4z"/>
   <path d="M405 295c-3,-2 -6,-2 -9,-2 -4,-1 -7,-2 -11,-3 -1,0 -2,2 -1,2 2,3 6,3 9,4 3,1 7,2 11,2 2,1 3,-3 1,-3z"/>
   <path d="M407 304c0,-1 -1,-1 -2,-2 -3,0 -6,0 -8,0 -2,-1 -4,-2 -6,-2 0,0 -1,1 0,1 1,2 3,2 5,3 2,1 5,2 8,3 1,0 2,0 3,-1 0,-1 0,-1 0,-2z"/>
   <path d="M405 250c-4,-4 -9,-6 -14,-8 -1,0 -2,0 -1,1 1,2 3,3 5,5 2,1 5,4 8,5 1,0 3,-2 2,-3z"/>
   <path d="M407 255c-6,-1 -9,-3 -13,-5 -2,-1 -4,2 -2,3 4,2 8,4 13,6 3,1 4,-4 2,-4z"/>
   <path d="M409 261c-2,0 -5,-1 -8,-1 -3,0 -5,-2 -8,-3 -1,-1 -2,1 -1,2 2,2 5,4 7,5 4,1 7,1 10,1 3,1 3,-4 0,-4z"/>
   <path d="M411 268c-5,0 -10,-1 -15,-2 -1,-1 -2,1 -1,2 1,2 4,2 7,3 2,2 6,2 9,2 3,0 3,-5 0,-5z"/>
   <path d="M419 276c-3,-1 -5,-1 -8,-1 -3,0 -7,0 -10,0 -1,0 -1,0 -2,0 0,0 0,1 0,1 0,0 0,0 0,0 0,1 0,1 1,2 3,1 6,1 9,2 3,0 7,1 10,-1 0,-1 0,-2 0,-3z"/>
   <path d="M421 283c-3,-2 -6,-1 -9,-1 -2,0 -4,0 -7,0 -1,-1 -2,-1 -3,0 0,0 -1,0 0,1 1,2 5,3 7,4 4,0 7,0 11,0 2,-1 2,-3 1,-4z"/>
   <path d="M424 289c-3,-1 -7,0 -10,0 -3,-1 -6,-2 -9,0 0,0 0,0 0,1 2,2 5,2 7,3 4,0 8,0 12,1 3,0 3,-5 0,-5z"/>
   <path d="M425 295c-2,0 -5,0 -7,0 -2,0 -4,0 -6,1 -1,0 -2,2 -1,2 4,3 9,2 14,2 3,0 3,-4 0,-5z"/>
   <path d="M426 302c-2,0 -4,0 -6,0 -2,0 -3,1 -4,1 -1,0 -2,-1 -3,-1 -2,0 -3,2 -1,3 1,2 4,2 6,2 3,0 6,0 8,-1 2,-1 2,-3 0,-4z"/>
   <path d="M426 310c-5,0 -9,-1 -13,-1 -2,0 -2,3 -1,3 4,2 9,2 13,3 3,0 4,-5 1,-5z"/>
   <path d="M424 317c-3,1 -7,-1 -10,-1 -2,0 -2,2 -1,3 4,1 8,3 12,3 3,-1 2,-5 -1,-5z"/>
   <path d="M424 323c-3,0 -6,0 -10,0 -1,0 -2,2 0,3 2,1 4,1 6,1 2,0 4,1 6,0 1,-2 0,-4 -2,-4z"/>
   <path d="M424 328c-2,0 -4,0 -5,0 -2,0 -3,0 -5,0 -1,0 -1,2 -1,3 2,1 3,1 5,1 2,1 3,0 5,1 3,0 3,-4 1,-5z"/>
   <path d="M427 335c-2,0 -3,0 -5,0 -2,1 -4,0 -6,0 -1,0 -1,2 0,2 3,3 8,3 11,2 2,0 2,-3 0,-4z"/>
   <path d="M427 340c-1,0 -3,0 -4,0 -2,1 -4,1 -5,1 -1,0 -2,1 -1,2 1,1 2,1 4,2 3,0 5,0 7,-1 3,-1 2,-5 -1,-4z"/>
   <path d="M428 345c-3,1 -6,1 -9,2 -1,0 -1,1 -1,1 3,3 8,2 11,1 4,-1 2,-5 -1,-4z"/>
   <path d="M431 350c-2,0 -3,1 -5,2 -2,0 -4,0 -5,1 0,0 -1,0 0,0 0,2 2,2 4,2 2,1 4,-1 6,-1 2,0 3,-4 0,-4z"/>
   <path d="M407 309c-2,-2 -4,-2 -6,-2 -2,0 -5,0 -6,1 -1,0 -1,0 -1,1 1,1 3,2 5,2 2,0 5,2 7,1 2,0 2,-2 1,-3z"/>
   <path d="M406 314c-4,0 -7,0 -12,1 0,0 0,0 0,0 4,3 8,3 12,3 3,1 3,-4 0,-4z"/>
   <path d="M408 320c-3,0 -6,-1 -9,0 0,0 -4,0 -3,2 0,1 2,1 3,1 3,1 6,1 8,2 3,0 3,-5 1,-5z"/>
   <path d="M410 328c-2,0 -4,-1 -6,-1 -2,-1 -4,0 -6,0 -2,-1 -2,1 -1,2 1,1 3,1 5,1 2,0 5,1 7,2 2,0 4,-4 1,-4z"/>
   <path d="M409 334c-1,0 -12,0 -12,1 1,2 2,2 4,2 3,1 5,1 8,1 3,1 3,-3 0,-4z"/>
   <path d="M411 341c0,-1 0,-1 0,0 0,0 0,-1 0,-1 0,0 -1,0 -1,0 0,0 0,0 0,0 -2,0 -3,0 -5,0 -2,0 -3,0 -5,0 -1,0 -2,2 -1,2 4,2 7,2 10,2 2,1 3,-1 3,-2 0,0 0,0 0,0 0,0 -1,-1 -1,-1z"/>
   <path d="M413 347c-1,-2 -4,-1 -6,-1 -2,0 -4,0 -5,1 -1,0 -1,0 -1,0 1,2 4,2 6,3 2,0 5,1 6,-1 1,-1 1,-1 0,-2z"/>
   <path d="M417 355c-1,-2 -4,-2 -5,-3 -3,0 -5,0 -7,1 -1,0 -1,1 -1,1 2,2 4,2 6,2 2,1 4,2 6,1 1,-1 1,-2 1,-2z"/>
  </g>
</svg>
