<svg version="1.1" xmlns="http://www.w3.org/2000/svg" xmlns:xlink="http://www.w3.org/1999/xlink" width="2400" height="1600" viewBox="0 0 2400 1600">
<path id="Rectángulo-1" d="M645.000,0.000 L2403.000,0.000 L2403.000,800.000 L645.000,800.000 L645.000,0.000 z" fill="#00990F" />
<path id="Rectángulo-1-cop" d="M645.000,801.000 L2403.000,801.000 L2403.000,1602.000 L645.000,1602.000 L645.000,801.000 z" fill="#0094FF" />
<path id="Rectángulo-2" d="M-0.000,-0.000 L645.000,-0.000 L645.000,1602.000 L-0.000,1602.000 L-0.000,-0.000 z" fill="#E10000" />
<path id="Rectángulo-1-cop" d="M645.000,736.000 L2403.000,736.000 L2403.000,866.000 L645.000,866.000 L645.000,736.000 z" fill="#FFFFFF" />
<g id="Grupo-1">
<path id="Elipse-1" d="M323.000,595.000 C437.047,595.000 529.500,687.453 529.500,801.500 C529.500,915.547 437.047,1008.000 323.000,1008.000 C208.953,1008.000 116.500,915.547 116.500,801.500 C116.500,687.453 208.953,595.000 323.000,595.000 z" fill="#FFC90E" />
<g id="Elipse-1-copia" >
<path id="Elipse-1-copia-fill" d="M323.000,662.491 C399.772,662.491 462.009,724.728 462.009,801.500 C462.009,878.272 399.772,940.509 323.000,940.509 C246.228,940.509 183.991,878.272 183.991,801.500 C183.991,724.728 246.228,662.491 323.000,662.491 z" fill="#FFC90E" />
<path id="Elipse-1-copia-stroke" d="M323.000,657.509 C402.534,657.509 467.009,721.976 467.009,801.500 C467.009,881.024 402.534,945.491 323.000,945.491 C243.466,945.491 178.991,881.024 178.991,801.500 C178.991,721.976 243.466,657.509 323.000,657.509 z" fill="none" stroke="#E10000" stroke-width="10" stroke-linecap="round" stroke-linejoin="round" />
</g>
<g id="Elipse-1-copia-2" >
<path id="Elipse-1-copia-2-fill" d="M323.000,729.234 C362.911,729.234 395.266,761.589 395.266,801.500 C395.266,841.411 362.911,873.766 323.000,873.766 C283.089,873.766 250.734,841.411 250.734,801.500 C250.734,761.589 283.089,729.234 323.000,729.234 z" fill="#FFC90E" />
<path id="Elipse-1-copia-2-stroke" d="M323.000,721.758 C367.012,721.758 402.690,757.460 402.690,801.500 C402.690,845.540 367.012,881.242 323.000,881.242 C278.988,881.242 243.310,845.540 243.310,801.500 C243.310,757.460 278.988,721.758 323.000,721.758 z" fill="none" stroke="#E10000" stroke-width="15" stroke-linecap="round" stroke-linejoin="round" />
</g>
<path id="Polígono-1" d="M323.453,616.554 L354.448,658.047 L323.453,699.540 L292.458,658.047 L323.453,616.554 z" fill="#E10000" />
<path id="Polígono-1-copia" d="M323.453,898.466 L354.448,939.959 L323.453,981.452 L292.458,939.959 L323.453,898.466 z" fill="#E10000" />
</g>
</svg>
