<?xml version="1.0" encoding="UTF-8"?>
<!DOCTYPE svg PUBLIC "-//W3C//DTD SVG 1.1//EN" "http://www.w3.org/Graphics/SVG/1.1/DTD/svg11.dtd">
<!-- Creator: CorelDRAW X8 -->
<svg xmlns="http://www.w3.org/2000/svg" xml:space="preserve" width="162.56mm" height="92.2866mm" version="1.1" style="shape-rendering:geometricPrecision; text-rendering:geometricPrecision; image-rendering:optimizeQuality; fill-rule:evenodd; clip-rule:evenodd"
viewBox="0 0 16256 9229"
 xmlns:xlink="http://www.w3.org/1999/xlink"
 xmlns:dc="http://purl.org/dc/elements/1.1/"
 xmlns:cc="http://creativecommons.org/ns#"
 xmlns:rdf="http://www.w3.org/1999/02/22-rdf-syntax-ns#">
 <defs>
  <style type="text/css">
   <![CDATA[
    .str0 {stroke:white;stroke-width:26.46;stroke-opacity:0.960784}
    .fil0 {fill:#536B8C}
    .fil1 {fill:white;fill-opacity:0.960784}
   ]]>
  </style>
 </defs>
 <g id="Слой_x0020_1">
  <metadata id="CorelCorpID_0Corel-Layer"/>
  <g id="Salar_flag.svg">
   <rect class="fil0" x="-983" y="-482" width="17332" height="9829"/>
   <path class="fil1 str0" d="M7828 6996l-33 -6 -10 -1239c-6,-681 -10,-1499 -10,-1816 0,-328 -7,-582 -15,-587 -20,-12 -19,-13 -1239,1566 -605,783 -1139,1471 -1187,1529l-86 105 -10 -65c-6,-37 -11,-1028 -12,-2203l-1 -2137 315 0 314 0 0 618c0,798 19,2011 30,2010 15,-1 109,-121 821,-1046 1150,-1494 1428,-1849 1447,-1849 20,0 392,731 1228,2414 451,908 814,1657 807,1665 -8,7 -119,76 -249,154l-234 141 -616 -1220c-339,-671 -626,-1230 -639,-1243 -22,-22 -25,7 -35,263 -5,157 -10,883 -10,1612l0 1325 -35 10c-39,10 -488,10 -541,-1l0 0z"/>
  </g>
 </g>
</svg>
