<?xml version="1.0" encoding="UTF-8" standalone="no"?>
<svg
   version="1.0"
   width="1288.000000pt"
   height="856.000000pt"
   viewBox="0 0 1288.000000 856.000000"
   preserveAspectRatio="xMidYMid meet"
   id="svg24"
   sodipodi:docname="jkdfsjkfsa.svg"
   inkscape:version="1.2.1 (9c6d41e410, 2022-07-14)"
   xmlns:inkscape="http://www.inkscape.org/namespaces/inkscape"
   xmlns:sodipodi="http://sodipodi.sourceforge.net/DTD/sodipodi-0.dtd"
   xmlns="http://www.w3.org/2000/svg"
   xmlns:svg="http://www.w3.org/2000/svg">
  <defs
     id="defs28" />
  <sodipodi:namedview
     id="namedview26"
     pagecolor="#ffffff"
     bordercolor="#000000"
     borderopacity="0.25"
     inkscape:showpageshadow="2"
     inkscape:pageopacity="0.0"
     inkscape:pagecheckerboard="0"
     inkscape:deskcolor="#d1d1d1"
     inkscape:document-units="pt"
     showgrid="false"
     inkscape:zoom="0.49811377"
     inkscape:cx="577.17738"
     inkscape:cy="647.44245"
     inkscape:window-width="1920"
     inkscape:window-height="991"
     inkscape:window-x="-9"
     inkscape:window-y="-9"
     inkscape:window-maximized="1"
     inkscape:current-layer="svg24" />
  <g
     inkscape:groupmode="layer"
     id="layer2"
     inkscape:label="Layer 1">
    <rect
       style="fill:#ffffff;fill-opacity:1;fill-rule:evenodd;stroke-width:0.75"
       id="rect920"
       width="1287.9722"
       height="856.63507"
       x="2.8940907e-08"
       y="-0.56462991" />
  </g>
  <g
     transform="translate(0.000000,856.000000) scale(0.100000,-0.100000)"
     fill="#000000"
     stroke="none"
     id="g22"
     style="fill:#009fd6;fill-opacity:1">
    <path
       d="M2942 8185 c-136 -154 -192 -409 -140 -648 12 -60 -1 -78 -73 -101 -213 -70 -584 -262 -819 -424 -174 -120 -457 -429 -633 -690 -98 -147 -167 -262 -170 -285 -2 -17 21 -27 163 -77 91 -32 222 -80 292 -108 125 -50 350 -162 377 -188 20 -19 2 -38 -51 -53 -49 -14 -418 -192 -418 -202 0 -4 28 -10 63 -13 89 -10 301 -52 431 -86 531 -138 1090 -438 1358 -729 80 -87 89 -84 63 25 -39 168 -49 268 -49 514 -1 249 5 323 46 525 27 136 43 192 94 320 48 122 60 148 122 250 61 103 95 133 167 146 82 14 192 47 240 71 46 23 136 88 181 130 l32 30 162 -52 c89 -29 178 -54 199 -57 82 -11 158 33 201 118 11 21 41 61 65 89 25 28 57 70 72 93 14 23 41 59 59 80 66 78 53 98 -95 148 -80 26 -116 44 -160 81 -124 103 -164 132 -273 196 l-113 68 -40 81 c-46 95 -72 125 -129 151 -65 31 -138 42 -336 52 -220 12 -304 31 -435 98 -173 89 -291 239 -364 465 -7 20 -19 37 -26 37 -7 0 -36 -25 -63 -55z m48 -140 c7 -8 25 -43 41 -76 16 -34 60 -101 98 -148 82 -104 91 -120 91 -165 0 -43 -50 -112 -102 -138 -34 -18 -39 -18 -66 -4 -29 15 -82 70 -82 86 0 4 7 24 15 44 16 38 61 66 105 66 22 0 27 19 8 38 -29 29 -105 8 -160 -45 -33 -32 -39 -34 -54 -22 -13 11 -15 25 -10 79 12 113 71 300 94 300 5 0 15 -7 22 -15z m405 -415 c22 -11 47 -19 56 -20 21 0 43 -26 35 -39 -10 -16 -158 -91 -168 -85 -8 5 -2 121 8 152 5 17 22 15 69 -8z m391 -72 c10 -15 -171 -188 -196 -188 -20 0 -60 49 -60 73 0 24 90 96 140 111 56 18 107 20 116 4z m287 -28 c73 -21 167 -136 167 -205 0 -12 6 -27 13 -34 10 -10 3 -20 -35 -54 -25 -23 -51 -51 -56 -62 -17 -37 -23 -93 -13 -136 14 -62 3 -70 -64 -47 -181 61 -361 42 -457 -49 -43 -41 -71 -118 -65 -175 10 -83 40 -122 129 -169 116 -60 93 -83 -48 -48 -105 26 -162 59 -230 132 -85 90 -109 157 -108 297 0 87 5 119 28 185 37 110 88 210 106 210 8 0 23 -16 32 -35 22 -44 44 -60 80 -60 51 0 110 40 231 158 l119 115 66 -6 c37 -4 84 -11 105 -17z m-1092 -150 c27 -12 66 -20 100 -20 31 0 58 -3 62 -6 3 -3 -16 -36 -42 -73 -81 -111 -133 -232 -146 -336 -4 -33 -9 -64 -12 -68 -3 -4 -44 32 -91 81 -64 65 -104 97 -152 120 -82 40 -185 72 -239 74 -42 1 -72 22 -55 37 14 13 239 114 334 151 47 18 99 38 115 46 43 18 76 17 126 -6z m1422 -168 c23 -21 18 -33 -28 -57 -66 -34 -80 -64 -80 -163 0 -49 -4 -87 -10 -87 -19 0 -53 67 -63 125 -14 77 0 112 65 169 50 45 77 48 116 13z m141 -101 c16 -18 15 -20 -14 -45 -17 -14 -35 -26 -40 -26 -16 0 -50 -86 -50 -126 0 -21 9 -58 20 -82 17 -38 17 -44 4 -49 -22 -8 -71 42 -90 93 -12 31 -14 56 -9 91 9 63 27 95 72 132 43 35 82 40 107 12z m120 -93 c14 -19 13 -23 -4 -46 -30 -37 -26 -76 11 -106 17 -15 43 -26 59 -26 16 0 41 -10 56 -23 l27 -23 -32 -27 c-56 -47 -133 -59 -190 -29 -27 13 -39 28 -52 67 -31 89 -26 116 32 179 28 31 57 56 64 56 8 0 21 -10 29 -22z m-1426 -129 c11 -104 60 -214 119 -270 66 -64 171 -110 298 -133 60 -11 71 -22 42 -40 -23 -15 -169 9 -231 37 -168 78 -297 269 -284 422 5 54 24 93 39 78 4 -4 12 -47 17 -94z m-643 51 c28 -14 85 -59 131 -105 95 -94 114 -140 114 -267 0 -92 -19 -139 -75 -186 -99 -81 -267 -66 -352 31 -45 51 -51 95 -21 149 17 32 36 49 76 68 28 14 52 28 52 33 0 17 -88 6 -130 -17 -55 -29 -80 -68 -87 -140 -11 -110 49 -205 156 -248 46 -18 76 -22 171 -22 106 -1 119 1 165 26 93 50 156 130 176 227 7 31 18 63 26 71 12 13 16 12 33 -10 11 -14 20 -30 20 -37 0 -23 99 -99 163 -126 69 -28 210 -57 278 -57 21 0 40 -4 43 -9 7 -11 -45 -99 -93 -159 -80 -99 -298 -262 -456 -341 -236 -117 -471 -122 -694 -15 -77 38 -110 61 -186 135 -141 137 -189 243 -187 414 3 287 118 483 340 580 97 42 255 44 337 5z m1458 -65 c67 -17 132 -48 165 -78 12 -11 22 -17 22 -13 0 4 5 4 10 1 6 -4 8 -11 4 -16 -3 -5 -9 -7 -14 -4 -22 14 -207 13 -272 0 -80 -17 -107 -13 -139 21 l-22 24 24 26 c50 54 118 66 222 39z m-2360 -392 c-19 -102 -11 -253 17 -363 19 -77 40 -123 96 -217 26 -45 10 -57 -41 -32 -22 11 -70 31 -107 44 -153 55 -234 89 -251 105 -18 17 -17 21 37 126 123 240 238 430 255 420 4 -3 1 -40 -6 -83z m1599 -759 c3 -3 0 -28 -7 -55 -8 -28 -17 -92 -21 -142 -10 -137 -26 -156 -70 -85 -27 42 -66 80 -116 110 -15 10 -28 22 -28 26 0 5 40 33 90 62 49 29 97 61 106 72 17 18 36 23 46 12z m-1037 -159 c124 -39 247 -57 370 -54 122 3 145 -3 122 -29 -37 -44 -46 -120 -22 -198 8 -28 11 -52 6 -57 -6 -6 -63 9 -138 36 -167 58 -387 110 -717 168 -65 11 -76 15 -76 30 0 15 115 65 217 94 48 14 89 28 92 30 11 11 72 3 146 -20z m787 -181 c56 -39 98 -90 128 -159 29 -62 70 -198 70 -228 0 -27 -26 -31 -57 -9 -15 11 -79 46 -141 77 -62 32 -115 62 -118 67 -9 15 17 38 43 38 38 0 103 38 103 60 0 18 -5 19 -65 13 -63 -6 -65 -5 -100 30 -37 37 -43 66 -21 106 31 55 83 57 158 5z"
       id="path16"
       style="fill:#009fd6;fill-opacity:1" />
    <path
       d="M3925 7331 c-64 -61 -120 -111 -125 -111 -6 0 -10 -4 -10 -10 0 -20 38 -9 131 37 86 43 100 46 163 45 77 -1 72 -12 43 93 -13 47 -16 50 -50 53 -35 3 -44 -4 -152 -107z"
       id="path18"
       style="fill:#009fd6;fill-opacity:1" />
    <path
       d="M 0,2535 C 0,1570 -2.6542289,774.67662 1.3457711,774.67662 15.345771,774.67662 170,917 270,1022 l 95,99 65,-57 c 36,-32 111,-102 166,-157 l 101,-99 154,156 153,157 80,-79 c 45,-43 119,-112 166,-152 47,-41 102,-91 123,-111 l 38,-36 -103,-93 c -57,-52 -145,-136 -196,-187 -51,-51 -96,-93 -100,-93 -4,0 -58,49 -120,109 l -113,108 25,30 c 13,16 68,69 121,118 l 97,89 33,-40 34,-39 -70,-70 c -38,-39 -69,-78 -69,-88 0,-22 40,-77 56,-77 17,0 234,218 234,235 0,8 -21,33 -47,57 -25,24 -75,71 -111,106 -35,34 -69,62 -74,62 -6,0 -40,-33 -78,-73 C 893,857 823,789 775,746 L 689,667 536,819 C 452,902 380,970 376,970 372,970 319,924 259,868 185,799 150,759 150,744 c 0,-25 213,-231 233,-226 25,7 57,46 57,70 0,16 -20,42 -65,84 -36,34 -65,66 -65,73 0,16 46,65 61,65 6,0 61,-49 123,-110 L 605,591 490,476 375,361 205,526 C 111,617 19.680348,703.98507 9.6803482,708.98507 -6.3196518,717.98507 0,691 0,355 V 0 h 6440 6440 v 360 c 0,198 3.654,366.65423 0.654,366.65423 C 12868.654,726.65423 12676,553 12585,461 c -49,-50 -94,-91 -100,-91 -6,0 -60,50 -120,110 l -110,110 117,117 118,117 40,-39 40,-39 -75,-76 c -41,-41 -75,-79 -75,-83 0,-12 51,-77 61,-77 11,0 218,199 230,222 8,15 -9,36 -103,128 -61,60 -117,110 -122,110 -6,0 -79,-68 -163,-152 l -152,-152 -138,134 c -76,74 -144,143 -151,153 -7,9 -20,17 -27,17 -18,0 -235,-209 -235,-226 0,-15 220,-224 236,-224 24,0 57,36 57,64 0,21 -17,45 -69,97 l -68,69 29,30 c 16,16 34,30 39,30 6,0 62,-49 125,-108 l 115,-108 -99,-103 c -115,-119 -127,-128 -156,-107 -47,33 -360,350 -357,362 2,7 88,95 191,195 l 188,181 122,-118 c 66,-66 137,-136 157,-156 19,-21 38,-38 42,-38 3,0 75,70 159,156 l 154,155 21,-24 c 70,-81 351.985,-345.63184 372.985,-345.63184 5,0 1.015,727.63184 1.015,1778.63184 V 4290 H 6440 0 Z M 1968,968 c 41,-37 72,-72 70,-78 -5,-14 -221,-210 -232,-210 -15,0 -56,42 -56,58 0,7 27,42 60,76 65,68 74,97 41,137 -15,18 -23,21 -39,14 -35,-16 -233,-206 -230,-221 4,-17 218,-234 231,-234 6,0 76,68 156,150 80,83 151,150 158,150 6,0 80,-67 165,-150 84,-82 156,-150 159,-150 12,0 229,220 229,232 0,15 -221,227 -237,228 -18,0 -63,-52 -63,-73 0,-10 33,-49 73,-87 l 72,-69 -35,-35 -35,-35 -119,112 -120,113 115,111 114,112 105,-103 c 58,-56 147,-140 199,-187 l 94,-85 -120,-106 C 2657,579 2568,492 2525,445 l -78,-86 -149,148 c -89,89 -157,149 -171,151 -18,2 -54,-29 -171,-148 l -149,-152 -76,79 c -42,44 -129,129 -195,191 l -118,111 193,189 194,190 45,-41 c 25,-23 78,-71 118,-109 z m 1554,-124 39,-42 107,108 c 59,59 131,129 160,155 l 52,48 118,-114 c 65,-63 155,-145 200,-184 l 82,-70 -78,-69 C 4160,638 4071,552 4005,485 l -121,-122 -117,113 -117,113 111,108 c 61,59 115,110 122,112 6,2 23,-11 38,-29 l 28,-33 -64,-72 c -36,-40 -65,-81 -65,-91 0,-30 29,-64 53,-64 26,1 237,197 237,221 0,8 -49,63 -109,122 -85,84 -112,106 -127,100 -11,-3 -21,-9 -24,-12 -3,-3 -68,-68 -146,-143 L 3564,670 3410,820 c -84,83 -157,150 -162,150 -18,0 -228,-204 -228,-221 0,-22 209,-229 232,-229 23,0 68,57 61,78 -3,9 -35,47 -70,83 -65,66 -65,67 -48,92 29,46 43,42 119,-31 39,-37 92,-86 118,-107 l 48,-40 -118,-117 -117,-116 -194,187 c -170,165 -192,190 -183,207 6,11 41,47 79,81 37,33 120,110 183,170 l 114,110 120,-116 c 66,-64 137,-135 158,-157 z m 1202,233 c 22,-24 76,-75 119,-114 l 78,-70 -38,-29 c -21,-15 -78,-66 -127,-113 l -89,-85 -23,29 c -13,17 -24,36 -24,44 0,8 25,39 56,70 74,74 76,78 53,123 -26,51 -50,49 -109,-9 -26,-27 -75,-74 -108,-107 -34,-32 -62,-65 -62,-74 0,-22 212,-223 232,-220 9,2 82,68 162,146 80,79 150,142 155,140 5,-1 75,-67 155,-145 80,-79 153,-143 161,-143 8,0 55,39 103,86 48,48 97,93 110,101 12,9 22,23 22,32 0,10 -50,66 -112,125 -97,94 -114,107 -136,101 -32,-8 -51,-32 -52,-66 0,-21 16,-41 70,-89 l 71,-63 -24,-31 c -14,-17 -32,-32 -40,-34 -9,-2 -65,43 -131,105 l -115,108 117,112 117,111 110,-106 c 61,-59 149,-142 198,-185 48,-43 87,-82 87,-87 0,-5 -24,-27 -52,-50 -29,-23 -117,-104 -194,-181 -78,-76 -146,-139 -150,-139 -5,1 -72,64 -149,140 -113,113 -145,140 -168,140 -23,0 -56,-27 -174,-145 l -146,-145 -61,63 c -33,35 -118,118 -188,184 -71,67 -128,127 -128,134 0,7 48,58 107,113 58,56 143,138 187,184 44,45 82,82 84,82 3,0 23,-19 46,-43 z m 2365,-285 56,-52 -95,-87 C 6998,605 6909,520 6853,464 l -102,-103 -117,117 -117,117 114,107 c 63,59 119,108 126,108 6,0 23,-14 37,-31 31,-37 29,-43 -48,-119 -39,-38 -56,-62 -56,-80 1,-32 32,-73 53,-69 26,6 237,219 237,240 0,10 -4,19 -9,19 -5,0 -54,45 -110,100 -74,72 -106,98 -119,93 -9,-3 -84,-71 -165,-151 L 6429,666 6277,818 c -141,141 -155,152 -178,143 -27,-10 -219,-202 -219,-219 0,-12 203,-214 221,-220 14,-6 79,41 79,56 0,24 -22,57 -77,114 l -56,56 22,31 c 12,17 27,31 33,31 12,0 233,-209 233,-220 0,-4 -49,-58 -108,-119 L 6119,359 5939,532 c -99,95 -187,184 -196,197 -15,23 -14,25 23,60 22,20 107,100 191,178 83,79 154,143 158,143 6,0 140,-126 258,-243 36,-35 63,-54 70,-50 7,5 77,73 157,153 l 145,145 144,-135 c 79,-74 169,-159 200,-188 z m 499,291 c 21,-21 73,-70 116,-110 72,-65 77,-73 65,-91 -28,-39 -213,-202 -230,-202 -16,0 -59,43 -59,59 0,10 57,68 109,113 46,40 46,48 1,96 -15,16 -28,21 -43,16 -29,-8 -227,-204 -227,-224 0,-17 211,-230 227,-230 5,0 76,68 158,150 82,83 154,150 160,150 6,0 78,-67 160,-150 82,-82 154,-150 159,-150 13,0 238,229 234,238 -2,5 -51,54 -109,110 -86,83 -112,102 -136,102 -22,0 -33,-6 -41,-25 -20,-43 -15,-53 53,-116 36,-34 65,-67 65,-74 0,-21 -40,-65 -59,-65 -18,0 -231,202 -231,219 0,5 51,56 113,114 l 114,106 59,-60 c 32,-34 121,-117 197,-186 76,-69 137,-129 135,-132 -2,-4 -40,-40 -85,-79 -45,-40 -134,-123 -198,-184 L 8179,367 8063,481 c -64,63 -129,126 -144,142 -48,48 -63,41 -226,-117 l -148,-144 -75,77 c -41,42 -128,125 -192,185 -65,59 -118,112 -118,116 0,5 39,47 88,94 242,233 297,285 300,286 1,0 20,-17 40,-37 z m 2366,-286 61,-57 -95,-87 C 9868,605 9778,519 9720,463 l -106,-103 -114,116 -115,115 113,110 c 63,60 119,109 126,109 7,0 27,-15 44,-33 l 33,-34 -38,-35 c -21,-19 -55,-53 -76,-76 l -37,-42 22,-40 c 13,-22 30,-40 38,-40 19,0 244,224 239,237 -9,23 -218,213 -234,213 -10,0 -50,-33 -89,-72 -39,-40 -107,-107 -149,-148 l -78,-74 -147,147 c -103,103 -154,147 -170,147 -24,0 -217,-179 -227,-211 -7,-22 197,-223 230,-227 19,-3 29,5 44,29 11,17 17,39 14,48 -3,9 -33,44 -66,78 -56,57 -60,64 -49,87 6,14 20,30 31,36 22,11 45,-8 206,-162 l 50,-48 -110,-110 c -60,-60 -113,-110 -118,-110 -10,0 -352,321 -379,355 -17,22 -16,24 113,146 218,206 254,239 264,239 5,0 78,-69 162,-152 l 153,-153 157,157 156,156 141,-131 c 77,-73 167,-158 200,-190 z m 656,139 c 38,-40 42,-48 30,-60 -105,-100 -218,-196 -231,-196 -10,0 -27,13 -39,30 -19,27 -20,31 -6,52 9,13 38,42 66,66 54,47 64,80 33,114 -26,29 -57,21 -105,-24 -25,-24 -69,-63 -97,-87 -100,-84 -102,-75 33,-207 65,-63 121,-114 126,-114 5,0 15,6 22,14 96,102 284,286 293,286 7,0 80,-67 162,-150 83,-82 155,-150 159,-150 14,0 224,219 224,234 0,16 -181,196 -216,214 -22,11 -27,10 -49,-12 -14,-14 -25,-34 -25,-44 0,-11 32,-52 72,-92 l 72,-72 -37,-35 -38,-34 -120,113 -119,113 112,107 c 62,59 118,108 123,108 6,0 33,-23 60,-51 28,-28 114,-109 193,-181 78,-72 142,-134 142,-137 0,-4 -32,-34 -72,-66 -40,-33 -130,-116 -200,-184 l -128,-124 -108,104 c -59,56 -125,122 -147,146 -22,24 -48,43 -57,43 -16,0 -199,-166 -278,-252 -19,-21 -39,-38 -45,-38 -5,1 -95,84 -200,186 l -190,184 195,189 195,188 75,-67 c 41,-38 95,-89 120,-114 z"
       id="path20"
       style="fill:#009fd6;fill-opacity:1"
       sodipodi:nodetypes="ssccccccccccccssccccccccsssccsccccscscscssccccccscccsscssccccccssccsscccsssscccscccccccccscccsscccsccssccccscscsscscccccccccccccccccccccccccccccccccccccccccccscsccscccsssscccccccccccccccccccccsscccsccccsccscccccccccccccsccccsccccsccscccccccccsccccssccccscscscccssccccccsccscccsccsscscsscscsccsccssscccsccccccccccsccsccccccccsccccccscscccsscccscccccssccsccccccccscccccccscscsscsssccccccsccsccccsscccccccc" />
  </g>
</svg>
