<?xml version="1.0" encoding="UTF-8"?>
<svg xmlns="http://www.w3.org/2000/svg" xml:space="preserve" width="211.667mm" height="141.111mm" version="1.1" shape-rendering="geometricPrecision" text-rendering="geometricPrecision" image-rendering="optimizeQuality" fill-rule="evenodd" clip-rule="evenodd"
viewBox="0 0 21166700 14111100"
 xmlns:xlink="http://www.w3.org/1999/xlink">
 <g id="Слой_x0020_1">
  <metadata id="CorelCorpID_0Corel-Layer"/>
  <g id="_2278041440112">
   <polygon fill="#3399FF" points="21166680,0 20,0 20,14111100 21166680,14111100 "/>
   <g>
    <path fill="yellow" d="M3227990 7686180l10 -4889400 4375830 0 -20 4918990 -2206350 1229170 -2169470 -1258760zm-652730 -5569510l0 5997240 2804580 1552200 2804580 -1517330 0 -6032110 -5609160 0z"/>
    <polygon fill="#3399FF" points="7603820,7715770 7603830,2796780 3228000,2796780 3227990,7686180 5397460,8944940 "/>
    <path fill="#3399FF" d="M5701080 3462020c0,-147810 -128810,-267630 -287730,-267630 -158910,0 -287730,119820 -287730,267630 0,147810 128820,267630 287730,267630 158920,0 287730,-119820 287730,-267630z"/>
    <path fill="yellow" d="M5413330 3729650c-158770,0 -287510,-119630 -287710,-267260 0,-120 0,-230 0,-350 0,-147830 128810,-267650 287710,-267650 158940,0 287760,119820 287760,267650 0,120 0,230 0,350 -200,147630 -128950,267260 -287760,267260zm-120 -764720c-299310,0 -541950,222720 -541950,497450 0,274730 242640,497450 541950,497450 50,0 90,0 140,0 299260,-70 541820,-222760 541820,-497450 0,-274730 -242640,-497450 -541960,-497450z"/>
    <path fill="yellow" d="M4571450 6634200l-10 -1476320 1880 0 0 -410210 -534140 0 0 2474330 534140 0 120 -500 -120 -588860 -1870 1560zm599270 -2378260l-597400 0 -534140 0 0 491730 532260 0 1618900 0 0 -491210 -561660 0 0 -520 -457960 0zm1019620 491730l531390 0 0 -491210 -531390 0 0 491210zm531390 0l-531390 0 0 2472570 531960 0 0 -2472570 -570 0zm-1267950 886650l-880460 881190 120 705890 880450 -795450 -110 -791630zm174900 -1727490l-457960 0 0 349110 457960 0 0 -349110z"/>
    <path fill="yellow" d="M6989610 4363220c-231450,0 -419070,-188410 -419070,-420840 0,-232440 187620,-420850 419070,-420850 37840,0 74520,5040 109390,14480 -75790,-34620 -159900,-53890 -248460,-53890 -333890,0 -604570,273940 -604570,611860 0,337920 270680,611860 604570,611860 333890,0 604570,-273940 604570,-611860 0,-99740 -23580,-193900 -65410,-277090 12320,39630 18950,81780 18950,125490 0,232430 -187620,420840 -419040,420840z"/>
    <path fill="yellow" d="M4813180 6701340c-39240,-78080 -103990,-140810 -183140,-176960 -21970,-5950 -45070,-9120 -68920,-9120 -145810,0 -264010,118700 -264010,265130 0,146430 118200,265130 264010,265130 145800,0 264000,-118700 264000,-265130 0,-27540 -4180,-54090 -11940,-79050z"/>
    <path fill="#3399FF" d="M7417650 3802200c-64650,-128620 -171320,-231960 -301710,-291520 -36190,-9800 -74250,-15030 -113530,-15030 -240210,0 -434940,195550 -434940,436790 0,241230 194730,436780 434940,436780 240190,0 434920,-195550 434920,-436780 0,-45370 -6890,-89110 -19680,-130240z"/>
   </g>
  </g>
 </g>
</svg>
