<?xml version="1.0" encoding="UTF-8" standalone="no"?>
<!-- Created with Inkscape (http://www.inkscape.org/) -->
<svg
   xmlns:svg="http://www.w3.org/2000/svg"
   xmlns="http://www.w3.org/2000/svg"
   xmlns:xlink="http://www.w3.org/1999/xlink"
   version="1.0"
   width="800"
   height="480.00006"
   id="svg7672">
  <defs
     id="defs7674" />
  <g
     transform="translate(20,-200.93359)"
     id="layer1">
    <rect
       width="800"
       height="480"
       x="-20"
       y="200.93359"
       style="fill:#000000"
       id="black_stripe" />
    <path
       d="M 0,160 L 0,320 L 800,320 L 800,160 L 0,160 z "
       transform="translate(-20,200.93359)"
       style="fill:#dd0000"
       id="red_stripe" />
    <rect
       width="800"
       height="160"
       x="-20"
       y="520.93365"
       style="fill:#ffce00"
       id="gold_stripe" />
    <g
       transform="matrix(1.1886108,0,0,1.1886108,-71.672106,-83.164841)"
       id="g8502">
      <circle
         cx="120"
         cy="120"
         r="60"
         transform="translate(237.51474,320.93359)"
         style="fill:#ffffff"
         id="circle8422" />
      <circle
         cx="135"
         cy="120"
         r="48"
         transform="translate(237.51474,320.93359)"
         style="fill:#dd0000;fill-opacity:1"
         id="circle8424" />
      <g
         transform="matrix(0,-30,30,0,438.21474,440.93359)"
         style="fill:#ffffff"
         id="star">
        <g
           id="cone">
          <polygon
             points="0,0 0,1 0.5,1 0,0 "
             transform="matrix(0.9510565,0.309017,-0.309017,0.9510565,0,-1)"
             id="triangle" />
          <use
             transform="scale(-1,1)"
             id="use8429"
             x="0"
             y="0"
             width="800"
             height="480.00006"
             xlink:href="#triangle" />
        </g>
        <use
           transform="matrix(0.309017,0.9510565,-0.9510565,0.309017,0,0)"
           id="use8431"
           x="0"
           y="0"
           width="800"
           height="480.00006"
           xlink:href="#cone" />
        <use
           transform="matrix(0.309017,-0.9510565,0.9510565,0.309017,0,0)"
           id="use8433"
           x="0"
           y="0"
           width="800"
           height="480.00006"
           xlink:href="#cone" />
        <use
           transform="matrix(-0.809017,0.5877853,-0.5877853,-0.809017,0,0)"
           id="use8435"
           x="0"
           y="0"
           width="800"
           height="480.00006"
           xlink:href="#cone" />
        <use
           transform="matrix(-0.809017,-0.5877853,0.5877853,-0.809017,0,0)"
           id="use8437"
           x="0"
           y="0"
           width="800"
           height="480.00006"
           xlink:href="#cone" />
      </g>
    </g>
  </g>
</svg>
