<?xml version="1.0" encoding="UTF-8" standalone="no"?>
<svg
   width="900"
   height="600"
   version="1.1"
   id="svg6"
   sodipodi:docname="Flag of Nogai El.svg"
   xml:space="preserve"
   inkscape:version="1.2.1 (9c6d41e410, 2022-07-14)"
   xmlns:inkscape="http://www.inkscape.org/namespaces/inkscape"
   xmlns:sodipodi="http://sodipodi.sourceforge.net/DTD/sodipodi-0.dtd"
   xmlns="http://www.w3.org/2000/svg"
   xmlns:svg="http://www.w3.org/2000/svg"><defs
     id="defs10" /><sodipodi:namedview
     id="namedview8"
     pagecolor="#ffffff"
     bordercolor="#000000"
     borderopacity="0.25"
     inkscape:showpageshadow="2"
     inkscape:pageopacity="0.0"
     inkscape:pagecheckerboard="0"
     inkscape:deskcolor="#d1d1d1"
     showgrid="false"
     inkscape:zoom="0.5"
     inkscape:cx="687"
     inkscape:cy="409"
     inkscape:window-width="1920"
     inkscape:window-height="1001"
     inkscape:window-x="-9"
     inkscape:window-y="-9"
     inkscape:window-maximized="1"
     inkscape:current-layer="svg6" /><path
     fill="#fff"
     d="M0 0H900V600H0z"
     id="path2"
     style="fill:#bb1211;fill-opacity:1" /><g
     id="g6169"
     transform="matrix(1.4000954,0,0,1.4000954,-1318.6034,-203.97324)"><ellipse
       style="fill:#ffffff;fill-opacity:1;stroke:#ffffff;stroke-width:0.957961;stroke-dasharray:none;stroke-opacity:1;stop-color:#000000"
       id="path3711"
       cx="1263.1992"
       cy="359.94534"
       rx="124.41166"
       ry="124.71342" /><path
       style="fill:#bb1211;fill-opacity:1;stroke:#bb1211;stroke-width:1;stroke-dasharray:none;stroke-opacity:1;stop-color:#000000"
       d="m 1270.736,343.67322 c 28.6728,-1.54346 50.1003,15.94946 51.7813,42.38329 0.6808,10.7051 -1.1612,23.94154 -10.1351,33.72236 -4.9022,-6.59876 -7.6559,-14.99632 -6.453,-25.35934 2.1382,-18.41929 -10.1762,-35.45672 -34.8246,-33.97727 z"
       id="path4553-2"
       sodipodi:nodetypes="cscscc" /><ellipse
       style="fill:none;fill-opacity:1;stroke:#2b2ff6;stroke-width:0.881734;stroke-dasharray:none;stroke-opacity:1;stop-color:#000000"
       id="path3711-8"
       cx="1263.3969"
       cy="359.49951"
       rx="114.71139"
       ry="114.59039" /><ellipse
       style="fill:none;fill-opacity:1;stroke:#bb1211;stroke-width:12.8029;stroke-dasharray:none;stroke-opacity:1;stop-color:#000000"
       id="path3757"
       cx="1263.2803"
       cy="360.23505"
       rx="110.45914"
       ry="110.05315" /><ellipse
       style="fill:none;fill-opacity:1;stroke:#bb1211;stroke-width:13.474;stroke-dasharray:none;stroke-opacity:1;stop-color:#000000"
       id="path4495"
       cx="1262.6537"
       cy="303.13269"
       rx="18.269138"
       ry="17.900589" /><path
       style="fill:#bb1211;fill-opacity:1;stroke:#bb1211;stroke-width:1;stroke-dasharray:none;stroke-opacity:1;stop-color:#000000"
       d="m 1252.9791,323.95577 0.7272,109.98297 0.01,1.50352 c 0.054,8.16435 18.9644,7.55296 19.1646,0 v -1.76385 -110.45974 z"
       id="path4551"
       sodipodi:nodetypes="ccscccc" /><path
       style="fill:#bb1211;fill-opacity:1;stroke:#bb1211;stroke-width:1;stroke-dasharray:none;stroke-opacity:1;stop-color:#000000"
       d="m 1255.3747,343.67322 c -28.6728,-1.54346 -50.1003,15.94946 -51.7813,42.38329 -0.6808,10.7051 1.1612,23.94154 10.1351,33.72236 4.9022,-6.59876 7.6559,-14.99632 6.453,-25.35934 -2.1382,-18.41929 10.1762,-35.45672 34.8246,-33.97727 z"
       id="path4553"
       sodipodi:nodetypes="cscscc" /></g></svg>
