<?xml version="1.0" encoding="utf-8"?>
<!-- Generator: Adobe Illustrator 22.0.0, SVG Export Plug-In . SVG Version: 6.00 Build 0)  -->
<svg version="1.1" id="Слой_1" xmlns="http://www.w3.org/2000/svg" xmlns:xlink="http://www.w3.org/1999/xlink" x="0px" y="0px"
	 viewBox="0 0 245.8 163.7" style="enable-background:new 0 0 245.8 163.7;" xml:space="preserve">
<style type="text/css">
	.st0{fill:#DF1F37;}
	.st1{fill:#17874B;}
	.st2{fill:#FFCF01;}
</style>
<g id="Слой_x0020_1">
	<path class="st0" d="M0,0v163.7h123v-0.1c-3.6,0-7.5-0.7-11-1.3c-9-1.5-17.7-4-25.9-7.4c-11.4-4.8-21.6-11.3-30.1-19.3
		c-6.4-6-11.6-12.8-15.7-20c-15.7-28-9.9-62.4,14.1-86C63.2,21,74,14,86.1,8.8c8.1-3.4,16.8-5.8,25.7-7.4c3.9-0.7,8.2-1.3,12.2-1.3
		L120.8,0h-7.4H88H0z"/>
	<path class="st1" d="M246,163.7V0H138.4h-22.3c-5.7,0-11.3-0.1-17,0.6C89.2,2,79.5,5.3,70.9,10.2c-9.1,5.2-17.1,12-23.7,20.3
		C28.4,54.2,24,88.1,36.6,115.8c3.8,8.4,8.9,16.1,15.2,22.8c8.2,8.7,18.1,15.3,29,19.8c7.4,3,15.6,4.8,23.5,5.4
		c4.5,0.3,9.1,0,13.6,0h23.5H246z"/>
	<path class="st2" d="M141,100.5c-1.7,1.3-3.2,3-5,4.3c-4.1,2.9-8.9,4.9-13.9,5.6c-4.8,0.7-9.9,0.4-14.6-1.2
		c-4.5-1.5-8.6-3.9-12.1-7.2c-3.2-3-5.8-6.6-7.6-10.6c-1.7-3.9-2.6-8-2.9-12.2c-0.8-12.5,6.7-24.9,17.5-30.6
		c6.6-3.4,14.2-4.4,21.4-3c4.4,0.9,8.7,2.8,12.3,5.4c1.1,0.8,2.2,1.7,3.2,2.7c0.5,0.5,1,1.1,1.5,1.5c-0.7-1.6-2.1-3-3.2-4.3
		c-3-3.4-6.5-6.4-10.4-8.6c-17-9.9-39.7-5.8-51.9,10.1c-2.7,3.5-4.9,7.4-6.4,11.6c-1.7,4.8-2.5,9.9-2.4,14.9
		c0.1,4.7,1.1,9.3,2.7,13.7c1.4,3.8,3.4,7.4,5.9,10.5c3,3.8,6.5,7,10.5,9.6c12.4,7.8,28.4,8.1,41.1,0.9c4-2.3,7.7-5.3,10.7-8.8
		C138.9,103.5,140.2,102,141,100.5z"/>
	<path class="st2" d="M158,55.7v10.6V69c0,0.3,0.1,0.9-0.1,1.2c-0.2,0.3-0.6,0.4-1,0.5c-0.8,0.3-1.6,0.5-2.4,0.8
		c-3.4,1.1-6.8,2.5-10.3,3.3c0.2,0.3,0.7,0.4,1,0.5c0.8,0.3,1.6,0.5,2.4,0.8c2.4,0.7,4.8,1.6,7.1,2.3c0.8,0.3,2.3,0.5,3,1
		c0.3,0.2,0.2,0.7,0.2,1v2.7v10.9l2.2-2.9l4.1-5.7l1.6-2.3l0.7-0.8l1.1,0.3l2.6,0.9l6.4,2.1l3.7,1.2l-2.1-3l-4.1-5.7l-1.6-2.3
		l-0.6-1l0.6-0.9l1.7-2.3l4-5.6l2.2-3.1l-10.3,3.3l-2.5,0.8l-1,0.2l-0.8-0.9l-1.6-2.3l-3.9-5.4L158,55.7z"/>
</g>
</svg>
