<?xml version="1.0" encoding="UTF-8"?>
<!DOCTYPE svg PUBLIC "-//W3C//DTD SVG 1.1//EN" "http://www.w3.org/Graphics/SVG/1.1/DTD/svg11.dtd">
<!-- Creator: CorelDRAW X8 -->
<svg xmlns="http://www.w3.org/2000/svg" xml:space="preserve" width="76.2mm" height="50.8mm" version="1.1" style="shape-rendering:geometricPrecision; text-rendering:geometricPrecision; image-rendering:optimizeQuality; fill-rule:evenodd; clip-rule:evenodd"
viewBox="0 0 7620 5080"
 xmlns:xlink="http://www.w3.org/1999/xlink">
 <defs>
  <style type="text/css">
   <![CDATA[
    .str0 {stroke:#2B2A29;stroke-width:42.33}
    .fil2 {fill:none}
    .fil5 {fill:#4E1705}
    .fil8 {fill:#4F2F04}
    .fil3 {fill:#53040A}
    .fil9 {fill:#6D3103}
    .fil6 {fill:#6E1608}
    .fil7 {fill:#8B0002}
    .fil4 {fill:#940002}
    .fil33 {fill:#B20002}
    .fil45 {fill:#B6A902}
    .fil37 {fill:#B90114}
    .fil17 {fill:#BD0000}
    .fil24 {fill:#C20000}
    .fil28 {fill:#C40115}
    .fil26 {fill:#C50000}
    .fil40 {fill:#C5000B}
    .fil30 {fill:#C60002}
    .fil15 {fill:#C80000}
    .fil36 {fill:#CA0000}
    .fil38 {fill:#CA0005}
    .fil42 {fill:#CA0015}
    .fil29 {fill:#CB0000}
    .fil34 {fill:#CB000C}
    .fil35 {fill:#CB0012}
    .fil32 {fill:#CB0118}
    .fil31 {fill:#CC0016}
    .fil27 {fill:#CE0002}
    .fil39 {fill:#CF0000}
    .fil0 {fill:#D00206}
    .fil44 {fill:#D30014}
    .fil22 {fill:#E83803}
    .fil11 {fill:#E96604}
    .fil20 {fill:#EA8704}
    .fil47 {fill:#F8F409}
    .fil10 {fill:#F9A708}
    .fil50 {fill:#FA4603}
    .fil46 {fill:#FB1701}
    .fil43 {fill:#FDF401}
    .fil48 {fill:#FE5301}
    .fil49 {fill:#FE7301}
    .fil12 {fill:#FE9401}
    .fil14 {fill:#FEA401}
    .fil25 {fill:#FEB401}
    .fil13 {fill:#FEC301}
    .fil16 {fill:#FECB01}
    .fil19 {fill:#FEEB01}
    .fil23 {fill:#FFBC01}
    .fil18 {fill:#FFD301}
    .fil21 {fill:#FFE301}
    .fil41 {fill:#FFFA00}
    .fil1 {fill:yellow}
   ]]>
  </style>
 </defs>
 <g id="Слой_x0020_1">
  <metadata id="CorelCorpID_0Corel-Layer"/>
  <g id="Tricolour_Flag_Template__x0028_Vertical_x0029_.svg">
   <rect class="fil0" x="8" y="-8" width="3167" height="5080"/>
   <rect class="fil1" x="3014" y="-8" width="1668" height="5080"/>
   <rect class="fil0" x="4682" y="-8" width="2946" height="5080"/>
  </g>
  <line class="fil2 str0" x1="3014" y1="-8" x2="3014" y2= "5072" />
  <line class="fil2 str0" x1="4682" y1="-25" x2="4682" y2= "5055" />
  <g id="_1768101353312">
   <path class="fil3" d="M4287 2941c45,-25 63,-2 97,-32 22,35 68,50 84,98 -83,71 -177,-35 -181,-66zm323 41c-59,42 -174,-37 -167,-68 10,-51 172,-4 167,68zm-463 -100c2,-50 115,-129 134,-92 8,16 -25,71 -39,81 -21,15 -68,14 -95,11zm143 17c-22,-66 84,-173 148,-143 7,58 -21,59 -51,91 -31,33 -47,46 -97,52zm-547 -45c-20,-23 -49,-102 -44,-134 4,-32 43,-99 74,-111 32,23 41,97 34,139 -8,47 -34,73 -64,106zm812 -26c-40,6 -74,42 -113,28 -5,-74 98,-148 163,-127 -3,42 -33,71 -50,99zm-426 -22c-26,-51 44,-123 94,-130 16,40 30,60 -6,87 -21,15 -65,44 -88,43zm-701 -53c-3,-36 3,-54 23,-81 21,10 104,78 89,127 -32,9 -82,-29 -112,-46zm500 82c-2,-2 -66,-102 -67,-105 -6,-29 -7,-118 35,-116 22,1 115,106 32,221zm331 -86c0,-61 32,-143 100,-136 6,40 11,81 -8,117 -20,38 -56,25 -92,19zm-852 -8c-95,66 -127,-73 -102,-136 61,5 101,75 102,136zm631 -14c12,-22 5,-21 26,-42 17,-17 19,-25 34,-39 22,-21 84,-25 117,-7 -8,25 -40,25 -69,47 -27,22 -34,40 -56,67l-52 -26zm-421 8c-28,49 -70,-24 -86,-40 -20,-20 -75,-35 -78,-62 25,-8 102,-6 119,14 4,4 55,70 45,88zm775 -15c-14,-30 -8,-96 2,-128 6,-21 47,-57 61,-58 36,52 8,184 -63,186zm-1193 -184c79,8 93,122 79,184 -41,-3 -37,-25 -77,-45l-2 -139zm-109 -63c75,-19 92,134 69,186 -31,-1 -11,3 -37,-27 -9,-10 -24,-25 -30,-37 -11,-25 -12,-100 -2,-122zm1022 116c-2,-21 55,-89 63,-95 17,-12 121,-13 134,15 11,27 -39,85 -66,96 -34,13 -108,10 -131,-16zm-639 -100c18,5 79,73 81,85 6,44 -99,41 -128,34 -26,-6 -72,-67 -79,-89 22,-34 80,-44 126,-30zm650 -106c39,72 -39,199 -87,169 -22,-13 -19,-183 87,-169zm-79 -18c-33,-68 17,-165 104,-163 6,38 11,84 -16,116 -16,20 -66,52 -88,47zm-1084 -76c-4,-42 -48,-27 -77,-99 42,-17 95,-38 136,-7l-1 86 -58 20zm-5 -160c-54,71 -185,12 -175,-33 16,-74 153,-33 175,33zm1110 64c-7,-41 12,-118 31,-147l72 -4c6,75 -16,150 -103,151zm151 58c-35,-24 -48,-92 -35,-136 16,-49 -2,-126 50,-143 23,23 46,112 47,149 1,36 -40,123 -62,130zm-1371 -222c-55,31 -222,35 -181,-34 31,-53 156,-39 181,34zm143 75c-26,-2 -69,-60 -86,-81 -22,-28 -23,-103 -21,-138 79,-3 129,149 107,219zm1366 -13c20,-124 150,-147 255,-143 -8,88 -162,208 -255,143zm-1803 -170c41,-54 162,-50 163,21 -42,43 -138,43 -163,-21zm1775 148c-30,-30 -29,-26 -40,-69 -9,-33 -28,-54 -25,-78 1,-9 50,-145 56,-152 47,3 38,15 52,63 28,89 -1,193 -43,236zm-116 -170c-5,28 -20,73 -39,95 -18,21 -71,37 -82,4 -21,-61 43,-137 121,-99zm-1354 99c-67,-36 -122,-129 -101,-207 72,9 138,130 101,207zm-347 -92l-71 -55c62,-38 104,-50 170,3l-14 11c-35,28 -43,32 -85,41zm1617 -63c-1,-21 16,-69 30,-86 27,-33 58,-14 80,2 -1,65 -38,127 -110,84zm-1765 -69c41,-26 94,-23 131,7 -10,51 -114,74 -131,-7zm2115 137c4,-16 58,-112 67,-121 21,-21 106,-53 136,-50 34,140 -105,161 -203,171zm-2 -343c86,142 -7,304 -48,290 -35,-12 -42,-126 -29,-164 15,-42 44,-98 77,-126zm-1757 211c16,24 20,93 14,121 -70,-25 -111,-108 -101,-181 19,1 79,47 87,60zm-117 -45c13,30 28,68 20,98 -39,-13 -50,-31 -77,-55 -35,-32 -27,-46 -31,-92 42,-7 71,11 88,49zm-313 -27c-58,-70 2,-58 60,-59 23,11 62,51 64,79 -43,28 -94,16 -124,-20zm222 53c-39,-1 -58,-10 -76,-43 -19,-33 -25,-38 -38,-75 26,-44 116,53 114,118zm2208 -201c19,-15 35,-21 58,-14 8,52 -36,90 -64,131l6 -117zm-153 125c-90,-15 -25,-234 48,-268 12,32 20,114 9,151 -6,18 -47,105 -57,117zm-225 -189c15,76 -106,91 -119,46 -8,-29 18,-58 38,-64 29,-10 56,4 81,18zm382 -76c17,-8 41,-13 56,-23 30,-19 10,-27 52,-29 18,72 -64,141 -115,174 -5,-41 -5,-83 7,-122zm-327 -46c-4,60 -95,114 -110,40 -4,-18 21,-60 36,-67 21,-10 54,13 74,27zm-58 -53c-3,-15 1,-32 10,-45 17,-26 124,-59 70,65l-80 -20zm383 78c-7,-67 0,-111 42,-158 20,-23 18,-42 45,-59 23,-14 34,-13 57,-33 19,88 -58,235 -144,250zm-212 -311c-17,26 -31,47 -69,36 -27,-56 7,-106 67,-107 8,19 6,48 2,71zm-202 6c-25,64 -22,45 -74,82 12,34 37,3 47,104 5,51 -4,68 -38,106l-9 -186c-32,10 -24,27 -20,57 -47,25 -52,32 -66,84 -21,75 9,37 -61,87 -9,91 25,70 -48,140 57,40 31,10 64,113 10,33 6,93 -10,126 -92,-202 -40,-131 -55,-228 -36,21 -11,44 -8,85l-53 0 28 -97 -19 -88c14,79 14,140 -48,194 25,2 18,-4 20,20 25,-11 17,-8 43,3 8,26 5,27 -8,53l14 138c-1,0 -4,-1 -4,-1 -1,0 -4,-1 -5,-1 -1,0 -3,0 -4,0 -36,1 -28,13 -50,65l-9 117c59,34 94,188 76,253 -23,1 -54,-62 -62,-88 -15,-46 -6,-117 -9,-168 -21,27 -14,33 -23,69 58,43 -11,38 -36,56 -63,44 -19,178 -39,215l28 -5 28 -17c13,52 30,49 31,107 -31,12 -36,23 -76,20l-4 -29 -20 0c7,39 -11,78 42,67 55,-11 46,7 82,-32 16,16 23,31 35,45 32,39 68,41 45,86 -26,55 -4,10 -36,39 -55,-92 -21,-5 -63,-114 -8,-22 6,0 -11,-23 -38,24 -49,19 -74,61 -7,-19 7,-12 -15,-44 -37,30 1,24 -28,33 -22,-44 -48,-29 -54,-71 30,6 24,45 70,19 8,-54 -35,-30 -79,-64l7 -31c-22,-22 -20,5 -3,-50 6,-18 9,-25 13,-48 7,-37 9,-67 -10,-102 -34,9 -7,-11 -32,30 -101,166 -28,199 -72,241l-12 36c-74,-4 -102,-90 -98,-155l-16 -23c-20,6 -19,-35 -22,-58 -6,-52 9,-46 -40,-60 -12,23 -13,32 -28,47 -23,24 -11,-6 -29,26 41,14 80,65 91,112 -95,63 -181,-16 -222,-106l17 -11c-33,-36 -69,-58 -103,-104 -57,-79 26,-115 -74,-130 -8,-64 -30,-72 -74,-103l-1 176c-63,-86 5,-44 -35,-188 -16,-54 -55,-105 -107,-123 -64,-22 -157,-184 -231,-222 11,41 83,68 88,133 -44,-26 -77,-81 -114,-119 -15,-15 -120,-93 -130,-96l130 144c-38,1 -128,-91 -156,-121 -30,-30 -147,-91 -190,-91l2 7c39,25 88,44 130,67 44,25 19,27 47,50 26,20 25,10 51,43 -30,21 -40,-7 -66,-28 -30,-24 -43,-13 -83,-7 -8,33 -52,-17 -117,31 -56,-22 -308,-130 -354,-106 14,10 212,73 240,78 95,19 174,116 178,145 -75,5 -189,-42 -257,-73 5,60 57,17 75,66 10,6 170,57 198,66 40,13 74,7 95,40 24,35 38,36 83,42l2 25 -111 -15c53,50 216,52 249,93l-116 -13c23,41 174,59 220,88 -39,27 -58,-1 -92,-11 17,7 23,21 40,32 41,28 35,-5 107,57 27,23 27,12 53,27 20,46 47,89 99,100l11 52 29 -6 -6 -38c57,-3 25,-4 59,-17 61,-22 107,46 134,76 -30,39 -49,7 -59,46 106,8 33,-13 100,-25l-20 30 35 21 16 -30c29,25 62,69 67,105 -29,-10 -32,-50 -71,-59 7,40 48,102 71,139 -57,-10 -33,-90 -154,-84 -12,-18 -12,-30 -31,-43 -125,-87 23,-16 -107,-103l-22 20c11,30 14,6 20,34 7,29 -12,7 -3,39l-11 -25c4,38 13,118 -9,142l6 36c5,24 14,64 -8,78 30,30 17,24 21,70l1 -51c-2,41 -6,96 4,138l41 5 22 -16c-15,-32 -40,-71 -39,-104 57,2 217,101 154,136 12,13 -7,20 39,25 61,6 26,-1 42,-20 -25,-38 -29,-6 -51,-45 -7,-13 -19,-51 -23,-66 88,-2 160,64 164,149 44,14 34,11 41,-16 -19,-40 -42,-42 -48,-95 58,-12 87,22 132,52l1 28c12,13 10,13 32,20 15,-25 -18,-99 82,-38 57,35 16,90 95,74 110,-24 58,-111 140,-163 6,34 16,43 31,66 24,35 8,35 20,72l96 6c27,-40 44,-88 114,-71 -4,41 -13,40 -26,67l138 2c16,29 12,40 10,75 36,5 83,33 65,75l-76 21c13,40 -6,19 24,27 150,-87 135,-27 215,-63 83,-37 49,-5 115,-16 78,-14 26,-52 121,-16l-13 -93c-11,18 -6,36 -9,61 -42,-7 -67,-51 -102,-82l51 -25c-14,-1 -41,-8 -48,-11 -29,-13 -5,7 -28,-27l45 8 -12 -13c27,-18 15,-36 42,-60 11,-10 43,-33 59,-37l-10 -21c37,-16 31,-106 10,-131 -40,26 -2,-16 -9,96l-49 -38 -61 9 -5 -27c-31,20 -34,42 -67,45 1,-64 -8,-196 88,-189l-13 129c38,-2 33,8 46,-17l-22 -3c3,-36 12,-90 22,-123 10,-29 38,-80 71,-53 -5,-40 15,-7 -31,-32 -11,19 -17,18 -29,6 -82,-10 -49,28 -75,61 -10,13 -45,37 -67,63 -29,5 -64,-3 -87,20 -23,24 -6,42 -55,47l37 -39 -1 -28c-41,-21 -29,-7 -16,-63l-33 -4c-58,39 -98,58 -155,4 34,-109 108,-109 211,-106 56,-40 80,-52 117,-123l-33 -3c-40,44 -15,43 -81,75 -36,19 -89,22 -126,6 -4,-40 37,-86 67,-107 60,-42 72,-49 152,-34l22 5c18,-35 -1,-45 69,-45 5,-33 11,-58 33,-81 23,-25 44,-25 63,-51l-30 -10 2 -49c-29,5 -22,14 -43,-1 31,-22 49,-16 73,-38 24,-22 22,-47 39,-72 17,-25 43,-27 62,-48 18,-20 19,-41 40,-64 38,-41 21,-11 42,-67 15,-39 99,-158 126,-199l1 -7c-19,59 -224,316 -280,346 1,-115 95,-69 92,-258 29,-36 55,-101 70,-117 0,-2 -2,-4 -3,-5l-10 -21c-5,-20 6,-39 21,-56 -36,-6 -14,-37 -8,-66 8,-36 8,-73 8,-112 -73,2 -111,115 -133,60l-26 75 -51 -12c-8,27 -26,57 -34,82 -32,101 -25,-10 -129,215 -62,-22 -52,7 -87,59 -29,42 -39,73 -53,122l-1 15c-20,-38 -2,-19 -25,-22 -14,32 -43,62 -60,93 -26,49 -22,67 -36,114 -48,-78 62,-218 64,-308 -26,27 -10,44 -48,70 -82,56 -118,-38 -47,-82 37,-22 61,7 104,2 -4,-45 -3,-3 -22,-34 38,-11 48,-1 65,-35 27,-52 0,-36 0,-69 14,-31 31,-30 48,-69 15,-36 3,-58 37,-74l20 -76c115,-19 168,-117 219,-158 22,-19 44,-25 65,-49l-18 -6c-31,37 -85,65 -114,99 -31,35 -80,75 -125,88 15,-29 18,-57 44,-73 57,-34 128,-84 164,-145 -47,14 -154,155 -201,143l13 -68c6,-3 9,13 17,-40 7,-48 -10,-25 82,-118 26,-26 40,-22 68,-57 32,-40 58,-39 73,-57 -28,-20 -58,25 -84,46 -65,53 -130,135 -151,138 -28,4 -21,-10 -57,8 -27,12 -20,20 -47,27 -17,-77 164,-249 170,-258l-54 34c-26,-8 -6,-42 -66,23 -21,22 -39,51 -63,78 -57,65 -14,131 -90,182z"/>
   <path class="fil4" d="M3717 2923c14,19 59,16 85,11 53,-11 28,-14 49,29 117,-35 88,-20 202,-15 -32,41 -79,10 -152,26l-151 5c-49,-11 -255,-45 -296,-30l-17 151c139,18 167,-91 239,-34 -56,44 -223,37 -245,50 40,102 58,-39 350,29 107,25 107,-17 105,43l-62 -6 -41 -4c-3,38 21,85 27,130 7,48 6,83 6,136 1,66 22,66 29,109 6,34 -12,107 15,119l9 -132c-39,13 -1,-310 10,-347 32,-14 112,-47 147,-32 -8,48 -11,83 -17,127 -4,30 -8,42 -8,75 0,3 1,34 2,36 17,63 -3,16 24,33 26,-50 1,-180 41,-255 23,88 8,221 7,317l-39 9c19,70 16,121 28,186 10,58 25,124 -26,140 -26,-87 -2,-164 -19,-244 -7,-37 -13,-73 -20,-112 -10,-60 30,-90 -29,-103 -33,20 -15,126 -7,169 -46,31 -25,32 -27,104 -4,125 21,318 -37,399l31 0 -3 57c-6,27 19,128 40,155 24,30 29,11 29,70 0,27 4,68 -9,87l348 0c-2,-42 -7,-33 14,-59 -30,-29 -81,-531 -95,-614 -22,-128 -21,-379 -34,-506 -6,-65 17,-66 33,-129l0 -3c-30,-8 -11,13 -24,-27l76 -21c18,-42 -29,-70 -65,-75 2,-35 6,-46 -10,-75l-138 -2c13,-27 22,-26 26,-67 -70,-17 -87,31 -114,71l-96 -6c-12,-37 4,-37 -20,-72 -15,-23 -25,-32 -31,-66 -82,52 -30,139 -140,163z"/>
   <path class="fil5" d="M3250 2273c-26,-14 -86,-83 -81,-115 5,-40 188,-33 236,118 -58,33 -96,28 -155,-3zm251 -226c41,-8 70,-11 84,30 59,175 -52,100 -66,83 -19,-23 -22,-85 -18,-113zm-351 24c-35,-26 -79,-57 -97,-122 65,3 117,-13 182,30 24,15 95,91 74,114 -37,42 -125,4 -159,-22zm411 -161c15,21 22,77 14,102 -38,1 -64,6 -88,-27 -16,-23 -30,-60 -27,-89 31,-15 84,-11 101,14zm-529 -54c6,-43 4,-67 9,-105 27,3 85,35 99,55 18,24 7,24 32,51 18,19 17,19 24,47 -68,18 -118,2 -164,-48zm514 -7c-31,15 -87,14 -102,-21 -24,-53 -19,-74 33,-95 34,22 84,69 69,116zm-527 -112c4,32 6,76 -3,108 -25,-26 -58,-77 -61,-117l64 9zm760 44c43,64 12,153 15,201l17 21c3,-17 -79,-93 -101,-137 -18,-36 -48,-152 -47,-196 43,6 94,76 116,111zm-536 97c-65,-34 -131,-208 -48,-309 25,13 73,105 81,138 13,58 -9,122 -33,171zm137 -261c70,-49 138,14 116,92 -64,5 -124,-14 -116,-92zm-496 -74c29,-5 98,9 121,30 21,19 18,101 18,134 -87,-16 -54,-12 -95,-65 -27,-34 -48,-43 -44,-99zm645 119c-32,-58 -26,-199 21,-242 48,40 27,191 -21,242zm-408 23c-26,-10 -58,-81 -66,-108 -20,-69 -2,-93 0,-159 73,-1 127,224 66,267zm-296 -320c48,-12 139,68 163,174 -42,-7 -96,-23 -119,-59 -18,-27 -52,-87 -44,-115zm191 140c-18,-13 -62,-71 -70,-96 -10,-29 -7,-123 10,-149 29,-2 64,64 67,94 3,23 -3,127 -7,151zm841 -15c5,-58 -2,-91 15,-152 16,-63 49,-61 68,-93 21,32 17,118 4,155 -31,87 -43,88 -87,90zm-48 -1c-32,-6 -78,-77 -81,-100 -3,-24 -2,-140 3,-157l46 42c24,23 69,162 32,215zm-883 -98c-77,-41 -148,-146 -127,-242 85,13 162,162 127,242zm938 -117c-35,-46 -20,-191 39,-205 51,52 18,170 -39,205zm-37 -156c-22,-72 -59,-88 -38,-188 7,-36 1,-39 36,-44 45,48 38,181 2,232zm-99 -104l-8 14c15,32 60,35 81,95 12,32 25,112 11,143 -36,-5 -68,-98 -79,-122 -1,-2 -3,-5 -3,-6 -1,-2 -3,-3 -4,-7 -1,-3 -2,-4 -6,-6l-2 38 -12 239 8 5 -46 9 -11 29 2 65c37,-34 8,-69 53,-80 29,46 -2,19 43,58 80,71 59,215 40,225 -28,4 -71,-40 -85,-68 -20,-37 -24,-98 -54,-119l-1 48 32 71c-50,10 -26,-15 -42,-62 -15,-43 -23,-26 -54,-50 -6,-35 -1,-65 -5,-97 -8,-60 -33,-33 -56,-46l-8 -67c-27,39 -8,55 -17,126 -8,60 -8,47 -43,80 -22,19 -32,46 -74,36 -34,-9 -56,-26 -64,-63l-28 5c3,45 73,88 84,76l-26 19c11,63 8,98 57,126 -40,47 71,135 17,208l-23 -119 -33 -2 44 121c-45,43 -30,91 -59,130 -46,-12 -67,-100 -71,-152 -2,-36 7,-72 13,-106 12,-62 23,-24 48,-72l-25 -21 -27 9c-8,-97 -35,-114 -92,-193l-46 20c-26,-106 -19,-97 -94,-169 -51,-49 -32,-129 -103,-163l-23 51c-66,-89 -33,-89 -147,-147 -40,87 63,200 21,230 -33,-56 0,-34 -58,-98 -24,-27 -165,-250 -206,-256 8,39 119,141 96,184 -35,-14 -39,-56 -58,-82 -7,64 105,191 140,256 19,34 13,29 41,55 28,26 20,31 44,60 70,83 44,35 68,139 -30,-11 -115,-127 -138,-165 -21,-34 -95,-179 -128,-183 25,38 74,116 74,160 22,17 73,103 91,135l124 200c37,31 78,65 109,112 19,28 37,31 54,50 -67,24 -13,-12 -56,7l25 65c44,31 66,39 74,103 100,15 17,51 74,130 34,46 70,68 103,104l114 5c18,-32 6,-2 29,-26 15,-15 16,-24 28,-47 -29,-41 -69,-87 -68,-140 1,-33 31,-142 54,-158 11,7 36,38 39,56 2,13 -3,47 2,80 29,166 -40,86 -15,152 43,17 34,-17 62,-46 87,-8 111,96 88,166 -30,3 -69,-54 -97,-69 -4,42 3,21 4,42 0,20 -3,11 -7,35l16 23 15 -31c102,50 72,50 95,150 44,-42 -29,-75 72,-241 25,-41 -2,-21 32,-30 19,35 17,65 10,102 -4,23 -7,30 -13,48 -17,55 -19,28 3,50l30 -90c31,26 32,83 49,119l20 0 21 -81 -28 5c20,-37 -24,-171 39,-215 25,-18 94,-13 36,-56 -16,22 -39,41 -61,32 -23,-35 -6,-97 7,-135 18,-50 38,-56 81,-80 22,-52 14,-64 50,-65 1,0 3,0 4,0 1,0 4,1 5,1 0,0 3,1 4,1l-14 -138c-10,69 -2,86 -47,137 -24,27 -65,77 -107,69 -22,-55 5,-110 27,-159 13,-32 63,-57 92,-103 -2,-24 5,-18 -20,-20 -17,15 -47,53 -76,50 -18,-35 0,-149 21,-181 18,-27 81,-128 103,-63l19 88c1,-28 4,-71 2,-96 -5,-50 -4,-12 -39,-52 6,-108 31,-85 -15,-199 -23,-57 10,-144 -44,-185l-35 16c7,-47 -2,-112 -16,-157 -27,-86 -31,25 -31,-139 0,-219 37,-270 37,-340 -81,125 -23,376 -72,459 -41,69 -22,80 -25,146l-36 -5z"/>
   <path class="fil6" d="M2891 2971c29,-42 68,-107 124,-108 7,31 11,79 -5,106 -37,22 -79,7 -119,2zm298 28c19,-16 54,-57 76,-70 23,-14 82,-4 104,13 0,39 -54,52 -84,86 -47,2 -63,-6 -96,-29zm-140 -16c4,-20 37,-63 55,-74 21,-13 84,-11 108,-7 18,39 -66,113 -163,81zm-793 12c2,-11 29,-57 36,-64 21,-20 59,-15 87,-15 -25,60 -71,104 -123,79zm-135 -22c5,-21 34,-57 55,-68 36,-18 73,-5 107,12l-65 66 -97 -10zm239 16c33,-30 18,-107 136,-102 -24,68 -48,121 -136,102zm382 -16c55,-91 72,-120 186,-118 0,36 -36,69 -59,99 -28,38 -83,21 -127,19zm-126 0c1,-67 92,-151 160,-122 1,32 -29,69 -49,94 -28,33 -68,40 -111,28zm-135 2c11,-26 23,-70 44,-84 23,-15 83,-26 108,-25 -36,82 -41,131 -152,109zm-259 -143c65,-28 111,5 143,56 -53,33 -137,9 -143,-56zm264 20c-29,13 -62,30 -96,15 -15,-7 -57,-42 -63,-59 53,-62 129,-3 159,44zm127 -14c-39,-1 -78,10 -113,-14 -29,-19 -30,-44 -72,-57 50,-15 75,-32 130,-7 23,10 61,51 55,78zm154 -16c-29,14 -93,16 -119,-5 -21,-17 -60,-58 -65,-83 64,-58 162,23 184,88zm167 2c-54,10 -92,16 -131,-22 -24,-22 -72,-52 -67,-85 61,-43 130,20 169,64 13,16 17,32 29,43zm27 -1c-20,-24 -12,-26 -42,-56 -20,-19 -21,-29 -36,-52 111,3 34,55 130,55l3 60 -55 -7zm-263 -257c16,-18 87,-59 107,-61 49,-3 81,21 117,45 -27,30 -61,75 -110,75 -47,-1 -106,-6 -114,-59zm-164 -81c13,-11 105,-66 121,-70 36,-9 111,24 132,46 -34,32 -64,73 -116,75 -47,3 -117,-6 -137,-51zm-145 -105c36,-27 73,-50 120,-43 55,8 76,13 108,57 -122,120 -224,4 -228,-14zm-134 -105c49,-5 74,-19 125,-9 29,6 71,22 84,46 -59,55 -208,36 -209,-37zm542 162c-151,-61 -164,-190 -144,-210 5,-5 167,5 144,210zm-487 -198c-47,39 -161,16 -159,-53 48,-4 154,-6 159,53zm167 -83c32,-19 173,38 166,187 -85,19 -160,-102 -166,-187zm-158 -49c81,12 175,80 163,165 -92,18 -141,-93 -163,-165zm7 89c-81,-3 -146,-125 -125,-146 21,-20 111,70 125,146zm-106 -35c-71,5 -175,-40 -190,-113 41,-3 97,-3 125,27 24,26 61,48 65,86zm-51 -119c-22,23 -75,-23 -150,2 -19,61 59,63 60,120l-279 -97c31,63 189,62 207,121 -24,13 -110,-44 -139,-59 -2,72 169,54 175,132l328 128c-45,33 -158,-46 -217,-52 21,11 49,28 74,41 27,15 243,92 255,109l-85 -4c116,66 154,53 280,76 -76,46 -78,7 -153,14 65,67 327,23 331,132 -17,-35 -74,-23 -110,-23 -52,13 -1,0 -37,31 -38,-10 -55,-24 -97,-24 -51,1 -40,22 -95,25 -63,5 -166,-20 -216,5l92 20 -39 14c-6,49 -96,6 -207,41 -32,10 -58,28 -91,34 -40,7 -71,14 -108,25l-5 46 -65 28c21,5 125,-31 156,-39 56,-14 104,-36 164,-36l0 37c-58,1 -61,34 -93,69 -32,34 -74,17 -121,42 -39,19 -189,93 -207,118 39,-3 281,-132 318,-133 25,0 39,8 63,12 38,6 53,-9 63,19l19 16 -87 57c50,-9 168,-83 201,-75 -29,42 -96,53 -134,89 48,1 202,-88 248,-113 11,37 -83,74 -113,96 12,-2 122,-42 132,-49 35,-23 74,-61 113,-35l-88 47c107,-2 149,-71 215,-62l-62 56c61,-13 129,-62 201,-50 -10,14 1,6 -21,19 -20,12 -32,10 -66,40l3 7c21,-31 25,-17 61,-29 35,-12 15,-13 56,-20 29,-5 96,-29 114,-17 -2,2 -53,41 -67,55 105,-3 56,-18 95,-42 67,23 36,22 101,8 30,-6 48,24 81,34 43,12 61,-11 109,16 32,17 70,19 82,39 16,74 36,52 43,83 2,11 -2,93 -2,117 0,89 -2,166 -8,251 48,-98 -47,-422 95,-393 23,45 -18,100 -21,146 -5,77 -9,103 -23,176 44,6 -30,7 26,-13 14,-5 3,-5 33,3l19 -313 87 0 -1 638 34 7c5,-43 -4,-278 -9,-325 -5,-43 4,-280 12,-321l125 23 62 6c2,-60 2,-18 -105,-43 -292,-68 -310,73 -350,-29 22,-13 189,-6 245,-50 -72,-57 -100,52 -239,34l17 -151c41,-15 247,19 296,30l151 -5c73,-16 120,15 152,-26 -114,-5 -85,-20 -202,15 -21,-43 4,-40 -49,-29 -26,5 -71,8 -85,-11 -79,16 -38,-39 -95,-74 -100,-61 -67,13 -82,38 -22,-7 -20,-7 -32,-20 -4,38 -73,25 -85,15 -7,27 3,30 -41,16 -60,-15 -35,2 -90,-38 -16,19 19,26 -42,20 -46,-5 -27,-12 -39,-25 -29,13 -79,-34 -115,-32l-22 16 -41 -5c-10,-42 -6,-97 -4,-138l-1 51c-4,-46 9,-40 -21,-70 -48,15 -135,42 -157,-25 14,-26 48,-42 75,-56 38,-20 59,-4 90,3l-6 -36 -62 -119 -8 64c-71,19 -143,-133 -125,-207 73,-6 115,74 129,137l10 -53 55 5 10 31 11 25c-9,-32 10,-10 3,-39 -6,-28 -9,-4 -20,-34l22 -20c11,-25 7,-17 -2,-48l-32 30c-11,91 -109,-27 -142,-46 -46,-28 -38,2 -87,-46l-144 -114c-148,-74 -103,-90 -134,-117 -23,-21 -52,-25 -80,-41l4 9c102,53 57,45 121,104 34,33 103,74 116,118 -54,-7 -51,-36 -98,-69 -91,-62 -169,-137 -308,-184 24,36 198,110 226,180 -45,-4 -73,-34 -104,-61 -23,-19 -259,-175 -295,-174 23,35 91,68 125,84 23,11 103,83 107,103 -43,-7 -84,-60 -135,-81l-3 42z"/>
   <path class="fil7" d="M3447 3554c0,270 -103,797 -103,880 164,0 342,-4 495,0 73,1 472,8 512,-5l-2 -77c-21,26 -16,17 -14,59l-348 0c-39,0 -121,8 -149,-9 44,-62 5,-84 27,-168 8,-34 35,-115 62,-135l3 -57 -31 0 -32 90c-11,-58 23,-147 22,-216 -1,-36 -10,-91 -7,-126 3,-36 16,-60 20,-99 7,-61 41,-425 20,-456 -39,30 -52,246 -53,305l-9 132c-27,-12 -9,-85 -15,-119 -7,-43 -28,-43 -29,-109 0,-53 1,-88 -6,-136 -6,-45 -30,-92 -27,-130l41 4 -125 -23c-8,41 -17,278 -12,321 5,47 14,282 9,325l-34 -7 -16 167c-39,-95 31,-345 -19,-419 -37,39 -26,362 -24,437 3,143 8,284 -13,427l-99 -3c36,-91 88,-580 82,-698 -6,-99 -32,-125 -16,-236 -30,-8 -19,-8 -33,-3 -56,20 18,19 -26,13 14,-73 18,-99 23,-176 3,-46 44,-101 21,-146 -142,-29 -47,295 -95,393z"/>
   <path class="fil8" d="M5392 3002c-54,27 -126,-58 -101,-80 41,-38 90,45 101,80zm-17 -79c41,-45 152,-12 144,57 -50,16 -136,-1 -144,-57zm-222 -27c73,-15 123,40 141,104 -35,-1 -73,-3 -97,-28 -14,-14 -49,-58 -44,-76zm-427 -30c88,-18 141,22 166,104 -33,15 -78,17 -105,-9 -25,-25 -62,-58 -61,-95zm288 11c69,0 149,12 140,101 -75,44 -110,-58 -140,-101zm-141 -10c72,-57 175,73 154,105 -15,23 -78,12 -99,-19 -16,-24 -54,-60 -55,-86zm286 -7c9,-26 42,-48 68,-60 37,-17 66,-7 97,15 -44,59 -84,90 -165,45zm-123 -17c5,-63 110,-126 175,-72 -8,21 -42,46 -62,60 -33,22 -76,15 -113,12zm-148 -5c7,-89 111,-142 187,-90 -78,72 -58,94 -187,90zm-148 -16c-5,-73 127,-126 198,-109 -21,35 -46,53 -72,88 -23,31 -93,47 -126,21zm-29 -221c46,15 93,24 88,84l-89 -3 1 -81zm20 -45c90,-79 128,-32 220,4 2,65 -51,67 -107,65 -47,-1 -93,-25 -113,-69zm153 -90c22,-42 87,-59 134,-45 71,20 39,50 120,59 -86,90 -187,72 -254,-14zm169 -72c52,-85 169,-64 229,0 -86,68 -151,81 -229,0zm-331 130c-46,-107 52,-223 113,-217 10,55 -3,86 -27,134 -19,40 -46,59 -86,83zm486 -211c36,-57 150,-62 203,-29 0,72 -168,85 -203,29zm-345 130c-38,-207 136,-218 143,-211 37,38 -78,203 -143,211zm501 -197c3,-65 101,-65 150,-63 -3,48 -6,55 -52,74 -25,11 -75,4 -98,-11zm-351 105c-14,-106 64,-173 157,-199 3,30 -18,111 -34,136 -16,26 -90,62 -123,63zm153 -68c10,-81 79,-171 166,-170 0,76 -83,170 -166,170zm163 -82c12,-71 66,-135 136,-147 -5,59 -71,156 -136,147zm111 -41c37,-73 140,-141 179,-98 13,14 -53,111 -179,98zm-5 -226l-9 -6c-10,49 -50,36 -94,61 -58,33 -214,134 -260,182 -45,48 -52,18 -101,29 -15,3 -76,48 -90,60 -47,38 -140,33 -170,121 -25,-13 -17,-21 -52,-10 46,25 26,-8 31,32 -12,40 -1,80 -4,123l-67 56c-13,25 -8,15 -46,17l-8 15 5 27 61 -9 49 38c7,-112 -31,-70 9,-96 21,25 27,115 -10,131l10 21 -3 88c-39,32 -49,13 -86,22l-45 -8c23,34 -1,14 28,27 7,3 34,10 48,11l49 8 11 38 13 93 5 -96c63,55 23,61 6,92 8,1 186,-4 190,-6 57,-20 95,27 149,4 31,-13 34,5 72,12 42,6 40,-12 88,-2 62,13 128,24 187,30l25 -37 31 10c157,-39 79,-44 218,21 39,18 75,23 111,45 30,18 75,40 107,48 -32,-50 -165,-100 -220,-128 -52,-26 -96,-15 -131,-46 -26,-23 -20,-31 -43,-46 -35,-24 -31,-2 -54,-18l12 -47 -23 0c-17,72 -79,81 -142,49 16,-59 72,-58 119,-65 -32,-34 -103,-50 -153,-57 -59,-7 -6,-20 -66,-32 -29,-7 -65,4 -91,-4 -43,-13 -12,-27 -79,-28 -54,-1 -41,9 -78,-11 -58,-30 -96,8 -145,11 52,-40 10,-15 30,-57 75,9 226,-67 147,-90 82,-4 101,-5 178,-26 32,-9 122,-53 137,-52 -127,7 -113,48 -134,2 10,-6 149,-42 187,-61 54,-27 102,-45 154,-74 -68,12 -110,60 -196,44 12,-19 303,-127 348,-139 1,-47 52,-48 91,-61 92,-31 53,-46 73,-75 29,-12 55,-12 65,-39 -28,-17 -256,92 -309,88 10,-53 89,-48 67,-112 -61,-31 -105,12 -135,-5 -34,-15 -3,-25 5,-59 -29,31 -131,99 -168,99 12,-11 103,-91 117,-101 33,-25 96,-52 132,-80 -23,-13 -272,153 -297,174 -27,24 -71,63 -103,65 21,-56 83,-84 127,-122 19,-17 52,-41 74,-54 8,-4 82,-31 46,-35z"/>
   <path class="fil9" d="M4585 2255c8,-38 64,-73 101,-74l1 87c-27,8 -74,-7 -102,-13zm129 -106c-6,-81 119,-112 158,-56 19,29 -33,55 -56,65 -39,18 -67,9 -102,-9zm90 -118c66,-73 129,-75 208,-22 -65,75 -127,50 -208,22zm-89 27c-11,-41 -14,-183 49,-166 21,37 1,159 -49,166zm224 -120c26,-54 131,-66 164,-10 -25,58 -128,60 -164,10zm-143 58c1,-37 -13,-108 18,-135 18,-15 74,-60 91,-62 -2,165 -86,175 -109,197zm369 -208c38,-29 92,-28 135,-14 -10,41 -41,53 -71,74l-64 -60zm-247 112c7,-80 26,-142 102,-173 10,23 -4,88 -14,112 -12,28 -57,58 -88,61zm329 -158c20,-82 79,-100 153,-73 -25,27 -27,52 -55,65 -30,14 -66,19 -98,8zm-94 -11c17,-40 58,-92 104,-96 1,50 -79,182 -115,107 -12,29 -74,87 -105,91 -7,-35 15,-132 104,-151 13,24 2,25 12,49zm223 -253c-123,29 -302,218 -331,224 2,-43 105,-100 116,-149 -125,78 -179,175 -236,212 4,-55 79,-82 86,-138 -13,23 -62,65 -82,83 -106,94 -59,108 -177,155 -34,13 -64,55 -68,96 1,169 7,95 -29,148 -25,37 -37,75 -78,106 -7,-16 -2,-1 -4,-19 -4,-47 -10,-70 3,-90 -70,0 -51,10 -69,45l-22 -5 20 13 -32 47 33 3c-37,71 -61,83 -117,123 -21,71 -22,49 -56,102l33 4c-13,56 -25,42 16,63l1 28c38,-160 66,-112 160,-128 -13,-33 -32,-11 -58,-43 70,-115 105,-69 216,-55 16,-26 37,-30 61,-50 35,-29 14,-40 49,-61 66,-39 86,-37 109,-109 99,-20 94,-19 107,-88 21,-8 71,-16 87,-25 15,-7 43,-49 46,-62l-92 -26c-7,-56 43,-66 93,-56 71,14 25,58 13,76 42,6 184,-35 218,-64l-154 28 230 -85c-58,-28 -120,42 -140,-6l33 -12c28,-79 93,-123 176,-140 39,-8 232,-56 236,-86 -27,14 -131,23 -193,48 -21,9 -64,27 -86,33 -14,4 -38,7 -48,11 -38,14 -11,17 -38,24 -94,-37 -56,-12 -128,-5 6,-69 278,-147 296,-170 -19,0 -37,5 -51,3 -24,-4 -11,-16 -51,-10 -35,6 -11,11 -40,16 -20,4 -21,-10 -51,7l-7 -16z"/>
   <path class="fil10" d="M5650 2251c-45,12 -336,120 -348,139 86,16 128,-32 196,-44 -52,29 -100,47 -154,74 -38,19 -177,55 -187,61 21,46 7,5 134,-2 -15,-1 -105,43 -137,52 -77,21 -96,22 -178,26 79,23 -72,99 -147,90 -20,42 22,17 -30,57 49,-3 87,-41 145,-11 37,20 24,10 78,11 67,1 36,15 79,28 26,8 62,-3 91,4 60,12 7,25 66,32 50,7 121,23 153,57 -47,7 -103,6 -119,65 63,32 125,23 142,-49l23 0c60,19 112,34 170,48 26,6 64,14 88,23 35,14 43,40 73,20 -23,-39 -38,-4 -62,-53 -33,-65 -40,-12 -72,-46 -30,-30 14,-52 -48,-70 -39,-11 -54,-1 -86,-33 -23,-23 -136,-48 -178,-58 -59,-15 -77,-13 -143,-34 -40,-13 -28,0 -37,-22 8,-33 107,-66 138,-98 53,-54 96,-45 148,-96 40,-40 96,-63 141,-96 36,-26 21,-37 65,-53 32,-13 68,-14 68,-56l-72 34z"/>
   <path class="fil11" d="M3906 1034c54,41 21,128 44,185 46,114 21,91 15,199 35,40 34,2 39,52 2,25 -1,68 -2,96l-28 97 53 0c-3,-41 -28,-64 8,-85 15,97 -37,26 55,228 16,-33 20,-93 10,-126 -33,-103 -7,-73 -64,-113 73,-70 39,-49 48,-140 70,-50 40,-12 61,-87 14,-52 19,-59 66,-84 -4,-30 -12,-47 20,-57l9 186c34,-38 43,-55 38,-106 -10,-101 -35,-70 -47,-104 52,-37 49,-18 74,-82 -64,-38 108,-246 118,-288 -25,17 -30,27 -47,49 -34,43 -27,9 -58,38 -26,25 -14,42 -30,66 -18,25 -36,16 -54,50 -25,47 -58,84 -75,117 -18,36 -29,114 -75,122l-17 -190c-16,-40 -23,21 -37,-73 -6,-36 -6,-65 -6,-105 -5,-21 -37,6 -37,-170 -46,19 20,68 -37,74 -26,-11 -13,-50 -17,-88l-27 339z"/>
   <path class="fil12" d="M3428 1160l22 11c6,53 -2,81 55,100l-5 34 22 18 8 67c23,13 48,-14 56,46 4,32 -1,62 5,97 31,24 39,7 54,50 16,47 -8,72 42,62l-32 -71 2 -129 11 -29 46 -9 -8 -5 12 -239c-3,-33 -34,-91 2,-135l8 -14 -13 -414c-16,32 -35,43 -40,93 -10,108 -8,49 -41,99 -4,40 0,83 -2,124 -1,43 -15,73 -21,112 -9,61 3,189 -30,228 -31,-12 -115,-218 -144,-263 -14,-22 -29,-24 -48,-48 -11,-13 -35,-61 -39,-64 -32,-24 2,44 -50,-24 -15,-21 -27,-45 -52,-52 0,0 92,140 105,161 33,55 29,123 75,194z"/>
   <path class="fil10" d="M2960 1219c71,34 52,114 103,163 75,72 68,63 94,169l46 -20c57,79 84,96 92,193l27 -9c26,-8 56,74 83,102l23 119c54,-73 -57,-161 -17,-208 -49,-28 -46,-63 -57,-126l26 -19c-11,12 -81,-31 -84,-76 -23,-40 -70,-57 -66,-105l81 69 12 -5c-84,-71 -113,-203 -113,-204 -59,-37 -154,-67 -165,-144 30,30 20,44 61,67 27,16 60,44 82,49 -27,-115 -125,-105 -155,-170 -31,-9 9,-117 -12,-161 -13,119 1,92 -47,132l-56 -63 45 88c-47,1 -84,-91 -110,-126 -39,-53 -36,-27 -64,-40 -16,-8 -44,-45 -66,-59 7,30 105,141 131,180 16,25 98,198 106,204z"/>
   <path class="fil13" d="M5361 1763l-33 12c20,48 82,-22 140,6l-230 85 154 -28c-34,29 -176,70 -218,64 12,-18 58,-62 -13,-76 -50,-10 -100,0 -93,56l92 26c-3,13 -31,55 -46,62 -16,9 -66,17 -87,25 -13,69 -8,68 -107,88 -23,72 -43,70 -109,109 -35,21 -14,32 -49,61 -24,20 -45,24 -61,50 -9,24 -50,62 -71,74 12,12 18,13 29,-6 35,-11 27,-3 52,10 30,-88 123,-83 170,-121 14,-12 75,-57 90,-60 49,-11 56,19 101,-29 46,-48 202,-149 260,-182 44,-25 84,-12 94,-61l-136 52c-13,-33 14,-28 80,-80 30,-23 77,-35 98,-57 29,-30 -9,-13 32,-42 34,-24 25,-1 45,-36 16,-30 -8,-15 40,-34 27,-11 35,-12 42,-39 -81,7 -159,81 -266,71z"/>
   <path class="fil4" d="M3350 1349l39 68c-33,26 -17,30 -66,24 -22,-31 -38,-38 -39,-74l66 -18zm-118 -69c32,-29 63,-32 92,3 42,52 -20,30 -60,55l-32 -58zm-199 -216c30,65 128,55 155,170 -22,-5 -55,-33 -82,-49 -41,-23 -31,-37 -61,-67 11,77 106,107 165,144 0,1 29,133 113,204l-12 5c0,28 -11,13 12,28 88,-54 85,-5 133,6 13,-48 -23,-181 44,-200l5 -34c-57,-19 -49,-47 -55,-100l-22 -11c-89,-3 -67,-198 -257,-375 -38,10 21,8 -21,10 -34,1 -3,-14 -28,-5 28,43 155,177 143,232 -46,14 -26,-7 -59,-20 -36,-14 -42,11 -75,-21 -37,-35 -39,-60 -90,-95 8,29 73,88 95,112 29,33 11,46 16,88 6,61 48,25 29,67 -31,12 -110,-86 -148,-89z"/>
   <path class="fil14" d="M4704 3005c-95,-36 -43,2 -121,16 -66,11 -32,-21 -115,16 -80,36 -65,-24 -215,63l0 3c37,4 26,16 65,14 189,-8 212,-34 373,-56 56,-8 100,18 152,13 38,-4 28,-16 65,-13 36,2 161,27 232,28 62,0 76,18 147,23 71,4 70,24 148,13 84,94 38,-16 120,20 74,32 40,12 64,-4 22,-14 38,11 75,14 -5,-59 -214,-80 -237,-143l-31 -10 -25 37c-59,-6 -125,-17 -187,-30 -48,-10 -46,8 -88,2 -38,-7 -41,-25 -72,-12 -54,23 -92,-24 -149,-4 -4,2 -182,7 -190,6 17,-31 57,-37 -6,-92l-5 96z"/>
   <path class="fil15" d="M3557 3473c-16,111 10,137 16,236 6,118 -46,607 -82,698l99 3c21,-143 16,-284 13,-427 -2,-75 -13,-398 24,-437 50,74 -20,324 19,419l16 -167 1 -638 -87 0 -19 313z"/>
   <path class="fil16" d="M2354 2753l39 -14 -92 -20c50,-25 153,0 216,-5 55,-3 44,-24 95,-25 42,0 59,14 97,24 36,-31 -15,-18 37,-31 36,0 93,-12 110,23 -4,-109 -266,-65 -331,-132 75,-7 77,32 153,-14 -126,-23 -164,-10 -280,-76l85 4c-12,-17 -228,-94 -255,-109 -25,-13 -53,-30 -74,-41 59,6 172,85 217,52l-328 -128 -101 -44c4,30 41,42 66,50 88,29 19,11 71,54 39,33 94,55 145,99 52,45 98,51 146,98 37,35 126,63 154,97 -33,29 -212,61 -270,78 -31,9 -40,7 -69,13 -72,15 1,10 -37,37 -30,22 -116,10 -127,50 32,-1 211,-66 333,-40z"/>
   <path class="fil17" d="M3869 3540c1,-59 14,-275 53,-305 21,31 -13,395 -20,456 -4,39 -17,63 -20,99 -3,35 6,90 7,126 1,69 -33,158 -22,216l32 -90c58,-81 33,-274 37,-399 2,-72 -19,-73 27,-104 -8,-43 -26,-149 7,-169 59,13 19,43 29,103 7,39 13,75 20,112 17,80 -7,157 19,244 51,-16 36,-82 26,-140 -12,-65 -9,-116 -28,-186l39 -9c1,-96 16,-229 -7,-317 -40,75 -15,205 -41,255 -27,-17 -7,30 -24,-33 -1,-2 -2,-33 -2,-36 0,-33 4,-45 8,-75 6,-44 9,-79 17,-127 -35,-15 -115,18 -147,32 -11,37 -49,360 -10,347z"/>
   <path class="fil18" d="M2413 1971c28,16 57,20 80,41 31,27 -14,43 134,117l144 114c49,48 41,18 87,46 33,19 131,137 142,46l-29 6 -11 -52c-52,-11 -79,-54 -99,-100 -26,-15 -26,-4 -53,-27 -72,-62 -66,-29 -107,-57 -17,-11 -23,-25 -40,-32 34,10 53,38 92,11 -46,-29 -197,-47 -220,-88l116 13c-33,-41 -196,-43 -249,-93l111 15 -2 -25c-45,-6 -59,-7 -83,-42 -21,-33 -55,-27 -95,-40 -28,-9 -188,-60 -198,-66l-18 10 92 49c10,36 -2,-6 -4,25l210 129z"/>
   <path class="fil19" d="M2287 1485c43,0 160,61 190,91 28,30 118,122 156,121l-130 -144c10,3 115,81 130,96 37,38 70,93 114,119 -5,-65 -77,-92 -88,-133 74,38 167,200 231,222 52,18 91,69 107,123 40,144 -28,102 35,188l1 -176 -25 -65c43,-19 -11,17 56,-7 -17,-19 -35,-22 -54,-50 -31,-47 -72,-81 -109,-112l-124 -200c-18,-32 -69,-118 -91,-135 -12,37 81,146 87,193 -12,9 -33,21 -43,25 -30,-23 -18,-16 -52,-22 -48,-10 -10,2 -51,-30 -55,-43 -48,-30 -105,-50 -52,-18 -40,-41 -109,-46 -50,-4 -95,-37 -128,-25l2 17z"/>
   <path class="fil20" d="M4874 1308c-15,17 -26,36 -21,56l10 21c1,1 3,3 3,5 -15,16 -41,81 -70,117 3,189 -91,143 -92,258 56,-30 261,-287 280,-346l75 -149c-26,-13 -1,0 -37,7 -3,-63 41,-47 74,-169 -29,-10 4,18 -31,1 13,-49 39,-62 67,-110 -31,-1 -21,-1 -72,67 -22,31 -37,47 -58,82 -21,34 -43,38 -64,76 -25,44 -33,50 -64,84z"/>
   <path class="fil19" d="M4744 1049c-21,24 -43,30 -65,49 -51,41 -104,139 -219,158l-20 76c46,2 71,-51 100,-85 23,-27 28,-22 57,-39 25,-14 37,-30 59,-47 -15,49 -56,73 -74,135 -18,60 -9,27 -34,71 -19,31 0,44 -39,68 4,-56 27,-47 29,-81 -50,12 -194,327 -177,377 14,-49 24,-80 53,-122 35,-52 25,-81 87,-59 104,-225 97,-114 129,-215 8,-25 26,-55 34,-82l51 12 26 -75c26,-60 52,-125 94,-180 25,-33 27,-60 54,-86 29,-27 55,-38 58,-82 -43,11 -28,26 -55,48 -30,26 -10,-20 -57,31 -39,41 -56,94 -91,128z"/>
   <path class="fil21" d="M4672 1974l12 -13c4,-41 34,-83 68,-96 118,-47 71,-61 177,-155 20,-18 69,-60 82,-83 -7,56 -82,83 -86,138 57,-37 111,-134 236,-212 -11,49 -114,106 -116,149 29,-6 208,-195 331,-224l16 -12c-70,-9 -27,21 -141,26 -55,3 -73,38 -127,51 -71,19 -54,39 -105,65 -34,17 -34,2 -66,23 -24,17 -25,29 -57,31 0,-116 130,-224 87,-236 -27,41 -111,160 -126,199 -21,56 -4,26 -42,67 -21,23 -22,44 -40,64 -19,21 -45,23 -62,48 -17,25 -15,50 -39,72 -24,22 -42,16 -73,38 21,15 14,6 43,1l-2 49 30 10z"/>
   <path class="fil22" d="M4440 1332c-34,16 -22,38 -37,74 -17,39 -34,38 -48,69 0,33 27,17 0,69 -17,34 -27,24 -65,35 19,31 18,-11 22,34 -43,5 -67,-24 -104,-2 -71,44 -35,138 47,82 38,-26 22,-43 48,-70 -2,90 -112,230 -64,308 14,-47 10,-65 36,-114 17,-31 46,-61 60,-93 23,3 5,-16 25,22l1 -15c-17,-50 127,-365 177,-377 -2,34 -25,25 -29,81 39,-24 20,-37 39,-68 25,-44 16,-11 34,-71 18,-62 59,-86 74,-135 -22,17 -34,33 -59,47 -29,17 -34,12 -57,39 -29,34 -54,87 -100,85z"/>
   <path class="fil16" d="M2221 3016c-35,43 -225,94 -252,130l97 -30c13,29 -11,14 -1,40l81 -30c49,20 -18,9 31,30 74,-42 228,-37 282,-59 71,-29 228,-12 320,-45 34,-30 46,-28 66,-40 22,-13 11,-5 21,-19 -72,-12 -140,37 -201,50l62 -56c-66,-9 -108,60 -215,62l88 -47c-39,-26 -78,12 -113,35 -10,7 -120,47 -132,49 30,-22 124,-59 113,-96 -46,25 -200,114 -248,113 38,-36 105,-47 134,-89 -33,-8 -151,66 -201,75l87 -57 -19 -16z"/>
   <path class="fil18" d="M2169 2042l3 -42c51,21 92,74 135,81 -4,-20 -84,-92 -107,-103 -34,-16 -102,-49 -125,-84 36,-1 272,155 295,174 31,27 59,57 104,61 -28,-70 -202,-144 -226,-180 139,47 217,122 308,184 47,33 44,62 98,69 -13,-44 -82,-85 -116,-118 -64,-59 -19,-51 -121,-104 -111,-7 -123,-43 -187,-68 -39,-15 -33,26 -178,-57l14 42c-77,5 -47,-17 -99,-25 -10,-1 -104,1 -108,3 34,27 53,14 93,26 14,4 64,34 77,42 73,46 80,25 140,99z"/>
   <path class="fil23" d="M5435 1934c36,4 -38,31 -46,35 -22,13 -55,37 -74,54 -44,38 -106,66 -127,122 32,-2 76,-41 103,-65 25,-21 274,-187 297,-174 -36,28 -99,55 -132,80 -14,10 -105,90 -117,101 37,0 139,-68 168,-99 -8,34 -39,44 -5,59 38,-60 95,-62 145,-98 65,-47 151,-47 178,-70 -23,-17 -26,-12 -50,-2 -58,24 -18,11 -43,-1 -24,-11 -75,14 -105,32 -23,-41 9,-16 -7,-47 -155,94 -172,5 -185,73z"/>
   <path class="fil24" d="M3455 2261c49,14 34,8 40,60 3,23 2,64 22,58 4,-24 7,-15 7,-35 -1,-21 -8,0 -4,-42 28,15 67,72 97,69 23,-70 -1,-174 -88,-166 -28,29 -19,63 -62,46 -25,-66 44,14 15,-152 -5,-33 0,-67 -2,-80 -3,-18 -28,-49 -39,-56 -23,16 -53,125 -54,158 -1,53 39,99 68,140z"/>
   <path class="fil25" d="M2782 3059c69,35 102,-14 150,0 41,12 22,19 77,13 65,-7 169,33 239,38 29,2 62,5 85,4 28,-2 56,-8 81,-11 -12,-20 -50,-22 -82,-39 -48,-27 -66,-4 -109,-16 -33,-10 -51,-40 -81,-34 -65,14 -34,15 -101,-8 -39,24 10,39 -95,42 14,-14 65,-53 67,-55 -18,-12 -85,12 -114,17 -41,7 -21,8 -56,20 -36,12 -40,-2 -61,29z"/>
   <path class="fil26" d="M3000 2335l32 -30c9,31 13,23 2,48 130,87 -18,16 107,103 19,13 19,25 31,43 121,-6 97,74 154,84 -23,-37 -64,-99 -71,-139 39,9 42,49 71,59 -5,-36 -38,-80 -67,-105l-16 30 -35 -21 20 -30c-67,12 6,33 -100,25 10,-39 29,-7 59,-46 -27,-30 -73,-98 -134,-76 -34,13 -2,14 -59,17l6 38z"/>
   <path class="fil27" d="M3987 4411c13,-19 9,-60 9,-87 0,-59 -5,-40 -29,-70 -21,-27 -46,-128 -40,-155 -27,20 -54,101 -62,135 -22,84 17,106 -27,168 28,17 110,9 149,9z"/>
   <path class="fil28" d="M4383 2529l-37 39c49,-5 32,-23 55,-47 23,-23 58,-15 87,-20 22,-26 57,-50 67,-63 26,-33 -7,-71 75,-61 21,-12 62,-50 71,-74 -111,-14 -146,-60 -216,55 26,32 45,10 58,43 -94,16 -122,-32 -160,128z"/>
   <path class="fil26" d="M3405 1817c-27,-28 -57,-110 -83,-102l25 21c-25,48 -36,10 -48,72 -6,34 -15,70 -13,106 4,52 25,140 71,152 29,-39 14,-87 59,-130l-44 -121 33 2z"/>
   <path class="fil1" d="M3009 2563c22,-24 13,-104 9,-142l-10 -31 -55 -5 -10 53c-14,-63 -56,-143 -129,-137 -18,74 54,226 125,207l8 -64 62 119z"/>
   <path class="fil29" d="M3053 1949c18,65 62,96 97,122 34,26 122,64 159,22 21,-23 -50,-99 -74,-114 -65,-43 -117,-27 -182,-30z"/>
   <path class="fil30" d="M3990 1748c13,-26 16,-27 8,-53 -26,-11 -18,-14 -43,-3 -29,46 -79,71 -92,103 -22,49 -49,104 -27,159 42,8 83,-42 107,-69 45,-51 37,-68 47,-137z"/>
   <path class="fil15" d="M3657 1445l-2 129 1 -48c30,21 34,82 54,119 14,28 57,72 85,68 19,-10 40,-154 -40,-225 -45,-39 -14,-12 -43,-58 -45,11 -16,46 -53,80l-2 -65z"/>
   <path class="fil31" d="M4354 2091c93,65 247,-55 255,-143 -105,-4 -235,19 -255,143z"/>
   <path class="fil15" d="M3243 1878c24,-49 46,-113 33,-171 -8,-33 -56,-125 -81,-138 -83,101 -17,275 48,309z"/>
   <path class="fil15" d="M3914 2132c9,-36 2,-42 23,-69 3,51 -6,122 9,168 8,26 39,89 62,88 18,-65 -17,-219 -76,-253l9 -117c-43,24 -63,30 -81,80 -13,38 -30,100 -7,135 22,9 45,-10 61,-32z"/>
   <path class="fil15" d="M3405 2276c-48,-151 -231,-158 -236,-118 -5,32 55,101 81,115 59,31 97,36 155,3z"/>
   <path class="fil32" d="M4474 1568c-33,28 -62,84 -77,126 -13,38 -6,152 29,164 41,14 134,-148 48,-290z"/>
   <path class="fil26" d="M3935 1672c62,-54 62,-115 48,-194 -22,-65 -85,36 -103,63 -21,32 -39,146 -21,181 29,3 59,-35 76,-50z"/>
   <path class="fil31" d="M4326 2069c42,-43 71,-147 43,-236 -14,-48 -5,-60 -52,-63 -6,7 -55,143 -56,152 -3,24 16,45 25,78 11,43 10,39 40,69z"/>
   <path class="fil31" d="M4473 2206l32 -47 -20 -13c-80,-15 -92,-8 -152,34 -30,21 -71,67 -67,107 37,16 90,13 126,-6 66,-32 41,-31 81,-75z"/>
   <path class="fil33" d="M3747 2450l-7 31c44,34 87,10 79,64 -46,26 -40,-13 -70,-19 6,42 32,27 54,71 29,-9 -9,-3 28,-33 22,32 8,25 15,44 25,-42 36,-37 74,-61 17,23 3,1 11,23 42,109 8,22 63,114 32,-29 10,16 36,-39 23,-45 -13,-47 -45,-86 -12,-14 -19,-29 -35,-45 -36,39 -27,21 -82,32 -53,11 -35,-28 -42,-67 -17,-36 -18,-93 -49,-119l-30 90z"/>
   <path class="fil15" d="M3311 1471l-81 -69c-4,48 43,65 66,105l28 -5c8,37 30,54 64,63 42,10 52,-17 74,-36 35,-33 35,-20 43,-80 9,-71 -10,-87 17,-126l-22 -18c-67,19 -31,152 -44,200 -48,-11 -45,-60 -133,-6 -23,-15 -12,0 -12,-28z"/>
   <path class="fil26" d="M3811 2003l-17 -21c-3,-48 28,-137 -15,-201 -22,-35 -73,-105 -116,-111 -1,44 29,160 47,196 22,44 104,120 101,137z"/>
   <path class="fil32" d="M4476 1911c98,-10 237,-31 203,-171 -30,-3 -115,29 -136,50 -9,9 -63,105 -67,121z"/>
   <path class="fil1" d="M2534 2485c20,45 90,54 137,51 52,-2 82,-43 116,-75 -21,-22 -96,-55 -132,-46 -16,4 -108,59 -121,70z"/>
   <path class="fil15" d="M3398 2334l-114 -5 -17 11c41,90 127,169 222,106 -11,-47 -50,-98 -91,-112z"/>
   <path class="fil1" d="M4884 2466c67,86 168,104 254,14 -81,-9 -49,-39 -120,-59 -47,-14 -112,3 -134,45z"/>
   <path class="fil34" d="M4216 2251c22,-7 63,-94 62,-130 -1,-37 -24,-126 -47,-149 -52,17 -34,94 -50,143 -13,44 0,112 35,136z"/>
   <path class="fil34" d="M4333 2434c34,-53 35,-31 56,-102 -103,-3 -177,-3 -211,106 57,54 97,35 155,-4z"/>
   <path class="fil1" d="M4863 2443c65,-8 180,-173 143,-211 -7,-7 -181,4 -143,211z"/>
   <path class="fil1" d="M2797 2437c23,-205 -139,-215 -144,-210 -20,20 -7,149 144,210z"/>
   <path class="fil1" d="M4719 1398c86,-15 163,-162 144,-250 -23,20 -34,19 -57,33 -27,17 -25,36 -45,59 -42,47 -49,91 -42,158z"/>
   <path class="fil26" d="M3347 2519c7,22 53,83 79,89 29,7 134,10 128,-34 -2,-12 -63,-80 -81,-85 -46,-14 -104,-4 -126,30z"/>
   <path class="fil25" d="M2368 1617c40,-6 53,-17 83,7 26,21 36,49 66,28 -26,-33 -25,-23 -51,-43 -28,-23 -3,-25 -47,-50 -42,-23 -91,-42 -130,-67 -82,0 -23,-22 -127,-22 6,76 91,42 157,109 22,23 28,22 49,38z"/>
   <path class="fil35" d="M4112 2589c23,26 97,29 131,16 27,-11 77,-69 66,-96 -13,-28 -117,-27 -134,-15 -8,6 -65,74 -63,95z"/>
   <path class="fil1" d="M2477 2156c6,85 81,206 166,187 7,-149 -134,-206 -166,-187z"/>
   <path class="fil1" d="M2698 2566c8,53 67,58 114,59 49,0 83,-45 110,-75 -36,-24 -68,-48 -117,-45 -20,2 -91,43 -107,61z"/>
   <path class="fil26" d="M3743 2854c30,-33 56,-59 64,-106 7,-42 -2,-116 -34,-139 -31,12 -70,79 -74,111 -5,32 24,111 44,134z"/>
   <path class="fil32" d="M4564 1684c10,-12 51,-99 57,-117 11,-37 3,-119 -9,-151 -73,34 -138,253 -48,268z"/>
   <path class="fil1" d="M2926 1391c35,-80 -42,-229 -127,-242 -21,96 50,201 127,242z"/>
   <path class="fil15" d="M3121 1685c61,-43 7,-268 -66,-267 -2,66 -20,90 0,159 8,27 40,98 66,108z"/>
   <path class="fil1" d="M4731 2556c20,44 66,68 113,69 56,2 109,0 107,-65 -92,-36 -130,-83 -220,-4z"/>
   <path class="fil1" d="M5013 2351c33,-1 107,-37 123,-63 16,-25 37,-106 34,-136 -93,26 -171,93 -157,199z"/>
   <path class="fil1" d="M2389 2380c4,18 106,134 228,14 -32,-44 -53,-49 -108,-57 -47,-7 -84,16 -120,43z"/>
   <path class="fil1" d="M5053 2394c78,81 143,68 229,0 -60,-64 -177,-85 -229,0z"/>
   <path class="fil1" d="M4722 2524c40,-24 67,-43 86,-83 24,-48 37,-79 27,-134 -61,-6 -159,110 -113,217z"/>
   <path class="fil36" d="M3809 1489c37,-53 -8,-192 -32,-215l-46 -42c-5,17 -6,133 -3,157 3,23 49,94 81,100z"/>
   <path class="fil36" d="M3032 1856c46,50 96,66 164,48 -7,-28 -6,-28 -24,-47 -25,-27 -14,-27 -32,-51 -14,-20 -72,-52 -99,-55 -5,38 -3,62 -9,105z"/>
   <path class="fil1" d="M5153 1731c-10,-24 1,-25 -12,-49 -89,19 -111,116 -104,151 31,-4 93,-62 105,-91 36,75 116,-57 115,-107 -46,4 -87,56 -104,96z"/>
   <path class="fil15" d="M3857 1490c44,-2 56,-3 87,-90 13,-37 17,-123 -4,-155 -19,32 -52,30 -68,93 -17,61 -10,94 -15,152z"/>
   <path class="fil37" d="M4672 1974c-19,26 -40,26 -63,51 -22,23 -28,48 -33,81 -13,20 -7,43 -3,90 2,18 -3,3 4,19 41,-31 53,-69 78,-106 36,-53 30,21 29,-148l-12 13z"/>
   <path class="fil30" d="M3928 2835c83,-115 -10,-220 -32,-221 -42,-2 -41,87 -35,116 1,3 65,103 67,105z"/>
   <path class="fil1" d="M3023 1707c0,-33 3,-115 -18,-134 -23,-21 -92,-35 -121,-30 -4,56 17,65 44,99 41,53 8,49 95,65z"/>
   <path class="fil1" d="M2988 2104c22,-70 -28,-222 -107,-219 -2,35 -1,110 21,138 17,21 60,79 86,81z"/>
   <path class="fil1" d="M3016 1505c4,-24 10,-128 7,-151 -3,-30 -38,-96 -67,-94 -17,26 -20,120 -10,149 8,25 52,83 70,96z"/>
   <path class="fil1" d="M2736 2717c-5,33 43,63 67,85 39,38 77,32 131,22 -12,-11 -16,-27 -29,-43 -39,-44 -108,-107 -169,-64z"/>
   <path class="fil1" d="M5166 2283c83,0 166,-94 166,-170 -87,-1 -156,89 -166,170z"/>
   <path class="fil1" d="M2482 2272c12,-85 -82,-153 -163,-165 22,72 71,183 163,165z"/>
   <path class="fil1" d="M3007 2677c22,-14 13,-54 8,-78 -31,-7 -52,-23 -90,-3 -27,14 -61,30 -75,56 22,67 109,40 157,25z"/>
   <path class="fil1" d="M4740 2822c33,26 103,10 126,-21 26,-35 51,-53 72,-88 -71,-17 -203,36 -198,109z"/>
   <path class="fil26" d="M3718 1163l2 -38c4,2 5,3 6,6 1,4 3,5 4,7 0,1 2,4 3,6 11,24 43,117 79,122 14,-31 1,-111 -11,-143 -21,-60 -66,-63 -81,-95 -36,44 -5,102 -2,135z"/>
   <path class="fil1" d="M2856 1998c37,-77 -29,-198 -101,-207 -21,78 34,171 101,207z"/>
   <path class="fil38" d="M4123 2383c-106,-14 -109,156 -87,169 48,30 126,-97 87,-169z"/>
   <path class="fil1" d="M2988 1539c-24,-106 -115,-186 -163,-174 -8,28 26,88 44,115 23,36 77,52 119,59z"/>
   <path class="fil24" d="M3533 2402c-4,65 24,151 98,155l12 -36c-23,-100 7,-100 -95,-150l-15 31z"/>
   <path class="fil38" d="M4044 2365c22,5 72,-27 88,-47 27,-32 22,-78 16,-116 -87,-2 -137,95 -104,163z"/>
   <path class="fil1" d="M2742 2973c44,2 99,19 127,-19 23,-30 59,-63 59,-99 -114,-2 -131,27 -186,118z"/>
   <path class="fil1" d="M2583 2734c5,25 44,66 65,83 26,21 90,19 119,5 -22,-65 -120,-146 -184,-88z"/>
   <path class="fil1" d="M2955 2129c-22,-66 -159,-107 -175,-33 -10,45 121,104 175,33z"/>
   <path class="fil32" d="M4287 2941c4,31 98,137 181,66 -16,-48 -62,-63 -84,-98 -34,30 -52,7 -97,32z"/>
   <path class="fil1" d="M4888 2838c129,4 109,-18 187,-90 -76,-52 -180,1 -187,90z"/>
   <path class="fil1" d="M2616 2973c43,12 83,5 111,-28 20,-25 50,-62 49,-94 -68,-29 -159,55 -160,122z"/>
   <path class="fil1" d="M5208 2313c35,56 203,43 203,-29 -53,-33 -167,-28 -203,29z"/>
   <path class="fil32" d="M4555 2828c17,-28 47,-57 50,-99 -65,-21 -168,53 -163,127 39,14 73,-22 113,-28z"/>
   <path class="fil1" d="M4787 2961c27,26 72,24 105,9 -25,-82 -78,-122 -166,-104 -1,37 36,70 61,95z"/>
   <path class="fil31" d="M4290 2899c50,-6 66,-19 97,-52 30,-32 58,-33 51,-91 -64,-30 -170,77 -148,143z"/>
   <path class="fil1" d="M2845 2029c-25,-73 -150,-87 -181,-34 -41,69 126,65 181,34z"/>
   <path class="fil1" d="M4928 2953c21,31 84,42 99,19 21,-32 -82,-162 -154,-105 1,26 39,62 55,86z"/>
   <path class="fil1" d="M4796 1996c23,-22 107,-32 109,-197 -17,2 -73,47 -91,62 -31,27 -17,98 -18,135z"/>
   <path class="fil1" d="M2255 2275c1,73 150,92 209,37 -13,-24 -55,-40 -84,-46 -51,-10 -76,4 -125,9z"/>
   <path class="fil1" d="M4714 2149c35,18 63,27 102,9 23,-10 75,-36 56,-65 -39,-56 -164,-25 -158,56z"/>
   <path class="fil26" d="M3292 2860c55,40 30,23 90,38 -4,-85 -76,-151 -164,-149 4,15 16,53 23,66 22,39 26,7 51,45z"/>
   <path class="fil36" d="M3096 2823c36,-2 86,45 115,32 63,-35 -97,-134 -154,-136 -1,33 24,72 39,104z"/>
   <path class="fil39" d="M3827 1118c36,-51 43,-184 -2,-232 -35,5 -29,8 -36,44 -21,100 16,116 38,188z"/>
   <path class="fil1" d="M4804 2031c81,28 143,53 208,-22 -79,-53 -142,-51 -208,22z"/>
   <path class="fil36" d="M3189 2999c33,23 49,31 96,29 30,-34 84,-47 84,-86 -22,-17 -81,-27 -104,-13 -22,13 -57,54 -76,70z"/>
   <path class="fil1" d="M2220 2161c-4,-38 -41,-60 -65,-86 -28,-30 -84,-30 -125,-27 15,73 119,118 190,113z"/>
   <path class="fil36" d="M3864 1274c57,-35 90,-153 39,-205 -59,14 -74,159 -39,205z"/>
   <path class="fil40" d="M4065 2193c87,-1 109,-76 103,-151l-72 4c-19,29 -38,106 -31,147z"/>
   <path class="fil15" d="M3501 2047c-4,28 -1,90 18,113 14,17 125,92 66,-83 -14,-41 -43,-38 -84,-30z"/>
   <path class="fil26" d="M3407 2741c-1,-61 -41,-131 -102,-136 -25,63 7,202 102,136z"/>
   <path class="fil41" d="M4695 1012c-36,61 -107,111 -164,145 -26,16 -29,44 -44,73 45,-13 94,-53 125,-88 29,-34 83,-62 114,-99 3,-41 15,-30 21,-59 -44,-4 -32,-5 -52,28z"/>
   <path class="fil15" d="M3090 2473c-10,22 -9,97 2,122 6,12 21,27 30,37 26,30 6,26 37,27 23,-52 6,-205 -69,-186z"/>
   <path class="fil26" d="M3460 1896c-3,29 11,66 27,89 24,33 50,28 88,27 8,-25 1,-81 -14,-102 -17,-25 -70,-29 -101,-14z"/>
   <path class="fil24" d="M3529 1662c48,-51 69,-202 21,-242 -47,43 -53,184 -21,242z"/>
   <path class="fil42" d="M4392 2720c71,-2 99,-134 63,-186 -14,1 -55,37 -61,58 -10,32 -16,98 -2,128z"/>
   <path class="fil42" d="M4565 2614l8 -15 13 -129c-96,-7 -87,125 -88,189 33,-3 36,-25 67,-45z"/>
   <path class="fil34" d="M4210 1899c-78,-38 -142,38 -121,99 11,33 64,17 82,-4 19,-22 34,-67 39,-95z"/>
   <path class="fil42" d="M4259 2749c36,6 72,19 92,-19 19,-36 14,-77 8,-117 -68,-7 -100,75 -100,136z"/>
   <path class="fil15" d="M3201 2675c40,20 36,42 77,45 14,-62 0,-176 -79,-184l2 139z"/>
   <path class="fil1" d="M2960 2289l58 -20 1 -86c-41,-31 -94,-10 -136,7 29,72 73,57 77,99z"/>
   <path class="fil1" d="M4721 1419c-12,39 -12,81 -7,122 51,-33 133,-102 115,-174 -42,2 -22,10 -52,29 -15,10 -39,15 -56,23z"/>
   <path class="fil42" d="M4619 2582l67 -56c3,-43 -8,-83 4,-123 -33,-27 -61,24 -71,53 -10,33 -19,87 -22,123l22 3z"/>
   <path class="fil31" d="M4610 2982c5,-72 -157,-119 -167,-68 -7,31 108,110 167,68z"/>
   <path class="fil1" d="M2731 1900c6,-28 2,-97 -14,-121 -8,-13 -68,-59 -87,-60 -10,73 31,156 101,181z"/>
   <path class="fil1" d="M5440 2160c126,13 192,-84 179,-98 -39,-43 -142,25 -179,98z"/>
   <path class="fil1" d="M5036 2843c37,3 80,10 113,-12 20,-14 54,-39 62,-60 -65,-54 -170,9 -175,72z"/>
   <path class="fil1" d="M2551 1921c25,64 121,64 163,21 -1,-71 -122,-75 -163,-21z"/>
   <path class="fil15" d="M3546 1849c15,-47 -35,-94 -69,-116 -52,21 -57,42 -33,95 15,35 71,36 102,21z"/>
   <path class="fil1" d="M2481 2975c111,22 116,-27 152,-109 -25,-1 -85,10 -108,25 -21,14 -33,58 -44,84z"/>
   <path class="fil1" d="M2428 2767c42,13 43,38 72,57 35,24 74,13 113,14 6,-27 -32,-68 -55,-78 -55,-25 -80,-8 -130,7z"/>
   <path class="fil29" d="M3049 2983c97,32 181,-42 163,-81 -24,-4 -87,-6 -108,7 -18,11 -51,54 -55,74z"/>
   <path class="fil15" d="M3380 1617c-8,78 52,97 116,92 22,-78 -46,-141 -116,-92z"/>
   <path class="fil16" d="M5650 2054c67,-6 119,-49 183,-68 41,-12 69,-10 109,-16 37,-6 76,-12 114,-12 -8,-29 -9,-23 -44,-23 -100,-1 -74,8 -178,30 -47,9 -156,50 -184,89z"/>
   <path class="fil1" d="M4918 1900c31,-3 76,-33 88,-61 10,-24 24,-89 14,-112 -76,31 -95,93 -102,173z"/>
   <path class="fil1" d="M4939 1938c36,50 139,48 164,-10 -33,-56 -138,-44 -164,10z"/>
   <path class="fil1" d="M2891 2971c40,5 82,20 119,-2 16,-27 12,-75 5,-106 -56,1 -95,66 -124,108z"/>
   <path class="fil34" d="M4038 2727l52 26c22,-27 29,-45 56,-67 29,-22 61,-22 69,-47 -33,-18 -95,-14 -117,7 -15,14 -17,22 -34,39 -21,21 -14,20 -26,42z"/>
   <path class="fil1" d="M2411 1727c-2,-28 -41,-68 -64,-79 -58,1 -118,-11 -60,59 30,36 81,48 124,20z"/>
   <path class="fil26" d="M3453 2633c3,27 58,42 78,62 16,16 58,89 86,40 10,-18 -41,-84 -45,-88 -17,-20 -94,-22 -119,-14z"/>
   <path class="fil1" d="M5159 2860c81,45 121,14 165,-45 -31,-22 -60,-32 -97,-15 -26,12 -59,34 -68,60z"/>
   <path class="fil1" d="M5014 2877c30,43 65,145 140,101 9,-89 -71,-101 -140,-101z"/>
   <path class="fil34" d="M4126 1843c72,43 109,-19 110,-84 -22,-16 -53,-35 -80,-2 -14,17 -31,65 -30,86z"/>
   <path class="fil1" d="M2620 1832c8,-30 -7,-68 -20,-98 -17,-38 -46,-56 -88,-49 4,46 -4,60 31,92 27,24 38,42 77,55z"/>
   <path class="fil26" d="M3423 2882c12,10 81,23 85,-15l-1 -28c-45,-30 -74,-64 -132,-52 6,53 29,55 48,95z"/>
   <path class="fil1" d="M2327 2808c6,17 48,52 63,59 34,15 67,-2 96,-15 -30,-47 -106,-106 -159,-44z"/>
   <path class="fil21" d="M4881 1130c34,-9 104,-144 161,-201 30,-30 54,-61 85,-92 25,-26 87,-67 94,-91 -15,9 -41,19 -59,30l-217 234c-21,44 -44,78 -64,120z"/>
   <path class="fil1" d="M5329 2201c65,9 131,-88 136,-147 -70,12 -124,76 -136,147z"/>
   <path class="fil1" d="M5364 2246c23,15 73,22 98,11 46,-19 49,-26 52,-74 -49,-2 -147,-2 -150,63z"/>
   <path class="fil41" d="M2790 1123c-3,-32 -47,-79 -64,-113 -33,-68 -186,-222 -269,-264 9,33 115,95 136,131 16,28 18,26 40,48 20,21 66,74 80,97 23,40 38,75 77,101z"/>
   <path class="fil1" d="M5247 1742c32,11 68,6 98,-8 28,-13 30,-38 55,-65 -74,-27 -133,-9 -153,73z"/>
   <path class="fil35" d="M4129 2806c23,1 67,-28 88,-43 36,-27 22,-47 6,-87 -50,7 -120,79 -94,130z"/>
   <path class="fil1" d="M2121 2973l97 10 65 -66c-34,-17 -71,-30 -107,-12 -21,11 -50,47 -55,68z"/>
   <path class="fil1" d="M2509 1906c42,-9 50,-13 85,-41l14 -11c-66,-53 -108,-41 -170,-3l71 55z"/>
   <path class="fil1" d="M5375 2923c8,56 94,73 144,57 8,-69 -103,-102 -144,-57z"/>
   <path class="fil34" d="M4339 1495c-25,-14 -52,-28 -81,-18 -20,6 -46,35 -38,64 13,45 134,30 119,-46z"/>
   <path class="fil1" d="M2310 2239c-5,-59 -111,-57 -159,-53 -2,69 112,92 159,53z"/>
   <path class="fil26" d="M3428 2753c30,17 80,55 112,46 15,-49 -68,-117 -89,-127 -20,27 -26,45 -23,81z"/>
   <path class="fil1" d="M2326 2196c-14,-76 -104,-166 -125,-146 -21,21 44,143 125,146z"/>
   <path class="fil1" d="M5294 3000c-18,-64 -68,-119 -141,-104 -5,18 30,62 44,76 24,25 62,27 97,28z"/>
   <path class="fil42" d="M4147 2882c27,3 74,4 95,-11 14,-10 47,-65 39,-81 -19,-37 -132,42 -134,92z"/>
   <path class="fil35" d="M4394 1373c-20,-14 -53,-37 -74,-27 -15,7 -40,49 -36,67 15,74 106,20 110,-40z"/>
   <path class="fil1" d="M2360 2989c88,19 112,-34 136,-102 -118,-5 -103,72 -136,102z"/>
   <path class="fil1" d="M4715 2058c50,-7 70,-129 49,-166 -63,-17 -60,125 -49,166z"/>
   <path class="fil1" d="M2222 2832c6,65 90,89 143,56 -32,-51 -78,-84 -143,-56z"/>
   <path class="fil43" d="M1622 1943c22,14 160,25 203,34 59,13 126,65 180,61l-7 -6c-1,-1 -6,-5 -8,-6 -67,-47 -280,-111 -368,-83z"/>
   <path class="fil1" d="M2395 1642c13,37 19,42 38,75 18,33 37,42 76,43 2,-65 -88,-162 -114,-118z"/>
   <path class="fil15" d="M3867 2398l-21 81 4 29c40,3 45,-8 76,-20 -1,-58 -18,-55 -31,-107l-28 17z"/>
   <path class="fil44" d="M4507 1087c4,-23 6,-52 -2,-71 -60,1 -94,51 -67,107 38,11 52,-10 69,-36z"/>
   <path class="fil31" d="M4691 2912l-11 -38 -49 -8 -51 25c35,31 60,75 102,82 3,-25 -2,-43 9,-61z"/>
   <path class="fil1" d="M2361 1774c17,81 121,58 131,7 -37,-30 -90,-33 -131,-7z"/>
   <path class="fil1" d="M2961 2823l55 7 -3 -60c-96,0 -19,-52 -130,-55 15,23 16,33 36,52 30,30 22,32 42,56z"/>
   <path class="fil1" d="M5165 1788l64 60c30,-21 61,-33 71,-74 -43,-14 -97,-15 -135,14z"/>
   <path class="fil42" d="M4600 2836c37,-9 47,10 86,-22l3 -88c-16,4 -48,27 -59,37 -27,24 -15,42 -42,60l12 13z"/>
   <path class="fil35" d="M4336 1320l80 20c54,-124 -53,-91 -70,-65 -9,13 -13,30 -10,45z"/>
   <path class="fil29" d="M3284 1367c1,36 17,43 39,74 49,6 33,2 66,-24l-39 -68 -66 18z"/>
   <path class="fil32" d="M4585 2255c28,6 75,21 102,13l-1 -87c-37,1 -93,36 -101,74z"/>
   <path class="fil1" d="M2256 2995c52,25 98,-19 123,-79 -28,0 -66,-5 -87,15 -7,7 -34,53 -36,64z"/>
   <path class="fil1" d="M5392 3002c-11,-35 -60,-118 -101,-80 -25,22 47,107 101,80z"/>
   <path class="fil1" d="M4710 2682l89 3c5,-60 -42,-69 -88,-84l-1 81z"/>
   <path class="fil39" d="M3232 1280l32 58c40,-25 102,-3 60,-55 -29,-35 -60,-32 -92,-3z"/>
   <path class="fil1" d="M4717 1559l-6 117c28,-41 72,-79 64,-131 -23,-7 -39,-1 -58,14z"/>
   <path class="fil1" d="M3016 1845c9,-32 7,-76 3,-108l-64 -9c3,40 36,91 61,117z"/>
   <path class="fil45" d="M3010 871c14,-25 18,-13 15,-50 -27,9 0,0 -26,20 -22,-13 -27,-20 -53,-20l64 50z"/>
   <path class="fil46" d="M3869 399c15,-18 27,-41 29,-67 -23,16 -29,39 -29,67z"/>
   <path class="fil47" d="M2154 1491c-24,-18 -26,-15 -58,-12 23,15 32,14 58,12z"/>
   <path class="fil48" d="M3941 686l1 -50c-10,18 -10,32 -1,50z"/>
   <path class="fil49" d="M3942 613l3 -2c0,0 -3,1 -3,2z"/>
   <polygon class="fil50" points="3861,414 3869,399 "/>
  </g>
 </g>
</svg>
