<?xml version="1.0" encoding="UTF-8" standalone="no"?>
<svg xmlns="http://www.w3.org/2000/svg" width="1000" height="500">
  <path fill="#de0000" d="M0 0h1000v500H0z"/>
  <path fill="none" stroke="#fcd115" stroke-width="7.85826683" d="m209.50704 54.811742 30.22449 93.010068 97.79814.004-79.11804 57.48703 30.21787 93.01302-79.12246-57.48187-79.12247 57.48187 30.21787-93.01302-79.118047-57.48703 97.798147-.004z"/>
  <path fill="#fff" d="m600.66791 272.88732 48.99075-18.31886 2.28329-52.25381 32.56124 40.93214L734.9051 229.271l-28.8668 43.61632 28.86681 43.61631-50.40192-13.97579-32.56122 40.93215-2.28331-52.25383zm-111.1682-152.81938a152.46195 152.46195 0 0 0-152.46195 152.46194 152.46195 152.46195 0 0 0 152.46195 152.46195 152.46195 152.46195 0 0 0 107.64978-44.62556 121.96956 121.96956 0 0 1-56.82914 14.13316A121.96956 121.96956 0 0 1 418.3508 272.52988a121.96956 121.96956 0 0 1 121.96955-121.96956 121.96956 121.96956 0 0 1 56.80664 14.12524 152.46195 152.46195 0 0 0-107.62728-44.61762Z"/>
</svg>
