<?xml version="1.0" encoding="utf-8"?>
<!-- Generator: Adobe Illustrator 22.0.0, SVG Export Plug-In . SVG Version: 6.00 Build 0)  -->
<svg version="1.1" id="Слой_1" xmlns="http://www.w3.org/2000/svg" xmlns:xlink="http://www.w3.org/1999/xlink" x="0px" y="0px"
	 viewBox="0 0 1025 684" style="enable-background:new 0 0 1025 684;" xml:space="preserve">
<style type="text/css">
	.st0{fill:#FFFFFF;stroke:#EFEFEF;stroke-miterlimit:10;}
	.st1{fill:#D01C1F;}
	.st2{fill:#FFFFFF;}
	.st3{fill:#009B75;}
</style>
<g>
	<rect class="st0" width="1025" height="684"/>
	<rect y="163.9" class="st1" width="1025" height="363.4"/>
	<path class="st2" d="M466.2,275.3c-38.2-60.8-118.7-79.4-179.9-41.5s-79.9,118-41.7,178.9s118.7,79.4,179.9,41.5
		c16.9-10.4,31.2-24.7,41.7-41.5c-38.2,43-104.2,47.1-147.4,9.1s-47.4-103.6-9.2-146.5s104.2-47.1,147.4-9.1
		C460.2,268.9,463.3,272,466.2,275.3z"/>
	<path class="st2" d="M466.2,342.8l139.2-44.9l-86,117.7V270l86,117.7"/>
	<rect y="128.3" class="st3" width="1025" height="50.6"/>
	<rect y="510.3" class="st3" width="1025" height="50.6"/>
</g>
</svg>
