<?xml version="1.0" encoding="UTF-8"?>
<!DOCTYPE svg PUBLIC "-//W3C//DTD SVG 1.1//EN" "http://www.w3.org/Graphics/SVG/1.1/DTD/svg11.dtd">
<!-- Creator: CorelDRAW X8 -->
<svg xmlns="http://www.w3.org/2000/svg" xml:space="preserve" width="86.868mm" height="57.912mm" version="1.1" style="shape-rendering:geometricPrecision; text-rendering:geometricPrecision; image-rendering:optimizeQuality; fill-rule:evenodd; clip-rule:evenodd"
viewBox="0 0 8687 5791"
 xmlns:xlink="http://www.w3.org/1999/xlink">
 <defs>
  <style type="text/css">
   <![CDATA[
    .str0 {stroke:#E30917;stroke-width:20}
    .fil0 {fill:#E30917}
    .fil1 {fill:white}
   ]]>
  </style>
 </defs>
 <g id="Слой_x0020_1">
  <metadata id="CorelCorpID_0Corel-Layer"/>
  <rect class="fil0 str0" width="8687" height="5791"/>
  <g id="_2047091876608">
   <path class="fil1" d="M5804 2983c-35,232 -43,336 -157,551 -81,153 -176,285 -306,401 -953,848 -2474,133 -2377,-1165 58,-783 741,-1362 1522,-1300 398,32 686,180 960,467 237,249 410,706 358,1046zm-1644 -1704c-899,127 -1503,920 -1391,1824 49,393 274,788 584,1036 376,300 768,401 1246,350 853,-89 1545,-966 1397,-1818 -73,-417 -241,-772 -578,-1042 -360,-288 -798,-414 -1258,-350z"/>
   <path class="fil1" d="M4220 2047c1,-54 79,-133 143,-131 187,6 183,269 0,274 -93,3 -143,-110 -143,-143zm-12 360l0 192c-46,-11 -40,-8 -95,0 -39,5 -72,14 -109,24 -57,15 -125,44 -174,77 -463,304 -356,895 -162,1053 71,-45 111,-151 119,-232 16,-160 -58,-472 270,-606 47,-19 96,-28 151,-28 0,181 -22,919 9,1035 14,54 73,119 125,128 75,13 144,-27 181,-81 56,-83 21,-238 30,-317 11,-105 4,-550 -1,-649 -1,-3 -1,-6 -1,-9 -2,-75 -21,-116 111,-93 122,22 232,135 277,251 68,178 -22,551 171,599 140,-181 212,-541 83,-757 -124,-208 -194,-275 -407,-361 -89,-36 -127,-29 -219,-45 -27,-52 -35,-179 34,-244 65,-62 134,-128 136,-224 4,-207 -54,-381 -286,-436 -178,-43 -379,61 -442,236 -27,77 -23,241 18,309 90,149 122,126 181,178z"/>
   <path class="fil1" d="M5228 3991l4 -4c0,0 -5,2 -4,4z"/>
   <path class="fil1" d="M5144 2887l4 -4c0,1 -5,3 -4,4z"/>
  </g>
 </g>
</svg>
