<?xml version="1.0" encoding="UTF-8"?>
<!DOCTYPE svg PUBLIC "-//W3C//DTD SVG 1.1//EN" "http://www.w3.org/Graphics/SVG/1.1/DTD/svg11.dtd">
<!-- Creator: CorelDRAW X8 -->
<svg xmlns="http://www.w3.org/2000/svg" xml:space="preserve" width="338.667mm" height="225.689mm" version="1.1" shape-rendering="geometricPrecision" text-rendering="geometricPrecision" image-rendering="optimizeQuality" fill-rule="evenodd" clip-rule="evenodd"
viewBox="0 0 33866660 22568940"
 xmlns:xlink="http://www.w3.org/1999/xlink"
 xmlns:dc="http://purl.org/dc/elements/1.1/"
 xmlns:cc="http://creativecommons.org/ns#"
 xmlns:rdf="http://www.w3.org/1999/02/22-rdf-syntax-ns#"
 xmlns:svg="http://www.w3.org/2000/svg"
 xmlns:sodipodi="http://sodipodi.sourceforge.net/DTD/sodipodi-0.dtd"
 xmlns:inkscape="http://www.inkscape.org/namespaces/inkscape"
 inkscape:version="0.48.2 r9819"
 sodipodi:docname="Golden_Horde_flag_1339.svg">
 <g id="Слой_x0020_1">
  <metadata id="CorelCorpID_0Corel-Layer"/>
  <rect fill="white" x="12150" y="11489" width="33852375" height="22556046"/>
  <g id="_1221045665312">
   <sodipodi:namedview id="base" pagecolor="#ffffff" bordercolor="#666666" borderopacity="1.0" inkscape:pageopacity="0.0" inkscape:pageshadow="2" inkscape:zoom="2.2055008" inkscape:cx="60.268395" inkscape:cy="99.529244" inkscape:document-units="px" inkscape:current-layer="layer1" showgrid="false" inkscape:window-width="1538" inkscape:window-height="878" inkscape:window-x="54" inkscape:window-y="-8" inkscape:window-maximized="1"/>
   <g id="path5205" inkscape:connector-curvature="0" sodipodi:nodetypes="ccccccczzzcccczcczccc">
    <path fill="red" d="M3563670 4734500l3397080 0 0 3372900 424630 0 0 -3794510 -1910870 0 0 -1559970c0,0 303410,-155830 308420,-466180 5010,-310380 -224740,-503770 -520730,-503540 -295980,230 -509430,184900 -507200,492390 2230,307490 294890,477310 294890,477310l0 1559970 -1910870 0 0 3162110c0,0 -1096370,-2016500 -1271400,-2537630 -175020,-521140 -130590,-427270 -130590,-427270l-508840 280620c0,0 -146420,-196380 236850,317850 383260,514240 1674000,2998840 1674000,2998840l424630 0 0 -3372890z"/>
    <path fill="none" fill-opacity="0.000000" stroke="black" stroke-width="26460" stroke-opacity="0.000000" d="M3563670 4734500l3397080 0 0 3372900 424630 0 0 -3794510 -1910870 0 0 -1559970c0,0 303410,-155830 308420,-466180 5010,-310380 -224740,-503770 -520730,-503540 -295980,230 -509430,184900 -507200,492390 2230,307490 294890,477310 294890,477310l0 1559970 -1910870 0 0 3162110c0,0 -1096370,-2016500 -1271400,-2537630 -175020,-521140 -130590,-427270 -130590,-427270l-508840 280620c0,0 -146420,-196380 236850,317850 383260,514240 1674000,2998840 1674000,2998840l424630 0 0 -3372890z"/>
   </g>
   <g id="path5209" inkscape:connector-curvature="0" sodipodi:nodetypes="czczc">
    <path fill="red" d="M8236690 4312870c0,0 1917450,-23060 1910870,1897270 -6600,1920310 -1910870,1897260 -1910870,1897260 0,0 1070690,24530 1061590,-1897260 -9110,-1921780 -1061590,-1897270 -1061590,-1897270z"/>
    <path fill="none" fill-opacity="0.000000" stroke="black" stroke-width="26460" stroke-opacity="0.000000" d="M8236690 4312870c0,0 1917450,-23060 1910870,1897270 -6600,1920310 -1910870,1897260 -1910870,1897260 0,0 1070690,24530 1061590,-1897260 -9110,-1921780 -1061590,-1897270 -1061590,-1897270z"/>
   </g>
   <g id="path3755" sodipodi:type="arc" sodipodi:cx="155.29353" sodipodi:cy="32.691059" sodipodi:rx="5.6676469" sodipodi:ry="5.8943524">
    <path fill="white" d="M5517370 2280030c10,70 10,160 10,220 0,137220 -107770,248510 -240670,248510 -132910,0 -240660,-111290 -240660,-248510 0,-60 0,-150 0,-200 0,-50 0,-150 0,-210 0,-137220 107750,-248510 240660,-248510 132900,0 240670,111290 240670,248510 0,60 0,160 0,210l-10 -20z"/>
    <path fill="none" fill-opacity="0.000000" stroke="black" stroke-width="26460" stroke-opacity="0.000000" d="M5517370 2280030c10,70 10,160 10,220 0,137220 -107770,248510 -240670,248510 -132910,0 -240660,-111290 -240660,-248510 0,-60 0,-150 0,-200 0,-50 0,-150 0,-210 0,-137220 107750,-248510 240660,-248510 132900,0 240670,111290 240670,248510 0,60 0,160 0,210l-10 -20z"/>
   </g>
  </g>
 </g>
</svg>
