<?xml version="1.0" encoding="UTF-8"?>
<!DOCTYPE svg PUBLIC "-//W3C//DTD SVG 1.1//EN" "http://www.w3.org/Graphics/SVG/1.1/DTD/svg11.dtd">
<!-- Creator: CorelDRAW X8 -->
<svg xmlns="http://www.w3.org/2000/svg" xml:space="preserve" width="76.2mm" height="50.8mm" version="1.1" style="shape-rendering:geometricPrecision; text-rendering:geometricPrecision; image-rendering:optimizeQuality; fill-rule:evenodd; clip-rule:evenodd"
viewBox="0 0 7620 5080"
 xmlns:xlink="http://www.w3.org/1999/xlink">
 <defs>
  <style type="text/css">
   <![CDATA[
    .str0 {stroke:#6DB4F6;stroke-width:98.78}
    .str2 {stroke:black;stroke-width:16.93}
    .str1 {stroke:black;stroke-width:25.39}
    .fil0 {fill:#6DB4F6}
    .fil2 {fill:#FFED00}
    .fil1 {fill:#FFED00}
   ]]>
  </style>
 </defs>
 <g id="Слой_x0020_1">
  <metadata id="CorelCorpID_0Corel-Layer"/>
  <g id="Слой_x0020_1_0">
   <rect class="fil0 str0" x="-31" y="28" width="7600" height="5062"/>
   <path class="fil1 str1" d="M3039 2231c0,1 0,1 -1,1 -1,0 -1,1 -1,2 0,0 -1,1 -1,1l-2 0 0 311 0 312 -102 0 -103 0 0 1c0,1 0,1 -1,1 -1,0 -1,0 -1,1 0,1 0,1 -1,1l-1 0 0 102 0 103 1 0c1,0 1,0 1,1 0,1 0,1 1,1 1,0 1,0 1,1l0 1 207 0 208 0 0 -1c0,-1 0,-1 1,-1 0,0 1,0 1,-1 0,-1 0,-1 1,-1l1 0 0 -312 0 -311 206 0 207 0 0 311 0 311 -102 0 -103 0 0 1c0,1 0,1 -1,1 0,0 -1,1 -1,1 0,1 0,2 -1,2l-1 0 0 102 0 102 1 0c1,0 1,0 1,1 0,1 1,1 1,1 1,0 1,1 1,2l0 1 312 0 312 0 0 -1c0,-2 0,-2 1,-2 1,0 1,0 1,-1 0,-1 0,-1 1,-1l1 0 0 -102 0 -102 -1 0c-1,0 -1,-1 -1,-2 0,0 0,-1 -1,-1 -1,0 -1,0 -1,-1l0 -1 -103 0 -102 0 0 -311 0 -311 207 0 206 0 0 311 0 312 2 0c1,0 1,0 1,1 0,1 0,1 1,1 1,0 1,0 1,1l0 1 207 0 207 0 0 -1c0,-1 0,-1 1,-1 1,0 1,0 1,-1 0,-1 0,-1 1,-1l1 0 0 -103 0 -102 -1 0c-1,0 -1,0 -1,-1 0,-1 0,-1 -1,-1 -1,0 -1,-1 -1,-1l0 -1 -103 0 -102 0 0 -312 0 -311 -1 0c-1,0 -1,0 -1,-1 0,-1 0,-1 -1,-1 -1,0 -1,0 -1,-1l0 -1 -730 0 -729 0 0 0 0 0z"/>
   <g>
    <path class="fil1" d="M3848 1352c-2,-2 -1,1 0,0 -1,0 2,2 0,0z"/>
    <path class="fil1" d="M3849 1352l0 1c0,0 1,-1 0,-1z"/>
    <path class="fil1" d="M3398 1655l0 0c0,0 0,0 0,0z"/>
    <path class="fil1 str1" d="M4064 1508c-24,-36 -48,-64 -80,-89 -22,-17 -25,-18 -45,-30 -3,-2 -4,-2 -7,-4 -15,-8 -67,-32 -82,-32 2,2 35,20 55,37 35,29 43,42 67,78 24,34 39,86 43,117 2,19 4,36 3,55l-6 53c-19,80 -59,146 -132,196 -53,35 -110,49 -156,51 -13,1 -24,1 -36,0l-45 -6c-13,-2 -47,-13 -60,-20 -24,-10 -44,-22 -66,-39 -17,-12 -33,-28 -46,-44 -25,-29 -46,-66 -57,-99 -12,-34 -16,-74 -17,-77 -5,12 -3,64 -2,80l5 41c2,8 4,14 5,21 8,35 24,68 43,99 5,8 4,10 14,21 5,6 11,16 24,31 32,34 57,53 96,76 18,9 46,21 65,27 4,1 7,2 10,3l19 5c12,2 21,5 33,6 2,0 3,0 5,1l30 2c90,4 185,-30 254,-91 48,-43 79,-92 98,-142 6,-14 12,-32 15,-47 1,-6 3,-9 4,-19 1,-4 1,-6 1,-10 5,-25 5,-54 4,-79 -2,-31 -7,-55 -15,-83 -2,-8 -5,-15 -8,-22 -7,-20 -20,-48 -33,-67z"/>
   </g>
   <polygon id="path4419" class="fil2 str2" points="3759,1532 3687,1559 3689,1636 3641,1576 3569,1602 3612,1538 3564,1477 3638,1498 3681,1434 3685,1511 "/>
  </g>
 </g>
</svg>
