<?xml version="1.0" encoding="UTF-8"?>
<!DOCTYPE svg PUBLIC "-//W3C//DTD SVG 1.1//EN" "http://www.w3.org/Graphics/SVG/1.1/DTD/svg11.dtd">
<!-- Creator: CorelDRAW X8 -->
<svg xmlns="http://www.w3.org/2000/svg" xml:space="preserve" width="76.2mm" height="50.8mm" version="1.1" style="shape-rendering:geometricPrecision; text-rendering:geometricPrecision; image-rendering:optimizeQuality; fill-rule:evenodd; clip-rule:evenodd"
viewBox="0 0 7620 5080"
 xmlns:xlink="http://www.w3.org/1999/xlink">
 <defs>
  <style type="text/css">
   <![CDATA[
    .str0 {stroke:#2A9324;stroke-width:16.93}
    .fil1 {fill:black}
    .fil0 {fill:#2A9324}
   ]]>
  </style>
 </defs>
 <g id="Слой_x0020_1">
  <metadata id="CorelCorpID_0Corel-Layer"/>
  <rect class="fil0 str0" x="-8" width="7628" height="5080"/>
  <path class="fil1" d="M4034 2191l244 38 -1 18 -235 21 1 -8 -9 -69zm-48 -221l1 -83 402 0c-2,50 -56,252 -136,197 -50,-35 -223,-50 -267,-114zm394 -229l-371 -9c-54,-90 55,-109 95,-149 51,-50 263,-413 276,158zm-823 -152l-427 250c-10,60 31,215 79,245 107,68 125,-111 222,-51l22 122c-193,128 -579,-97 -755,-184 -133,-65 -360,1 -453,-37 -92,-38 -208,-239 -252,-228 -85,106 137,145 -163,285 -185,87 -162,73 -362,108 -351,61 -65,346 285,348 491,2 265,-185 693,102 103,69 178,116 246,223 97,154 177,172 229,241 0,1 -721,406 -790,441 -196,96 -959,70 -840,360 77,59 156,31 201,-45 52,-88 161,-55 247,-51 443,25 239,-68 473,-114 196,-38 311,-149 462,-146 222,5 282,-32 460,-156 498,-346 392,-65 918,-28 241,16 382,-119 497,-108 95,9 123,78 202,112 75,33 176,37 257,54 191,40 312,79 517,98 201,18 375,102 509,107 286,11 188,115 492,59 63,-11 251,27 270,-33 19,-57 -114,-123 -157,-140 -95,-40 -171,13 -271,-20 -90,-29 -129,-62 -230,-80 -104,-19 -172,15 -239,-73 -50,-64 -82,-122 -161,-150 -91,-31 -210,-4 -255,-35 -42,-28 -95,-110 -155,-156 -84,-64 -144,-30 -180,-131 -12,-32 -49,-233 -39,-253 36,-19 209,71 289,78 77,7 291,8 365,-4 120,-20 167,-93 290,-94 69,-1 291,66 328,-12 -8,-96 -376,-152 -452,-151 -84,1 -209,28 -286,-4 -79,-33 -79,-104 -198,-107 -158,-3 -394,117 -527,30 -177,-114 -351,-36 -538,-36l26 9 109 -364 287 -25c26,-65 -157,-92 -201,-97 -174,-19 -45,-67 -104,-207 -46,-111 -182,-353 -330,-227 -70,61 -120,79 -210,91 -101,14 -78,194 -150,53 -42,-83 -164,-95 -232,-58 -116,63 -55,137 -18,189z"/>
 </g>
</svg>
