<?xml version="1.0" encoding="UTF-8"?>
<!DOCTYPE svg PUBLIC "-//W3C//DTD SVG 1.1//EN" "http://www.w3.org/Graphics/SVG/1.1/DTD/svg11.dtd">
<!-- Creator: CorelDRAW X8 -->
<svg xmlns="http://www.w3.org/2000/svg" xml:space="preserve" width="76.2mm" height="50.8mm" version="1.1" style="shape-rendering:geometricPrecision; text-rendering:geometricPrecision; image-rendering:optimizeQuality; fill-rule:evenodd; clip-rule:evenodd"
viewBox="0 0 7620 5080"
 xmlns:xlink="http://www.w3.org/1999/xlink">
 <defs>
  <style type="text/css">
   <![CDATA[
    .str0 {stroke:#00A3E8;stroke-width:16.93}
    .fil2 {fill:black}
    .fil0 {fill:#00A3E8}
    .fil3 {fill:#DBDCDB}
    .fil1 {fill:#FECA0B}
   ]]>
  </style>
 </defs>
 <g id="Слой_x0020_1">
  <metadata id="CorelCorpID_0Corel-Layer"/>
  <rect class="fil0 str0" x="-8" width="7628" height="5080"/>
  <g id="_2431906094752">
   <path class="fil1" d="M4147 3719c16,0 22,7 16,21 -11,-9 -12,-18 -16,-21zm9 -138c32,7 2,13 43,20 18,4 27,8 31,27 3,19 -3,35 -15,41 -22,12 0,-7 -30,16 -8,6 -3,3 -13,7 0,-48 18,-18 46,-43 2,-18 -5,-24 -12,-33l-40 -4 -10 -31zm-33 -547c40,23 36,237 30,289 -10,-18 -10,-117 -12,-148 -2,-31 -25,-125 -18,-141zm-732 -443c36,-20 34,-15 73,-10 49,7 0,-44 37,-63 1,44 12,53 -20,74 -29,5 -29,-5 -49,-4 -18,1 -26,14 -41,3zm858 1284c17,-7 11,-1 21,-16 -20,-5 -67,-5 -75,-25 28,-7 113,4 132,-26 -15,-6 -34,-9 -53,-16 -12,-4 -15,-4 -26,-6l-23 -11c43,-4 87,-4 103,-38l-74 -6 66 -10c20,-4 45,-11 51,-26 -31,-13 -85,8 -112,-10 30,-20 90,-5 109,-55 -25,1 -65,9 -81,-4 34,-24 88,19 114,-48 -138,-1 -87,-27 -229,-126 2,-88 13,-162 6,-255 -3,-39 -6,-83 -18,-118 -9,-24 -28,-64 -26,-90 0,-8 0,-6 2,-10l15 23c25,59 34,102 72,158 34,50 78,98 126,137 77,62 190,152 197,262 2,17 -2,45 8,59 34,-51 61,-148 24,-212 -8,-15 -31,-43 -21,-58 18,17 16,35 46,51 73,41 211,15 228,-19 -44,-5 -71,-13 -111,-25 -18,-6 -34,-13 -52,-16 -22,-3 -47,1 -63,-6 15,-14 86,-24 117,-43 34,-21 55,-49 67,-87 -17,6 -28,19 -47,26 -132,44 -93,44 -149,68 19,-61 42,-46 45,-167l-108 -2c1,147 -98,130 -162,59 -47,-51 -86,-126 -126,-200 -78,-143 -124,-280 -185,-389 -15,-27 -10,-28 -47,-35 14,35 50,83 71,134 7,16 17,38 8,50 -26,-61 -68,-138 -107,-196 -15,-22 -32,-30 -48,-50l-10 18c-39,112 -21,100 -1,145 -61,-3 -108,-78 -123,-129l-18 -67c-17,30 -21,34 -49,55 -55,38 -86,25 -110,48 -23,21 -76,59 -107,39 18,-39 41,4 58,-184 -33,14 -48,29 -90,37 -35,8 -78,-10 -104,5 -48,26 -108,64 -163,80l78 -47c13,-7 27,-14 42,-22 6,-3 16,-8 20,-11 11,-7 9,-6 16,-13 -20,5 -66,9 -79,13 -44,14 -129,77 -170,101 -206,121 -183,27 -244,5 -17,17 -1,20 -22,33 -39,19 -45,-13 -69,-20 -26,16 -32,27 -27,65 13,5 30,9 45,12 7,1 20,4 27,3 20,-3 5,-8 23,-10 1,0 2,1 3,1l8 2c15,2 29,-12 44,-14 31,-4 16,0 23,6 -33,13 -68,34 -109,31 -7,13 5,2 -5,15 -37,-44 -85,-20 -96,7 26,13 47,10 52,45 4,34 -19,39 -42,48 6,27 25,32 54,35 9,-14 13,-28 24,-37 9,-8 13,-6 15,-15 3,-15 -1,7 -5,-16 44,4 1,19 74,-30 23,-16 40,-37 62,-51 3,28 -59,77 -84,89 8,8 11,7 17,16 -35,-7 -40,-7 -62,15 -12,11 -43,77 -12,68l19 -11c48,-25 58,15 53,60 41,4 66,-11 81,-35 8,-12 15,-29 14,-46 -2,-29 -12,-14 -16,-32 38,-8 9,23 57,12 41,-9 26,-20 44,-39l4 23c3,20 15,24 29,42 15,-13 10,-39 34,-47 48,-2 37,18 55,39 41,-39 14,-50 -3,-82 21,-4 25,2 43,2 18,-1 24,-7 39,-10 43,-10 43,15 56,33 8,-11 20,-21 26,-36 6,-16 3,-39 15,-51l7 20c3,22 -2,45 -1,67 2,21 9,51 21,63 8,-28 6,-51 19,-84l20 -74c1,-2 2,-3 3,-3 14,34 0,53 -9,85 66,-22 45,-80 62,-103 13,25 -4,50 -1,76 3,20 27,43 39,49 -7,-46 -3,-48 9,-87 6,-18 12,-66 22,-72 6,24 -5,54 -9,77 19,-11 33,-27 44,-48 11,-21 18,-27 22,-46 3,-15 -5,-3 5,-17 9,8 17,44 26,59 13,18 25,30 34,49 -32,-18 -36,-31 -55,-63 -13,9 -11,13 -19,30 -8,16 -12,18 -19,28 29,42 133,103 181,137 37,27 144,113 152,154 -19,1 -33,-46 -103,-56 19,30 68,54 77,106 9,48 -50,94 20,133 23,-35 40,-151 41,-198 0,-14 -1,-27 -1,-41l2 -26c0,-1 1,-2 1,-4 1,-2 1,-2 2,-3 8,6 3,-4 11,13 36,72 -49,313 -65,382 -27,113 -18,257 -163,242 39,86 120,15 129,13 -9,23 -29,34 -41,68 -9,22 -24,71 -10,95 7,-23 19,-40 29,-63 7,-17 19,-47 36,-52l-49 94c-23,48 -19,60 6,103 5,-7 18,-62 29,-82 33,-61 53,-63 77,-140 4,-16 7,-28 11,-43 5,-18 5,-29 18,-36 10,19 -2,52 -8,74 -9,33 47,79 66,103 35,42 -2,87 -27,125 -25,38 -68,103 -113,113 -19,3 -23,10 -31,12 -15,-18 -41,-7 -60,1 3,20 17,31 4,53 -10,16 -23,18 -39,29l2 26c51,10 64,-29 76,-39 13,-11 6,1 19,-12 14,-12 23,-39 39,-46 12,24 -43,78 -53,87 0,0 1,2 1,2l7 19c-52,-16 -94,24 -89,79 19,-1 40,-27 65,-6 28,23 12,44 -1,67 41,7 59,3 81,-21 35,-37 6,-45 -5,-65 26,-13 6,35 43,-54 14,-33 9,-67 20,-89 22,11 5,73 0,98 1,0 2,2 3,2 1,0 3,2 4,2l7 2c-43,14 -46,65 -19,91 12,-22 15,-47 48,-44 31,3 31,28 46,46 39,-13 56,-52 47,-102 -14,-8 -29,-9 -37,-21 10,-10 31,-12 39,-23 15,-21 -15,-31 4,-31 20,-1 31,40 85,17 -15,-13 -33,-15 -29,-47 4,-26 21,-25 44,-31 -9,-17 -16,-12 -36,-18 8,-22 36,-7 68,-20z"/>
   <path class="fil2" d="M4012 4199l-9 -9c-11,-13 -28,-52 3,-67 18,-8 37,8 36,27 -2,16 -22,32 -30,49zm-237 10c-9,-53 26,-113 56,-78 17,20 -5,36 -15,43 -17,14 -28,27 -41,35zm463 -208c-27,-11 13,-6 -49,-37 0,-58 65,-43 49,37zm-530 -32c35,-43 87,-35 91,-15 4,15 -15,32 -33,31 -14,-1 -33,-13 -58,-16zm-523 -226c4,-44 -13,-80 37,-74 9,14 10,26 0,42 -9,14 -18,24 -37,32zm-250 -74c0,-19 1,-38 12,-52 10,-13 36,-20 48,-6 26,30 -35,54 -60,58zm-106 -237c21,-19 90,-30 87,14 -2,40 -50,6 -81,-10l-6 -4zm182 -152c23,9 76,44 43,79 -13,14 -35,8 -42,-9 -5,-12 -3,-56 -1,-70zm1421 -257c49,0 93,8 147,7 56,-1 103,-7 156,-10 -5,26 -33,60 -48,73 -40,32 -245,45 -255,-70zm-558 39c-1,31 -18,45 -7,84 8,32 22,34 42,51 -14,93 -11,91 -111,115 -70,16 -129,20 -204,21 -8,110 -56,219 17,250 -43,43 -80,-23 -102,-36 1,21 23,33 36,58 -69,10 -57,-21 -98,-40 2,17 17,28 23,42 -56,7 -33,-41 -70,-48 18,61 39,79 49,107 -69,-16 -59,-67 -92,-82 1,46 27,77 40,115 -51,-17 -62,-73 -83,-88 -1,1 -2,2 -2,4 0,2 -1,3 -2,4 0,1 -2,6 -3,7 -14,23 -14,-3 -33,-8 4,54 9,48 -24,79 -14,-19 -1,-37 -30,-45 -32,-9 -40,14 -51,23 -40,-31 -7,-50 -14,-66 -15,-6 1,7 -26,14 -21,5 -23,0 -43,11l-6 -13c-1,0 -2,-2 -2,-2l-5 -6c-5,58 -29,84 -88,62 6,-16 50,-24 19,-82 -37,-9 -44,-6 -70,11 -5,-48 36,-69 77,-49 7,-21 -16,-6 14,-18 25,-9 81,-22 92,-36 -29,-6 -51,7 -76,16 -28,9 -51,14 -65,-1 -6,-7 4,-1 -7,-8 -11,66 -103,35 -101,-34 28,6 52,16 62,-19 11,-42 -16,-43 -36,-58 17,-10 34,-14 57,-4 20,9 21,20 30,42 10,-7 -10,6 5,-6 8,-7 -2,-10 41,1 21,5 43,9 66,9 -9,-12 -6,-8 -27,-18 -15,-7 -8,0 -13,-11l-2 -9c-14,14 -8,18 -37,7 -21,-8 -28,-13 -40,-25l12 -31c19,7 12,8 26,21 9,9 17,11 30,10 28,-2 30,-23 41,-45 25,7 41,32 25,52 0,0 -1,1 -2,2l13 7c6,31 9,43 41,47 23,4 66,2 89,-2 134,-22 80,-106 142,-219 11,-21 22,-31 52,-38 14,-3 25,-5 38,-7 18,-4 22,-3 31,-15 -31,-4 -61,5 -91,9 -83,10 -140,-31 -276,-10l15 -21c32,-30 29,-29 81,-28 25,0 111,12 124,7 -13,-9 -86,-16 -110,-17 -14,-1 -26,1 -37,-7 124,-46 102,-4 147,-11 3,-69 -18,-36 24,-86 10,20 2,47 28,55 -4,-34 -33,-64 18,-74 -6,52 4,66 48,82 40,14 86,3 127,-4 73,-14 194,-20 264,2zm-1035 -114l-11 -20c-10,-38 10,-66 37,-58 16,4 19,27 6,42l-32 36zm328 -128c9,31 -3,66 -32,69 0,-38 -24,-90 32,-69zm-504 -32c8,-31 40,-69 81,-60 13,12 19,14 16,38 -22,18 -61,18 -97,22zm128 -253c48,-4 77,10 63,58 -45,11 -47,-27 -63,-58zm1616 -29c0,-108 11,-154 50,-240 14,-31 26,-54 44,-82 12,-18 45,-61 60,-71 16,4 23,15 32,27 82,109 104,231 104,375 0,62 -31,227 -46,289 -14,-17 -8,-44 -32,-94 -11,-24 -35,-61 -62,-69 0,35 -6,62 -16,89 -7,23 -28,59 -30,79l-9 0c-2,-28 -95,-192 -95,-303zm-1190 42c55,-16 115,-54 163,-80 26,-15 69,3 104,-5 42,-8 57,-23 90,-37 -17,188 -40,145 -58,184 31,20 84,-18 107,-39 24,-23 55,-10 110,-48 28,-21 32,-25 49,-55l18 67c15,51 62,126 123,129 -20,-45 -38,-33 1,-145l10 -18c16,20 33,28 48,50 39,58 81,135 107,196 9,-12 -1,-34 -8,-50 -21,-51 -57,-99 -71,-134 37,7 32,8 47,35 61,109 107,246 185,389 40,74 79,149 126,200 64,71 163,88 162,-59l108 2c-3,121 -26,106 -45,167 56,-24 17,-24 149,-68 19,-7 30,-20 47,-26 -12,38 -33,66 -67,87 -31,19 -102,29 -117,43 16,7 41,3 63,6 18,3 34,10 52,16 40,12 67,20 111,25 -17,34 -155,60 -228,19 -30,-16 -28,-34 -46,-51 -10,15 13,43 21,58 37,64 10,161 -24,212 -10,-14 -6,-42 -8,-59 -7,-110 -120,-200 -197,-262 -48,-39 -92,-87 -126,-137 -38,-56 -47,-99 -72,-158l-15 -23c-2,4 -2,2 -2,10 -2,26 17,66 26,90 12,35 15,79 18,118 7,93 -4,167 -6,255 142,99 91,125 229,126 -26,67 -80,24 -114,48 16,13 56,5 81,4 -19,50 -79,35 -109,55 27,18 81,-3 112,10 -6,15 -31,22 -51,26l-66 10 74 6c-16,34 -60,34 -103,38l23 11c11,2 14,2 26,6 19,7 38,10 53,16 -19,30 -104,19 -132,26 8,20 55,20 75,25 -10,15 -4,9 -21,16 -32,13 -60,-2 -68,20 20,6 27,1 36,18 -23,6 -40,5 -44,31 -4,32 14,34 29,47 -54,23 -65,-18 -85,-17 -19,0 11,10 -4,31 -8,11 -29,13 -39,23 8,12 23,13 37,21 9,50 -8,89 -47,102 -15,-18 -15,-43 -46,-46 -33,-3 -36,22 -48,44 -27,-26 -24,-77 19,-91l-7 -2c-1,0 -3,-2 -4,-2 -1,0 -2,-2 -3,-2 5,-25 22,-87 0,-98 -11,22 -6,56 -20,89 -37,89 -17,41 -43,54 11,20 40,28 5,65 -22,24 -40,28 -81,21 13,-23 29,-44 1,-67 -25,-21 -46,5 -65,6 -5,-55 37,-95 89,-79l-7 -19c0,0 -1,-2 -1,-2 10,-9 65,-63 53,-87 -16,7 -25,34 -39,46 -13,13 -6,1 -19,12 -12,10 -25,49 -76,39l-2 -26c16,-11 29,-13 39,-29 13,-22 -1,-33 -4,-53 19,-8 45,-19 60,-1 8,-2 12,-9 31,-12 45,-10 88,-75 113,-113 25,-38 62,-83 27,-125 -19,-24 -75,-70 -66,-103 6,-22 18,-55 8,-74 -13,7 -13,18 -18,36 -4,15 -7,27 -11,43 -24,77 -44,79 -77,140 -11,20 -24,75 -29,82 -25,-43 -29,-55 -6,-103l49 -94c-17,5 -29,35 -36,52 -10,23 -22,40 -29,63 -14,-24 1,-73 10,-95 12,-34 32,-45 41,-68 -9,2 -90,73 -129,-13 145,15 136,-129 163,-242 16,-69 101,-310 65,-382 -8,-17 -3,-7 -11,-13 -1,1 -1,1 -2,3 0,2 -1,3 -1,4l-2 26c0,14 1,27 1,41 -1,47 -18,163 -41,198 -70,-39 -11,-85 -20,-133 -9,-52 -58,-76 -77,-106 70,10 84,57 103,56 -8,-41 -115,-127 -152,-154 -48,-34 -152,-95 -181,-137 7,-10 11,-12 19,-28 8,-17 6,-21 19,-30 19,32 23,45 55,63 -9,-19 -21,-31 -34,-49 -9,-15 -17,-51 -26,-59 -10,14 -2,2 -5,17 -4,19 -11,25 -22,46 -11,21 -25,37 -44,48 4,-23 15,-53 9,-77 -10,6 -16,54 -22,72 -12,39 -16,41 -9,87 -12,-6 -36,-29 -39,-49 -3,-26 14,-51 1,-76 -17,23 4,81 -62,103 9,-32 23,-51 9,-85 -1,0 -2,1 -3,3l-20 74c-13,33 -11,56 -19,84 -12,-12 -19,-42 -21,-63 -1,-22 4,-45 1,-67l-7 -20c-12,12 -9,35 -15,51 -6,15 -18,25 -26,36 -13,-18 -13,-43 -56,-33 -15,3 -21,9 -39,10 -18,0 -22,-6 -43,-2 17,32 44,43 3,82 -18,-21 -7,-41 -55,-39 -24,8 -19,34 -34,47 -14,-18 -26,-22 -29,-42l-4 -23c-18,19 -3,30 -44,39 -48,11 -19,-20 -57,-12 4,18 14,3 16,32 1,17 -6,34 -14,46 -15,24 -40,39 -81,35 5,-45 -5,-85 -53,-60l-19 11c-31,9 0,-57 12,-68 22,-22 27,-22 62,-15 -6,-9 -9,-8 -17,-16 25,-12 87,-61 84,-89 -22,14 -39,35 -62,51 -73,49 -30,34 -74,30 4,23 8,1 5,16 -2,9 -6,7 -15,15 -11,9 -15,23 -24,37 -29,-3 -48,-8 -54,-35 23,-9 46,-14 42,-48 -5,-35 -26,-32 -52,-45 11,-27 59,-51 96,-7 10,-13 -2,-2 5,-15 41,3 76,-18 109,-31 -7,-6 8,-10 -23,-6 -15,2 -29,16 -44,14l-8 -2c-1,0 -2,-1 -3,-1 -18,2 -3,7 -23,10 -7,1 -20,-2 -27,-3 -15,-3 -32,-7 -45,-12 -5,-38 1,-49 27,-65 24,7 30,39 69,20 21,-13 5,-16 22,-33 61,22 38,116 244,-5 41,-24 126,-87 170,-101 13,-4 59,-8 79,-13 -7,7 -5,6 -16,13 -4,3 -14,8 -20,11 -15,8 -29,15 -42,22l-78 47zm754 -542c14,3 27,9 44,10 17,1 31,-10 46,-5 15,5 51,46 60,63 13,26 21,61 31,90 9,22 36,72 37,83 -105,-14 -102,-74 -158,-124 -10,-10 -42,-39 -55,-39 1,29 68,64 95,139 19,50 4,163 -25,201 -7,-12 -15,-69 -40,-122 -15,-33 -42,-85 -69,-95 4,27 54,86 72,173 13,65 12,81 42,139 7,14 17,27 23,40 -51,-8 -135,-54 -141,-112 -2,-28 4,-54 4,-81 -15,8 -16,31 -19,57 -5,49 -28,157 -44,187 -71,-77 -74,-139 -57,-233 60,8 94,-10 110,-54 -45,1 -67,-17 -73,-60 20,-12 26,-31 37,-56 33,-68 98,-121 80,-201zm-1068 -38c8,-11 14,-12 24,-20 76,-64 64,76 -24,20zm736 -90c14,7 20,12 27,26l-26 -1 -1 -25zm87 10c-8,25 -19,22 -38,9 -14,-9 -23,-15 -29,-27 26,-1 50,11 67,18zm-87 -56c0,-66 72,-63 80,-3l10 49c-27,-7 -34,-23 -90,-23l0 -23zm-14 69c-60,9 -201,32 -225,-50 -4,-13 -5,-28 -1,-42 7,-24 18,-25 21,-27 16,120 144,85 193,88l12 31zm6 -104l-3 42c-18,-2 -22,-12 -28,-32l31 -10zm429 177c-62,-9 -34,-45 -30,-62 16,-58 0,-92 -10,-132 64,-2 27,1 77,20 38,14 49,3 83,-5 -4,32 -18,64 -43,70 -20,6 -39,-24 -76,-30 24,44 82,33 84,134 -28,-10 -42,-56 -93,-70 14,46 82,36 91,166l-10 -8c0,0 -1,-1 -2,-2 -12,-13 -27,-42 -57,-56 8,-23 17,-20 -14,-25zm-1297 -290c15,-8 28,-21 53,-19 19,2 37,13 31,35 -11,41 -71,0 -84,-16zm1703 345c-20,-14 -60,-34 -95,-32 -56,2 -64,49 -72,56 -15,-18 -36,-47 -17,-79 25,-41 58,-8 80,-29 -58,-11 -103,-43 -96,-113 21,8 58,45 78,37 -7,-21 -5,-7 -39,-30 -54,-36 -63,-73 -52,-140 17,10 19,30 40,58 14,19 21,40 46,44 -10,-33 -136,-161 -48,-240 1,49 11,125 47,158 6,-8 7,11 3,-15l-18 -45c-23,-59 -16,-178 20,-194 1,67 1,92 24,150 25,64 23,120 36,131 11,-19 -16,-61 35,-100 40,-31 68,-13 98,8 -20,22 -20,4 -41,18 -8,5 -15,19 -20,33 -31,83 56,191 76,227 -10,17 -30,32 -44,50 -11,16 -25,35 -41,47zm-948 -301c13,-33 57,-41 90,-62 32,-21 36,-60 90,-63 51,-2 260,-3 305,2 -4,10 -15,17 -21,26 -2,-1 -3,-2 -5,-2l-7 -4c-1,-1 -2,-2 -3,-2 -12,-6 2,-1 -10,-6 2,16 12,22 21,35 29,-14 44,-56 104,-51 17,35 21,97 -2,130 -7,11 -32,26 -53,28 -43,4 -24,-17 -48,-24 0,22 80,114 31,193l-7 -12c-16,-37 -25,-73 -60,-95 1,16 15,28 24,45 19,38 23,96 66,115l23 11c-86,27 -99,-28 -137,-55 2,50 47,55 43,103 -4,38 -27,79 -47,98 -6,-41 -10,-115 -59,-130 7,53 95,106 -6,233 -14,-22 -18,-52 -35,-78 -10,-14 -18,-17 -28,-31 -9,-13 -9,-22 -21,-33 0,29 15,47 28,66 33,50 47,142 79,161l29 19c-134,83 -166,-101 -236,-117l59 83c19,28 34,52 74,61 -12,41 -22,74 -47,102 -21,22 -45,48 -86,58 8,-20 15,-44 24,-66 7,-17 26,-42 17,-61 -29,24 -33,70 -55,105 -12,19 -56,61 -85,67 5,-21 14,-36 19,-65 4,-25 5,-52 9,-76 9,-50 50,-97 47,-118 -80,53 -46,131 -225,124 9,-12 24,-16 37,-26 19,-15 89,-83 94,-95 -28,4 -74,51 -97,69 -26,22 -68,45 -108,51l52 -80c27,-41 78,-135 130,-142 36,-4 70,-17 89,-49 -33,8 -83,55 -122,22 -16,-13 -22,-36 -14,-64 7,-26 19,-32 28,-49 10,9 10,22 18,31 5,7 16,12 29,13 72,6 104,-90 154,-105 19,22 23,48 62,49 5,-31 -14,-16 -3,-58 13,-8 26,-6 38,-16 12,-10 12,-21 20,-33 15,13 11,19 36,27 23,7 32,3 50,-6 -15,-25 -36,-17 -36,-67 1,-54 15,-26 -5,-88 27,-10 36,-21 35,-57l-33 11c-18,-26 -55,-41 -87,-38l-11 3c0,-1 -2,1 -3,2 11,11 83,36 106,47 10,4 6,1 11,8 -42,36 -53,-23 -95,-1 0,1 2,2 2,2 29,20 73,23 72,70 -18,-12 -29,-30 -66,-29l18 13c52,26 40,57 52,116 -48,-14 -34,-54 -80,-66 3,20 43,81 -13,82 0,-15 4,-21 2,-34 -2,-12 0,-6 -4,-12 -1,1 -2,2 -2,4l-25 93c-37,-16 -13,-50 -23,-72 -12,8 -10,17 -22,27 -8,7 -20,11 -32,12 6,-17 18,-25 24,-42 -27,13 -27,30 -55,33 2,-17 5,-9 11,-26 -20,3 -27,25 -60,35 3,-18 12,-37 20,-53 11,-23 14,-30 46,-30 22,-1 54,5 72,-6 38,-23 12,-56 7,-86 -2,-12 -1,-20 -6,-32 -6,-16 -23,-27 -46,-30 -30,-4 -156,60 -151,-15 2,-21 9,-11 19,-29 -19,6 -19,11 -34,2zm335 277l-1 -1c-1,0 1,1 1,1zm-742 -430c6,-21 11,-22 26,-32 20,-14 16,-18 29,-28 1,39 -5,68 -34,83l-21 -23zm1687 114c24,-7 32,-34 48,-55 19,-26 22,-39 34,-57 7,-10 -1,-2 8,-9 21,92 8,118 -46,188 -12,15 -31,30 -37,51 19,-4 15,-7 28,-19l64 -74c5,47 -7,87 -29,113 -17,20 -75,47 -85,69 37,-4 70,-40 93,-53 0,25 -5,37 -19,55 -8,10 -26,29 -38,37 -25,-7 -56,-19 -72,6 100,0 113,56 63,121 -18,-27 -1,-36 -37,-61 -128,-89 -315,184 -360,316 -19,54 -27,109 -27,171 -1,110 47,212 90,311 34,78 9,67 24,116 5,18 10,26 24,28 9,-42 -23,-49 10,-138 5,-14 40,-125 40,-126 43,44 -20,148 -20,227 11,-13 16,-72 24,-94 15,-39 16,-54 19,-99 65,70 8,206 23,235 19,-6 13,-11 21,-46 13,-54 33,-101 43,-159 32,-169 51,-312 -4,-478 -28,-85 -48,-110 -99,-171 9,-14 49,-52 66,-62 25,12 90,112 109,152 36,73 62,107 62,206l114 -83c18,-13 18,-24 35,-31 3,51 -13,98 -41,125 -14,13 -28,23 -46,36 -18,13 -38,21 -45,43 26,-11 83,-55 101,-74 9,-9 16,-19 27,-30 24,48 -11,110 -35,144 -23,33 -102,52 -114,90 16,-6 59,-34 78,-45 46,-26 54,-50 68,-57 -2,63 -23,92 -53,122 -23,21 -48,36 -72,55 -13,10 -16,8 -21,25 15,-6 14,-8 28,-18l84 -54c-3,53 -18,99 -48,121 -25,20 -92,48 -98,75 14,-1 30,-20 48,-29 19,-9 37,-17 53,-26 10,99 -125,107 -142,150l86 -37c-10,50 -45,77 -76,100 -28,20 -110,21 -152,21 -121,0 -222,6 -258,-93 39,6 34,18 61,26 -12,-64 -106,-4 -126,-150 52,13 50,26 85,42 -18,-74 -148,-38 -126,-172 12,2 35,15 47,21 7,4 18,10 23,13 16,12 6,11 24,20 -12,-78 -135,-38 -123,-169 33,7 66,39 90,45 -8,-55 -128,-28 -103,-163 25,10 76,49 102,54 -9,-30 -55,-39 -82,-61 -29,-24 -31,-67 -27,-112 11,0 20,11 32,17 22,12 56,23 72,41 14,15 9,22 30,30 2,-31 -4,-33 7,-65 6,-19 13,-38 20,-57 26,-72 65,-135 110,-196 12,-17 21,-31 33,-44 14,-16 24,-25 36,-41 22,-29 51,-51 75,-75 49,-49 109,-129 100,-204 -8,-75 -45,-49 -75,-77 11,-22 55,-42 88,-25 43,23 21,65 34,88 11,-14 11,-74 46,-131 12,-19 20,-34 33,-53 10,-17 21,-48 30,-60 53,81 -41,180 -57,227zm-1912 -161c19,8 2,0 16,11 6,5 3,5 13,10 15,7 21,7 36,3 25,-7 28,-27 24,-53 26,5 37,13 47,33 18,31 2,38 -8,56 1,1 2,0 2,0l16 0c1,-1 2,0 3,0 9,43 44,116 74,122 1,-20 -12,-28 -22,-44 -21,-35 -10,-32 -5,-41 -20,-5 -19,-6 -25,-29 -20,-66 40,-63 42,-40 1,11 0,-8 0,7 -3,68 50,41 63,41 7,7 8,5 10,22 6,37 -9,43 -29,50 17,33 -13,22 8,71 10,24 24,39 37,57 27,34 64,67 94,96 43,42 169,145 178,206 -11,-6 -3,0 -13,-9 -4,-3 -5,-6 -9,-10 -28,-38 -19,-22 -48,-51 -16,-18 -45,-56 -70,-64 8,25 32,41 46,56 18,19 29,32 49,51 79,79 6,64 61,138 -43,53 -49,43 -93,118 -33,55 -45,89 -96,115 -15,-23 -11,-64 2,-86 17,-30 44,-42 55,-53 -30,-4 -109,22 -132,34 -11,-84 45,-83 60,-88l-28 -3c-11,1 -23,2 -34,2 -24,-1 -35,-7 -44,-22l69 -20c-9,-7 -1,-4 -16,-6 -9,0 -58,13 -85,-2 0,-11 -12,-1 14,-15l54 -38c-26,3 -38,16 -60,24 -19,6 -46,6 -66,11 7,-76 65,-58 87,-85 -14,-7 -75,30 -104,-27 20,-7 28,-2 37,-23 7,-15 8,-33 0,-48 -6,-12 -17,-23 -26,-33 -11,-13 -16,-25 -28,-32l-2 7c-9,24 -30,61 -61,44 -3,-12 22,-22 13,-53 -6,-23 -29,-24 -56,-22 1,-23 8,-38 19,-49 17,-17 26,-9 41,-20 -86,-40 -51,-30 -76,-73 -14,7 -8,18 -29,24 -30,7 -83,-4 -87,-64 30,-1 54,-5 59,-33 6,-40 -19,-38 -36,-54 18,-10 45,-22 72,-10 35,16 22,47 40,50 32,6 -8,-6 11,2 0,0 84,71 124,72 -10,-21 -44,-34 -76,-61 -55,-46 -55,-38 -43,-74 -45,11 -8,3 -62,-11 -4,-1 -8,-1 -12,-2 -35,-12 -7,-69 5,-85zm76 -1c-17,10 -42,24 -52,-9l-22 -62c40,8 73,28 74,71zm793 -99c35,-13 26,8 45,-31 7,-16 16,-34 38,-34 23,1 25,21 34,42 10,26 20,15 44,27 14,64 -27,49 -40,70 21,15 28,-15 53,-6 18,7 22,20 50,17 -7,-17 -14,-12 -25,-22 -16,-15 -21,-67 37,-53 14,-21 26,-39 55,-47 -5,21 -19,44 -26,68 -6,22 -14,54 -17,78 -37,-1 -184,-10 -204,2 16,27 162,2 200,18l-3 29 -310 0c-21,-140 -51,-172 -54,-190 30,-3 36,13 45,32 25,4 56,-1 47,37 -4,15 -27,23 -39,46 26,2 35,-15 52,-25 12,11 27,30 49,20 -15,-30 -52,-10 -31,-78zm-21 -2c-14,-4 -13,-6 -26,-10 -48,-19 -40,-49 -96,-36 3,36 27,58 38,94 8,27 16,86 16,119 -61,32 -40,49 -79,65 -10,4 -17,7 -25,11 -104,54 -52,43 -45,91 3,22 3,30 24,44 20,12 37,3 47,12l28 39c-58,7 -180,12 -180,-72 0,-20 7,-14 9,-36 -33,8 -59,41 -59,76 0,37 9,70 45,86 78,36 125,9 181,9 -9,34 -38,74 -54,104 45,11 56,-20 95,0 -2,26 -64,82 -91,82 -41,0 -20,-30 -18,-55 -13,7 -19,3 -35,11 -17,8 -12,12 -33,16 -1,-1 -81,-99 -122,-131 -30,-23 -55,-57 -84,-82 -10,-9 -14,-9 -23,-18 -24,-24 -83,-104 -83,-135 0,-14 28,-48 28,-90 0,-21 -18,-37 -18,-41 0,-28 30,-86 -19,-99 -2,26 -19,43 -36,54 -17,-4 -26,-9 -45,-9 -16,0 -6,8 -27,14 -19,-36 -24,-45 -70,-57 -33,-9 -49,-43 -88,-43 -17,0 -9,3 -27,5 2,24 21,34 27,58 -35,52 -41,16 -41,118 -32,8 -29,22 -55,31 -29,10 -38,14 -53,37 7,10 31,28 45,31 0,63 23,92 79,98 22,3 32,-5 52,-7 14,26 11,18 36,31 -17,26 -36,28 -36,73 0,17 12,17 -12,33 -12,7 -25,12 -42,12 21,32 55,29 89,38 18,4 18,12 46,12 26,0 36,-24 54,-36 8,26 32,30 32,67 0,38 -37,4 -50,0 0,53 9,55 50,77 -1,15 -12,29 -18,46 -5,18 -9,35 -9,58 26,-2 27,-16 54,-22 24,34 51,71 100,72 -16,66 -14,29 -14,108 21,-5 30,-39 86,-40 -23,47 -21,69 -9,122l-142 84c-206,123 -181,41 -238,15 -57,-26 -26,-41 -117,-41 -17,0 -2,-1 -14,5 5,16 19,29 27,45 -37,20 -55,49 -36,91 -19,10 -31,14 -41,35 -25,51 -67,37 -67,123 20,-11 43,-20 72,-23 3,38 39,47 72,54 7,28 16,35 21,65 3,16 4,24 9,36 7,15 12,17 16,30l13 0c2,-23 17,-33 27,-49 25,12 65,6 88,-12 44,-33 25,-47 40,-78 6,-14 20,-9 62,-19 8,16 8,17 22,28 18,11 28,10 31,32 2,10 0,9 0,16 0,8 -7,14 8,13 41,-2 48,-41 76,-61 25,-17 21,-49 21,-77 25,0 26,-3 48,-7 47,-10 30,27 25,52 32,-8 39,-39 63,-45 0,48 21,89 50,108 0,-75 -4,-74 42,-107 15,-10 14,-15 30,-20 6,27 37,61 68,64 -1,-25 -9,-40 -9,-68 0,-11 20,-32 31,-32 10,0 52,42 64,50l136 98c14,10 20,16 33,26 12,9 25,14 29,30 -15,-8 -41,-5 -63,-5 29,43 80,71 104,118 -91,0 -171,-11 -264,2 -33,5 -59,11 -93,11 -34,0 -68,-22 -68,-49 0,-16 13,-15 23,-28 -42,-3 -54,-10 -93,16 -28,20 -34,42 -34,75 -73,0 -110,4 -167,45 -20,14 -70,61 -77,86 40,-3 48,-18 122,-18 29,0 147,15 163,22 -6,22 -34,46 -55,149 -18,94 -87,86 -171,86 -34,0 -18,-83 -61,-111l-49 -36c-19,-17 -34,-23 -62,-29l5 63c0,21 -29,19 -32,55 -24,0 -31,-8 -52,1 -24,10 -16,20 -39,25 -35,9 -58,17 -76,50 30,0 35,4 59,10 0,63 15,102 76,103 -13,25 -7,54 -8,82 -1,17 -1,36 -1,54 14,-4 27,-15 41,-23 104,70 95,-34 167,-40 7,12 10,26 18,37 24,33 23,14 23,58 0,16 -5,16 -9,31 54,0 55,-26 85,-46 18,-12 22,-8 35,-28 14,-23 6,-43 29,-43 18,0 36,61 122,81 -6,-24 -29,-37 -36,-68 40,11 31,33 95,18 -5,-17 -38,-37 -50,-54l199 -22c-10,-44 -50,-28 -47,-108 1,-38 14,-63 19,-97 4,-33 -9,-45 32,-44 20,0 25,-2 38,-3 46,-6 95,-8 138,-20 17,-5 47,-16 64,-18 -14,60 -15,139 -58,187 -7,8 -41,26 -55,26 -25,0 -21,-25 -50,-27 -11,23 5,61 19,76 21,20 46,23 85,23 -4,16 -8,13 -14,35 -14,48 -15,119 12,162 10,17 20,45 43,47 0,-155 68,-131 90,-226 19,13 33,34 48,53 42,53 40,41 -19,130 -107,163 -126,65 -185,104 -17,10 -8,15 -29,20 -27,7 -52,12 -71,33 -15,16 -11,17 -19,35 11,0 30,-1 40,0 28,4 6,9 37,9 0,29 -1,33 18,55 -46,68 -11,48 -14,99 -1,19 -10,51 4,73 8,11 5,9 19,13 4,-20 17,-31 31,-41 66,16 92,14 131,-45 41,27 41,62 68,81 4,-17 12,-28 21,-42 32,-44 97,-25 97,-111 0,-25 -10,-34 -18,-50l19 -22 35 4c25,0 27,-5 50,-5 6,10 8,16 18,23 47,-35 5,-95 4,-140 13,-1 31,-9 41,-13 21,-8 25,-8 27,-28 -24,-2 -8,5 -14,-9 26,-6 48,-16 55,-41 -7,-3 -49,-8 -59,-9 9,-12 17,-8 33,-21 13,-9 17,-20 27,-32 18,-22 45,-28 48,-64 -20,0 -18,4 -40,4l51 -79c34,-62 -24,-28 -67,-41 -24,-7 -60,-39 -74,-56 -16,-20 -54,-46 -78,-59 0,-45 10,-85 10,-131 -1,-48 0,-96 0,-144 23,27 43,57 70,83 43,44 97,78 141,121 36,36 70,69 93,115 32,68 21,99 21,182 35,-18 61,-64 77,-99 25,-55 18,-91 4,-149 27,6 35,20 73,22 59,1 182,-19 198,-81 -29,1 -66,-1 -95,-8 -27,-6 -73,-15 -85,-33 29,-7 66,-31 82,-57 15,-24 37,-68 40,-101 -18,2 -71,47 -132,67 -18,6 -34,15 -49,19 7,-30 16,-51 20,-84 5,-43 -16,-19 30,-51 59,-42 49,-76 72,-105 24,-30 61,-30 78,-98 6,-23 1,-24 19,-39 57,-45 27,-85 55,-122 41,-56 17,-109 35,-141 55,-100 17,-91 28,-139 6,-28 11,-34 11,-66 0,-24 -6,-30 -8,-46 -4,-33 11,-73 -6,-108 -16,5 -24,25 -65,56l-75 53c0,-68 -24,-112 -50,-167 -4,-8 -6,-10 -11,-20 -22,-41 -45,-81 -74,-117 -11,-14 -23,-18 -27,-35 56,-30 120,-8 122,68 35,-3 67,-57 67,-91 0,-11 -18,-37 -22,-54 68,-45 43,-85 65,-143 25,-65 2,-83 9,-126 6,-33 10,-75 -5,-108 -13,-27 -18,-6 -20,-52 -1,-42 -16,-86 -49,-95 0,89 -80,133 -86,212 -31,-20 -31,-36 -81,-36 -44,0 -73,39 -82,77 23,0 55,-5 71,6 61,40 -8,192 -93,238 -26,-38 -82,-100 -82,-172 0,-63 38,-73 82,-50 -5,-19 -14,-42 -26,-55 -27,-30 -76,-30 -108,-11 -23,14 -17,19 -34,30 -11,-51 -40,-102 -40,-158 0,-31 6,-55 9,-81 -51,34 -44,49 -70,93 -24,40 -52,62 -52,119 -1,61 -14,62 -14,113 0,59 18,19 18,109 0,61 19,53 41,85 -36,19 -32,25 -32,64 0,38 39,78 68,86 -10,-124 113,-61 127,-41 -4,13 -12,23 -20,34 -34,46 -64,96 -89,147 -18,37 -42,88 -45,131 -21,-15 -35,-22 -60,-35 -23,-11 -47,-22 -53,-47l-9 0c0,33 -19,66 -11,102 1,9 11,29 11,29 0,25 -9,36 -9,64 0,29 22,57 22,58 0,36 -19,32 0,87 15,44 28,14 27,81 0,37 12,55 32,81 17,23 5,17 11,48 6,28 24,57 39,74 1,0 2,1 3,2l11 11c13,19 16,38 30,56 9,12 14,20 25,29 33,28 36,13 58,55 16,31 39,56 70,71 18,9 15,9 15,29 0,54 -46,108 -125,22 -9,-10 -21,-26 -28,-35l-51 -80c-56,-99 -112,-198 -155,-302 -27,-63 -53,-121 -84,-179 25,0 39,-7 55,0 -5,-21 -31,-30 -71,-105l-11 -17c57,-85 55,-115 55,-226 20,5 22,13 42,21 20,8 93,25 102,-7 -37,-9 -45,-24 -58,-55 -53,-131 -23,-64 -23,-131 0,-24 -5,-37 -5,-54 1,-20 9,-28 9,-54 0,-37 -12,-42 -18,-68 41,-27 50,-52 50,-104 0,-12 -2,-12 -5,-22 -28,21 -30,54 -108,13 8,-31 32,-29 32,-90 0,-25 -10,-100 -27,-100 -30,0 -44,13 -73,14 0,-59 13,-123 38,-175 8,-17 16,-24 16,-47 -31,0 -50,12 -66,29 -20,20 -24,13 -50,18 -13,3 -3,3 -19,8 -17,-12 -16,-18 -45,-18 -6,-73 -69,-83 -102,-26 -13,22 -17,20 -52,44z"/>
   <path class="fil1" d="M4798 1689c16,-47 110,-146 57,-227 -9,12 -20,43 -30,60 -13,19 -21,34 -33,53 -35,57 -35,117 -46,131 -13,-23 9,-65 -34,-88 -33,-17 -77,3 -88,25 30,28 67,2 75,77 9,75 -51,155 -100,204 -24,24 -53,46 -75,75 -12,16 -22,25 -36,41 -12,13 -21,27 -33,44 -45,61 -84,124 -110,196 -7,19 -14,38 -20,57 -11,32 -5,34 -7,65 -21,-8 -16,-15 -30,-30 -16,-18 -50,-29 -72,-41 -12,-6 -21,-17 -32,-17 -4,45 -2,88 27,112 27,22 73,31 82,61 -26,-5 -77,-44 -102,-54 -25,135 95,108 103,163 -24,-6 -57,-38 -90,-45 -12,131 111,91 123,169 -18,-9 -8,-8 -24,-20 -5,-3 -16,-9 -23,-13 -12,-6 -35,-19 -47,-21 -22,134 108,98 126,172 -35,-16 -33,-29 -85,-42 20,146 114,86 126,150 -27,-8 -22,-20 -61,-26 36,99 137,93 258,93 42,0 124,-1 152,-21 31,-23 66,-50 76,-100l-86 37c17,-43 152,-51 142,-150 -16,9 -34,17 -53,26 -18,9 -34,28 -48,29 6,-27 73,-55 98,-75 30,-22 45,-68 48,-121l-84 54c-14,10 -13,12 -28,18 5,-17 8,-15 21,-25 24,-19 49,-34 72,-55 30,-30 51,-59 53,-122 -14,7 -22,31 -68,57 -19,11 -62,39 -78,45 12,-38 91,-57 114,-90 24,-34 59,-96 35,-144 -11,11 -18,21 -27,30 -18,19 -75,63 -101,74 7,-22 27,-30 45,-43 18,-13 32,-23 46,-36 28,-27 44,-74 41,-125 -17,7 -17,18 -35,31l-114 83c0,-99 -26,-133 -62,-206 -19,-40 -84,-140 -109,-152 -17,10 -57,48 -66,62 51,61 71,86 99,171 55,166 36,309 4,478 -10,58 -30,105 -43,159 -8,35 -2,40 -21,46 -15,-29 42,-165 -23,-235 -3,45 -4,60 -19,99 -8,22 -13,81 -24,94 0,-79 63,-183 20,-227 0,1 -35,112 -40,126 -33,89 -1,96 -10,138 -14,-2 -19,-10 -24,-28 -15,-49 10,-38 -24,-116 -43,-99 -91,-201 -90,-311 0,-62 8,-117 27,-171 45,-132 232,-405 360,-316 36,25 19,34 37,61 50,-65 37,-121 -63,-121 16,-25 47,-13 72,-6 12,-8 30,-27 38,-37 14,-18 19,-30 19,-55 -23,13 -56,49 -93,53 10,-22 68,-49 85,-69 22,-26 34,-66 29,-113l-64 74c-13,12 -9,15 -28,19 6,-21 25,-36 37,-51 54,-70 67,-96 46,-188 -9,7 -1,-1 -8,9 -12,18 -15,31 -34,57 -16,21 -24,48 -48,55z"/>
   <path class="fil1" d="M3476 3435l8 60c-9,10 -26,22 -49,15 -19,-7 -1,-9 -25,-7 -7,0 -18,3 -27,5 2,-10 0,-11 13,-16 38,-15 41,17 75,-2 1,-30 -17,-39 5,-55zm398 -373c-70,-22 -191,-16 -264,-2 -41,7 -87,18 -127,4 -44,-16 -54,-30 -48,-82 -51,10 -22,40 -18,74 -26,-8 -18,-35 -28,-55 -42,50 -21,17 -24,86 -45,7 -23,-35 -147,11 11,8 23,6 37,7 24,1 97,8 110,17 -13,5 -99,-7 -124,-7 -52,-1 -49,-2 -81,28l-15 21c136,-21 193,20 276,10 30,-4 60,-13 91,-9 -9,12 -13,11 -31,15 -13,2 -24,4 -38,7 -30,7 -41,17 -52,38 -62,113 -8,197 -142,219 -23,4 -66,6 -89,2 -32,-4 -35,-16 -41,-47l-13 -7c1,-1 2,-2 2,-2 16,-20 0,-45 -25,-52 -11,22 -13,43 -41,45 -13,1 -21,-1 -30,-10 -14,-13 -7,-14 -26,-21l-12 31c12,12 19,17 40,25 29,11 23,7 37,-7l2 9c5,11 -2,4 13,11 21,10 18,6 27,18 -23,0 -45,-4 -66,-9 -43,-11 -33,-8 -41,-1 -15,12 5,-1 -5,6 -9,-22 -10,-33 -30,-42 -23,-10 -40,-6 -57,4 20,15 47,16 36,58 -10,35 -34,25 -62,19 -2,69 90,100 101,34 11,7 1,1 7,8 14,15 37,10 65,1 25,-9 47,-22 76,-16 -11,14 -67,27 -92,36 -30,12 -7,-3 -14,18 -41,-20 -82,1 -77,49 26,-17 33,-20 70,-11 31,58 -13,66 -19,82 59,22 83,-4 88,-62l5 6c0,0 1,2 2,2l6 13c20,-11 22,-6 43,-11 27,-7 11,-20 26,-14 7,16 -26,35 14,66 11,-9 19,-32 51,-23 29,8 16,26 30,45 33,-31 28,-25 24,-79 19,5 19,31 33,8 1,-1 3,-6 3,-7 1,-1 2,-2 2,-4 0,-2 1,-3 2,-4 21,15 32,71 83,88 -13,-38 -39,-69 -40,-115 33,15 23,66 92,82 -10,-28 -31,-46 -49,-107 37,7 14,55 70,48 -6,-14 -21,-25 -23,-42 41,19 29,50 98,40 -13,-25 -35,-37 -36,-58 22,13 59,79 102,36 -73,-31 -25,-140 -17,-250 75,-1 134,-5 204,-21 100,-24 97,-22 111,-115 -20,-17 -34,-19 -42,-51 -11,-39 6,-53 7,-84z"/>
   <path class="fil1" d="M3852 2004l1 1c0,0 -2,-1 -1,-1zm-196 -319c9,-18 15,-15 29,-28 11,-9 16,-19 24,-29 34,6 44,31 102,28 39,-3 30,-1 38,8l-66 6c-18,52 -83,71 -100,5l-27 10zm370 45c-6,-39 -12,-102 33,-106 10,9 16,17 9,35 -9,-11 -2,-10 -13,-20 -32,17 -18,65 -12,74 1,0 3,0 3,0 1,0 2,0 3,0 1,0 2,-1 3,-1 1,0 2,-1 3,-1 11,-3 -3,-1 12,-5 -6,23 -16,30 -41,24zm-508 -2c15,9 15,4 34,-2 -10,18 -17,8 -19,29 -5,75 121,11 151,15 23,3 40,14 46,30 5,12 4,20 6,32 5,30 31,63 -7,86 -18,11 -50,5 -72,6 -32,0 -35,7 -46,30 -8,16 -17,35 -20,53 33,-10 40,-32 60,-35 -6,17 -9,9 -11,26 28,-3 28,-20 55,-33 -6,17 -18,25 -24,42 12,-1 24,-5 32,-12 12,-10 10,-19 22,-27 10,22 -14,56 23,72l25 -93c0,-2 1,-3 2,-4 4,6 2,0 4,12 2,13 -2,19 -2,34 56,-1 16,-62 13,-82 46,12 32,52 80,66 -12,-59 0,-90 -52,-116l-18 -13c37,-1 48,17 66,29 1,-47 -43,-50 -72,-70 0,0 -2,-1 -2,-2 42,-22 53,37 95,1 -5,-7 -1,-4 -11,-8 -23,-11 -95,-36 -106,-47 1,-1 3,-3 3,-2l11 -3c32,-3 69,12 87,38l33 -11c1,36 -8,47 -35,57 20,62 6,34 5,88 0,50 21,42 36,67 -18,9 -27,13 -50,6 -25,-8 -21,-14 -36,-27 -8,12 -8,23 -20,33 -12,10 -25,8 -38,16 -11,42 8,27 3,58 -39,-1 -43,-27 -62,-49 -50,15 -82,111 -154,105 -13,-1 -24,-6 -29,-13 -8,-9 -8,-22 -18,-31 -9,17 -21,23 -28,49 -8,28 -2,51 14,64 39,33 89,-14 122,-22 -19,32 -53,45 -89,49 -52,7 -103,101 -130,142l-52 80c40,-6 82,-29 108,-51 23,-18 69,-65 97,-69 -5,12 -75,80 -94,95 -13,10 -28,14 -37,26 179,7 145,-71 225,-124 3,21 -38,68 -47,118 -4,24 -5,51 -9,76 -5,29 -14,44 -19,65 29,-6 73,-48 85,-67 22,-35 26,-81 55,-105 9,19 -10,44 -17,61 -9,22 -16,46 -24,66 41,-10 65,-36 86,-58 25,-28 35,-61 47,-102 -40,-9 -55,-33 -74,-61l-59 -83c70,16 102,200 236,117l-29 -19c-32,-19 -46,-111 -79,-161 -13,-19 -28,-37 -28,-66 12,11 12,20 21,33 10,14 18,17 28,31 17,26 21,56 35,78 101,-127 13,-180 6,-233 49,15 53,89 59,130 20,-19 43,-60 47,-98 4,-48 -41,-53 -43,-103 38,27 51,82 137,55l-23 -11c-43,-19 -47,-77 -66,-115 -9,-17 -23,-29 -24,-45 35,22 44,58 60,95l7 12c49,-79 -31,-171 -31,-193 24,7 5,28 48,24 21,-2 46,-17 53,-28 23,-33 19,-95 2,-130 -60,-5 -75,37 -104,51 -9,-13 -19,-19 -21,-35 12,5 -2,0 10,6 1,0 2,1 3,2l7 4c2,0 3,1 5,2 6,-9 17,-16 21,-26 -45,-5 -254,-4 -305,-2 -54,3 -58,42 -90,63 -33,21 -77,29 -90,62z"/>
   <path class="fil1" d="M3318 2162c48,0 5,38 24,66 27,21 43,-15 58,20 -1,1 -2,0 -3,1 0,2 -2,1 -3,1 -15,1 -53,2 -63,-10 -8,-9 -9,-26 -7,-41 4,-29 2,-15 -6,-37zm-432 -634c-12,16 -40,73 -5,85 4,1 8,1 12,2 54,14 17,22 62,11 -12,36 -12,28 43,74 32,27 66,40 76,61 -40,-1 -124,-72 -124,-72 -19,-8 21,4 -11,-2 -18,-3 -5,-34 -40,-50 -27,-12 -54,0 -72,10 17,16 42,14 36,54 -5,28 -29,32 -59,33 4,60 57,71 87,64 21,-6 15,-17 29,-24 25,43 -10,33 76,73 -15,11 -24,3 -41,20 -11,11 -18,26 -19,49 27,-2 50,-1 56,22 9,31 -16,41 -13,53 31,17 52,-20 61,-44l2 -7c12,7 17,19 28,32 9,10 20,21 26,33 8,15 7,33 0,48 -9,21 -17,16 -37,23 29,57 90,20 104,27 -22,27 -80,9 -87,85 20,-5 47,-5 66,-11 22,-8 34,-21 60,-24l-54 38c-26,14 -14,4 -14,15 27,15 76,2 85,2 15,2 7,-1 16,6l-69 20c9,15 20,21 44,22 11,0 23,-1 34,-2l28 3c-15,5 -71,4 -60,88 23,-12 102,-38 132,-34 -11,11 -38,23 -55,53 -13,22 -17,63 -2,86 51,-26 63,-60 96,-115 44,-75 50,-65 93,-118 -55,-74 18,-59 -61,-138 -20,-19 -31,-32 -49,-51 -14,-15 -38,-31 -46,-56 25,8 54,46 70,64 29,29 20,13 48,51 4,4 5,7 9,10 10,9 2,3 13,9 -9,-61 -135,-164 -178,-206 -30,-29 -67,-62 -94,-96 -13,-18 -27,-33 -37,-57 -21,-49 9,-38 -8,-71 20,-7 35,-13 29,-50 -2,-17 -3,-15 -10,-22 -13,0 -66,27 -63,-41 0,-15 1,4 0,-7 -2,-23 -62,-26 -42,40 6,23 5,24 25,29 -5,9 -16,6 5,41 10,16 23,24 22,44 -30,-6 -65,-79 -74,-122 -1,0 -2,-1 -3,0l-16 0c0,0 -1,1 -2,0 10,-18 26,-25 8,-56 -10,-20 -21,-28 -47,-33 4,26 1,46 -24,53 -15,4 -21,4 -36,-3 -10,-5 -7,-5 -13,-10 -14,-11 3,-3 -16,-11z"/>
   <path class="fil1" d="M5251 1258c22,-34 52,-24 78,-5 -7,11 -18,22 -36,24 -16,1 -32,-6 -42,-19zm64 -32c-1,1 -3,1 -4,1 -12,1 -39,3 -48,-2 -4,-20 4,-25 23,-19 6,3 -1,0 7,5 11,-13 9,-10 26,-5 2,6 5,4 0,19 -1,1 -3,1 -4,1zm55 -65c-15,-5 -7,-3 -16,-8 -23,-15 -25,-10 -20,-24 11,-34 83,7 83,7l-26 13c-13,9 3,6 -21,12zm-207 -13c5,-19 3,-16 18,-24 23,-13 59,-14 67,14 -17,13 -37,28 -49,21 -10,-6 0,0 -6,-7l-30 -4zm156 -27c11,-30 57,-53 72,-18 -50,3 -33,3 -72,18zm-143 -13c9,-13 21,-20 40,-20 23,0 34,6 35,24 -37,-2 10,-10 -75,-4zm2 224c-23,56 -3,108 -16,160l9 -7c26,-26 29,-128 73,-127 25,0 23,29 32,72 5,28 10,58 18,85l25 -122c4,-19 2,-24 15,-33 17,7 6,-2 16,18 34,65 84,62 94,113 5,-36 -17,-61 -30,-87 -24,-50 -24,-68 10,-79 41,23 91,62 130,85 -35,-68 -122,-154 -61,-139 96,22 68,-13 148,13 -21,-35 -76,-25 -137,-68 -1,-27 -3,-33 20,-38 36,-9 111,-16 134,-29 -37,-17 -125,-15 -152,-34 3,-30 29,-13 62,-56 40,-53 14,-23 52,-52 7,-5 4,-3 9,-8 -64,5 -81,50 -146,46 -10,-16 -17,-21 -5,-40l74 -113c-45,19 -140,112 -138,69 0,-1 1,-7 2,-9 6,-22 11,-27 7,-59 -1,-17 -5,-27 -3,-46 3,-38 9,-24 -2,-39 -6,20 -18,45 -27,74 -8,26 -22,45 -34,59 -60,-1 -30,-80 -63,-157 -10,32 -17,138 -37,153 -19,-2 -5,7 -27,-32 -11,-20 -10,-17 -28,-30 -41,-32 -29,-29 -51,-54 -6,-7 -1,-2 -8,-8 7,66 47,76 48,150 -19,9 -22,14 -42,2l-76 -51c-11,-7 -27,-20 -37,-25 20,43 92,123 79,137 -9,9 1,6 -16,3 -4,-1 -11,-4 -18,-6 -46,-11 -69,11 -133,-8 8,10 12,14 32,23 14,6 24,9 38,13 32,8 49,20 69,33 -2,25 0,31 -22,37 -36,9 -111,14 -133,30 35,9 131,14 152,35 -6,19 -17,16 -34,28 -37,25 -38,47 -56,61 -13,10 -22,10 -36,25 62,-3 90,-55 150,-46 12,20 12,24 -1,44l-47 70c-28,43 -28,32 -19,40 1,-1 2,-2 2,-2l61 -43c17,-12 47,-34 62,-39l12 8z"/>
   <path class="fil3" d="M2168 2943c37,-28 19,-19 32,-29 6,36 -10,10 5,51 -22,-16 -5,-10 -37,-22zm373 295c-110,-13 -110,-20 -186,-67 -21,-13 -27,-26 -48,-37 10,-17 20,-33 -15,-34l-3 8c-6,23 8,4 -4,18 -4,-5 -8,-7 -12,-19 17,-20 24,-18 3,-47 -22,-2 -21,8 -48,8 3,35 7,72 -17,96 1,-20 12,-31 14,-52 3,-22 -3,-43 -4,-64 15,11 -1,6 17,14 39,-22 53,-5 59,-27 2,-11 -57,-94 -59,-118 -1,-8 27,-30 -2,-47 -7,-4 -48,-23 -52,-24 -24,20 -33,71 -55,93 7,-26 36,-90 48,-104 33,0 32,18 61,25 19,-23 31,-113 107,-175 10,-9 19,-21 30,-28 19,-14 49,-26 73,-41 -35,-25 -144,-16 -188,-2 -105,30 -187,103 -228,206 -24,60 -33,124 -20,193 35,182 195,295 366,283 56,-4 132,-27 163,-58z"/>
   <path class="fil1" d="M3971 2006c18,80 -47,133 -80,201 -11,25 -17,44 -37,56 6,43 28,61 73,60 -16,44 -50,62 -110,54 -17,94 -14,156 57,233 16,-30 39,-138 44,-187 3,-26 4,-49 19,-57 0,27 -6,53 -4,81 6,58 90,104 141,112 -6,-13 -16,-26 -23,-40 -30,-58 -29,-74 -42,-139 -18,-87 -68,-146 -72,-173 27,10 54,62 69,95 25,53 33,110 40,122 29,-38 44,-151 25,-201 -27,-75 -94,-110 -95,-139 13,0 45,29 55,39 56,50 53,110 158,124 -1,-11 -28,-61 -37,-83 -10,-29 -18,-64 -31,-90 -9,-17 -45,-58 -60,-63 -15,-5 -29,6 -46,5 -17,-1 -30,-7 -44,-10z"/>
   <path class="fil1" d="M4338 1719c-36,-33 -46,-109 -47,-158 -88,79 38,207 48,240 -25,-4 -32,-25 -46,-44 -21,-28 -23,-48 -40,-58 -11,67 -2,104 52,140 34,23 32,9 39,30 -20,8 -57,-29 -78,-37 -7,70 38,102 96,113 -22,21 -55,-12 -80,29 -19,32 2,61 17,79 8,-7 16,-54 72,-56 35,-2 75,18 95,32 16,-12 30,-31 41,-47 14,-18 34,-33 44,-50 -20,-36 -107,-144 -76,-227 5,-14 12,-28 20,-33 21,-14 21,4 41,-18 -30,-21 -58,-39 -98,-8 -51,39 -24,81 -35,100 -13,-11 -11,-67 -36,-131 -23,-58 -23,-83 -24,-150 -36,16 -43,135 -20,194l18 45c4,26 3,7 -3,15z"/>
   <path class="fil2" d="M5178 1332l-12 -8c-15,5 -45,27 -62,39l-61 43c0,0 -1,1 -2,2 -9,-8 -9,3 19,-40l47 -70c13,-20 13,-24 1,-44 -60,-9 -88,43 -150,46 14,-15 23,-15 36,-25 18,-14 19,-36 56,-61 17,-12 28,-9 34,-28 -21,-21 -117,-26 -152,-35 22,-16 97,-21 133,-30 22,-6 20,-12 22,-37 -20,-13 -37,-25 -69,-33 -14,-4 -24,-7 -38,-13 -20,-9 -24,-13 -32,-23 64,19 87,-3 133,8 7,2 14,5 18,6 17,3 7,6 16,-3 13,-14 -59,-94 -79,-137 10,5 26,18 37,25l76 51c20,12 23,7 42,-2 -1,-74 -41,-84 -48,-150 7,6 2,1 8,8 22,25 10,22 51,54 18,13 17,10 28,30 22,39 8,30 27,32 20,-15 27,-121 37,-153 33,77 3,156 63,157 12,-14 26,-33 34,-59 9,-29 21,-54 27,-74 11,15 5,1 2,39 -2,19 2,29 3,46 4,32 -1,37 -7,59 -1,2 -2,8 -2,9 -2,43 93,-50 138,-69l-74 113c-12,19 -5,24 5,40 65,4 82,-41 146,-46 -5,5 -2,3 -9,8 -38,29 -12,-1 -52,52 -33,43 -59,26 -62,56 27,19 115,17 152,34 -23,13 -98,20 -134,29 -23,5 -21,11 -20,38 61,43 116,33 137,68 -80,-26 -52,9 -148,-13 -61,-15 26,71 61,139 -39,-23 -89,-62 -130,-85 -34,11 -34,29 -10,79 13,26 35,51 30,87 -10,-51 -60,-48 -94,-113 -10,-20 1,-11 -16,-18 -13,9 -11,14 -15,33l-25 122c-8,-27 -13,-57 -18,-85 -9,-43 -7,-72 -32,-72 -44,-1 -47,101 -73,127l-9 7c13,-52 -7,-104 16,-160zm518 -187l0 0c-6,13 1,8 -19,13l-68 14c-29,6 -65,16 -94,19 1,64 135,33 153,113 -32,-1 -42,-18 -67,-18 -28,0 -38,3 -59,4 -26,2 -31,-4 -54,-4 6,25 86,118 95,149 -27,-3 -107,-65 -135,-83 -13,-8 -37,-28 -37,1 0,50 45,70 45,136 0,16 -3,17 -5,32l-9 0c-7,-34 -23,-60 -48,-79 -15,-10 -22,-15 -34,-29l-26 -37c-7,29 -12,60 -18,91 -8,41 -6,75 -27,81 -9,-36 -28,-156 -41,-181 -33,9 -38,49 -48,83 -8,26 -31,68 -60,71 0,-27 2,-12 11,-34 17,-41 -5,-79 11,-147 -23,6 -128,93 -153,95 6,-30 47,-79 65,-106 17,-26 29,-40 29,-66 -38,0 -61,18 -86,31 -44,24 -61,14 -94,14 4,-15 5,-11 19,-17 9,-4 14,-6 21,-10 16,-8 24,-15 35,-28l69 -58 -171 -41c4,-18 0,-9 16,-15l71 -14c29,-7 73,-10 93,-20 -1,-22 -15,-27 -33,-35 -19,-7 -34,-10 -52,-15 -19,-6 -29,-12 -44,-24 -12,-10 -23,-21 -24,-39 20,5 40,18 59,21 24,4 39,-8 121,1 -12,-24 -31,-50 -47,-74 -14,-19 -42,-54 -47,-75 21,2 90,53 118,72 114,77 12,-65 7,-116 -2,-14 1,-22 1,-46 21,5 11,13 26,41 31,56 83,58 87,103l9 0c2,-26 11,-59 16,-87 5,-25 15,-61 16,-84 18,5 10,0 15,16 2,6 3,17 5,27 3,18 6,31 10,49 5,28 11,74 24,93 54,-14 29,-140 108,-158 -1,21 -14,36 -19,62 -5,22 1,45 1,73 0,26 -4,27 -4,50 32,-21 128,-93 154,-95 -5,17 -43,69 -55,86 -29,44 -65,81 -27,81 36,0 136,-78 167,-31 -9,4 -13,4 -23,8 -65,24 -69,83 -121,96l0 9c22,0 158,25 172,31z"/>
   <path class="fil1" d="M3755 1428c-21,68 16,48 31,78 -22,10 -37,-9 -49,-20 -17,10 -26,27 -52,25 12,-23 35,-31 39,-46 9,-38 -22,-33 -47,-37 -9,-19 -15,-35 -45,-32 3,18 33,50 54,190l310 0 3 -29c-38,-16 -184,9 -200,-18 20,-12 167,-3 204,-2 3,-24 11,-56 17,-78 7,-24 21,-47 26,-68 -29,8 -41,26 -55,47 -58,-14 -53,38 -37,53 11,10 18,5 25,22 -28,3 -32,-10 -50,-17 -25,-9 -32,21 -53,6 13,-21 54,-6 40,-70 -24,-12 -34,-1 -44,-27 -9,-21 -11,-41 -34,-42 -22,0 -31,18 -38,34 -19,39 -10,18 -45,31z"/>
   <path class="fil2" d="M2541 3238c-31,31 -107,54 -163,58 -171,12 -331,-101 -366,-283 -13,-69 -4,-133 20,-193 41,-103 123,-176 228,-206 44,-14 153,-23 188,2 -24,15 -54,27 -73,41 -11,7 -20,19 -30,28 -76,62 -88,152 -107,175 -29,-7 -28,-25 -61,-25 -12,14 -41,78 -48,104 22,-22 31,-73 55,-93 4,1 45,20 52,24 29,17 1,39 2,47 2,24 61,107 59,118 -6,22 -20,5 -59,27 -18,-8 -2,-3 -17,-14 1,21 7,42 4,64 -2,21 -13,32 -14,52 24,-24 20,-61 17,-96 27,0 26,-10 48,-8 21,29 14,27 -3,47 4,12 8,14 12,19 12,-14 -2,5 4,-18l3 -8c35,1 25,17 15,34 21,11 27,24 48,37 76,47 76,54 186,67zm-543 -306l0 -2c1,-49 21,-104 38,-138 73,-147 226,-228 399,-194 27,5 25,12 42,16l0 9c-31,1 -64,26 -87,40 -58,35 -83,81 -116,137 -26,46 -18,72 -18,95 0,29 -18,6 0,40 11,22 22,49 38,67 38,45 2,59 -2,64 12,22 13,17 26,33 14,17 5,20 18,36 47,60 144,89 236,89 -39,60 -182,97 -278,76 -12,-3 -26,-5 -35,-7 -63,-14 -116,-53 -160,-97 -70,-69 -100,-143 -101,-264z"/>
   <path class="fil1" d="M4020 1780c10,40 26,74 10,132 -4,17 -32,53 30,62 31,5 22,2 14,25 30,14 45,43 57,56 1,1 2,2 2,2l10 8c-9,-130 -77,-120 -91,-166 51,14 65,60 93,70 -2,-101 -60,-90 -84,-134 37,6 56,36 76,30 25,-6 39,-38 43,-70 -34,8 -45,19 -83,5 -50,-19 -13,-22 -77,-20z"/>
   <path class="fil1" d="M4579 3030c-54,1 -98,-7 -147,-7 10,115 215,102 255,70 15,-13 43,-47 48,-73 -53,3 -100,9 -156,10z"/>
   <path class="fil1" d="M3625 1901l-12 -31c-49,-3 -177,32 -193,-88 -3,2 -14,3 -21,27 -4,14 -3,29 1,42 24,82 165,59 225,50z"/>
   <path class="fil2" d="M3754 1684c-10,-6 -8,-4 -24,-5l-5 -23c-11,5 -10,3 -14,18 16,13 -4,20 43,10zm-38 -41c25,8 -5,6 55,26 -7,48 -68,42 -78,0l23 -26zm-60 42l27 -10c17,66 82,47 100,-5l66 -6c-8,-9 1,-11 -38,-8 -58,3 -68,-22 -102,-28 -8,10 -13,20 -24,29 -14,13 -20,10 -29,28z"/>
   <path class="fil2" d="M4153 3323c6,-52 10,-266 -30,-289 -7,16 16,110 18,141 2,31 2,130 12,148z"/>
   <path class="fil1" d="M2663 2788c36,-4 75,-4 97,-22 3,-24 -3,-26 -16,-38 -41,-9 -73,29 -81,60z"/>
   <path class="fil1" d="M3011 3280c-2,14 -4,58 1,70 7,17 29,23 42,9 33,-35 -20,-70 -43,-79z"/>
   <path class="fil1" d="M2962 1527c-1,-43 -34,-63 -74,-71l22 62c10,33 35,19 52,9z"/>
   <path class="fil1" d="M3775 4209c13,-8 24,-21 41,-35 10,-7 32,-23 15,-43 -30,-35 -65,25 -56,78z"/>
   <path class="fil1" d="M2763 1684c13,16 73,57 84,16 6,-22 -12,-33 -31,-35 -25,-2 -38,11 -53,19z"/>
   <path class="fil1" d="M2935 3669c25,-4 86,-28 60,-58 -12,-14 -38,-7 -48,6 -11,14 -12,33 -12,52z"/>
   <path class="fil1" d="M3708 3969c25,3 44,15 58,16 18,1 37,-16 33,-31 -4,-20 -56,-28 -91,15z"/>
   <path class="fil1" d="M2835 3436c31,16 79,50 81,10 3,-44 -66,-33 -87,-14l6 4z"/>
   <path class="fil1" d="M2871 2912c13,-15 10,-38 -6,-42 -27,-8 -47,20 -37,58l11 20 32 -36z"/>
   <path class="fil1" d="M4012 4199c8,-17 28,-33 30,-49 1,-19 -18,-35 -36,-27 -31,15 -14,54 -3,67l9 9z"/>
   <path class="fil1" d="M2791 2535c16,31 18,69 63,58 14,-48 -15,-62 -63,-58z"/>
   <path class="fil2" d="M5163 1148l30 4c6,7 -4,1 6,7 12,7 32,-8 49,-21 -8,-28 -44,-27 -67,-14 -15,8 -13,5 -18,24z"/>
   <path class="fil2" d="M4199 3601c-41,-7 -11,-13 -43,-20l10 31 40 4c7,9 14,15 12,33 -28,25 -46,-5 -46,43 10,-4 5,-1 13,-7 30,-23 8,-4 30,-16 12,-6 18,-22 15,-41 -4,-19 -13,-23 -31,-27z"/>
   <path class="fil1" d="M2903 1968c88,56 100,-84 24,-20 -10,8 -16,9 -24,20z"/>
   <path class="fil3" d="M3711 1674c4,-15 3,-13 14,-18l5 23c16,1 14,-1 24,5 -47,10 -27,3 -43,-10zm-18 -5c10,42 71,48 78,0 -60,-20 -30,-18 -55,-26l-23 26z"/>
   <path class="fil1" d="M3185 3743c19,-8 28,-18 37,-32 10,-16 9,-28 0,-42 -50,-6 -33,30 -37,74z"/>
   <path class="fil2" d="M5370 1161c24,-6 8,-3 21,-12l26 -13c0,0 -72,-41 -83,-7 -5,14 -3,9 20,24 9,5 1,3 16,8z"/>
   <path class="fil2" d="M4026 1730c25,6 35,-1 41,-24 -15,4 -1,2 -12,5 -1,0 -2,1 -3,1 -1,0 -2,1 -3,1 -1,0 -2,0 -3,0 0,0 -2,0 -3,0 -6,-9 -20,-57 12,-74 11,10 4,9 13,20 7,-18 1,-26 -9,-35 -45,4 -39,67 -33,106z"/>
   <path class="fil1" d="M3167 2820c-56,-21 -32,31 -32,69 29,-3 41,-38 32,-69z"/>
   <path class="fil1" d="M3111 1575l21 23c29,-15 35,-44 34,-83 -13,10 -9,14 -29,28 -15,10 -20,11 -26,32z"/>
   <path class="fil1" d="M4238 4001c16,-80 -49,-95 -49,-37 62,31 22,26 49,37z"/>
   <path class="fil2" d="M5251 1258c10,13 26,20 42,19 18,-2 29,-13 36,-24 -26,-19 -56,-29 -78,5z"/>
   <path class="fil2" d="M3318 2162c8,22 10,8 6,37 -2,15 -1,32 7,41 10,12 48,11 63,10 1,0 3,1 3,-1 1,-1 2,0 3,-1 -15,-35 -31,1 -58,-20 -19,-28 24,-66 -24,-66z"/>
   <path class="fil2" d="M3435 3510c23,7 40,-5 49,-15l-8 -60c-22,16 -4,25 -5,55 -34,19 -37,-13 -75,2 -13,5 -11,6 -13,16 9,-2 20,-5 27,-5 24,-2 6,0 25,7z"/>
   <path class="fil2" d="M3391 2591c15,11 23,-2 41,-3 20,-1 20,9 49,4 32,-21 21,-30 20,-74 -37,19 12,70 -37,63 -39,-5 -37,-10 -73,10z"/>
   <path class="fil2" d="M5263 1225c9,5 36,3 48,2 1,0 3,0 4,-1 1,0 3,0 4,-1 5,-15 2,-13 0,-19 -17,-5 -15,-8 -26,5 -8,-5 -1,-2 -7,-5 -19,-6 -27,-1 -23,19z"/>
   <path class="fil1" d="M3726 1888c-17,-7 -41,-19 -67,-18 6,12 15,18 29,27 19,13 30,16 38,-9z"/>
   <path class="fil2" d="M5176 1108c85,-6 38,2 75,4 -1,-18 -12,-24 -35,-24 -19,0 -31,7 -40,20z"/>
   <path class="fil2" d="M5319 1121c39,-15 22,-15 72,-18 -15,-35 -61,-12 -72,18z"/>
   <path class="fil3" d="M3600 1807c6,20 10,30 28,32l3 -42 -31 10z"/>
   <path class="fil2" d="M2168 2943c32,12 15,6 37,22 -15,-41 1,-15 -5,-51 -13,10 5,1 -32,29z"/>
   <path class="fil3" d="M3640 1903l26 1c-7,-14 -13,-19 -27,-26l1 25z"/>
   <path class="fil2" d="M4147 3719c4,3 5,12 16,21 6,-14 0,-21 -16,-21z"/>
  </g>
 </g>
</svg>
