<?xml version="1.0" encoding="UTF-8" standalone="no"?>
<!-- Generator: Adobe Illustrator 22.0.1, SVG Export Plug-In . SVG Version: 6.00 Build 0)  -->

<svg
   version="1.1"
   id="레이어_1"
   x="0px"
   y="0px"
   viewBox="0 0 1200 800"
   style="enable-background:new 0 0 1200 800;"
   xml:space="preserve"
   sodipodi:docname="Flag_of_the_Young_Turk_Revolution.svg"
   inkscape:version="1.2.1 (9c6d41e410, 2022-07-14)"
   inkscape:export-filename="Flag_of_the_Young_Turk_Revolution.png"
   inkscape:export-xdpi="96"
   inkscape:export-ydpi="96"
   xmlns:inkscape="http://www.inkscape.org/namespaces/inkscape"
   xmlns:sodipodi="http://sodipodi.sourceforge.net/DTD/sodipodi-0.dtd"
   xmlns="http://www.w3.org/2000/svg"
   xmlns:svg="http://www.w3.org/2000/svg"><defs
   id="defs87" /><sodipodi:namedview
   id="namedview85"
   pagecolor="#ffffff"
   bordercolor="#000000"
   borderopacity="0.25"
   inkscape:showpageshadow="2"
   inkscape:pageopacity="0.0"
   inkscape:pagecheckerboard="0"
   inkscape:deskcolor="#d1d1d1"
   showgrid="false"
   inkscape:zoom="0.71299934"
   inkscape:cx="543.47877"
   inkscape:cy="405.32997"
   inkscape:window-width="1920"
   inkscape:window-height="1009"
   inkscape:window-x="-8"
   inkscape:window-y="-8"
   inkscape:window-maximized="1"
   inkscape:current-layer="레이어_1" />
<style
   type="text/css"
   id="style2">
	.st0{fill:#E30A17;}
	.st1{fill:#FFFFFF;}
</style>
<g
   id="g82">
	<rect
   class="st0"
   width="1200"
   height="800"
   id="rect4"
   style="fill:#e30a17;fill-opacity:1" />












































</g>
<path
   style="display:inline;fill:#ffffff;stroke-width:0.176521"
   d="m 1032.2994,134.98269 c -2.5862,0.54394 -4.5594,0.35921 -6.7228,-0.62931 -2.4667,-1.12731 -4.306,-2.86293 -6.2533,-5.90102 -1.3698,-2.13711 -3.4382,-7.79995 -4.2395,-11.60657 -1.3257,-6.29905 -1.91,-13.1537 -1.176,-13.79533 0.6114,-0.53441 0.9213,0.40553 1.9717,5.98133 1.1739,6.2316 2.5497,9.82155 4.8658,12.69651 2.803,3.47933 6.5205,4.30875 10.6632,2.37897 6.5926,-3.07094 13.1549,-11.03869 20.2243,-24.555523 3.0504,-5.83239 4.6197,-9.797024 5.1154,-12.923246 0.2538,-1.600838 -0.077,-2.842031 -1.8126,-6.793493 -4.0803,-9.291997 -10.2682,-18.417803 -20.1761,-29.755808 l -2.2562,-2.581871 -0.5828,-5.577186 c -0.3207,-3.067423 -0.5037,-5.638941 -0.4067,-5.714449 0.2495,-0.194332 1.4057,0.739022 4.2032,3.393032 4.1856,3.97093 8.1022,8.639382 12.416,14.799534 4.7576,6.794243 7.6902,11.749812 13.6255,23.025431 5.4411,10.337069 9.3134,13.518188 15.762,12.948518 1.7605,-0.155517 6.5933,-1.722146 8.6661,-2.80929 1.8155,-0.952239 4.7859,-2.758373 4.7403,-2.882406 -0.021,-0.05623 -0.5976,-0.302393 -1.2822,-0.54697 -2.1418,-0.765428 -6.9353,-2.993846 -9.044,-4.20435 -3.7469,-2.15122 -7.272,-4.918665 -9.215,-7.234176 -1.8303,-2.181492 -2.5684,-3.480593 -3.6821,-6.480499 -1.7255,-4.646945 -1.9468,-7.768337 -0.8749,-12.317581 1.6464,-6.987235 6.3645,-13.129198 13.0308,-16.963289 1.7365,-0.998739 5.2201,-2.284116 7.3893,-2.726348 5.7862,-1.180109 11.6071,-0.220649 17.8901,2.948931 3.8056,1.919757 3.7485,2.376753 -0.3291,2.635459 -5.6116,0.356011 -8.8493,1.027681 -13.8883,2.881086 -5.814,2.138621 -10.7941,4.976445 -14.8508,8.46279 -1.436,1.234136 -4.0191,4.000367 -5.0881,5.448791 l -0.917,1.242567 0.3579,0.902154 c 0.8643,2.182666 6.1325,6.894099 10.9988,9.836994 4.0917,2.474446 9.6529,4.796609 12.8995,5.386445 3.9057,0.709492 7.6346,0.186069 10.2838,-1.443585 1.9044,-1.171552 5.8148,-4.060466 9.3636,-6.917738 5.5822,-4.494408 9.6169,-8.042066 16.5092,-14.516216 1.3833,-1.299395 2.2383,-1.992686 2.378,-1.928075 0.1396,0.06461 0.063,1.946366 -0.2138,5.233322 -0.3487,4.143659 -0.5008,5.200767 -0.7892,5.487074 -0.1965,0.19504 -4.4671,4.256691 -9.4901,9.025878 -22.9412,21.781645 -26.7878,25.106354 -32.9735,28.499561 -2.5012,1.372114 -7.195,3.094422 -9.3595,3.432522 -2.9903,0.46944 -5.8683,0.17424 -7.9373,-0.81407 -3.3266,-1.589049 -7.8824,-6.498443 -11.8185,-12.736015 -0.5563,-0.881691 -1.0825,-1.642757 -1.1691,-1.691357 -0.086,-0.04877 -0.03,0.776822 0.126,1.834186 0.8003,5.427709 0.8048,8.056799 0.02,11.436591 -0.6741,2.901045 -1.6164,5.381465 -3.7294,9.816505 -4.755,9.98002 -10.5435,18.32514 -15.4048,22.2082 -2.4989,1.99617 -5.6385,3.64346 -7.8176,4.10178 z m -99.42179,27.54509 c -8.48306,2.39495 -14.23584,2.82271 -20.04366,1.49037 -2.07076,-0.47502 -6.11194,-2.28504 -7.54255,-3.37822 -1.35075,-1.03215 -3.87984,-3.52313 -4.95296,-4.87825 -4.42011,-5.58183 -6.94711,-13.27814 -7.15671,-21.79657 -0.10203,-4.14759 0.6572,-8.91508 1.42397,-8.94162 0.51509,-0.0178 0.71292,0.99402 0.67171,3.43501 -0.0844,4.9965 0.39849,8.29271 1.75685,11.992 1.57579,4.29141 3.70709,7.0867 7.55978,9.91497 7.01012,5.14617 18.09797,5.09105 31.25597,-0.15543 6.7263,-2.68195 12.51258,-6.13367 19.01796,-11.34497 5.43619,-4.35477 7.53429,-6.36994 15.68815,-15.06828 7.42538,-7.92118 9.06971,-9.44952 10.00614,-9.30035 0.45012,0.0717 0.57895,0.20843 0.90486,0.96034 0.20901,0.48217 0.45621,1.44638 0.54942,2.14264 0.31915,2.38439 0.53781,3.22857 1.11484,4.30367 1.6216,3.02129 5.14742,4.56057 9.38974,4.09938 2.029,-0.22062 5.57586,-1.56956 7.17759,-2.72976 1.35689,-0.98291 2.52509,-2.07526 3.59429,-3.36113 l 0.7406,-0.89057 -0.392,-0.84235 c -0.2156,-0.46326 -1.2038,-2.70201 -2.196,-4.97501 -2.01031,-4.60554 -3.05453,-6.90148 -14.58357,-32.065906 -10.057,-21.951361 -12.9196,-28.164651 -16.3391,-35.464301 l -2.70581,-5.776037 -1.63031,-1.939949 c -0.89667,-1.066982 -1.67241,-2.051444 -1.7239,-2.187692 -0.0502,-0.136671 -0.009,-2.498345 0.0939,-5.24916 0.13731,-3.662927 0.26006,-5.029052 0.45855,-5.104543 0.59737,-0.22685 13.23947,14.487798 15.29265,17.799943 0.84786,1.36783 0.99437,2.166172 0.43519,2.371502 -0.29498,0.108316 -2.89046,-1.10097 -4.35416,-2.028683 -0.49499,-0.313728 -0.89766,-0.494193 -0.89484,-0.401065 0.003,0.09318 2.34523,5.265635 5.20541,11.494462 11.41514,24.859689 18.55525,40.471494 20.05709,43.854801 3.7838,8.523958 6.0115,14.862548 6.693,19.043848 0.3503,2.14952 0.5013,5.77173 0.3091,7.41315 -0.3504,2.99152 -2.0943,5.86011 -4.9894,8.20721 -3.66329,2.96983 -10.04346,4.28583 -13.77115,2.84054 -1.4425,-0.5593 -3.46542,-2.10871 -4.49968,-3.44641 -0.80355,-1.03931 -1.19956,-1.73256 -2.86296,-5.01201 -0.34824,-0.68641 -0.72624,-1.29118 -0.84016,-1.3439 -0.40575,-0.1878 -2.37574,1.72287 -6.55033,6.35311 -2.31504,2.56771 -5.38223,5.85249 -6.81594,7.29953 -8.13575,8.21129 -16.42822,14.52035 -24.44032,18.59454 -1.95679,0.99505 -8.38945,3.5851 -10.11116,4.07116 z m 96.69509,-44.97443 c -0.084,-0.0668 -1.0099,-2.11741 -2.0554,-4.55753 -1.0457,-2.44008 -5.9878,-13.259629 -10.9823,-24.043453 -10.0886,-21.782846 -20.63891,-44.626422 -24.35571,-52.73544 l -2.43445,-5.311562 -1.63031,-2.080685 -1.63021,-2.080727 0.19362,-5.049544 c 0.10652,-2.777277 0.27288,-5.120344 0.36961,-5.2068 0.24199,-0.216253 0.58294,0.128859 3.60402,3.648334 6.75777,7.872006 12.12593,14.954133 12.24123,16.148891 0.093,0.962109 -0.8535,0.62394 -4.14773,-1.482518 -0.89405,-0.571694 -1.63746,-1.01368 -1.65199,-0.98217 -0.015,0.03173 6.38672,14.029748 14.22532,31.107147 13.8443,30.161807 14.3014,31.184896 15.9827,35.773537 1.6234,4.45 1.7548,4.86878 2.1337,7.20844 0.8527,5.26046 1.114,9.4633 0.6001,9.65198 -0.1694,0.0622 -0.3774,0.0587 -0.4622,-0.008 z m -97.92583,14.82607 c -1.6845,-0.55239 -3.99413,-1.27822 -5.13254,-1.61301 -1.55553,-0.45742 -2.06895,-0.68608 -2.06633,-0.92019 0.003,-0.30069 0.22719,-1.35238 1.50415,-7.06806 0.32721,-1.46469 0.7083,-2.73145 0.84685,-2.81504 0.30381,-0.18333 2.08967,0.32793 7.22288,2.06771 l 3.86966,1.3115 1.38096,-4.62158 c 0.75953,-2.54187 1.45869,-4.68947 1.55363,-4.77249 0.095,-0.083 0.71867,-0.007 1.386,0.16869 2.06472,0.54391 9.46836,3.0847 9.53753,3.27309 0.14348,0.39074 -2.22901,9.99104 -2.49302,10.08798 -0.14916,0.0548 -1.86277,-0.4431 -3.80802,-1.10637 -4.01283,-1.36827 -7.22742,-2.36326 -7.4139,-2.29479 -0.0694,0.0255 -0.74035,2.0912 -1.49105,4.59047 -0.75071,2.49928 -1.47047,4.58292 -1.59949,4.63029 -0.12902,0.0474 -1.61279,-0.36583 -3.29731,-0.9182 z"
   id="path382" /><path
   style="display:inline;fill:#ffffff;stroke-width:0.176521"
   d="m 989.48403,467.16231 c -0.7422,3.17243 -1.9518,5.01555 -4.472,6.81392 -7.7741,5.54742 -21.4594,4.70041 -34.8286,-2.15565 -3.6053,-1.84885 -4.9883,-2.94208 -4.6935,-3.71019 0.227,-0.59157 1.6486,-0.17138 5.3339,1.57662 6.1591,2.92134 9.2766,3.96281 13.5941,4.54129 2.2882,0.30657 6.5251,0.13745 7.9377,-0.31686 6.3374,-2.03832 8.4151,-7.73317 5.6823,-15.57518 -0.8826,-2.53272 -6.9941,-14.25497 -10.1694,-19.50554 -1.7966,-2.97078 -7.3354,-11.38822 -8.475,-12.87963 -1.0896,-1.42599 -2.5039,-2.91899 -2.765,-2.91899 -0.413,0 -2.6986,1.75238 -3.6077,2.76598 -1.2158,1.35559 -2.007,2.73283 -3.5321,6.14835 -3.3304,7.45822 -5.601,11.4824 -8.612,15.26331 -1.5983,2.0069 -6.22732,6.67349 -8.38951,8.45752 -1.51154,1.24714 -1.54457,1.2909 -1.54457,2.04553 0,1.43192 0.44361,1.32954 -5.76133,1.32954 -4.8435,0 -5.56035,-0.0346 -5.65189,-0.27315 -0.0613,-0.15973 0.24509,-0.83763 0.73797,-1.63282 0.46356,-0.74779 1.95077,-3.26607 3.30492,-5.59616 2.75054,-4.73277 4.77689,-7.86943 5.56888,-8.62015 0.34412,-0.32616 0.67252,-0.47971 0.94393,-0.4413 0.40632,0.0575 0.41831,0.11134 0.50447,2.25872 l 0.0883,2.19981 0.90201,-1.14071 c 2.32572,-2.9411 3.90662,-5.70394 6.25843,-10.93755 0.9381,-2.08738 2.122,-4.62926 2.6311,-5.64867 2.9148,-5.83694 6.3636,-8.77143 11.3259,-9.6368 4.2587,-0.7427 12.0119,0.87956 15.2512,3.19102 1.6726,1.19357 2.8609,2.61071 5.5153,6.57746 4.7753,7.13626 6.5027,10.07931 12.0447,20.52122 3.5088,6.61115 4.0733,7.83201 4.6116,9.97343 0.4508,1.79393 0.5998,5.89815 0.2659,7.32563 z m -10.0006,-68.64221 c -0.2851,3.0659 -1.3325,5.78129 -3.189,8.26717 -3.0326,4.06083 -7.1378,6.40928 -13.4015,7.66643 -3.3251,0.66736 -4.5049,0.77711 -13.5039,1.25636 -26.53734,1.41319 -48.65416,3.091 -61.69395,4.68017 -3.81991,0.46551 -8.53045,1.27823 -11.70867,2.02003 l -2.55629,0.59662 -4.63313,-1.92078 c -2.54823,-1.05643 -4.71631,-2.00397 -4.81801,-2.10564 -0.32836,-0.32839 0.0852,-0.49008 2.88665,-1.1283 12.67384,-2.88745 36.59149,-5.11769 75.0345,-6.99672 11.5997,-0.567 16.4424,-1.39203 20.5427,-3.49983 3.4226,-1.75941 5.5701,-4.95601 6.3556,-9.46041 0.838,-4.8056 -0.4329,-11.1778 -3.8761,-19.4346 -1.2637,-3.0305 -7.1302,-15.2691 -7.3191,-15.2691 -0.1427,0 -2.6262,14.062 -3.4449,19.5056 -0.9146,6.0816 -1.6488,12.4975 -1.9393,16.946 -0.1997,3.057 -0.2676,3.44217 -0.6074,3.44217 -0.4806,0 -9.5693,-3.52147 -10.143,-3.92987 -0.8301,-0.5912 -1.7457,-2.2119 -2.9283,-5.1836 -3.03738,-7.6331 -5.30488,-11.9408 -8.52574,-16.1973 -4.78998,-6.33 -10.51556,-11.7474 -18.73556,-17.727 -1.55993,-1.1349 -3.2847,-2.5225 -3.83275,-3.0836 -2.17156,-2.2235 -2.75264,-4.4812 -1.66177,-6.4569 1.80408,-3.2675 7.51963,-4.9809 14.17667,-4.2497 2.29132,0.2517 6.16269,1.011 6.77884,1.3296 0.54987,0.2845 0.64303,0.7808 0.22497,1.1989 -0.3717,0.3717 -1.4037,0.635 -2.49391,0.6361 -2.17399,0.01 -5.74283,1.0145 -7.43604,2.1089 -2.0965,1.355 -2.46245,2.6608 -1.25603,4.4821 0.68134,1.0287 2.05851,2.1162 5.19021,4.0988 5.45613,3.4541 9.60694,6.7867 13.86681,11.1337 1.51031,1.5412 3.3984,3.6224 4.1958,4.6249 1.1824,1.4865 3.5039,4.8386 4.3618,6.2982 0.1389,0.2363 0.3011,-0.5322 0.6751,-3.1988 0.2707,-1.9305 1.0379,-6.8065 1.7049,-10.8355 2.4053,-14.5285 2.9527,-18.3084 3.5248,-24.3387 0.3876,-4.0854 0.6966,-10.5547 0.5739,-12.0157 -0.134,-1.5958 0.1397,-5.6576 0.3812,-5.6576 0.2609,0 9.6598,4.378 9.9033,4.613 0.1058,0.1019 0.2214,2.4501 0.2885,5.8545 0.1439,7.3089 0.6351,10.7958 2.218,15.7458 0.9265,2.8972 1.6152,4.4234 6.4024,14.1886 4.3322,8.837 5.7177,11.8173 7.0584,15.1824 2.622,6.5813 3.7743,12.3491 3.3593,16.8136 z m -8.2397,-78.509 c -0.2726,0.055 -2.2432,0.184 -4.3791,0.2873 -4.3302,0.2091 -4.715,0.2392 -39.45237,3.0783 -13.64066,1.1149 -29.84527,2.4267 -36.01024,2.9151 -6.16501,0.4884 -12.08286,0.9591 -13.15082,1.046 -1.56762,0.1277 -2.40924,0.3146 -4.36847,0.9708 l -2.4267,0.8128 -4.54584,-1.8756 c -4.54675,-1.8759 -5.21259,-2.2177 -4.8913,-2.5109 0.20216,-0.1845 7.12407,-2.7702 11.17893,-4.176 6.10081,-2.1151 11.28272,-3.6158 12.48472,-3.6158 0.64578,0 0.91784,0.315 0.65926,0.7633 -0.17087,0.2962 -2.24803,2.0482 -3.61508,3.049 -0.8714,0.638 -0.90803,0.6929 -0.49449,0.7413 0.24561,0.029 5.60654,-0.347 11.91314,-0.8351 6.30661,-0.4881 21.75109,-1.6846 34.32104,-2.6588 28.98282,-2.2464 29.56782,-2.2562 36.87962,-0.622 3.8363,0.8576 6.2682,1.6881 6.339,2.1647 0.041,0.2788 -0.064,0.3896 -0.4413,0.4656 z m -55.6228,147.38192 c -0.0756,0.36902 -0.54986,0.33501 -0.75539,-0.0542 -0.0769,-0.14561 -0.79177,-1.81374 -1.58869,-3.70694 -2.22168,-5.278 -3.4733,-7.63903 -5.51398,-10.40165 l -0.70752,-0.95777 -0.23378,0.78127 c -0.12855,0.4297 -0.36431,1.65504 -0.52394,2.723 -0.33014,2.20885 -0.24395,6.79842 0.1696,9.03203 0.2526,1.36431 0.13679,1.88799 -0.37455,1.69371 -0.50202,-0.19078 -7.341,-4.30812 -7.66673,-4.61574 -0.78553,-0.74173 -0.88303,-7.37546 -0.15826,-10.76787 0.66784,-3.12586 1.58466,-5.36044 2.23827,-5.45545 0.40864,-0.0594 7.43304,3.85389 8.89923,4.95769 2.21412,1.66694 4.0254,3.87434 4.51354,5.50068 0.41907,1.39619 1.82208,10.68622 1.7022,11.27125 z M 905.12652,362.9566 c -1.09224,1.3514 -2.56411,3.2247 -3.27078,4.163 -0.70671,0.9384 -1.35353,1.7485 -1.43738,1.8004 -0.13964,0.086 -2.52767,-1.4026 -6.93807,-4.3257 -1.11678,-0.7403 -1.71835,-1.2506 -1.72106,-1.4601 -0.005,-0.3917 1.10134,-1.8721 4.4766,-5.9896 l 2.5693,-3.1344 -1.7854,-1.3669 c -4.48329,-3.4325 -5.88208,-4.5681 -5.92652,-4.8115 -0.0921,-0.5044 6.5535,-8.8008 7.06087,-8.815 0.36823,-0.011 8.41458,5.3979 8.54791,5.7452 0.0532,0.1386 -1.06178,1.6463 -2.62818,3.554 -2.82905,3.4456 -4.55767,5.6732 -4.54375,5.8551 0.004,0.058 1.71229,1.4087 3.79519,3.0007 2.0829,1.592 3.7871,2.992 3.7871,3.111 0,0.1192 -0.89362,1.3223 -1.98583,2.6738 z m 0.17651,37.8721 c -0.12136,0.021 -2.60368,0.041 -5.51627,0.045 -4.83295,0.01 -5.45347,0.042 -7.10211,0.4059 -3.96317,0.8752 -7.35331,2.52105 -10.88512,5.28448 -0.68944,0.53949 -2.46353,2.20159 -3.94231,3.69353 -1.47887,1.49199 -2.82923,2.71093 -3.00089,2.70877 -0.7676,-0.01 -6.98197,-1.21148 -7.15392,-1.38346 -0.13821,-0.13819 0.34769,-0.74003 1.73628,-2.15048 3.13569,-3.18501 6.12265,-5.37214 9.88112,-7.23514 5.59422,-2.7729 12.33656,-4.0843 18.20678,-3.5412 2.43883,0.2256 6.97576,1.0706 7.63083,1.4211 0.40245,0.2154 0.49461,0.691 0.14561,0.7514 z m -16.9179,-39.2891 c -0.25963,0.896 -1.26424,2.2049 -2.17311,2.8312 -1.69505,1.1681 -4.5367,1.6328 -8.03218,1.3136 -1.92621,-0.1761 -2.35526,-0.1671 -3.00747,0.063 -0.41842,0.1475 -0.97345,0.2683 -1.23344,0.2683 -0.64708,0 -2.05551,-0.743 -3.01331,-1.5895 l -0.79435,-0.7021 0.4413,-0.3481 c 0.72752,-0.5738 1.78908,-0.6264 4.22738,-0.2091 3.24609,0.5556 4.20932,0.6231 5.39664,0.378 1.38762,-0.2865 2.22667,-0.7289 2.87628,-1.5171 1.32264,-1.6046 1.04707,-3.741 -0.73251,-5.6794 -0.88426,-0.963 -1.86542,-1.4445 -2.95481,-1.4496 -1.23795,-0.01 -3.95338,0.5038 -5.77827,1.0849 l -1.64305,0.523 -1.2277,-0.4816 c -1.64471,-0.6454 -1.7841,-0.8403 -0.91668,-1.2829 0.97313,-0.4965 2.39464,-0.8278 5.40995,-1.261 2.77956,-0.3995 4.42604,-0.8295 5.34637,-1.3966 1.32928,-0.8191 2.0176,-3.2286 1.39101,-4.8693 -0.58394,-1.529 -1.33922,-1.5276 -4.52441,0.01 -2.44058,1.177 -3.8635,1.6637 -4.87523,1.6674 -0.69804,0.01 -3.17225,-0.7671 -3.73094,-1.1607 -0.58618,-0.4129 -0.30396,-0.5952 1.37194,-0.886 0.98436,-0.1708 2.20067,-0.588 3.85756,-1.3232 3.23919,-1.4372 4.28698,-1.6897 5.99219,-1.4441 2.4864,0.3582 5.08321,2.0298 6.12406,3.9422 0.6341,1.1651 0.67834,2.4164 0.12577,3.5579 -0.44449,0.9182 -1.87138,2.4044 -2.44715,2.5489 -0.22133,0.055 -0.40221,0.152 -0.40199,0.2142 0,0.062 0.41727,0.3313 0.92677,0.5977 3.11523,1.6289 4.68802,4.2249 3.99938,6.6014 z"
   id="path396" /><path
   style="display:inline;fill:#ffffff;stroke-width:0.176521"
   d="m 1021.9806,697.18188 c -2.7306,-4.22285 -3.1219,-9.56129 -1.1184,-15.25868 1.664,-4.73202 4.2395,-8.61725 8.6713,-13.08125 2.7602,-2.77597 4.4254,-4.12662 7.5816,-6.13199 0.847,-0.53825 1.5405,-0.99528 1.5411,-1.01571 3e-4,-0.0202 -0.8965,-0.37382 -1.9935,-0.7853 -6.785,-2.54525 -9.6406,-3.74956 -14.0308,-5.91719 -10.0244,-4.94969 -17.8563,-10.46506 -22.69355,-15.98146 -2.68415,-3.061 -4.14015,-5.43497 -5.22321,-8.51633 -2.04049,-5.80552 -0.69671,-12.41565 3.75248,-18.45862 1.27339,-1.72953 4.53328,-4.94482 6.43398,-6.34586 4.5952,-3.38716 11.1969,-6.29832 11.9678,-5.27734 0.3555,0.47078 0,0.78957 -2.5748,2.27598 -3.4621,2.00277 -4.7804,2.96367 -6.6276,4.83094 -2.9908,3.02328 -4.6396,6.39685 -4.9608,10.14987 -0.8546,9.98424 8.3861,20.41961 26.4959,29.92133 3.3674,1.76683 8.0332,3.9125 11.1326,5.11957 9.6,3.73894 9.3752,3.66141 10.04,3.46001 0.8909,-0.26997 1.4991,0.0813 1.0036,0.5797 -0.1343,0.13502 -0.099,0.23301 0.1149,0.32246 5.0687,2.12065 8.4082,4.05829 9.7335,5.64741 3.3112,3.97026 1.243,8.4756 -4.7985,10.45332 -1.7868,0.5848 -2.9444,0.79121 -5.7024,1.01653 -3.7897,0.30943 -5.5187,0.51403 -8.9313,1.05654 -1.8697,0.29723 -3.4825,0.45795 -3.584,0.35705 -0.3446,-0.34268 0.063,-0.74905 1.487,-1.48124 2.9381,-1.5116 5.9149,-2.27815 10.0688,-2.59275 2.7365,-0.20728 3.7568,-0.51367 4.0131,-1.20499 0.399,-1.07623 -1.3158,-2.81304 -4.2001,-4.25435 -1.9398,-0.96907 -8.0088,-3.4236 -8.4604,-3.42161 -0.2851,10e-4 -2.744,1.5288 -4.878,3.03027 -0.6797,0.47829 -2.0976,1.77685 -3.714,3.40152 -2.3001,2.31316 -2.713,2.79371 -3.4328,4.0123 -1.7371,2.93879 -2.4114,5.17294 -2.4115,7.9897 -1e-4,5.75679 3.5258,11.01285 9.7292,14.50312 5.421,3.05008 13.1546,5.03481 22.0138,5.64973 5.2517,0.36438 13.9628,-0.0107 17.6166,-0.75863 0.8856,-0.18134 1.0025,-0.35215 1.8734,-2.74016 0.4536,-1.24364 0.4652,-1.38969 0.1255,-1.59174 -2.3574,-1.40238 -9.7409,-8.36794 -10.8347,-10.22135 -1.0354,-1.75458 -1.4649,-3.27632 -1.4691,-5.20575 -0.01,-3.11974 1.08,-5.36421 3.7906,-7.82922 3.711,-3.37441 8.2103,-5.12626 12.8105,-4.98776 5.4238,0.16326 7.9494,3.069 8.1614,9.38925 0.1287,3.83992 -0.6305,8.12219 -2.0457,11.5369 l -0.7472,1.80296 0.8127,0.58898 c 2.9807,2.16007 8.2492,5.26339 12.7344,7.50083 4.5019,2.24584 6.4117,3.03266 18.8073,7.74788 l 0.9031,0.34354 -1.8274,-3.29441 c -3.0263,-5.45613 -7.739,-14.56415 -9.3686,-18.10689 l -1.5324,-3.33118 -1.3033,0.0623 c -1.4889,0.0712 -1.2318,0.28085 -3.312,-2.7 -2.0234,-2.89955 -7.0976,-8.83526 -10.1328,-11.85328 -0.7112,-0.70714 -1.2745,-1.36542 -1.2518,-1.46274 0.022,-0.0976 2.1929,-1.07769 4.8227,-2.17838 l 4.7813,-2.0014 1.7405,0.75782 c 4.7538,2.06968 8.0199,4.48774 10.3978,7.69814 1.4089,1.90208 2.2869,3.55305 4.7709,8.9708 3.0319,6.61304 8.5021,17.05974 12.5312,23.93177 5.5421,9.45251 10.1707,15.76332 16.1719,22.04921 1.5741,1.64854 2.8619,3.04722 2.8621,3.10787 5e-4,0.0605 -2.1204,1.11053 -4.7124,2.33324 l -4.7128,2.22317 -4.9418,-4.75845 c -2.7179,-2.61742 -5.6561,-5.33585 -6.5291,-6.04141 -4.931,-3.98533 -9.4383,-6.19276 -23.906,-11.70784 -9.5205,-3.62924 -14.8051,-6.14782 -21.1453,-10.07792 l -2.2333,-1.38421 -2.1167,1.97388 c -2.3299,2.17257 -2.6848,2.44967 -5.0321,3.92918 -4.1265,2.60086 -10.4831,3.76544 -20.0876,3.68019 -13.7711,-0.12232 -25.5674,-3.69028 -31.2643,-9.45641 -0.5803,-0.58681 -1.3235,-1.48323 -1.6521,-1.99145 z m 59.3008,-11.82222 c 0.2154,-0.0515 0.4543,-2.59647 0.3844,-4.09548 -0.029,-0.62238 -0.2517,-1.68403 -0.4949,-2.35915 -0.3915,-1.08626 -0.5654,-1.34856 -1.512,-2.2797 -1.0952,-1.07763 -1.8021,-1.43038 -3.1032,-1.54975 -0.6716,-0.0617 -2.0623,0.23554 -2.3213,0.49602 -0.4245,0.42695 0.5882,2.83365 1.9645,4.66846 0.8397,1.11949 4.8629,5.1721 5.0828,5.11932 z m 38.1814,85.57315 c 0.068,-0.15167 1.5879,-1.91652 3.3794,-3.921 1.7914,-2.00448 8.8832,-10.31651 15.7595,-18.47108 14.7782,-17.52556 31.8757,-37.75638 38.0964,-45.07815 l 4.4434,-5.22992 1.1721,-2.33218 1.1721,-2.33212 4.609,-1.93698 c 2.5349,-1.06533 4.7102,-1.94351 4.834,-1.95146 0.3912,-0.0251 0.241,0.59805 -0.8205,3.40538 -0.5643,1.49252 -1.4305,3.86669 -1.9247,5.27596 l -0.8988,2.5622 -2.862,1.41527 -2.8621,1.41516 -7.5134,8.83421 c -42.6716,50.17238 -42.3652,49.82047 -45.7067,52.50688 -2.5097,2.01786 -7.2725,5.03719 -9.8226,6.22696 -0.755,0.35231 -1.2949,0.1532 -1.0551,-0.38913 z m -91.7236,-143.53035 c -0.1861,-1.95073 -0.4426,-4.35135 -0.57,-5.33462 -0.1688,-1.30278 -0.156,-1.82374 0.047,-1.92018 0.1532,-0.0728 2.4262,-0.54527 5.0512,-1.0499 3.2159,-0.61825 4.8454,-0.84528 4.9954,-0.69611 0.2483,0.24692 0.5926,2.96346 1.0041,7.92358 0.1508,1.8176 0.3237,3.35393 0.3841,3.41407 0.061,0.0601 2.2235,-0.14158 4.8066,-0.44833 3.3099,-0.39302 4.7704,-0.48408 4.947,-0.30846 0.2704,0.26881 0.5503,2.46878 0.9798,7.7019 0.219,2.6683 0.2102,3.35799 -0.045,3.52846 -0.3209,0.21424 -9.4447,1.93384 -9.8607,1.85856 -0.1236,-0.0224 -0.2547,-0.0687 -0.2912,-0.10291 -0.035,-0.0353 -0.2601,-2.30339 -0.497,-5.04262 -0.4188,-4.84288 -0.6562,-6.73359 -0.8434,-6.71629 -0.05,0.005 -2.1582,0.24965 -4.6844,0.54448 -2.5262,0.29482 -4.7037,0.45937 -4.8389,0.36562 -0.1407,-0.0978 -0.3903,-1.68447 -0.5842,-3.71725 z m 107.387,63.68934 c -0.01,-3.98952 0.062,-5.50143 0.2679,-5.59362 0.4605,-0.20671 10.0551,-0.59662 10.2366,-0.41612 0.092,0.0913 0.1867,2.63127 0.2108,5.64432 0.038,4.78079 0,5.49261 -0.3237,5.59024 -0.6329,0.19259 -9.9298,0.55279 -10.1595,0.39359 -0.1198,-0.0833 -0.2244,-2.61146 -0.2321,-5.61841 z m -27.6045,-32.81748 c -0.6591,-1.37912 -0.5691,-3.54808 0.2058,-4.9625 1.1198,-2.04394 2.5221,-3.6456 4.6708,-5.33463 1.0448,-0.82142 1.2769,-1.07382 1.5263,-1.66123 0.3664,-0.86192 0.8643,-1.37211 1.661,-1.70167 0.6633,-0.2746 3.1977,-0.66563 3.3477,-0.5165 0.1649,0.16394 -0.1891,1.20945 -0.6048,1.78632 -0.2522,0.35015 -1.2981,1.20487 -2.7356,2.23572 -3.3571,2.40712 -4.6056,4.03159 -4.6001,5.9848 0.01,2.19991 1.7606,3.69883 4.4411,3.79446 2.0668,0.0737 2.6643,-0.23168 4.1522,-2.12209 0.6356,-0.80741 1.6387,-2.34766 2.2293,-3.42265 l 1.0737,-1.95471 1.1482,-0.47811 c 1.4049,-0.58493 1.5657,-0.6016 1.6074,-0.1664 0.057,0.59919 -0.9452,2.33695 -2.7922,4.83915 -2.4653,3.33997 -3.0274,4.42343 -2.9969,5.77743 0.026,1.18014 0.3847,1.94963 1.3599,2.92138 0.7519,0.74761 1.3137,1.03484 2.0287,1.03282 0.9119,-0.003 1.3644,-0.69509 2.3252,-3.55841 1.3138,-3.91558 2.0286,-4.81989 4.7425,-6.00108 1.2587,-0.5478 1.7178,-0.36662 1.1289,0.44568 -1.014,1.39866 -1.6177,2.56198 -2.4312,4.68573 -1.1953,3.1207 -1.819,4.13644 -3.1352,5.10554 -1.922,1.41516 -5.298,2.14977 -7.1904,1.56469 -2.0816,-0.64352 -3.3014,-3.21101 -2.6763,-5.63375 l 0.2283,-0.88523 -0.9765,0.28909 c -3.8055,1.12657 -6.5648,0.39057 -7.7378,-2.06385 z"
   id="path410" /><path
   style="display:inline;fill:#ffffff;stroke-width:0.176521"
   d="m 106.80014,737.2386 c -7.592466,1.9667 -15.346456,-1.92883 -22.056756,-11.08092 -2.71009,-3.69644 -5.46683,-9.47854 -5.94727,-12.47335 -0.1423,-0.88732 -0.11134,-1.08594 0.18735,-1.2036 0.30137,-0.1188 0.43165,-0.0285 0.82663,0.57351 0.258,0.39302 0.83233,1.60537 1.27777,2.69338 1.87038,4.57617 4.44143,8.18548 7.4382,10.44191 2.62261,1.97493 6.53223,2.96378 9.92207,2.50973 5.478156,-0.73375 10.482886,-4.22562 14.408416,-10.05278 4.86538,-7.22264 8.20301,-17.54919 10.02132,-31.00626 l 0.42117,-3.11628 -0.53666,-0.41698 c -1.27455,-0.99039 -3.00651,-1.23007 -5.04505,-0.69818 -0.91079,0.23763 -1.69382,0.65482 -5.5327,2.94755 -5.18265,3.09543 -6.41373,3.62655 -8.7201,3.75985 -3.38953,0.19647 -6.025086,-1.44113 -8.039226,-4.99497 -3.35619,-5.9225 -3.58583,-13.28747 -0.5509,-17.69544 0.87369,-1.26888 1.06521,-1.45341 2.12317,-2.04602 1.42416,-0.79808 3.288226,-1.08652 5.591886,-0.86652 3.38699,0.32344 8.20616,2.16475 11.62465,4.4414 1.76439,1.17513 4.51003,3.77952 6.55816,6.22099 1.39269,1.66003 4.3504,6.57343 5.21664,8.6659 1.96886,4.75602 2.34647,8.24913 1.5554,14.38917 -1.06237,8.24616 -3.1226,16.36661 -5.64401,22.24575 -3.19963,7.46059 -6.80734,12.1198 -11.74347,15.16604 -1.72069,1.06195 -2.23123,1.30451 -3.35669,1.59612 z m 0.94304,-60.56807 c 0.96011,-0.61922 1.71735,-1.17584 1.68266,-1.23686 -0.1194,-0.20998 -3.11679,-0.99108 -4.13993,-1.0789 -3.01787,-0.25895 -5.997116,1.48445 -6.510516,3.80997 -0.48892,2.21481 -0.0212,2.76439 2.045746,2.4035 1.01673,-0.17757 2.09705,-0.78587 6.92192,-3.89792 z m 44.03289,12.76439 c -5.12806,1.74149 -10.66497,1.08403 -15.15293,-1.79931 -2.58233,-1.65908 -4.94998,-3.90381 -7.36463,-6.98215 -1.67933,-2.14106 -2.15849,-2.84778 -5.78676,-8.53583 -5.01083,-7.85565 -12.5204,-19.36602 -17.34547,-26.58667 -6.292176,-9.41616 -6.260826,-9.37135 -6.412196,-9.17426 -0.0705,0.0919 -0.93276,1.23397 -1.91613,2.53816 -5.34387,7.08722 -11.99254,14.21176 -18.36615,19.68045 -3.51314,3.01449 -3.1874,2.62274 -2.74145,3.29673 0.2124,0.32094 4.7351,7.01996 10.05044,14.88676 12.76547,18.89269 13.518816,20.20136 15.668686,27.21805 0.69567,2.27074 1.26757,4.67909 1.45851,6.14314 0.0605,0.46328 -0.32933,0.63001 -0.71935,0.30746 -0.18011,-0.14883 -1.37352,-1.91459 -2.65201,-3.92386 -2.374226,-3.73131 -28.335366,-41.87835 -28.538376,-41.93414 -0.0614,-0.017 -1.10454,0.61427 -2.31774,1.40282 -2.496,1.62239 -6.60704,3.72842 -9.0527,4.63799 -8.71056,3.23911 -15.81059,2.16754 -22.1655,-3.34522 -4.19052,-3.63517 -7.71291,-9.47995 -9.42812,-15.64442 -0.90382,-3.24819 -1.43113,-7.47472 -1.07497,-8.61673 0.17248,-0.55302 0.22016,-0.59439 0.57337,-0.4972 0.35331,0.0971 0.46527,0.39764 1.34696,3.61458 1.85753,6.77812 3.86019,10.05828 7.8733,12.89634 6.77607,4.79194 15.41535,4.157 26.10646,-1.91889 l 2.1867,-1.24341 -0.28392,-0.49851 c -0.15604,-0.2742 -3.33005,-4.98011 -7.05323,-10.45758 -3.72318,-5.47746 -7.22921,-10.657 -7.79118,-11.51016 -1.00915,-1.53214 -2.53763,-3.14895 -4.31943,-4.56895 l -0.75776,-0.6039 -0.64944,-5.14474 c -0.40332,-3.19602 -0.56973,-5.19005 -0.43916,-5.2643 0.11562,-0.0657 0.39301,0.0278 0.61662,0.20781 4.09057,3.29515 10.12519,8.50438 13.33807,11.51391 3.92852,3.67979 5.25873,5.25037 4.85914,5.73719 -0.25287,0.30808 -1.1536,0.0611 -3.85273,-1.05671 -2.05394,-0.85064 -2.21608,-0.88796 -1.96944,-0.45421 0.3504,0.61623 11.76348,17.53741 12.35098,18.31144 0.44919,0.5917 0.45059,0.59214 0.97209,0.19044 7.16555,-5.51983 14.54426,-12.80073 20.75114,-20.47602 2.83878,-3.51036 2.7455,-3.33008 2.14567,-4.14461 -0.27294,-0.37076 -1.80396,-2.4891 -3.40212,-4.70752 -4.18822,-5.814 -6.7336,-8.98793 -10.13982,-12.64336 l -1.31807,-1.4145 -0.64515,-5.13476 c -0.38539,-3.06779 -0.56326,-5.18131 -0.44182,-5.25036 0.19838,-0.1128 0.35422,0.0221 1.91128,1.65457 3.37523,3.53842 10.30589,12.45676 16.11564,20.73724 1.0222,1.45698 1.90744,2.62131 1.96742,2.5872 0.06,-0.0341 0.54369,-0.63701 1.07519,-1.33996 3.025616,-4.00132 6.022516,-7.5318 7.688226,-9.05721 3.66215,-3.35368 7.64116,-3.41374 9.92304,-0.1499 1.01651,1.45386 1.5993,3.76642 1.63309,6.4795 0.0178,1.43335 -0.22455,3.14321 -1.17794,8.30955 -0.24632,1.33455 -0.60192,3.85343 -0.79034,5.59751 -0.23556,2.18051 -0.43844,3.24573 -0.6497,3.41051 -0.42327,0.33007 -0.6973,-0.1927 -1.03786,-1.97895 -0.58341,-3.06504 -0.54405,-5.88777 0.13218,-9.47922 0.5859,-3.11143 0.64171,-3.93802 0.30607,-4.52828 -0.77423,-1.36156 -2.98563,-0.23887 -5.83022,2.96003 -1.2226,1.37488 -5.74267,7.26954 -5.85721,7.63842 -0.0288,0.0931 0.79425,1.42106 1.82841,2.95127 4.09412,6.05576 12.87964,19.60186 18.95138,29.22048 6.25942,9.91611 10.80131,14.86292 14.90595,16.23521 2.30377,0.77026 5.31181,0.74146 8.11328,-0.0775 2.13658,-0.62469 5.45868,-2.4704 7.61949,-4.23314 3.20877,-2.61793 6.07387,-6.20238 7.29046,-9.12089 0.26248,-0.62984 1.04018,-3.28884 1.72821,-5.90891 1.30224,-4.95925 1.97274,-6.77624 2.86479,-7.76298 0.46892,-0.51886 0.57126,-0.57215 0.91629,-0.4772 0.35714,0.0982 0.42138,0.24216 0.80328,1.79926 1.07781,4.39454 2.67155,6.36625 5.82384,7.20493 2.45378,0.65274 5.11134,0.25376 8.02312,-1.20448 3.64835,-1.82709 5.77202,-4.63572 6.8509,-9.06022 0.42065,-1.72512 0.68528,-3.69429 1.03293,-7.68677 0.23072,-2.64885 0.62712,-4.51535 1.11434,-5.24662 0.48475,-0.72751 0.94655,-1.07196 1.37163,-1.02316 0.38348,0.044 0.41708,0.13506 0.79023,2.1354 0.3616,1.93837 0.45912,2.21143 1.34953,3.77733 0.85101,1.49659 1.05938,1.75784 1.83722,2.30583 1.18535,0.83494 1.99721,1.1053 3.27587,1.091 1.00884,-0.0112 1.18121,-0.0718 2.76393,-0.97177 2.08604,-1.18618 3.22863,-2.36553 4.21638,-4.35167 1.28242,-2.57881 1.78806,-5.37113 1.94041,-10.71658 0.0795,-2.78677 0.3539,-4.16821 0.88834,-4.47211 0.54061,-0.3074 0.81842,-0.0286 1.16883,1.17328 0.50096,1.71713 1.28966,2.81041 2.54444,3.5265 1.72859,0.98655 3.93963,1.50815 5.85406,1.38089 2.41777,-0.16074 3.92765,-0.68203 6.34274,-2.18978 2.8207,-1.76106 4.06215,-3.19929 5.32217,-6.16586 1.22989,-2.89552 1.71947,-6.09441 1.63151,-10.65956 -0.0736,-3.81456 0.14471,-4.50494 1.38671,-4.38789 0.26995,0.0254 0.49515,0.0116 0.50051,-0.0308 0.006,-0.0427 0.0536,-0.46746 0.10724,-0.94471 0.49378,-4.38874 1.58027,-9.07278 2.57143,-11.0849 1.60771,-3.26405 3.95181,-5.0055 6.85086,-5.08962 1.47684,-0.0429 4.0581,0.73551 6.03099,1.81868 3.89627,2.13917 8.01404,6.5768 9.5791,10.32329 1.24403,2.97778 2.25332,9.98879 1.66652,11.57548 -0.23443,0.63385 -0.33636,0.72791 -1.17447,1.08325 -2.55881,1.08505 -7.66104,2.43724 -11.04852,2.92802 -3.92323,0.56842 -9.22118,0.51914 -12.11057,-0.11269 -0.67009,-0.14648 -1.22766,-0.22656 -1.2391,-0.1779 -0.0104,0.0484 0.0802,0.94487 0.20348,1.99167 0.31078,2.63898 0.46051,5.46125 0.36739,6.92625 -0.11778,1.85336 -1.2125,5.62488 -2.06598,7.11765 -1.44207,2.52219 -3.3763,4.30671 -6.16761,5.69016 -2.04019,1.01109 -3.29276,1.35389 -5.42479,1.48428 -2.76492,0.1693 -5.4757,-0.75738 -8.18147,-2.79662 -0.61948,-0.46694 -1.20039,-0.8185 -1.29098,-0.78137 -0.0906,0.0369 -0.15637,0.74826 -0.14634,1.58018 0.0779,6.46512 -0.85515,9.96946 -3.42825,12.87504 -0.97515,1.10116 -3.02928,2.65582 -4.11673,3.11564 -3.31596,1.40211 -7.25221,0.18029 -9.84543,-3.05611 -0.83534,-1.04259 -0.91997,-0.98971 -0.96971,0.60558 -0.24881,7.97087 -2.95095,13.21009 -8.45306,16.38946 -1.45677,0.84147 -2.11979,1.13025 -3.22203,1.4016 -4.32104,1.06386 -7.90727,0.0231 -10.98201,-3.18722 -0.63981,-0.66798 -1.45563,-1.61533 -1.81285,-2.10518 -0.35776,-0.48956 -0.78964,-0.91547 -0.96096,-0.94587 -0.55506,-0.0985 -0.97758,1.0627 -1.4758,4.0558 -0.90713,5.44898 -1.57582,7.45123 -3.44215,10.3058 -1.20448,1.84211 -2.78789,3.6743 -4.55034,5.26487 -1.63376,1.47458 -6.10869,4.18585 -7.92889,4.80392 z m 102.62684,-82.57965 c -0.24035,-0.40247 -3.73154,-3.13228 -5.00722,-3.90395 -1.46017,-0.88329 -3.39418,-1.41822 -4.30257,-1.18993 -1.64537,0.4135 -3.45074,1.7884 -4.59179,3.49686 -0.60244,0.90209 -1.8347,3.55858 -1.73336,3.7368 0.0908,0.15977 4.19039,0.20243 5.73837,0.0597 3.61288,-0.33312 8.81125,-1.26799 9.7009,-1.74449 0.23408,-0.12505 0.2989,-0.27648 0.19567,-0.45498 z m -70.50991,35.7901 c -0.094,-0.0519 -1.29163,-2.08942 -2.65927,-4.52896 -2.01078,-3.58476 -2.69336,-4.68199 -3.56327,-5.72224 -3.86247,-4.62087 -8.85526,-7.42237 -16.65278,-9.34428 l -2.74029,-0.67552 -1.25829,-3.53351 c -0.78697,-2.20999 -1.19973,-3.59884 -1.10176,-3.70775 0.20248,-0.22534 3.94408,0.74803 6.43636,1.67442 6.09992,2.26724 11.64333,6.3569 15.61337,11.51875 1.38799,1.80471 3.60007,5.6049 4.4479,7.6401 0.71397,1.71484 1.94537,5.459 2.00164,6.08637 0.0423,0.47195 -0.21359,0.76174 -0.52326,0.59243 z m -134.424556,12.3383 c -4.0781,-0.82288 -9.25631,-1.99396 -9.3211,-2.10789 -0.076,-0.13366 0.28834,-2.29304 1.21772,-7.21655 l 0.54613,-2.89266 -5.087,-1.09059 c -2.79793,-0.59986 -5.13214,-1.1718 -5.18715,-1.27097 -0.0561,-0.0986 0.30197,-2.37365 0.79335,-5.05429 0.59817,-3.26342 0.99155,-4.9297 1.19061,-5.04289 0.35546,-0.20212 10.63145,1.93285 10.80935,2.2457 0.0671,0.11808 -0.26881,2.34215 -0.74669,4.94256 -0.4777,2.6003 -0.84726,4.83325 -0.82099,4.96199 0.0406,0.19683 2.81449,0.84989 9.12446,2.14706 1.11407,0.22912 1.14115,0.2472 1.10967,0.74475 -0.0794,1.25838 -1.71459,9.5881 -1.91446,9.75188 -0.12263,0.10034 -0.89384,0.0473 -1.7139,-0.1181 z"
   id="path424" /><path
   style="display:inline;fill:#ffffff;stroke-width:0.176521"
   d="m 77.626387,142.80185 c 0.009,-0.11425 1.37569,-2.04774 3.03765,-4.29642 2.4652,-3.33512 3.15602,-4.36682 3.74982,-5.60043 1.03904,-2.15788 1.64469,-4.0602 2.04926,-6.43698 0.62363,-3.66345 0.56197,-6.52203 -0.24845,-11.51237 l -0.62509,-3.84861 2.66848,-2.57756 c 1.51906,-1.46731 2.76057,-2.55265 2.88234,-2.5198 0.30729,0.0829 0.97082,3.77254 1.14392,6.36061 0.45318,6.77717 -0.9399,13.28857 -4.11997,19.25709 -1.27659,2.39592 -4.49582,6.65652 -6.40872,8.4819 -2.15714,2.05836 -3.58023,3.17024 -3.87666,3.02878 -0.14757,-0.0706 -0.26123,-0.22183 -0.25256,-0.3362 z m 23.488433,-3.02616 c -3.044933,-2.70002 -4.769623,-6.38719 -4.827693,-10.32112 -0.057,-3.8613 1.43765,-7.80433 4.606493,-12.15207 2.61697,-3.59055 5.68152,-6.29521 9.19128,-8.1119 1.69439,-0.87703 2.17557,-1.01892 2.54411,-0.75031 0.41569,0.30297 -0.11998,0.86213 -2.35969,2.46316 -2.75842,1.97185 -4.07498,3.24501 -5.77675,5.5862 -4.702733,6.47011 -4.36992,11.92539 0.92998,15.2405 2.39949,1.50092 5.82681,2.42362 9.18373,2.47249 2.06038,0.0299 7.32736,-0.23429 13.67829,-0.68629 9.31073,-0.66264 20.04836,-0.73881 25.66339,-0.18209 3.18691,0.31598 7.49971,1.10202 10.40764,1.89688 0.45642,0.12472 0.51785,0.0959 0.49768,-0.23332 -0.0127,-0.20656 -0.61582,-2.52922 -1.34034,-5.16142 -2.15076,-7.81321 -2.6491,-10.44022 -2.65133,-13.97502 -0.002,-2.52825 0.74078,-4.39756 2.74584,-6.91393 2.03293,-2.55131 4.0408,-3.79829 7.04421,-4.37477 2.08952,-0.40107 4.34929,-0.1486 6.79008,0.75853 1.37601,0.5115 5.62863,3.41942 7.73811,5.29143 6.60791,5.86377 15.54318,15.70793 24.94059,27.47748 6.25978,7.8398 13.73559,17.98578 13.85706,18.8063 0.0315,0.21279 -1.02967,0.99507 -4.24873,3.13211 l -4.29073,2.84854 -3.88409,-1.56389 c -9.1202,-3.67214 -24.64367,-9.03692 -37.16461,-12.84386 -2.26189,-0.68775 -4.13833,-1.24794 -4.16988,-1.24491 -0.0315,0.003 -0.82116,1.21035 -1.75491,2.68297 -1.84715,2.91328 -2.68603,3.90853 -3.18168,3.77486 -0.46249,-0.12475 -0.48465,-1.0063 -0.11295,-4.49387 0.18085,-1.69677 0.30385,-3.14537 0.27327,-3.21908 -0.0308,-0.0734 -0.55103,-0.26342 -1.15662,-0.42154 -0.60555,-0.15812 -2.39153,-0.67469 -3.96882,-1.1479 -7.44665,-2.23407 -13.96632,-2.89992 -25.81894,-2.63681 -3.81567,0.0847 -6.45255,0.23996 -11.76333,0.69255 -13.63743,1.16221 -17.87051,0.63561 -21.62066,-2.6899 z m 78.30915,-0.002 c 6.70713,2.10443 15.15254,5.0184 21.68855,7.48339 2.04307,0.77054 3.59516,1.2698 3.53409,1.13676 -0.0599,-0.13043 -1.23822,-1.65104 -2.61831,-3.37923 -8.73473,-10.93727 -17.43671,-20.56092 -23.94364,-26.47972 -2.25562,-2.05179 -8.62704,-6.66303 -9.58087,-6.93425 -0.76303,-0.21684 -1.14343,-0.0106 -1.46957,0.79671 -0.41161,1.01892 0.57466,5.80805 3.17948,15.43825 0.9755,3.60653 1.85296,7.25763 1.94992,8.1136 0.10202,0.90059 0.28298,1.59929 0.42953,1.65838 0.13943,0.056 3.21312,1.03091 6.83089,2.16601 z m -52.02118,17.57955 c -1.27553,-1.79387 -2.64156,-3.66701 -3.03569,-4.16252 -0.40444,-0.50829 -0.68295,-1.0259 -0.63928,-1.18785 0.0853,-0.31628 7.36878,-6.7259 7.70605,-6.78147 0.26051,-0.043 1.91884,2.1173 4.7311,6.16312 1.17884,1.69599 2.20851,3.07514 2.28809,3.06483 0.0797,-0.0104 1.86086,-1.29391 3.95836,-2.85243 l 3.81359,-2.83373 0.45587,0.27249 c 0.39386,0.23597 6.39315,8.49306 6.45447,8.88365 0.0317,0.20228 -7.75423,6.80746 -8.00527,6.79123 -0.12012,-0.008 -1.32767,-1.60477 -2.68346,-3.54889 -2.42692,-3.47991 -4.29248,-5.99581 -4.43006,-5.97424 -0.0383,0.006 -1.0661,0.75527 -2.28335,1.66489 -1.21728,0.90969 -2.96308,2.21317 -3.87958,2.89671 -1.2846,0.95811 -1.71968,1.19964 -1.89902,1.05423 -0.12764,-0.10417 -1.27614,-1.65645 -2.55163,-3.45029 z M 57.058337,86.488911 c -5.49899,-4.84289 -9.37188,-10.16119 -11.0476,-15.17067 -0.60266,-1.80164 -1.14258,-4.7848 -1.16716,-6.44884 -0.0516,-3.49748 0.94208,-7.58906 2.84898,-11.73048 1.06691,-2.31706 5.11466,-7.80411 7.23067,-9.80165 3.11913,-2.9446 6.07338,-5.09517 9.44612,-6.87642 2.27714,-1.2026 3.60018,-1.63536 4.03374,-1.31936 0.4594,0.33483 0.18837,0.7387 -1.06664,1.5896 -6.33897,4.29776 -7.71878,5.50658 -10.22986,8.96197 -2.36257,3.25169 -3.18673,5.16958 -3.77093,8.7794 -0.82357,5.08933 -0.14624,8.93151 2.41953,13.72501 2.79056,5.21324 6.63637,9.30255 13.3521,14.19731 6.07193,4.42551 11.47881,7.17876 19.49277,9.92607 6.82915,2.34107 12.746893,3.6854 23.718903,5.38836 10.5018,1.62988 12.85699,2.27235 12.83388,3.500929 -0.0127,0.67469 -0.31786,1.05761 -2.21148,2.77518 -0.88621,0.80382 -1.85001,1.79063 -2.14186,2.19301 -1.73849,2.39714 -1.8172,5.67578 -0.20803,8.67783 1.34857,2.51596 2.34384,3.60802 5.15626,5.65785 2.08293,1.51814 2.62701,1.84392 3.85502,2.31062 1.55277,0.58975 2.62753,0.81681 3.78981,0.80074 0.73718,-0.0102 0.75238,-0.0212 1.29714,-0.94086 1.3456,-2.27155 2.66768,-6.57562 3.37909,-11.00049 l 0.4082,-2.5389 3.44213,-3.33173 c 3.45903,-3.34811 4.06083,-3.86388 4.30279,-3.68753 0.22515,0.1641 -0.0118,3.92867 -0.37461,5.95224 -0.96777,5.39751 -2.98669,9.97306 -6.27179,14.21389 -2.79986,3.6144 -5.67869,6.09879 -8.96635,7.7378 -2.68111,1.33668 -4.73002,1.55047 -7.27602,0.75934 -6.31501,-1.96241 -11.61087,-7.82351 -11.69729,-12.94591 -0.0425,-2.5174 0.54659,-4.36779 2.44763,-7.68826 0.66974,-1.16984 1.25552,-2.26701 1.30165,-2.43811 0.18833,-0.69833 -1.1638,-1.03973 -8.1829,-2.06621 -11.253053,-1.64561 -16.720943,-2.81001 -24.013893,-5.11381 -5.72412,-1.808229 -10.46161,-3.800799 -15.25373,-6.415559 -2.27274,-1.24014 -8.89391,-5.88642 -10.87625,-7.63234 z m 36.54892,-8.67694 c -0.48751,-2.36762 -1.03282,-4.92689 -1.21184,-5.68715 l -0.32543,-1.38237 -4.56223,1.09643 c -2.50924,0.60309 -4.69138,1.08234 -4.84916,1.06497 -0.32003,-0.0351 -0.28596,0.0873 -1.54067,-5.53399 -0.46056,-2.06339 -0.91827,-4.09357 -1.01708,-4.51149 -0.17935,-0.75854 -0.17871,-0.76028 0.35879,-0.96584 1.09248,-0.41779 8.95474,-2.8646 9.2682,-2.88432 0.41089,-0.0259 0.71457,1.05862 1.91545,6.8407 0.4841,2.33087 0.91979,4.29634 0.96812,4.36772 0.0483,0.0714 2.15964,-0.37315 4.69172,-0.98781 2.53215,-0.6147 4.707913,-1.09427 4.835133,-1.06579 0.30406,0.0682 0.73658,1.70973 1.80631,6.85441 0.60811,2.92475 0.80723,4.28646 0.64245,4.39316 -0.59909,0.38786 -9.653233,3.02696 -9.862233,2.87463 -0.12709,-0.0926 -0.62995,-2.10566 -1.11753,-4.47326 z m 47.062753,19.60098 c -0.81467,-0.96672 -1.30833,-2.82531 -1.10297,-4.15259 0.28255,-1.82632 0.50851,-2.26145 2.93105,-5.64388 1.43281,-2.00014 2.4097,-3.49848 2.56761,-3.93698 0.18814,-0.52253 0.40422,-0.82809 0.82526,-1.16726 0.63495,-0.51133 3.28774,-1.38503 3.57331,-1.1769 0.30184,0.22 -0.0347,1.44168 -0.61731,2.24107 -0.30029,0.41201 -1.21762,1.38647 -2.03855,2.16546 -1.10606,1.04956 -1.74584,1.79745 -2.47045,2.88792 -1.24211,1.86924 -1.47953,2.94822 -0.96299,4.37664 0.30039,0.83089 0.46966,1.05158 1.22623,1.59883 1.07532,0.77632 2.06886,1.00971 3.57637,0.83577 1.49631,-0.17268 2.28829,-0.5996 3.0493,-1.64372 0.87065,-1.19456 1.93883,-3.42311 2.5438,-5.30706 l 0.51797,-1.61317 1.31123,-0.73923 c 1.10332,-0.62209 1.32428,-0.68768 1.3937,-0.41398 0.13517,0.53334 -0.3866,2.09773 -1.29242,3.87483 -0.46795,0.91803 -1.19662,2.3509 -1.61925,3.18411 -1.33292,2.62773 -1.56256,4.11503 -0.85184,5.51692 0.72548,1.43086 2.43072,2.499119 3.6773,2.303619 0.85349,-0.13389 1.08257,-0.675159 1.72235,-4.069009 0.75048,-3.98139 1.01796,-4.47863 3.3062,-6.14726 1.08592,-0.79184 1.79179,-1.07036 1.84551,-0.72813 0.013,0.0841 -0.26368,0.73483 -0.61514,1.44633 -0.43335,0.87731 -0.83784,2.18458 -1.25668,4.06142 -0.68224,3.05708 -0.9814,3.88454 -1.82558,5.048779 -1.50236,2.07146 -5.19603,3.6636 -7.46614,3.21758 -2.2277,-0.43775 -3.62729,-2.46796 -3.46197,-5.021859 l 0.0585,-0.90427 -1.28139,0.56054 c -3.05793,1.33774 -5.79184,1.09134 -7.26312,-0.65458 z"
   id="path438" /><path
   fill="#ffffff"
   d="m 495.83718,400 69.65432,-22.62944 -43.05139,59.24828 v -73.23767 l 43.05139,59.24827 z m 4.74868,41.17758 a 77.005825,77.005825 0 1 1 0,-82.35516 61.604662,61.604662 0 1 0 0,82.35516 z"
   id="path553-0"
   style="stroke-width:0.00513371" /></svg>
