<?xml version="1.0" encoding="UTF-8" standalone="no"?>
<svg xmlns="http://www.w3.org/2000/svg" width="317.04984mm" height="200.11282mm" viewBox="0 0 317.04984 200.11282">
  <path fill="#fece00" d="M0 .00000459h317.04984v200.11282H0z"/>
  <path fill="#fff" d="M151.55247 194.85772459c-1.00095-.65859-1.1483-1.00753-1.35665-3.2128-.12855-1.36068-.23494-8.94738-.23642-16.85932-.002-10.92784-.11624-14.53182-.47515-14.99478-.52187-.67314-6.51014-3.42187-24.61921-11.30067l-12.05149-5.24331h-7.02931l-1.87097 3.1183c-2.72414 4.54026-3.26785 5.72585-5.1623 11.25669-1.62914 4.75624-1.71092 5.19685-1.71092 9.21841v4.22342l-1.46202 1.42762c-1.40463 1.37159-1.51963 1.41199-2.92932 1.02926-1.64371-.44628-5.82441-2.80485-8.21137-4.6325-2.17051-1.66194-4.40622-3.8023-4.40622-4.21832 0-.19047.58677-1.31223 1.30392-2.4928 1.19596-1.96876 1.46843-2.18864 3.29084-2.65571 3.95057-1.0125 6.37557-4.73939 12.80278-19.67616 3.11293-7.23439 4.80432-10.56917 5.49513-10.83425 1.19869-.45998 19.98962 6.61781 37.53633 14.13843 6.50061 2.7862 8.59937 3.53547 9.07143 3.23855.82296-.51761 1.21196-9.49179 1.08562-25.04548l-.0935-11.5102-3.72811-2.19739c-2.05047-1.20855-6.04756-3.70023-8.88244-5.53704-7.39441-4.79109-11.57044-6.98557-12.7364-6.69293-2.09057.5247-4.92589 3.81232-8.87779 10.29401-2.17816 3.5725-2.25034 3.77515-2.26184 6.35058-.0116 2.58699-1.20852 10.62128-1.64783 11.0606-.22696.22696-7.60584-3.90824-11.11766-6.23045-2.17605-1.43893-3.85358-3.56025-3.85358-4.87304 0-.65321.38531-.9548 1.83507-1.43634 3.50446-1.16399 8.30213-4.73766 10.36332-7.71938.66468-.96152 2.91193-5.14585 4.99389-9.2985 3.05148-6.08642 4.0344-7.71695 5.06971-8.40997 2.64819-1.77263 5.52207-1.0232 17.16369 4.47587 3.90979 1.84684 7.1788 3.35789 7.26444 3.35789.0856 0 1.59557.85044 3.35537 1.88988 1.7598 1.03943 3.36267 1.88988 3.56193 1.88988.74328 0 .95798-1.48695 1.11607-7.72946.14446-5.7048-.24265-17.80586-.92199-28.82079l-.23777-3.85531-2.87487-2.22322c-3.00548-2.32421-9.83857-6.50812-10.62896-6.50812-.97319 0-3.26032 1.63255-4.40394 3.14355-3.04644 4.02507-6.16472 12.04779-7.23176 18.60595-.52356 3.21781-.7625 3.95173-1.28671 3.95224-.65159.00079-6.05823-3.52703-12.11893-7.90723-2.88213-2.08298-3.25102-2.47434-2.83482-3.0075.26315-.3371 3.13699-3.41938 6.3863-6.84951 8.67033-9.15283 16.12907-17.9239 17.26145-20.29853.32683-.68536.77921-1.24612 1.00529-1.24612 1.05084 0 5.35604 3.0537 9.65429 6.84784 6.20143 5.47412 8.05057 6.41706 8.93587 4.55672.16547-.34773.36025-5.50349.43283-11.45724l.13197-10.82499-2.29349-1.7648c-1.26142-.97065-2.29349-2.05732-2.29349-2.41484 0-.72999.61348-1.63005 4.20078-6.16316 1.37493-1.73745 2.76201-3.66926 3.08239-4.29292.60574-1.17917 2.43065-3.08204 2.68989-2.80481.61846.66138 8.54777 12.21356 8.54777 12.45321 0 .16838.10347.57578.22994.90535.15707.40931-.68188 1.53618-2.64736 3.55589l-2.87729 2.95669.3923 7.9088c.56405 11.3713.97095 13.38945 2.6996 13.38945 1.51027 0 3.1515-1.11241 12.15257-8.23691 4.32597-3.42409 4.51664-3.52934 5.9538-3.28654 1.37675.2326 1.83503.69476 6.30322 6.35663 6.37091 8.0729 11.98856 14.68307 16.54309 19.46593 2.05096 2.15376 3.54883 4.0182 3.34031 4.15773-.20792.13914-3.40301 2.43993-7.1002 5.11287l-6.72216 4.85989-1.79343-1.76646-1.79343-1.76647-.25927-5.16614-.25927-5.16615-2.09461-3.97489c-1.15203-2.1862-2.71904-4.96549-3.48224-6.1762l-1.38765-2.2013-3.02381.24154c-2.866.22894-3.10093.31766-4.50137 1.70004l-1.47756 1.4585.43101 2.6098c.41617 2.52005.59959 2.83629 5.33294 9.19472 3.00932 4.04248 5.52946 7.03403 6.52721 7.74815 2.06538 1.47826 2.19234 2.34758.60721 4.15767-1.23008 1.40465-7.37419 4.69545-8.76666 4.69545-.34421 0-1.30255-.44783-2.12964-.99517l-1.5038-.99517v-10.69144l-2.35643-3.392c-3.99031-5.7439-6.948-8.31036-8.771-7.61081-.30018.11519-.8338.649-1.18581 1.18625-.58494.89273-.59854 1.43949-.15798 6.35142.26513 2.95603.58575 11.41277.7125 18.79275l.23045 13.41816.94494.10674c.62873.071 2.33629-.74257 5.10268-2.43126 11.72237-7.15568 14.37396-8.69089 18.87725-10.92954 2.69067-1.33758 5.26558-2.43195 5.72202-2.43195.65638 0 1.16902.65193 2.45206 3.1183 2.27184 4.36715 5.80566 10.37828 10.39583 17.68363l3.92697 6.24985 3.41084 1.67186c3.50084 1.71596 5.67485 3.34558 5.67485 4.25382 0 1.08042-2.67147 2.99522-8.50447 6.09564l-6.04761 3.2145-.50148-1.39455c-.27581-.767-.91831-3.35057-1.42778-5.74127-2.58011-12.10727-7.46783-20.83492-12.1979-21.78094-.94594-.18918-1.35497-.0257-2.29967.91896-2.11133 2.11133-1.47402 4.51165 2.54226 9.57503 3.07189 3.87277 5.0437 6.85358 6.66516 10.07579l1.38766 2.75759-.73485 1.02217c-.40418.5622-1.21815 1.47255-1.80883 2.02301-1.50599 1.40343-7.55986 5.23577-8.27084 5.23577-.9551 0-2.53893-.97414-3.91976-2.41084l-1.28924-1.34141 1.54403-1.67508c1.76749-1.91749 2.41824-3.77716 1.9885-5.68255-.67483-2.99212-5.31514-9.7118-7.91764-11.46563-2.73591-1.84373-5.65546-.7732-11.57345 4.24367l-3.56694 3.02381.012 4.15774c.009 3.12152.98206 32.43404 1.09472 32.97842.0648.31317 4.26611.005 6.65439-.48866 4.7085-.97257 7.70233-2.4131 21.5244-10.35689 9.28086-5.33387 17.63222-9.0927 20.20212-9.0927.88065 0 3.10517 3.13078 4.30332 6.05647.38111.93062.92632 2.11727 1.21156 2.63698 1.84728 3.36576 3.53612 6.81443 3.92624 8.0175.553 1.70537 7.85161 12.83892 10.48051 15.98732 2.85105 3.41447 2.99832 3.79599 1.86924 4.84239-1.09626 1.01597-7.1802 4.44202-10.01467 5.63954-3.14774 1.32989-2.59791 2.28085-7.56405-13.08261-1.46973-4.54685-3.31197-9.66669-4.09385-11.37743l-1.42161-3.11044-5.48066-.24739-5.48065-.2474-1.6064 1.68095c-.95463.99894-1.60303 2.03493-1.5981 2.5534.0138 1.44775 1.23222 3.70478 5.68331 10.52771 4.08414 6.26045 5.64768 9.30196 5.64768 10.98629 0 1.48887-2.23958 3.18075-5.70377 4.30891-3.66383 1.19317-4.77215 1.10647-6.37752-.4989-.9526-.9526-1.04121-1.32108-1.28568-5.34619-.26099-4.2971-.27493-4.34676-2.31897-8.26077-2.75844-5.28198-4.24772-7.22711-5.54487-7.24214-.555-.006-3.36148 1.21228-6.23661 2.70825-8.75344 4.5545-10.78472 5.50712-13.6882 6.41944l-2.79104.87699.27265 16.52099.27264 16.52099-.88339.19524c-.48587.10739-3.716.24192-7.17808.29896-5.71355.0941-6.39835.0355-7.4176-.63512z"/>
</svg>
