<?xml version="1.0" encoding="UTF-8" standalone="no"?>
<!-- Created with Inkscape (http://www.inkscape.org/) -->

<svg
   width="313"
   height="221"
   id="svg1899"
   sodipodi:version="0.32"
   inkscape:version="1.2.1 (9c6d41e410, 2022-07-14)"
   version="1.0"
   sodipodi:docname="Flag of Oghuz.svg"
   xml:space="preserve"
   xmlns:inkscape="http://www.inkscape.org/namespaces/inkscape"
   xmlns:sodipodi="http://sodipodi.sourceforge.net/DTD/sodipodi-0.dtd"
   xmlns="http://www.w3.org/2000/svg"
   xmlns:svg="http://www.w3.org/2000/svg"
   xmlns:rdf="http://www.w3.org/1999/02/22-rdf-syntax-ns#"
   xmlns:cc="http://creativecommons.org/ns#"
   xmlns:dc="http://purl.org/dc/elements/1.1/"><defs
     id="defs1901" /><sodipodi:namedview
     id="base"
     pagecolor="#ffffff"
     bordercolor="#666666"
     borderopacity="1.0"
     gridtolerance="10000"
     guidetolerance="10"
     objecttolerance="10"
     inkscape:pageopacity="0.0"
     inkscape:pageshadow="2"
     inkscape:zoom="0.70000001"
     inkscape:cx="365.71428"
     inkscape:cy="157.14286"
     inkscape:document-units="px"
     inkscape:current-layer="layer1"
     width="216px"
     height="158px"
     inkscape:window-width="1280"
     inkscape:window-height="1001"
     inkscape:window-x="-8"
     inkscape:window-y="-8"
     inkscape:showpageshadow="2"
     inkscape:pagecheckerboard="0"
     inkscape:deskcolor="#d1d1d1"
     showgrid="false"
     inkscape:window-maximized="1" /><metadata
     id="metadata1904"><rdf:RDF><cc:Work
         rdf:about=""><dc:format>image/svg+xml</dc:format><dc:type
           rdf:resource="http://purl.org/dc/dcmitype/StillImage" /></cc:Work></rdf:RDF></metadata><g
     inkscape:label="Layer 1"
     inkscape:groupmode="layer"
     id="layer1"><rect
       style="fill:#418ac7;fill-opacity:1;stroke-width:1.42167"
       id="rect417"
       width="312.85715"
       height="220.71429"
       x="0"
       y="0" /><path
       style="fill:#f8f9fa;fill-opacity:1;stroke-width:0.17646"
       d="m 72.471169,103.87477 c 0.07581,1.88495 0.199263,3.6297 0.274308,3.87709 l 0.136445,0.44996 10.933354,0.0903 c 16.527874,0.13665 52.537434,0.30847 77.980144,0.37211 21.65736,0.0542 29.75718,0.17265 30.03639,0.4398 0.37099,0.35479 -3.57859,3.32572 -35.87647,26.98554 -47.34966,34.68595 -63.360745,46.46422 -66.79563,49.13711 l -1.786506,1.39019 1.237257,0.20744 c 1.803447,0.3027 44.457049,0.45292 98.399929,0.34676 l 44.47007,-0.0872 -0.0231,-9.76828 -0.0232,-9.76826 -14.12688,0.0268 c -23.01585,0.0458 -61.49587,-0.31381 -69.0463,-0.64494 -1.32426,-0.0581 -2.40789,-0.16823 -2.40806,-0.24527 -5.8e-4,-0.36859 3.04167,-2.62072 40.81009,-30.21124 39.71765,-29.01448 49.83934,-36.503443 52.31236,-38.705601 l 1.07655,-0.958609 -0.80551,-0.515475 C 237.03266,94.876323 224.33054,88.765952 194.32933,74.685591 171.24735,63.852579 148.67305,53.335664 137.75911,48.330671 119.33418,39.881216 108.7331,35.110811 107.33499,34.640073 c -0.62535,-0.210553 -0.71408,-0.201648 -1.02298,0.10549 -0.32731,0.324954 -3.27615,4.856452 -7.41843,11.399452 -1.103624,1.743264 -1.9468,3.217662 -1.87372,3.276421 0.07307,0.05877 10.81499,5.158211 23.87093,11.331971 32.9407,15.576704 54.78328,26.04461 56.32921,26.995299 0.25343,0.155805 0.37554,0.336974 0.2849,0.422883 -0.6467,0.612693 -13.49695,0.834061 -62.11153,1.069899 l -42.539776,0.206101 -0.192474,0.871764 c -0.252045,1.141568 -0.365046,9.202192 -0.189995,13.553447 z"
       id="path681" /></g></svg>
