<?xml version="1.0" encoding="UTF-8" standalone="no"?>
<!-- Created with Inkscape (http://www.inkscape.org/) -->

<svg
   width="353mm"
   height="206mm"
   viewBox="0 0 353 206"
   version="1.1"
   id="svg5"
   inkscape:version="1.1.1 (3bf5ae0d25, 2021-09-20)"
   sodipodi:docname="Flag of Great Seljuk Empire.svg"
   xmlns:inkscape="http://www.inkscape.org/namespaces/inkscape"
   xmlns:sodipodi="http://sodipodi.sourceforge.net/DTD/sodipodi-0.dtd"
   xmlns="http://www.w3.org/2000/svg"
   xmlns:svg="http://www.w3.org/2000/svg">
  <sodipodi:namedview
     id="namedview7"
     pagecolor="#ffffff"
     bordercolor="#666666"
     borderopacity="1.0"
     inkscape:pageshadow="2"
     inkscape:pageopacity="0.0"
     inkscape:pagecheckerboard="0"
     inkscape:document-units="mm"
     showgrid="false"
     width="352mm"
     inkscape:zoom="0.32"
     inkscape:cx="767.1875"
     inkscape:cy="367.1875"
     inkscape:window-width="1366"
     inkscape:window-height="705"
     inkscape:window-x="-8"
     inkscape:window-y="-8"
     inkscape:window-maximized="1"
     inkscape:current-layer="layer1"
     height="93mm"
     inkscape:snap-nodes="true" />
  <defs
     id="defs2" />
  <g
     inkscape:label="Слой 1"
     inkscape:groupmode="layer"
     id="layer1">
    <path
       style="fill:#f8fefe;fill-opacity:1;stroke-width:1"
       d=""
       id="path176365"
       transform="scale(0.26458333)" />
    <rect
       style="fill:#28b6c6;fill-opacity:1;stroke-width:0.125372"
       id="rect41779"
       width="352.99582"
       height="206.00146"
       x="0.0041230083"
       y="0.00071573519" />
    <g
       id="svgg"
       transform="matrix(1.00045,0,0,0.99437591,32.090511,650.03011)"
       style="fill:#ffffff;fill-opacity:1">
      <path
         style="fill:#ffffff;fill-opacity:1;stroke-width:0.166522"
         d="m 1093.1485,883.1302 c -1.634,-0.38324 -3.8913,-1.85894 -6.6978,-4.37867 -0.8073,-0.72482 -1.826,-1.57517 -2.2637,-1.88965 -0.4938,-0.35476 -0.8323,-0.73944 -0.8918,-1.01346 -0.2039,-0.93925 -0.4747,-1.39382 -1.1987,-2.01273 l -0.7509,-0.64184 0.656,-0.41413 c 1.5095,-0.95289 2.52,-2.68924 2.6586,-4.5683 0.086,-1.1695 -0.2137,-2.79598 -0.5157,-2.79598 -0.09,0 -0.2187,0.41214 -0.2853,0.91587 -0.4525,3.42372 -1.5651,5.3538 -3.3445,5.80185 -2.4682,0.6215 -3.5018,-0.097 -4.7154,-3.27774 -1.4286,-3.74445 -2.4399,-5.11591 -4.1363,-5.60904 -0.5058,-0.14705 -0.9605,-0.33342 -1.0104,-0.41416 -0.1352,-0.21879 -0.6554,-3.80949 -0.565,-3.89991 0.043,-0.0428 0.7873,0.10422 1.6543,0.32678 0.867,0.22256 1.7512,0.40616 1.965,0.408 0.9968,0.009 -0.3998,-1.0616 -2.1854,-1.67452 -2.2104,-0.75874 -3.6897,-2.63534 -4.1373,-5.24836 -0.4709,-2.74848 0.5066,-3.7956 3.788,-4.05825 1.657,-0.13262 1.7889,-0.17194 2.8104,-0.83747 2.149,-1.4001 4.3866,-1.68718 7.1634,-0.91908 0.8236,0.22783 1.7537,0.41517 2.0667,0.41631 0.3365,10e-4 1.3002,-0.33762 2.3576,-0.829 2.1816,-1.01379 3.1192,-1.22813 4.9516,-1.13195 1.2217,0.0641 1.4562,0.12597 1.722,0.45424 1.0867,1.34205 -1.1124,7.35746 -3.0764,8.41515 -0.5609,0.30205 -0.5779,0.30132 -1.0652,-0.0456 -0.5794,-0.41256 -1.3192,-1.22713 -2.4196,-2.66412 -0.4349,-0.56799 -0.8756,-1.0327 -0.9794,-1.0327 -0.3101,0 -0.059,1.22726 0.4928,2.40591 0.6359,1.35878 1.5492,2.26903 3.4364,3.42491 1.131,0.69269 1.6422,1.12803 2.1087,1.79582 1.1117,1.59125 2.8858,6.01582 3.3891,8.45229 0.3371,1.63218 0.5776,6.73496 0.5824,12.35472 v 4.3712 l -0.4579,-0.0167 c -0.2519,-0.009 -0.7514,-0.0855 -1.11,-0.16964 z m -18.1064,-27.24625 c 0.7732,-0.57732 1.0822,-1.15746 1.1527,-2.16445 0.056,-0.80251 0,-1.05458 -0.3263,-1.53861 -0.8704,-1.28081 -2.5461,-1.76246 -3.5058,-1.00762 -1.424,1.12014 -1.2011,3.99842 0.3769,4.8675 0.6916,0.38086 1.6717,0.3141 2.3025,-0.15682 z m 14.1609,-4.63317 c 0.6797,-0.5719 1.5218,-2.31825 1.5654,-3.24608 l 0.035,-0.74017 h -1.3456 c -1.2168,0 -1.404,0.0446 -1.9554,0.46542 -0.7147,0.54564 -0.8829,1.04572 -0.6198,1.84301 0.1894,0.57383 1.407,2.1044 1.6741,2.1044 0.077,0 0.3678,-0.19196 0.6466,-0.42658 z"
         id="path3607"
         transform="translate(-950.96343,-1477.6526)" />
      <path
         style="fill:#ffffff;fill-opacity:1;stroke-width:0.166522"
         d="m 1096.4196,883.10841 c -0.2884,-0.35458 -0.4024,-5.81894 -0.2196,-10.53252 0.264,-6.81048 0.9367,-9.58469 3.1964,-13.1829 1.2959,-2.06363 1.6234,-2.39922 3.2912,-3.37329 1.366,-0.79776 2.5724,-2.05519 3.1205,-3.25241 0.4601,-1.00499 0.7229,-2.58863 0.4297,-2.58863 -0.1,0 -0.6851,0.7221 -1.3004,1.60465 -1.506,2.16004 -2.0871,2.72493 -2.8033,2.72493 -0.4573,0 -0.68,-0.13427 -1.174,-0.70772 -0.8986,-1.04329 -2.0429,-3.50694 -2.333,-5.02317 -0.2799,-1.46289 -0.3229,-2.86184 -0.092,-3.0043 0.085,-0.0526 0.7079,-0.16582 1.3839,-0.25152 2.253,-0.28565 3.7205,0.11613 6.5778,1.80089 l 0.8414,0.49609 1.8073,-0.48934 c 3.6008,-0.975 5.6472,-0.80402 7.5568,0.63138 0.9762,0.73383 0.9825,0.7358 2.8818,0.8906 1.0469,0.0853 2.0855,0.22437 2.3081,0.30899 0.6045,0.22984 1.4348,1.26358 1.5628,1.94566 0.1942,1.03525 -0.024,2.75349 -0.4802,3.77206 -0.6821,1.52498 -1.7194,2.49915 -3.4164,3.20849 -3.4247,1.43152 -3.9399,2.35712 -0.7439,1.33642 1.6906,-0.53991 1.8798,-0.53593 1.8795,0.0395 -2e-4,0.47653 -0.4225,3.03432 -0.586,3.54943 -0.06,0.18819 -0.3357,0.33616 -0.7609,0.408 -0.8547,0.1444 -1.9028,0.9464 -2.6677,2.04131 -0.3313,0.47415 -1.1417,2.13159 -1.801,3.68319 -0.6592,1.5516 -1.3073,2.86282 -1.4402,2.91382 -0.1329,0.051 -0.7262,0.14236 -1.3184,0.20303 -1.5215,0.15589 -2.4543,-0.1408 -3.4257,-1.08969 -0.927,-0.90542 -1.3823,-2.01272 -1.6553,-4.02546 -0.3459,-2.54958 -0.7497,-2.08969 -0.747,0.85063 0,1.71816 0.047,2.01163 0.4408,2.85503 0.404,0.86525 1.6534,2.11768 2.3413,2.34697 0.1339,0.0446 -0.076,0.39018 -0.5704,0.94036 -0.5315,0.59121 -0.8257,1.09081 -0.9184,1.55982 -0.1195,0.60392 -0.2723,0.7846 -1.2251,1.44796 -0.5988,0.41686 -1.8711,1.38908 -2.8274,2.1605 -2.1213,1.71124 -4.2409,3.11269 -5.4767,3.62114 -1.0597,0.43596 -1.3975,0.47315 -1.6359,0.1801 z m 21.8946,-26.92904 c 1.1555,-0.70458 1.5449,-2.49175 0.8352,-3.83382 -0.9035,-1.70847 -2.9626,-1.76494 -4.1853,-0.11478 -0.5265,0.71059 -0.4914,2.34181 0.068,3.16212 0.7473,1.09589 2.2027,1.44463 3.2821,0.78648 z m -15.4164,-4.95994 c 1.0521,-1.11545 1.3104,-1.55394 1.3104,-2.22504 0,-0.48054 -0.093,-0.70022 -0.3747,-0.88256 -0.4573,-0.29632 -1.5516,-0.5511 -2.8309,-0.65913 l -0.9575,-0.0809 v 0.48575 c 0,0.7637 0.5786,2.09367 1.3406,3.08127 0.384,0.49776 0.7488,0.90501 0.8106,0.90501 0.062,0 0.3776,-0.281 0.7015,-0.62445 z"
         id="path3646"
         transform="translate(-950.96343,-1477.6526)" />
      <path
         style="fill:#ffffff;fill-opacity:1;stroke-width:0.166522"
         d="m 1109.282,844.06926 c 0.158,-0.84245 0.9593,-2.37865 1.5036,-2.88279 l 0.4494,-0.41631 0.6267,0.70324 c 0.6949,0.77989 1.8918,2.93441 1.7236,3.10263 -0.059,0.0591 -1.0774,0.1074 -2.263,0.1074 h -2.1555 z"
         id="path3685"
         transform="translate(-950.96343,-1477.6526)" />
      <path
         style="fill:#ffffff;fill-opacity:1;stroke-width:0.166522"
         d="m 1077.3959,844.19142 c 0.2423,-0.84493 1.1677,-2.43988 1.734,-2.98878 l 0.5422,-0.5255 0.4505,0.35435 c 0.6066,0.47716 1.269,1.82908 1.3879,2.83231 l 0.097,0.81963 h -2.1763 -2.1764 z"
         id="path3724"
         transform="translate(-950.96343,-1477.6526)" />
      <path
         style="fill:#ffffff;fill-opacity:1;stroke-width:0.166522"
         d="m 1072.8005,869.75221 c -1.2023,-0.72823 -2.2527,-2.59124 -2.4963,-4.42753 -0.1074,-0.80984 -0.1013,-0.82511 0.3336,-0.82511 1.2449,0 2.2122,0.91759 3.2845,3.11564 0.8249,1.69075 0.8434,2.43785 0.062,2.50717 -0.3031,0.0269 -0.7688,-0.11873 -1.1839,-0.37017 z"
         id="path3763"
         transform="translate(-950.96343,-1477.6526)" />
      <path
         style="fill:#ffffff;fill-opacity:1;stroke-width:0.166522"
         d="m 1116.1371,870.36435 c -0.1262,-0.20409 0.3057,-1.87103 0.7377,-2.8478 0.6939,-1.56865 1.8256,-2.51742 3.0027,-2.51742 h 0.5292 l -0.1123,0.9575 c -0.2316,1.97547 -0.863,3.14576 -2.1039,3.90003 -0.8118,0.49339 -1.8965,0.76159 -2.0534,0.50769 z"
         id="path3802"
         transform="translate(-950.96343,-1477.6526)" />
      <path
         style="fill:#ffffff;fill-opacity:1;stroke-width:0.166522"
         d="m 1129.8138,861.78339 c -0.2219,-2.76375 -2.1435,-4.65865 -4.9924,-4.92294 -0.6674,-0.0619 -1.1997,-0.18562 -1.1829,-0.27489 0.017,-0.0893 0.3733,-0.89293 0.7922,-1.78591 0.8616,-1.8364 0.9361,-1.87712 2.2317,-1.22058 2.0643,1.04607 3.4908,2.72151 3.9672,4.65971 0.2389,0.97196 0.2538,1.34631 0.097,2.42447 -0.1833,1.25721 -0.4826,2.17109 -0.7112,2.17109 -0.064,0 -0.1549,-0.47293 -0.2013,-1.05095 z"
         id="path3841"
         transform="translate(-950.96343,-1477.6526)" />
      <path
         style="fill:#ffffff;fill-opacity:1;stroke-width:0.166522"
         d="m 1128.3577,862.39584 c -1.0508,-1.99331 -4.0956,-2.62506 -5.864,-1.2167 -0.3381,0.26925 -0.6649,0.48955 -0.7262,0.48955 -0.1433,0 0.038,-1.03175 0.3544,-2.01301 0.4826,-1.49842 1.6996,-2.10356 3.3188,-1.6502 1.7782,0.49786 3.5569,2.92883 3.3849,4.62615 l -0.055,0.54664 z"
         id="path3880"
         transform="translate(-950.96343,-1477.6526)" />
      <path
         style="fill:#ffffff;fill-opacity:1;stroke-width:0.166522"
         d="m 1060.5794,862.25165 c -0.1969,-0.23767 -0.2498,-0.81668 -0.2498,-2.73195 0,-2.85448 0.067,-3.0412 1.6534,-4.59978 1.0727,-1.05403 3.0231,-2.20305 3.4569,-2.03658 0.2508,0.0962 1.9105,3.3045 1.7827,3.44602 -0.036,0.04 -0.5902,0.0803 -1.2313,0.0897 -1.4368,0.021 -2.3303,0.43966 -3.4472,1.61531 -0.8646,0.91009 -1.4164,2.15517 -1.6002,3.61049 -0.1057,0.83665 -0.1345,0.8846 -0.3645,0.60684 z"
         id="path3919"
         transform="translate(-950.96343,-1477.6526)" />
      <path
         style="fill:#ffffff;fill-opacity:1;stroke-width:0.166522"
         d="m 1062.1564,861.55299 c 0.4542,-2.42118 2.9079,-4.45266 4.7217,-3.90923 1.2993,0.38928 1.8749,1.13392 2.1137,2.73438 0.1418,0.95052 0.059,0.9708 -1.08,0.26302 -1.6717,-1.03915 -3.0178,-0.8241 -4.7845,0.76433 -0.4666,0.41952 -0.9019,0.76277 -0.9674,0.76277 -0.065,0 -0.067,-0.27687 0,-0.61527 z"
         id="path3958"
         transform="translate(-950.96343,-1477.6526)" />
      <path
         style="fill:#ffffff;fill-opacity:1;stroke-width:0.0294372"
         d="m 1073.3589,855.35503 c -0.6276,-0.15192 -1.096,-0.70308 -1.2392,-1.45834 -0.056,-0.2965 -0.056,-0.48303 -7e-4,-0.74606 0.1431,-0.67568 0.6866,-1.21503 1.3684,-1.35788 0.522,-0.10936 1.067,0.0729 1.5129,0.50572 0.2526,0.24522 0.3063,0.36796 0.3467,0.79348 0.078,0.81741 -0.1229,1.47568 -0.5763,1.88999 -0.3875,0.35421 -0.9145,0.49346 -1.4118,0.37309 z m 0.8372,-1.10245 c 0.064,-0.0324 0.152,-0.1141 0.1965,-0.18152 0.076,-0.11526 0.081,-0.14207 0.081,-0.44834 -2e-4,-0.30602 -0.01,-0.33537 -0.088,-0.48448 -0.1152,-0.20865 -0.2608,-0.30501 -0.4854,-0.32125 -0.315,-0.0228 -0.5259,0.0903 -0.6431,0.34485 -0.063,0.13586 -0.076,0.20856 -0.076,0.41672 -3e-4,0.22127 0.01,0.27338 0.087,0.42552 0.048,0.0954 0.1204,0.19728 0.1609,0.22649 0.166,0.11973 0.5541,0.13086 0.7675,0.022 z"
         id="path4068"
         transform="translate(-950.96343,-1477.6526)" />
      <path
         style="fill:#ffffff;fill-opacity:1;stroke-width:0.0294372"
         d="m 1116.7091,855.59185 c -0.2636,-0.071 -0.4543,-0.18837 -0.6862,-0.42232 -0.408,-0.41174 -0.5653,-0.83156 -0.5692,-1.51931 0,-0.34621 0.01,-0.44972 0.065,-0.64722 0.1988,-0.69307 0.6248,-0.98451 1.4412,-0.98604 0.6978,-0.001 1.2586,0.25642 1.5086,0.69323 0.1617,0.2827 0.2393,0.5555 0.2559,0.9001 0.019,0.39295 -0.037,0.66825 -0.2057,1.00462 -0.1598,0.31919 -0.5345,0.7049 -0.8167,0.84068 -0.3664,0.17626 -0.6832,0.21972 -0.9931,0.13626 z m 0.5302,-0.86895 c 0.3521,-0.0978 0.5743,-0.60131 0.4939,-1.11928 -0.071,-0.461 -0.3264,-0.73387 -0.6848,-0.7332 -0.1828,3.3e-4 -0.4098,0.0965 -0.5295,0.22412 -0.1524,0.16256 -0.2151,0.35094 -0.2143,0.64399 6e-4,0.22535 0.013,0.29061 0.081,0.43677 0.1297,0.27916 0.3354,0.48195 0.5519,0.54403 0.1374,0.0394 0.1719,0.0398 0.3023,0.004 z"
         id="path4107"
         transform="translate(-950.96343,-1477.6526)" />
      <path
         style="fill:#ffffff;fill-opacity:1;stroke-width:0.166522"
         d="m 1093.126,888.41344 c -4.8033,-0.91962 -9.548,-3.78038 -10.956,-6.6059 -0.7669,-1.5389 -0.5201,-3.48765 0.4413,-3.48602 0.5179,8.9e-4 1.1311,0.42229 3.0296,2.08207 4.4165,3.86093 6.5779,4.98655 9.5751,4.98655 2.9382,0 5.2314,-1.14169 9.9498,-4.95352 1.3637,-1.10165 2.4804,-1.78267 2.9232,-1.78267 0.8647,0 1.0796,2.00138 0.3681,3.42901 -1.1791,2.36627 -5.1529,5.00281 -9.0438,6.00053 -1.997,0.51206 -4.6177,0.64959 -6.2873,0.32995 z"
         id="path4293"
         transform="translate(-950.96343,-1477.6526)" />
      <path
         style="fill:#ffffff;fill-opacity:1;stroke-width:0.166522"
         d="m 1093.1813,953.16378 c -2.1074,-0.51091 -4.2465,-1.99875 -5.7741,-4.01617 -0.9607,-1.26868 -2.6088,-4.40676 -2.7723,-5.2787 -0.072,-0.38127 0.1427,-1.75458 0.6565,-4.20707 1.5886,-7.58379 2.0882,-11.29955 2.2143,-16.46961 0.1372,-5.62654 -0.2626,-8.3943 -1.6127,-11.16321 -2.6213,-5.37589 -9.3317,-5.93582 -13.3444,-1.1135 -0.8879,1.06698 -1.8613,3.04457 -2.2209,4.51195 -0.2276,0.92884 -0.3424,1.16306 -0.5043,1.0287 -0.1153,-0.0957 -0.5896,-1.12809 -1.0541,-2.29425 -1.988,-4.99119 -2.3352,-7.52685 -1.5963,-11.65922 0.3631,-2.03095 0.3018,-2.04914 -1.648,-0.48877 -1.3029,1.04277 -2.8279,1.86635 -3.1949,1.72551 -0.5758,-0.22095 -0.025,-2.38515 1.4347,-5.63652 0.4644,-1.03449 1.3487,-3.11732 1.9651,-4.62851 0.6165,-1.51118 1.4146,-3.19899 1.7735,-3.75068 0.359,-0.55169 0.9525,-1.61441 1.3188,-2.36159 0.5066,-1.03329 0.7488,-1.36123 1.0114,-1.36987 0.19,-0.006 1.0517,-0.13258 1.915,-0.28076 2.5385,-0.43569 5.0491,-1.42343 7.4136,-2.91672 0.5607,-0.35413 1.0635,-0.64388 1.1173,-0.64388 0.054,0 0.3645,0.50581 0.6905,1.12402 2.1162,4.01383 6.3756,6.54615 12.1394,7.21723 3.8846,0.45229 8.8798,-0.44593 11.7127,-2.1061 1.7652,-1.03447 4.1885,-3.53483 5.0233,-5.18309 0.1941,-0.38303 0.4339,-0.74656 0.5331,-0.80784 0.099,-0.0613 0.6901,0.22763 1.3133,0.64202 2.3771,1.58064 4.8398,2.55668 7.4201,2.94075 2.0623,0.30698 2.1578,0.3672 2.831,1.78554 0.3253,0.68534 0.8963,1.69499 1.2689,2.24367 0.3726,0.54868 1.0012,1.87176 1.3968,2.94017 0.3956,1.06842 1.2149,3.10406 1.8207,4.52366 1.1712,2.74481 2.0911,5.4104 2.0911,6.05966 0,1.16268 -1.0544,0.8052 -3.4242,-1.16098 -1.477,-1.2254 -1.9045,-1.45032 -1.9045,-1.00197 0,0.12827 0.156,1.27103 0.3466,2.53946 0.2432,1.61808 0.3145,2.65407 0.2391,3.4719 -0.2041,2.21095 -1.2429,5.5804 -2.4643,7.99306 l -0.6744,1.33218 -0.2788,-0.91587 c -1.0724,-3.52226 -4.1317,-6.92917 -6.9852,-7.77892 -4.4228,-1.31704 -8.4959,1.86043 -10.1202,7.89489 -0.4258,1.58174 -0.4387,1.76715 -0.4149,5.96208 0.036,6.38878 0.2846,8.49589 1.9826,16.81874 1.071,5.24979 1.074,5.54417 0.077,7.52791 -2.6573,5.28517 -7.279,8.02672 -11.7175,6.9507 z"
         id="path4332"
         transform="translate(-950.96343,-1477.6526)" />
      <path
         style="fill:#ffffff;fill-opacity:1;stroke-width:0.166522"
         d="m 1112.6854,949.61063 c -0.9887,-0.38682 -2.1267,-1.17416 -2.7916,-1.93149 -1.9471,-2.21764 -3.8651,-8.71575 -4.8418,-16.40421 -0.9415,-7.41108 -0.7688,-13.8836 0.4565,-17.10831 1.2122,-3.19027 4.2865,-4.92342 7.3438,-4.14016 2.4607,0.63039 3.528,1.63405 5.083,4.77999 1.4907,3.01559 1.5071,3.13673 1.3291,9.78314 -0.1888,7.04811 -0.1939,12.91144 -0.013,14.45132 l 0.1399,1.18835 -1.8051,0.0619 c -1.6003,0.0548 -1.8926,0.1131 -2.5755,0.51344 -0.9424,0.55241 -1.7264,1.71741 -1.9933,2.96192 -0.2627,1.2246 -0.095,3.65671 0.3382,4.89444 0.5057,1.44634 0.5259,1.41782 -0.6706,0.9497 z"
         id="path4371"
         transform="translate(-950.96343,-1477.6526)" />
      <path
         style="fill:#ffffff;fill-opacity:1;stroke-width:0.166522"
         d="m 1076.7342,949.38421 c 0,-0.11448 0.1622,-0.69523 0.3578,-1.29054 0.509,-1.54874 0.5015,-3.88456 -0.017,-5.21747 -0.7529,-1.93674 -1.8077,-2.7224 -3.9588,-2.94873 -0.8049,-0.0847 -1.545,-0.15532 -1.6446,-0.15695 -0.1259,-0.002 -0.2273,-2.55231 -0.333,-8.37069 -0.2138,-11.7714 -0.1926,-12.94656 0.2585,-14.27928 0.5409,-1.59801 2.2942,-4.90043 2.9726,-5.59893 1.6284,-1.67668 5.2575,-2.37794 7.4005,-1.43001 5.1178,2.26388 5.8123,13.71528 1.7869,29.46477 -1.5965,6.24625 -3.0899,9.01509 -5.2848,9.7984 -0.799,0.28511 -1.5413,0.29932 -1.5385,0.0294 z"
         id="path4410"
         transform="translate(-950.96343,-1477.6526)" />
      <path
         style="fill:#ffffff;fill-opacity:1;stroke-width:0.166522"
         d="m 1094.4516,986.01908 c -0.3886,-0.3057 -0.6962,-0.37699 -1.6708,-0.38725 -1.0319,-0.0109 -1.2642,-0.0713 -1.707,-0.44383 -0.6123,-0.51528 -1.3306,-0.6985 -2.1418,-0.54633 -0.5526,0.10367 -0.6415,0.0593 -1.2174,-0.60837 l -0.6212,-0.7202 -1.0839,0.0339 c -1.0504,0.0328 -1.0901,0.019 -1.2827,-0.4459 -0.2901,-0.70043 -0.6874,-0.99433 -1.7775,-1.31476 -0.9265,-0.27235 -0.9966,-0.33194 -1.5018,-1.27666 -0.6382,-1.1933 -1.2351,-1.74245 -1.8939,-1.74245 -0.3484,0 -0.4903,-0.0811 -0.4903,-0.28011 0,-0.15405 0.5372,-1.24973 1.1937,-2.43484 0.6565,-1.1851 1.3707,-2.64254 1.5871,-3.23874 0.5605,-1.54405 2.7291,-10.5881 2.8248,-11.78092 0.067,-0.83903 -0.03,-1.35936 -0.6068,-3.24718 -0.8724,-2.85413 -0.9761,-4.20304 -0.5891,-7.66002 0.159,-1.4196 0.3424,-2.67887 0.4076,-2.79839 0.074,-0.135 0.2914,0.2232 0.5749,0.94581 1.2246,3.1213 3.8998,5.59463 7.3468,6.79233 1.1975,0.41609 1.5594,0.46336 3.5802,0.46755 1.9246,0.004 2.4083,-0.0507 3.3621,-0.38028 3.1651,-1.09362 7.0574,-5.02039 7.5414,-7.60811 0.2072,-1.10843 0.3666,-0.28148 0.6013,3.12085 0.2452,3.55324 0.1319,4.74529 -0.7056,7.42651 -0.6939,2.22146 -0.6176,3.44363 0.5211,8.3529 1.4216,6.12847 2.1118,8.11699 3.7648,10.84572 0.3124,0.51571 0.568,1.01571 0.568,1.11111 0,0.0954 -0.2563,0.25803 -0.5695,0.36139 -0.658,0.21715 -1.7534,1.33903 -2.0795,2.12969 -0.2234,0.54176 -0.313,0.58721 -1.5485,0.78546 -0.6464,0.10372 -1.0984,0.53554 -1.4505,1.38558 -0.1916,0.46247 -0.2386,0.47939 -1.2907,0.46475 -1.088,-0.0151 -1.094,-0.0127 -1.7149,0.70739 -0.5273,0.61149 -0.71,0.71769 -1.1886,0.69084 -1.2915,-0.0725 -1.6423,0.007 -2.2047,0.50114 -0.5382,0.47254 -0.6227,0.49346 -1.5857,0.3928 -0.917,-0.0958 -1.0827,-0.063 -1.6818,0.33349 -0.3656,0.2419 -0.6936,0.43981 -0.729,0.43981 -0.035,0 -0.2787,-0.1686 -0.5406,-0.37467 z m 1.483,-2.14679 c 0.2001,-0.10459 0.6834,-0.48187 1.074,-0.83841 l 0.7103,-0.64823 0.6219,0.48584 c 0.7584,0.59247 1.3634,0.74923 1.9842,0.51405 0.6711,-0.2543 1.1922,-0.78797 1.6528,-1.69286 l 0.401,-0.78781 0.54,0.32925 c 0.7621,0.46467 1.7194,0.42092 2.7886,-0.12744 1.9715,-1.01117 1.9678,-1.55856 -0.08,-12.0742 -1.1769,-6.04255 -1.5411,-7.35607 -2.2497,-8.11466 -0.7622,-0.81589 -2.1266,-0.67836 -2.9492,0.29727 l -0.3662,0.43436 -0.7475,-0.37333 c -0.6974,-0.34832 -0.7844,-0.35647 -1.299,-0.12169 -0.3033,0.13839 -0.7059,0.36586 -0.8947,0.50549 -0.315,0.23307 -0.3892,0.21983 -0.9065,-0.16184 -0.7448,-0.54949 -1.5464,-0.54279 -2.3581,0.0197 l -0.6283,0.43541 -0.5174,-0.43541 c -0.5691,-0.47879 -1.2236,-0.55369 -2.0926,-0.23946 -0.5104,0.18456 -0.581,0.16059 -1.2149,-0.41207 -0.8098,-0.73162 -1.3032,-0.87841 -2.0852,-0.62033 -1.0366,0.34211 -1.4538,1.17428 -1.9398,3.86942 -0.177,0.98122 -0.8926,4.24089 -1.5903,7.24371 -1.4989,6.45097 -1.6037,7.53362 -0.8417,8.6884 0.8118,1.23031 2.2753,1.656 3.517,1.02297 0.3534,-0.18021 0.6993,-0.29261 0.7686,-0.24978 0.069,0.0428 0.3599,0.49229 0.6458,0.99879 0.9434,1.67168 2.2244,2.02917 3.5756,0.99782 l 0.7586,-0.57908 0.4092,0.60208 c 0.225,0.33114 0.6199,0.74111 0.8777,0.91103 0.5345,0.35246 1.8668,0.41862 2.4361,0.12099 z"
         id="path4449"
         transform="translate(-950.96343,-1477.6526)" />
      <path
         style="fill:#ffffff;fill-opacity:1;stroke-width:0.0832611"
         d="m 1094.255,982.28235 c -0.452,-0.20532 -0.7576,-0.58926 -0.9237,-1.16039 -0.1842,-0.63364 -0.1203,-2.36062 0.2146,-5.80193 0.1382,-1.4196 0.3645,-3.94865 0.503,-5.62012 0.4003,-4.8319 0.5555,-6.1276 0.8105,-6.76496 0.1455,-0.36381 0.2564,-0.3879 0.5157,-0.11198 0.2229,0.23729 0.2931,0.72017 0.4188,2.88041 0.2026,3.48334 0.2818,6.41548 0.2888,10.69905 l 0.01,4.57936 -0.1914,0.41526 c -0.2344,0.50849 -0.4741,0.77775 -0.8259,0.92764 -0.3426,0.14601 -0.411,0.14247 -0.8179,-0.0423 z m 0.6563,-1.76296 c 0.4132,-0.32504 0.4215,-0.45356 0.4179,-6.4899 0,-5.37611 -0.071,-7.28432 -0.2723,-7.64377 -0.099,-0.17724 -0.2384,1.41388 -0.341,3.89702 -0.048,1.16774 -0.1658,3.17225 -0.2613,4.45447 -0.096,1.28222 -0.1787,3.09281 -0.1849,4.02353 -0.011,1.58597 0,1.69968 0.1504,1.81093 0.209,0.15348 0.2329,0.15094 0.4912,-0.0523 z"
         id="path4598"
         transform="translate(-950.96343,-1477.6526)" />
      <path
         style="fill:#ffffff;fill-opacity:1;stroke-width:0.0832611"
         d="m 1099.3328,981.35988 c -0.2382,-0.0965 -0.6779,-0.61531 -0.8346,-0.98484 -0.073,-0.17288 -0.1632,-0.7495 -0.204,-1.30826 -0.1229,-1.6845 -0.272,-10.75243 -0.2223,-13.52335 0.043,-2.40931 0.06,-2.63314 0.2071,-2.83088 0.3729,-0.49998 0.6312,-0.21902 0.8064,0.87728 0.065,0.40686 0.2721,2.06984 0.4602,3.69551 0.188,1.62567 0.5064,4.1922 0.7075,5.70338 0.6747,5.07115 0.7909,6.80933 0.5016,7.50174 -0.298,0.71331 -0.8994,1.08103 -1.4219,0.86942 z m 0.391,-1.84688 c 0.1723,-0.17233 0.1766,-0.22543 0.1301,-1.60277 -0.027,-0.7835 -0.1626,-2.52152 -0.3025,-3.86228 -0.1399,-1.34075 -0.3305,-3.39835 -0.4235,-4.57244 -0.162,-2.04667 -0.2126,-2.46437 -0.3203,-2.6481 -0.1839,-0.31358 -0.2307,3.23446 -0.094,7.16045 0.1183,3.40728 0.2868,5.08748 0.5532,5.51604 0.145,0.23327 0.2315,0.23499 0.4574,0.009 z"
         id="path4637"
         transform="translate(-950.96343,-1477.6526)" />
      <path
         style="fill:#ffffff;fill-opacity:1;stroke-width:0.0832611"
         d="m 1104,980.32225 c -0.4173,-0.18682 -0.8011,-0.66009 -0.929,-1.14556 -0.1753,-0.66536 -0.4706,-3.12689 -1.0668,-8.89395 -0.6855,-6.63074 -0.7476,-7.41979 -0.6334,-8.03791 0.083,-0.45027 0.2704,-0.78776 0.4369,-0.78776 0.118,0 0.3929,0.51116 0.5326,0.9901 0.072,0.2469 0.3506,1.53953 0.6191,2.87251 0.2685,1.33298 0.7179,3.51016 0.9987,4.83817 1.3102,6.19533 1.499,7.26545 1.499,8.4954 0,0.99953 -0.1645,1.38582 -0.6918,1.62525 -0.4124,0.18724 -0.4411,0.18888 -0.7653,0.0438 z m 0.2866,-1.74928 c 0.2932,-0.3532 0.1788,-1.82686 -0.3353,-4.32025 -0.3375,-1.63707 -0.7489,-3.89069 -1.2869,-7.05064 -0.1677,-0.98456 -0.3385,-1.82571 -0.3797,-1.86921 -0.1108,-0.11713 -0.092,0.71725 0.052,2.28552 0.237,2.5891 1.0473,9.61639 1.1722,10.16737 0.1709,0.75342 0.5162,1.10276 0.778,0.78721 z"
         id="path4676"
         transform="translate(-950.96343,-1477.6526)" />
      <path
         style="fill:#ffffff;fill-opacity:1;stroke-width:0.0832611"
         d="m 1089.5457,981.58309 c -0.1556,-0.10433 -0.3953,-0.3947 -0.5327,-0.64528 -0.249,-0.45419 -0.2498,-0.4597 -0.2442,-1.78777 0.01,-1.36437 0.05,-1.75347 0.6596,-5.78664 0.1558,-1.03036 0.4562,-3.35334 0.6677,-5.16219 0.5294,-4.52923 0.759,-5.78999 1.1126,-6.10998 0.1454,-0.13155 0.1679,-0.1321 0.2928,-0.007 0.3484,0.3484 0.3428,0.23341 0.3313,6.86649 -0.012,6.92594 -0.1204,10.78549 -0.322,11.46423 -0.3351,1.12838 -1.2306,1.66076 -1.9651,1.1683 z m 0.915,-1.75699 c 0.1024,-0.109 0.2375,-0.36866 0.3002,-0.57702 0.2855,-0.94866 0.6164,-12.70335 0.3754,-13.33713 -0.1446,-0.38026 -0.2228,-0.15898 -0.2807,0.79342 -0.083,1.36712 -0.6042,6.92913 -0.8464,9.03238 -0.4043,3.51218 -0.4119,3.62621 -0.2635,3.97431 0.1599,0.37514 0.4293,0.41812 0.715,0.11404 z"
         id="path4715"
         transform="translate(-950.96343,-1477.6526)" />
      <path
         style="fill:#ffffff;fill-opacity:1;stroke-width:0.0832611"
         d="m 1084.8305,980.64175 c -0.1843,-0.0941 -0.3419,-0.28529 -0.4996,-0.60639 -0.2184,-0.44489 -0.2299,-0.52683 -0.2235,-1.59304 0.01,-1.44708 0.2191,-2.69543 0.9534,-5.65609 0.313,-1.26243 0.78,-3.32569 1.0376,-4.58502 1.0667,-5.2147 1.4539,-6.73086 1.7985,-7.04273 0.1734,-0.15688 0.1771,-0.15598 0.3747,0.0909 0.2859,0.35725 0.3132,0.63211 0.2047,2.05869 -0.1162,1.52721 -0.753,8.22491 -1.047,11.01285 -0.4621,4.38185 -0.771,5.76675 -1.3891,6.2282 -0.2951,0.22036 -0.8727,0.26459 -1.2097,0.0927 z m 1.0816,-2.10353 c 0.376,-0.84994 0.7916,-3.69538 1.3487,-9.23321 0.2907,-2.88977 0.3674,-4.43424 0.2202,-4.43424 -0.1036,0 -0.1891,0.40687 -0.7175,3.41371 -0.2535,1.44249 -0.6663,3.69804 -0.9173,5.01231 -0.6531,3.41896 -0.7883,4.25809 -0.7868,4.88321 0,0.58073 0.043,0.7107 0.2485,0.77749 0.2518,0.0818 0.4405,-0.0492 0.6042,-0.41927 z"
         id="path4754"
         transform="translate(-950.96343,-1477.6526)" />
      <path
         style="fill:#ffffff;fill-opacity:1;stroke-width:0.0832611"
         d="m 1139.6587,976.0239 c -0.6479,-0.0755 -1.3164,-0.35713 -1.7487,-0.73673 -0.3159,-0.27731 -0.9275,-1.18404 -1.391,-2.06224 -0.423,-0.80155 -0.5252,-0.86906 -1.1727,-0.77548 -0.2969,0.0429 -0.9893,0.0784 -1.5388,0.0788 -1.1858,0.001 -1.5147,-0.11568 -2.3607,-0.83778 -0.2902,-0.24765 -0.6351,-0.53835 -0.7665,-0.64599 l -0.239,-0.19571 -0.5914,0.39319 c -0.9702,0.64497 -1.7067,0.84333 -2.2974,0.61875 -0.1261,-0.048 -0.39,-0.23529 -0.5864,-0.4163 -0.3973,-0.36627 -0.7585,-0.42905 -1.1887,-0.2066 -0.7205,0.3726 -1.5952,0.30188 -2.0639,-0.16687 -0.169,-0.16901 -0.272,-0.35479 -0.272,-0.49057 0,-0.43158 -0.625,-0.47248 -1.2992,-0.085 -0.26,0.14945 -0.414,0.33412 -0.6448,0.7733 -0.3902,0.74254 -0.9218,1.32937 -1.6203,1.78859 -0.8135,0.53479 -1.231,0.66992 -1.9177,0.62079 -0.7556,-0.0541 -1.3887,-0.35185 -2.012,-0.94633 -0.6251,-0.5963 -0.9154,-1.1571 -0.9154,-1.76862 0,-0.54122 0.1618,-0.83796 0.7025,-1.28817 l 0.3799,-0.31637 v -1.03252 c 0,-1.22255 -0.09,-1.6993 -0.4678,-2.4884 -0.1786,-0.37271 -0.2809,-0.71014 -0.2797,-0.92291 0,-0.74819 0.5348,-1.39096 1.5855,-1.92007 1.1467,-0.57746 1.6467,-0.49257 3.2413,0.55034 1.5279,0.99927 1.7934,1.11528 1.9952,0.87208 0.08,-0.0968 0.029,-0.28193 -0.2575,-0.93669 -0.5071,-1.15729 -3.5043,-7.17422 -5.0782,-10.19452 -1.461,-2.80372 -2.0627,-4.12807 -2.5191,-5.54459 -0.7333,-2.27619 -0.5763,-3.78073 0.5176,-4.95896 0.8247,-0.88835 2.1237,-1.47445 3.2679,-1.47445 1.2719,0 1.5814,0.40331 2.364,3.08066 1.1795,4.03515 2.1629,6.55076 4.0848,10.44926 2.229,4.52144 4.2051,7.41112 5.2628,7.69593 0.6544,0.1762 1.2134,-0.24606 2.0787,-1.57003 1.4571,-2.22967 1.7636,-2.67008 2.3139,-3.32482 0.7244,-0.86192 2.0712,-2.17888 2.7075,-2.64763 0.5628,-0.41458 1.4058,-0.89692 1.4647,-0.83805 0.024,0.0238 -0.071,0.26938 -0.2104,0.5457 -0.3225,0.63893 -0.4599,1.50089 -0.3892,2.44264 0.1023,1.36475 0.4186,1.95193 1.2789,2.37441 0.4118,0.20222 0.5739,0.23385 1.1848,0.23128 0.8605,-0.004 1.2417,-0.15529 1.9516,-0.77648 0.4483,-0.3923 0.5061,-0.42031 0.6242,-0.30204 0.098,0.0984 0.1284,0.29784 0.1229,0.81408 -0.014,1.36615 -0.5189,2.46575 -1.6536,3.60542 -1.3725,1.37841 -3.0136,2.12192 -5.2285,2.36885 -1.4096,0.15715 -2.5267,0.008 -4.4534,-0.59405 -0.6059,-0.18938 -1.1585,-0.32248 -1.2281,-0.29579 -0.2151,0.0826 -0.1484,0.46603 0.1257,0.72208 0.6341,0.59232 2.2183,0.85107 5.2847,0.86315 3.3462,0.0132 3.4197,-0.0157 5.7034,-2.24222 1.499,-1.46145 1.9703,-1.87034 2.1558,-1.87034 0.05,0 0.1138,0.1471 0.1426,0.32689 0.029,0.1798 0.1207,0.43955 0.2045,0.57724 0.408,0.67096 1.9899,1.54358 3.4626,1.91004 0.4969,0.12367 0.9747,0.26696 1.0618,0.31843 0.1887,0.11162 0.3266,0.89348 0.2478,1.40512 -0.3003,1.94925 -3.6153,2.91864 -6.1515,1.79884 -0.2287,-0.10099 -0.6445,-0.33238 -0.9239,-0.5142 l -0.508,-0.33059 -1.4903,0.24472 c -3.6185,0.59421 -4.5258,0.55392 -7.3037,-0.32432 -1.4065,-0.44467 -1.5568,-0.47492 -1.5521,-0.31243 0.01,0.28513 0.7709,0.90873 1.4071,1.15047 0.9524,0.3619 1.7024,0.4279 5.5006,0.48406 l 3.6218,0.0536 0.5962,0.26932 c 0.328,0.14813 0.7779,0.31126 1,0.36252 l 0.4037,0.0932 -0.031,1.47924 -0.031,1.47923 0.3005,0.66553 c 0.3473,0.76927 0.3664,0.99707 0.1251,1.49548 -0.341,0.70446 -1.2488,1.19507 -2.5019,1.3522 -0.7537,0.0945 -0.7719,0.0945 -1.5877,-5e-4 z"
         id="path4793"
         transform="translate(-950.96343,-1477.6526)" />
      <path
         style="fill:#ffffff;fill-opacity:1;stroke-width:0.0832611"
         d="m 1048.9659,975.61085 c -1.5613,-0.19511 -2.402,-0.67306 -2.6222,-1.49061 -0.1061,-0.3942 -0.048,-0.70829 0.2804,-1.50619 0.2368,-0.5762 0.2564,-0.69846 0.2531,-1.58196 0,-0.52663 -0.047,-1.10335 -0.1,-1.28161 -0.062,-0.20968 -0.068,-0.37585 -0.018,-0.47064 0.1094,-0.2044 0.6782,-0.46362 1.4508,-0.66122 0.596,-0.15244 0.9215,-0.16762 3.5936,-0.16762 3.1801,0 4.1682,-0.0793 5.6396,-0.45253 1.3477,-0.34189 2.1053,-0.75151 2.0388,-1.10242 -0.045,-0.23552 -0.4825,-0.2319 -1.0542,0.009 -0.6521,0.27444 -1.5435,0.51166 -2.4286,0.64629 -1.0726,0.16316 -3.6378,0.13828 -5.1369,-0.0498 -1.4832,-0.1861 -1.9785,-0.1381 -2.943,0.28523 -0.7956,0.3492 -1.7122,0.5043 -3.001,0.50781 -1.6049,0.004 -2.1316,-0.1499 -2.7307,-0.79991 -1.1119,-1.20624 -1.0508,-2.86997 0.1056,-2.87485 0.5367,-0.002 1.4086,-0.21479 1.9314,-0.47079 0.6584,-0.32239 1.1467,-0.78572 1.9113,-1.81372 0.3591,-0.48288 0.6784,-0.87796 0.7095,-0.87796 0.031,0 0.5314,0.54023 1.1117,1.20051 2.564,2.91717 2.9225,3.09242 6.2936,3.07678 1.9852,-0.009 3.127,-0.11921 4.3255,-0.41676 0.9503,-0.23588 1.5332,-0.61183 1.3667,-0.88131 -0.08,-0.12948 -0.8864,-0.0162 -1.654,0.23243 -1.8067,0.5851 -3.7565,0.62298 -5.6074,0.10892 -2.4685,-0.68556 -4.3854,-2.24291 -5.0949,-4.13932 -0.4491,-1.20033 -0.5389,-2.59496 -0.167,-2.59496 0.041,0 0.2709,0.20672 0.512,0.45937 0.6138,0.64313 1.1983,0.91594 1.9479,0.90919 0.7373,-0.007 1.2195,-0.21404 1.8215,-0.78337 0.6338,-0.59943 0.9126,-1.23815 0.953,-2.18365 0.035,-0.8146 -0.083,-1.28838 -0.5162,-2.07952 -0.1423,-0.25984 -0.2327,-0.49856 -0.2007,-0.5305 0.1596,-0.15962 2.1592,1.31713 3.2609,2.40821 1.3143,1.30168 2.1663,2.45234 2.9052,3.92343 0.6763,1.34645 1.219,1.92682 1.8855,2.01621 0.7997,0.10727 1.9386,-0.8702 2.9322,-2.51657 2.3146,-3.83518 5.783,-11.36769 6.8047,-14.77804 0.9038,-3.01685 1.1263,-3.44823 1.885,-3.65504 0.4125,-0.11242 1.0121,-0.1159 1.661,-0.01 1.4028,0.22971 2.6941,1.46997 3.0823,2.96042 0.1579,0.60629 0.1622,1.73426 0.01,2.45549 -0.3028,1.42835 -1.4458,3.85342 -4.2566,9.03107 -3.5983,6.62842 -4.334,8.35073 -3.603,8.43518 0.2672,0.0309 0.5702,-0.11517 1.3913,-0.67045 1.0433,-0.7055 1.4328,-0.84988 2.2986,-0.85212 0.6491,-0.002 0.8162,0.0293 1.2489,0.23154 0.8921,0.41695 1.3683,1.0477 1.372,1.8173 0,0.23332 -0.1096,0.69358 -0.2804,1.16566 -0.7018,1.94015 -0.5853,3.19412 0.3798,4.08714 0.4065,0.37616 0.4226,0.40761 0.3783,0.73832 -0.068,0.50714 -0.5086,1.33945 -0.9846,1.86032 -1.2739,1.39386 -3.2974,1.33477 -4.7065,-0.13743 -0.2752,-0.28755 -0.6534,-0.78508 -0.8404,-1.10564 -0.4541,-0.77858 -0.6002,-0.90993 -1.3346,-1.19939 l -0.4293,-0.16923 -0.2703,0.50701 c -0.3636,0.68222 -0.7585,0.94648 -1.3944,0.93312 -0.2726,-0.006 -0.6322,-0.0829 -0.8679,-0.18635 -0.5308,-0.23292 -0.6038,-0.22655 -1.3161,0.11484 -1.0246,0.49103 -1.8241,0.38535 -2.8192,-0.37267 -0.2977,-0.22674 -0.5807,-0.41361 -0.6291,-0.41528 -0.048,-0.002 -0.2839,0.20385 -0.5235,0.4567 -0.6069,0.6403 -1.0357,0.93056 -1.6592,1.12313 -0.6616,0.20436 -1.4526,0.21274 -2.4955,0.0265 -0.9369,-0.16734 -0.8756,-0.20649 -1.5222,0.97179 -0.7952,1.44885 -1.4017,2.10711 -2.2256,2.41538 -0.5399,0.20201 -1.4771,0.26903 -2.3086,0.16511 z"
         id="path4832"
         transform="translate(-950.96343,-1477.6526)" />
      <path
         style="fill:#ffffff;fill-opacity:1;stroke-width:0.0832611"
         d="m 1077.6789,975.1558 c -0.034,-0.0891 0.047,-0.28206 0.224,-0.52921 1.128,-1.57892 1.2731,-1.92502 1.2801,-3.0533 0,-0.76722 -0.013,-0.86382 -0.2284,-1.22997 -0.1284,-0.21854 -0.388,-0.49955 -0.5767,-0.62446 -0.314,-0.20781 -0.4291,-0.23063 -1.3549,-0.26873 -0.9426,-0.0388 -1.0321,-0.0572 -1.311,-0.26991 -0.1671,-0.12748 -0.4001,-0.43449 -0.5277,-0.69529 -0.6159,-1.25887 0.021,-2.96045 1.2434,-3.32356 0.8398,-0.2494 2.0065,-0.1124 2.7492,0.32281 0.8504,0.49841 1.6976,1.73736 2.0287,2.96682 0.2288,0.84977 0.2038,2.59999 -0.049,3.4137 -0.4591,1.47892 -1.2433,2.4869 -2.3552,3.02746 -0.7974,0.38763 -1.0523,0.44749 -1.1228,0.26364 z"
         id="path4871"
         transform="translate(-950.96343,-1477.6526)" />
      <path
         style="fill:#ffffff;fill-opacity:1;stroke-width:0.0832611"
         d="m 1111.4496,975.00557 c -1.2325,-0.42021 -2.0231,-1.333 -2.5049,-2.89209 -0.2735,-0.88509 -0.2757,-2.41791 0,-3.36636 0.4117,-1.44139 1.3954,-2.81262 2.3152,-3.2274 0.5022,-0.22644 1.9121,-0.31015 2.4915,-0.14793 0.5067,0.14186 1.0523,0.64247 1.2882,1.18188 0.2722,0.62275 0.323,1.73717 0.098,2.14711 -0.2308,0.42014 -0.8688,0.72044 -1.9324,0.90956 -1.8971,0.33734 -2.222,0.71634 -2.1465,2.50414 0.041,0.98189 0.1211,1.19376 0.8263,2.19795 0.4244,0.60426 0.5066,0.88422 0.2587,0.88056 -0.08,-10e-4 -0.3903,-0.0855 -0.6892,-0.18742 z"
         id="path4910"
         transform="translate(-950.96343,-1477.6526)" />
      <path
         style="fill:#ffffff;fill-opacity:1;stroke-width:0.0832611"
         d="m 1097.6305,1013.5703 c -0.206,-0.04 -0.5245,-0.1781 -0.7077,-0.3063 -0.3564,-0.2496 -0.8289,-0.9573 -0.9574,-1.434 -0.198,-0.7349 -0.2823,-4.4704 -0.2848,-12.61404 0,-8.77923 0.066,-11.19504 0.3338,-11.71258 0.2131,-0.41219 0.6956,-0.88723 0.9602,-0.94533 1.0221,-0.22449 1.5249,1.05936 1.9899,5.08115 0.2869,2.48204 0.573,4.26854 1.2466,7.78491 0.2237,1.16769 0.6972,3.84669 1.0522,5.95319 0.5908,3.5049 0.6456,3.9289 0.6465,4.9956 8e-4,1.0228 -0.023,1.2252 -0.1911,1.6513 -0.3399,0.8596 -0.9288,1.3364 -1.9067,1.5439 -0.5084,0.1079 -1.6347,0.109 -2.1815,0 z m 1.2962,-2.3618 c 0.4837,-0.202 0.5773,-0.5315 0.5686,-2.0012 -0.01,-1.4123 -0.075,-2.0388 -0.5338,-5.0373 -0.5494,-3.5889 -0.6427,-4.44429 -1.0906,-9.99134 -0.2385,-2.95368 -0.4623,-5.4032 -0.4974,-5.44337 -0.035,-0.0402 -0.1135,0.091 -0.174,0.29141 -0.2416,0.79931 -0.091,18.711 0.1769,21.1036 0.076,0.6788 0.2014,0.8947 0.6288,1.0834 0.328,0.1447 0.566,0.1434 0.9215,-0.01 z"
         id="path4949"
         transform="translate(-950.96343,-1477.6526)" />
      <path
         style="fill:#ffffff;fill-opacity:1;stroke-width:0.0832611"
         d="m 1090.0121,1013.5772 c -0.6041,-0.1204 -1.0405,-0.3466 -1.3371,-0.6932 -0.4291,-0.5012 -0.571,-1.0692 -0.5651,-2.2613 0.01,-1.2305 0.1,-1.9675 0.6154,-4.8291 0.2227,-1.2364 0.4468,-2.5853 0.4979,-2.9974 0.051,-0.4122 0.2388,-1.3676 0.4169,-2.1232 0.4265,-1.80892 0.6065,-2.86348 0.9167,-5.37031 0.478,-3.86219 1.034,-6.69705 1.5364,-7.8338 0.4511,-1.02043 0.9398,-1.21817 1.5364,-0.62163 0.4619,0.46195 0.5718,0.71832 0.6681,1.55806 0.107,0.93412 0.1083,16.33438 0,19.88608 -0.108,3.598 -0.166,3.8672 -1.0456,4.85 l -0.4657,0.5204 -1.2215,-0.01 c -0.6718,0 -1.3713,-0.039 -1.5545,-0.075 z m 1.7832,-2.227 c 0.4514,-0.4514 0.7965,-1.852 1.0103,-4.0995 0.1073,-1.1279 0.2122,-15.37992 0.1229,-16.69026 -0.033,-0.48283 -0.089,-0.87787 -0.1252,-0.87787 -0.1708,0 -0.3914,1.46069 -0.792,5.24544 -0.5952,5.62319 -0.7206,6.66689 -1.0901,9.07549 -0.6025,3.9279 -0.7232,4.8962 -0.7332,5.8836 -0.01,0.8821 0,0.9411 0.1988,1.1559 0.526,0.5719 1.0332,0.6825 1.4085,0.3072 z"
         id="path4988"
         transform="translate(-950.96343,-1477.6526)" />
      <path
         style="fill:#ffffff;fill-opacity:1;stroke-width:0.0832611"
         d="m 1082.8825,1012.4126 c -0.9606,-0.2425 -1.8788,-0.9051 -2.1743,-1.569 -0.6723,-1.5103 -0.2356,-3.4624 2.3124,-10.3371 0.6534,-1.76305 1.5885,-4.32957 2.0779,-5.70338 1.6355,-4.59087 2.762,-7.24441 3.56,-8.38546 0.5452,-0.77953 0.9324,-0.9215 1.3434,-0.49252 0.1812,0.18911 0.2474,0.36753 0.3168,0.85342 0.1189,0.83262 0.027,3.09079 -0.1827,4.48597 -0.093,0.61821 -0.3567,2.41665 -0.5863,3.99653 -0.5175,3.56016 -0.7511,5.02024 -1.1218,7.01244 -1.1325,6.0861 -2.3773,9.19 -4.0006,9.9759 -0.4152,0.201 -1.1061,0.274 -1.5448,0.1632 z m 0.8234,-2.9135 c 0.4921,-0.3 0.6836,-0.7567 0.9777,-2.3317 0.081,-0.435 0.5314,-2.2335 1.0003,-3.9965 1.6267,-6.11544 3.0436,-12.85754 3.0349,-14.4406 0,-0.50438 0,-0.50464 -0.1586,-0.31805 -0.1766,0.21177 -0.6273,1.58484 -1.5501,4.72315 -0.7509,2.55359 -1.9316,6.19231 -3.4411,10.6043 -1.2581,3.6772 -1.4569,4.3809 -1.402,4.9629 0.075,0.7986 0.865,1.2074 1.5389,0.7965 z"
         id="path5027"
         transform="translate(-950.96343,-1477.6526)" />
      <path
         style="fill:#ffffff;fill-opacity:1;stroke-width:0.0832611"
         d="m 1105.9402,1012.4674 c -1.4532,-0.4082 -2.4493,-2.0208 -3.2689,-5.2918 -0.499,-1.9916 -1.0354,-4.9601 -1.5435,-8.54247 -0.098,-0.6869 -0.3976,-2.67268 -0.667,-4.41284 -0.6165,-3.98188 -0.7701,-5.25065 -0.7814,-6.45273 -0.012,-1.2508 0.086,-1.54108 0.5917,-1.76497 0.2691,-0.11901 0.459,-0.14965 0.6776,-0.10933 0.7364,0.13589 1.0221,0.69341 2.4746,4.83007 0.2573,0.7327 1.4234,3.93617 2.5915,7.11882 2.8318,7.71605 3.0676,8.37595 3.3926,9.49175 0.3551,1.2194 0.4301,1.9069 0.2661,2.44 -0.1716,0.5578 -0.7576,1.5158 -1.1942,1.9524 -0.6726,0.6726 -1.7076,0.9747 -2.5391,0.7411 z m 1.2577,-2.9504 c 0.1124,-0.084 0.2789,-0.2962 0.3699,-0.4717 l 0.1656,-0.319 -0.1845,-0.8181 c -0.1015,-0.45 -0.6534,-2.2526 -1.2266,-4.0058 -1.7794,-5.44323 -2.6807,-8.43131 -3.6111,-11.97178 -0.5603,-2.13213 -0.9929,-3.59515 -1.1017,-3.72632 -0.142,-0.17108 -0.3155,0.041 -0.3153,0.38525 10e-4,1.40356 2.0752,11.66765 3.5068,17.35325 0.766,3.0423 0.9483,3.5122 1.447,3.7301 0.2343,0.1024 0.7081,0.025 0.9499,-0.1559 z"
         id="path5066"
         transform="translate(-950.96343,-1477.6526)" />
      <path
         style="fill:#ffffff;fill-opacity:1;stroke-width:0.0832611"
         d="m 1113.3939,1010.1282 c -1.3477,-0.4214 -2.4544,-2.0236 -3.9991,-5.7895 -0.6699,-1.6331 -1.4959,-3.8765 -3.0205,-8.2034 -2.5319,-7.18544 -3.1653,-9.26076 -3.1653,-10.37144 0,-0.56309 0.01,-0.59241 0.336,-0.94564 0.3897,-0.42275 0.6542,-0.51706 0.9761,-0.3481 0.6008,0.31533 1.1797,1.20422 2.3642,3.63049 1.6456,3.37047 2.8451,5.4051 6.2587,10.61578 3.9495,6.02881 4.5526,7.23931 4.3001,8.63161 -0.3452,1.9035 -2.3822,3.3018 -4.0502,2.7802 z m 1.1154,-2.8586 c 0.3312,-0.2575 0.6061,-0.7063 0.6061,-0.9895 0,-0.6195 -0.3937,-1.3717 -2.455,-4.6912 -1.5336,-2.46974 -2.3251,-3.84462 -3.4754,-6.03643 -1.5312,-2.91779 -2.8686,-5.85666 -3.4817,-7.65065 -0.5694,-1.66621 -1.0577,-2.34122 -1.0196,-1.40943 0.078,1.89949 3.4881,10.78778 6.4008,16.68171 1.0852,2.1961 1.7205,3.2569 2.2931,3.8296 0.4574,0.4573 0.7863,0.5346 1.1317,0.2659 z"
         id="path5105"
         transform="translate(-950.96343,-1477.6526)" />
      <path
         style="fill:#ffffff;fill-opacity:1;stroke-width:0.0832611"
         d="m 1074.8408,1010.0488 c -0.8945,-0.2918 -1.6155,-0.9489 -2.049,-1.8673 -0.2336,-0.4953 -0.2624,-0.6383 -0.2626,-1.3055 -4e-4,-1.401 0.3371,-2.0218 5.0234,-9.242 3.3615,-5.17921 4.0785,-6.34832 4.7742,-7.78491 1.5216,-3.14209 1.9252,-3.91282 2.3279,-4.44515 0.455,-0.60145 1.0469,-1.05008 1.3854,-1.05008 0.269,0 0.6584,0.43117 0.7727,0.85548 0.2422,0.8998 -0.4186,3.31118 -2.2984,8.3865 -0.5173,1.3967 -1.371,3.77589 -1.897,5.28707 -1.1441,3.28639 -1.6562,4.66899 -2.2747,6.14089 -1.6791,3.9965 -2.5952,5.051 -4.4433,5.1149 -0.4399,0.015 -0.8405,-0.019 -1.0586,-0.09 z m 1.68,-3.4121 c 1.0171,-1.0852 3.4856,-5.9216 5.9322,-11.62299 2.1258,-4.95383 3.2159,-8.1972 2.9003,-8.62889 -0.2025,-0.27689 -0.4476,0.14392 -1.2418,2.13209 -0.9538,2.38784 -1.2649,3.09343 -2.0933,4.74823 -1.2573,2.51173 -2.1702,4.06388 -4.7487,8.07396 -0.9569,1.4883 -1.9018,3.0197 -2.0997,3.4032 -0.324,0.6277 -0.3543,0.7357 -0.3039,1.0824 0.067,0.4594 0.1993,0.739 0.4636,0.9782 0.4447,0.4026 0.6902,0.3684 1.1913,-0.1662 z"
         id="path5144"
         transform="translate(-950.96343,-1477.6526)" />
      <path
         style="fill:#ffffff;fill-opacity:1;stroke-width:0.0832611"
         d="m 1067.689,1004.8821 c -0.5971,-0.3029 -1.3922,-1.1587 -1.7204,-1.8518 -0.2441,-0.5152 -0.2687,-0.6396 -0.2687,-1.3581 0,-0.7403 0.02,-0.8323 0.3079,-1.4358 0.5777,-1.20987 1.1409,-1.87067 3.1891,-3.74161 2.678,-2.44638 6.0754,-6.00842 8.5223,-8.93538 2.699,-3.22868 4.1104,-4.72632 4.5603,-4.83925 0.2831,-0.0711 0.7268,0.15914 0.9736,0.50517 0.2753,0.3859 0.2498,1.36783 -0.058,2.25255 -0.6534,1.87528 -3.9018,7.88817 -6.3284,11.71399 -2.6187,4.12863 -5.0606,6.82563 -6.9312,7.65503 -0.2749,0.1218 -0.6325,0.1911 -1.1128,0.2154 -0.6366,0.032 -0.7505,0.014 -1.1332,-0.1802 z m 2.0166,-2.5933 c 0.7737,-0.5158 1.9279,-1.8161 3.6145,-4.07197 4.3708,-5.84616 9.1824,-13.36569 8.7982,-13.74989 -0.1524,-0.15236 -0.6256,0.44817 -2.0301,2.5761 -2.3746,3.59769 -2.7965,4.1088 -6.7882,8.22263 -2.8567,2.94417 -4.3759,4.54672 -4.771,5.03273 -0.8819,1.0849 -0.931,1.5179 -0.2266,1.9966 0.425,0.2888 0.9644,0.2864 1.4032,-0.01 z"
         id="path5183"
         transform="translate(-950.96343,-1477.6526)" />
      <path
         style="fill:#ffffff;fill-opacity:1;stroke-width:0.0832611"
         d="m 1062.6296,998.03892 c -0.5358,-0.16451 -0.9331,-0.42344 -1.3574,-0.88451 -0.4203,-0.45671 -0.614,-0.82255 -0.8707,-1.64458 -0.1675,-0.5362 -0.1943,-0.7924 -0.1914,-1.83073 0,-1.07508 0.024,-1.25483 0.1953,-1.64139 0.3882,-0.87832 1.1487,-1.41071 5.0864,-3.56096 5.4671,-2.98546 6.553,-3.68745 10.4909,-6.78235 1.9586,-1.53931 2.7465,-2.00091 3.2148,-1.88336 0.2849,0.0715 0.9272,0.67819 1.1217,1.05961 0.2032,0.39816 0.2032,0.95186 2e-4,1.48611 -0.7735,2.03579 -7.3456,9.26236 -11.7886,12.96259 -2.9932,2.49279 -4.4514,3.1648 -5.9012,2.71957 z m 1.1859,-2.4108 c 3.1813,-1.74865 14.9148,-12.55705 14.9148,-13.73886 0,-0.21329 -0.2864,-0.12033 -0.7494,0.24321 -0.2518,0.19778 -1.1108,0.97521 -1.9087,1.72761 -3.5268,3.32556 -4.0628,3.72372 -8.6238,6.4065 -3.6297,2.13498 -4.8905,3.0075 -5.2621,3.64151 -0.1786,0.3048 -0.2055,0.43637 -0.1752,0.85544 0.04,0.54687 0.2356,0.84348 0.6914,1.04608 0.377,0.16756 0.5206,0.14415 1.113,-0.18149 z"
         id="path5222"
         transform="translate(-950.96343,-1477.6526)" />
      <path
         style="fill:#ffffff;fill-opacity:1;stroke-width:0.0832611"
         d="m 1125.6479,998.23282 c -1.6358,-0.63419 -4.5822,-3.01432 -8.2103,-6.63233 -2.874,-2.86598 -5.1363,-5.44191 -6.6934,-7.62131 -1.3372,-1.87171 -1.3435,-2.75149 -0.027,-3.79193 0.2876,-0.22733 0.4985,-0.32925 0.68,-0.32871 0.3505,0.001 0.9416,0.35901 1.813,1.09787 4.695,3.98107 5.3084,4.40368 10.2827,7.08453 1.15,0.61981 2.4322,1.33798 2.8492,1.59594 1.8441,1.14071 2.9827,2.16821 3.4456,3.1094 0.252,0.51233 0.2731,0.61733 0.27,1.34786 0,0.67791 -0.038,0.87443 -0.2408,1.3617 -0.9372,2.24741 -2.6285,3.3741 -4.1687,2.77698 z m 1.9632,-2.03142 c 0.483,-0.28531 0.6387,-1.07767 0.3304,-1.68189 -0.3721,-0.72942 -0.9579,-1.21436 -2.4345,-2.01538 -2.1433,-1.16265 -4.0701,-2.40429 -6.1037,-3.93329 -2.1141,-1.58954 -3.3372,-2.62605 -5.6341,-4.77489 -1.5092,-1.41196 -2.0283,-1.85666 -2.167,-1.85666 -0.1825,0 -0.025,0.45028 0.3382,0.96526 2.1092,2.99309 11.6852,11.97201 14.0892,13.21072 0.5297,0.27293 1.2032,0.30961 1.5815,0.0861 z"
         id="path5261"
         transform="translate(-950.96343,-1477.6526)" />
      <path
         style="fill:#ffffff;fill-opacity:1;stroke-width:0.0832611"
         d="m 1120.0547,1005.1021 c -0.237,-0.084 -0.6396,-0.314 -0.8948,-0.5108 -3.3828,-2.6099 -12.2398,-16.78475 -12.5917,-20.1522 -0.04,-0.38324 -0.015,-0.53409 0.135,-0.82923 0.4136,-0.8106 0.8931,-0.96594 1.5893,-0.51488 0.6183,0.40064 1.1065,0.94975 4.45,5.00562 3.2151,3.90017 5.0898,5.9003 7.8681,8.39466 2.2737,2.04138 3.2594,3.04841 3.5295,3.60603 0.3259,0.6726 0.3651,1.2444 0.137,1.9993 -0.4177,1.3822 -1.1985,2.4926 -2.0429,2.9051 -0.5587,0.2729 -1.5577,0.3171 -2.1795,0.096 z m 1.4537,-2.1444 c 0.4386,-0.3073 0.5702,-1.11 0.2762,-1.6843 -0.2335,-0.4562 -1.1285,-1.46983 -4.1268,-4.67401 -4.274,-4.56736 -4.864,-5.286 -7.2858,-8.87346 -1.7463,-2.58676 -2.0276,-2.95627 -2.1549,-2.83087 -0.2887,0.28442 1.3252,3.07482 4.7434,8.20121 3.2038,4.80488 5.928,8.48813 6.9799,9.43703 0.593,0.5349 1.1824,0.6944 1.568,0.4244 z"
         id="path5300"
         transform="translate(-950.96343,-1477.6526)" />
      <path
         style="fill:#ffffff;fill-opacity:1;stroke-width:0.0832611"
         d="m 1139.9688,958.7979 c -1.2364,-0.29992 -1.8215,-1.63178 -1.4119,-3.21406 0.1839,-0.71039 0.4156,-1.14811 0.8721,-1.64763 0.7402,-0.80981 1.7084,-1.1698 3.1209,-1.16025 2.7306,0.0185 4.9698,1.56242 5.4947,3.78867 0.1412,0.59872 0.1657,1.61051 0.041,1.68764 -0.046,0.0287 -0.5328,-0.38669 -1.0808,-0.92311 l -0.9963,-0.97532 -1.2297,0.049 c -0.6763,0.0269 -1.3737,0.0913 -1.5498,0.14312 -0.4167,0.12259 -0.8073,0.48793 -1.2887,1.2053 -0.5612,0.83619 -1.2756,1.21548 -1.9714,1.04667 z"
         id="path5339"
         transform="translate(-950.96343,-1477.6526)" />
      <path
         style="fill:#ffffff;fill-opacity:1;stroke-width:0.0832611"
         d="m 1154.0158,967.6511 c -0.047,-0.0882 -0.1802,-0.54257 -0.2955,-1.00965 -0.1155,-0.46796 -0.3511,-1.12147 -0.5247,-1.45565 -0.4035,-0.77636 -1.224,-1.61428 -1.9033,-1.94377 -0.444,-0.21533 -0.588,-0.24242 -1.2945,-0.24346 -0.7504,-10e-4 -0.8333,0.0169 -1.4833,0.32166 -0.6456,0.30272 -0.726,0.32042 -1.2905,0.28419 -1.1138,-0.0715 -2.3863,-0.93252 -2.8501,-1.92854 -0.6037,-1.29644 0.1854,-2.10392 2.5055,-2.564 0.9804,-0.19442 2.7338,-0.23085 3.497,-0.0727 1.2744,0.26416 2.6034,1.33941 3.2014,2.5902 0.6123,1.28078 0.6987,1.76431 0.7057,3.94907 0,1.28395 -0.025,1.96741 -0.088,2.07403 -0.092,0.15634 -0.095,0.15631 -0.1799,-10e-4 z"
         id="path5378"
         transform="translate(-950.96343,-1477.6526)" />
      <path
         style="fill:#ffffff;fill-opacity:1;stroke-width:0.0832611"
         d="m 1146.5129,980.03591 c -0.095,-0.0642 -0.015,-0.29289 0.4311,-1.23169 0.6624,-1.39352 0.831,-1.99495 0.8368,-2.98462 0.01,-1.77145 -0.7776,-2.78305 -2.2752,-2.92099 -0.7648,-0.0705 -1.0394,-0.17199 -1.3155,-0.48652 -0.3996,-0.45506 -0.4135,-1.12555 -0.044,-2.10853 l 0.133,-0.35386 h 1.969 1.969 l 0.4217,0.43712 c 0.5456,0.56568 0.7168,0.863 1.0199,1.77172 0.3694,1.10708 0.5318,2.15918 0.5396,3.49454 0.01,1.74285 -0.2588,2.45563 -1.2845,3.40525 -0.7722,0.71499 -2.0309,1.22741 -2.4011,0.97758 z"
         id="path5417"
         transform="translate(-950.96343,-1477.6526)" />
      <path
         style="fill:#ffffff;fill-opacity:1;stroke-width:0.0832611"
         d="m 1049.3568,958.37086 c -0.3695,-0.18782 -0.6497,-0.48544 -1.3277,-1.40989 -0.2879,-0.39264 -0.5111,-0.59833 -0.8131,-0.74935 -0.3846,-0.19229 -0.5052,-0.20815 -1.582,-0.20815 -1.3598,0 -1.4396,0.0272 -2.3313,0.79569 -0.3206,0.27624 -0.6844,0.55701 -0.8086,0.62393 -0.2072,0.11164 -0.2329,0.10835 -0.3122,-0.0399 -0.2156,-0.40269 -0.024,-1.62345 0.3537,-2.25401 0.9908,-1.65432 3.0931,-2.75519 5.2614,-2.75519 0.8904,0 1.3822,0.10133 2.0833,0.42923 1.0022,0.46873 1.535,1.11718 1.7494,2.12916 0.2237,1.05578 0.1036,2.17886 -0.3033,2.83734 -0.4376,0.70792 -1.2635,0.95999 -1.9696,0.60109 z"
         id="path5456"
         transform="translate(-950.96343,-1477.6526)" />
      <path
         style="fill:#ffffff;fill-opacity:1;stroke-width:0.0832611"
         d="m 1036.0211,967.00272 c -0.2908,-0.76163 -0.3112,-2.70248 -0.042,-4.01092 0.5071,-2.46681 2.1545,-4.13101 4.4925,-4.53815 0.8536,-0.14865 2.4806,-0.055 3.4633,0.1993 1.4559,0.37681 2.1591,0.8919 2.1555,1.57891 0,0.52939 -0.2517,0.97732 -0.9487,1.70683 -0.7866,0.82329 -1.4215,1.18599 -2.1832,1.24713 -0.5019,0.0403 -0.5728,0.0221 -1.2593,-0.32265 -0.6898,-0.34642 -0.7644,-0.36534 -1.4396,-0.36534 -0.6555,0 -0.7624,0.0249 -1.3463,0.31351 -1.1442,0.56549 -2.0274,1.74204 -2.3993,3.1962 -0.09,0.35109 -0.1633,0.70013 -0.1633,0.77564 0,0.0755 -0.053,0.21002 -0.1187,0.29891 -0.1143,0.15563 -0.1221,0.15269 -0.2106,-0.0794 z"
         id="path5495"
         transform="translate(-950.96343,-1477.6526)" />
      <path
         style="fill:#ffffff;fill-opacity:1;stroke-width:0.0832611"
         d="m 1042.6716,979.53809 c -0.7649,-0.32903 -1.2718,-0.69872 -1.6562,-1.20778 -0.7206,-0.95447 -1.0898,-2.23597 -1.0909,-3.78649 0,-2.00135 0.5048,-3.39619 1.5851,-4.36751 0.5659,-0.50878 1.0025,-0.64868 2.1972,-0.70403 1.302,-0.0603 2.0748,0.071 2.4141,0.41027 0.2397,0.23979 0.2436,0.2575 0.1928,0.88445 -0.1111,1.37181 -0.2536,1.52709 -1.4769,1.60928 -0.4429,0.0298 -0.8943,0.0996 -1.0032,0.1552 -0.1088,0.0556 -0.4882,0.38642 -0.8431,0.73515 l -0.6453,0.63406 v 0.7513 c 0,0.41322 0.036,1.12598 0.077,1.58392 0.072,0.8116 0.089,0.8616 0.6683,1.98148 0.3413,0.6595 0.5835,1.22695 0.5685,1.33217 -0.038,0.26823 -0.3484,0.26464 -0.9902,-0.0115 z"
         id="path5534"
         transform="translate(-950.96343,-1477.6526)" />
      <path
         style="fill:#ffffff;fill-opacity:1;stroke-width:0.0832611"
         d="m 1063.8455,888.85015 c -0.29,-0.11648 -0.3111,-0.30001 -0.1073,-0.93277 0.2319,-0.72008 1.1422,-2.5552 1.2969,-2.61457 0.2233,-0.0857 2.8047,0.54874 3.0872,0.75873 0.1543,0.11473 0.1521,0.1308 -0.081,0.5807 -0.7272,1.40697 -3.0923,2.65133 -4.1963,2.20791 z"
         id="path5573"
         transform="translate(-950.96343,-1477.6526)" />
      <path
         style="fill:#ffffff;fill-opacity:1;stroke-width:0.0832611"
         d="m 1057.2461,906.26591 c -0.1618,-0.0342 -0.3436,-0.0926 -0.404,-0.12995 -0.5097,-0.31503 -0.4536,-2.45668 0.1244,-4.75058 0.3763,-1.49305 2.2495,-5.95693 3.5644,-8.49379 0.7104,-1.37072 1.7225,-3.13515 1.9461,-3.39289 0.1938,-0.22336 0.315,-0.18296 0.9564,0.3189 0.7425,0.58102 0.9453,0.68574 1.5401,0.79521 0.2621,0.0483 0.5235,0.12634 0.5807,0.17351 0.3229,0.26605 0,1.25908 -1.3933,4.34387 -1.08,2.38355 -1.5668,3.57005 -2.2925,5.58794 -1.212,3.36956 -1.9991,4.75549 -3.0149,5.30834 -0.4451,0.24227 -1.1188,0.34262 -1.6074,0.23944 z"
         id="path5612"
         transform="translate(-950.96343,-1477.6526)" />
      <path
         style="fill:#ffffff;fill-opacity:1;stroke-width:0.0832611"
         d="m 1051.6704,907.4451 c -0.069,-0.0251 -0.2092,-0.12235 -0.3122,-0.21609 -0.1631,-0.14839 -0.1873,-0.25285 -0.1873,-0.80745 0,-2.57841 2.9444,-12.34619 5.0417,-16.72496 0.4772,-0.99647 1.1023,-1.95243 1.335,-2.04171 0.097,-0.0373 0.2396,0.0636 0.4817,0.34108 1.1906,1.36522 1.897,1.93729 2.3942,1.93907 0.6628,0.002 0.5452,0.3854 -1.409,4.58695 -2.3221,4.99292 -2.9214,6.77965 -3.4727,10.35408 -0.1196,0.77568 -0.2343,1.43761 -0.2549,1.47096 -0.085,0.1375 -1.3789,0.82557 -1.8524,0.98508 -0.4871,0.16412 -1.4547,0.22609 -1.7641,0.11299 z"
         id="path5651"
         transform="translate(-950.96343,-1477.6526)" />
      <path
         style="fill:#ffffff;fill-opacity:1;stroke-width:0.0832611"
         d="m 1059.3168,888.02757 c -0.2593,-0.0829 -0.6059,-0.23385 -0.7701,-0.33535 -0.3415,-0.21106 -0.3709,-0.38489 -0.1744,-1.03267 0.2106,-0.69384 1.5582,-4.42177 1.6249,-4.49491 0.098,-0.10786 0.5174,0.14173 1.9066,1.13599 1.589,1.13719 2.006,1.52282 2.006,1.85511 0,0.48555 -1.0962,1.88765 -1.8854,2.41147 -0.895,0.59407 -1.8055,0.74887 -2.7076,0.46036 z"
         id="path5690"
         transform="translate(-950.96343,-1477.6526)" />
      <path
         style="fill:#ffffff;fill-opacity:1;stroke-width:0.117749"
         d="m 1039.0568,921.02629 c -0.1939,-0.50527 0.819,-9.55083 1.6804,-15.00724 1.1367,-7.19986 2.7906,-14.03526 4.4075,-18.21553 0.7619,-1.96987 1.1712,-3.37532 1.174,-4.03176 0,-0.76601 0.1406,-0.81698 0.8623,-0.31998 1.3665,0.9412 2.2424,0.81041 3.6981,-0.55219 l 0.3821,-0.3577 0.3244,0.30398 c 0.6996,0.65561 2.0683,1.0906 2.8183,0.8957 0.7685,-0.19969 2.5071,-2.27587 2.95,-3.52271 0.1124,-0.31656 0.246,-0.57557 0.2969,-0.57557 0.051,0 0.4888,0.38997 0.9732,0.86659 0.6078,0.59806 0.8809,0.95381 0.8811,1.14805 4e-4,0.40827 -1.5504,3.44487 -2.2248,4.35649 -0.7102,0.95983 -1.2951,1.28255 -2.3247,1.28255 -1.002,0 -1.7963,-0.26602 -2.2778,-0.76285 -0.3302,-0.34069 -0.4269,-0.55992 -0.5335,-1.21016 l -0.1303,-0.79409 -0.3315,0.58874 c -1.1175,1.98486 -2.1247,3.08134 -3.14,3.41858 -0.7136,0.23701 -1.3171,0.17082 -2.2087,-0.24228 -1.0386,-0.4812 -1.2221,-0.33693 -0.6232,0.48991 0.7223,0.99707 1.5123,1.45476 2.5159,1.45767 0.9127,0.003 0.991,0.0833 0.8186,0.84314 -0.078,0.34481 -0.6941,2.349 -1.3686,4.45376 -1.4371,4.48493 -1.7057,5.41041 -2.1814,7.51678 -0.8248,3.65222 -1.2854,7.27174 -1.4784,11.61742 -0.1387,3.12476 -0.3837,3.90729 -1.5809,5.0492 -1.1334,1.0811 -3.1638,1.86434 -3.379,1.3035 z"
         id="path5872"
         transform="translate(-950.96343,-1477.6526)" />
      <path
         style="fill:#ffffff;fill-opacity:1;stroke-width:0.117749"
         d="m 1045.1834,913.12537 c -0.1076,-0.42861 0.034,-2.86181 0.2557,-4.38062 0.4689,-3.21853 1.6391,-8.22609 2.8706,-12.28348 1.1202,-3.69095 2.9484,-8.65606 3.3659,-9.14151 l 0.2542,-0.29546 1.0267,0.95355 c 0.9115,0.84654 1.102,0.96964 1.6975,1.09696 0.3688,0.0789 0.7161,0.18313 0.7717,0.23168 0.1425,0.12456 0.024,0.4552 -1.9539,5.46753 -2.3437,5.93795 -2.7033,7.05019 -3.084,9.53767 -0.6059,3.95982 -1.174,5.58153 -2.5302,7.22238 -0.4734,0.5727 -2.1713,1.90316 -2.4288,1.90316 -0.092,0 -0.2024,-0.14034 -0.2454,-0.31186 z"
         id="path5911"
         transform="translate(-950.96343,-1477.6526)" />
      <path
         style="fill:#ffffff;fill-opacity:1;stroke-width:0.117749"
         d="m 1052.2437,881.92325 c -0.1402,-0.0311 -0.2844,-0.13327 -0.3204,-0.22709 -0.036,-0.0938 0.1246,-0.81929 0.3569,-1.61216 0.2323,-0.79287 0.5701,-1.99794 0.7506,-2.67794 0.3837,-1.44505 0.6368,-2.11973 1.0359,-2.76087 l 0.2894,-0.46477 0.2628,0.32968 c 0.3925,0.49222 1.6693,2.67201 2.0832,3.55643 0.3505,0.74908 0.3564,0.7884 0.1757,1.16743 -0.3074,0.64456 -1.6908,2.0215 -2.3592,2.3481 -0.5956,0.291 -1.7322,0.46147 -2.2749,0.34119 z"
         id="path5950"
         transform="translate(-950.96343,-1477.6526)" />
      <path
         style="fill:#ffffff;fill-opacity:1;stroke-width:0.117749"
         d="m 1029.7582,933.28146 c -0.1353,-0.35259 0.052,-4.74532 0.3039,-7.12735 0.9222,-8.72045 2.1826,-15.04827 5.5939,-28.08312 1.6891,-6.4544 2.0355,-7.64223 2.5067,-8.59567 0.6301,-1.27491 1.0301,-1.39957 1.8845,-0.58723 0.6938,0.65969 1.3716,0.99935 1.9943,0.99935 0.2629,0 0.6436,0.0331 0.8459,0.0736 0.3108,0.0621 0.368,0.12676 0.368,0.4155 0,0.18805 -0.3943,1.91675 -0.8763,3.84156 -0.9963,3.97881 -1.3394,5.58305 -2.1718,10.15246 -1.1124,6.10663 -1.1922,6.6972 -1.6636,12.31808 -0.706,8.41867 -1.1729,10.31458 -3.0842,12.52317 -2.1191,2.44885 -5.4193,4.80452 -5.7013,4.06965 z"
         id="path5989"
         transform="translate(-950.96343,-1477.6526)" />
      <path
         style="fill:#ffffff;fill-opacity:1;stroke-width:0.117749"
         d="m 1040.8416,888.19845 c -0.8558,-0.21983 -1.1187,-0.39176 -1.1187,-0.73173 0,-0.16112 0.1932,-0.94081 0.4293,-1.73265 0.4224,-1.41679 0.5738,-2.67497 0.3361,-2.79381 -0.065,-0.0324 -0.4622,0.63658 -0.8831,1.48657 -0.8962,1.8096 -1.5785,2.75628 -2.3302,3.233 -0.9305,0.59009 -1.9017,0.41032 -2.9629,-0.54845 l -0.4548,-0.41088 0.6375,-2.4893 c 0.3507,-1.36912 0.6584,-2.51016 0.6839,-2.53566 0.025,-0.0255 0.3148,0.0897 0.6429,0.25594 1.1669,0.59132 2.4371,0.31348 3.4303,-0.75034 0.8015,-0.85847 1.2733,-1.73721 1.887,-3.51475 l 0.5573,-1.61444 1.1034,-0.0591 c 1.363,-0.073 1.6315,-0.22184 2.8788,-1.59568 0.4966,-0.54702 0.9441,-0.99457 0.9944,-0.99457 0.05,0 0.428,0.62259 0.8392,1.38355 1.4879,2.75319 2.587,3.33834 4.468,2.37873 0.2477,-0.1264 0.479,-0.22982 0.514,-0.22982 0.3462,0 -0.7397,2.42671 -1.6104,3.59881 -0.5824,0.78394 -1.4065,1.39702 -2.1453,1.59595 -0.9662,0.26019 -2.6569,-0.45534 -2.6569,-1.12448 0,-0.15673 0.2874,-1.01744 0.6387,-1.91268 1.0859,-2.76751 1.0064,-3.29761 -0.1988,-1.32542 -1.0312,1.6874 -1.3457,2.08041 -1.947,2.43278 -0.6176,0.36192 -1.396,0.41724 -3.1146,0.22132 -1.1654,-0.13287 -1.1882,-0.003 -0.1675,0.9516 1.3358,1.24956 2.0753,1.38964 3.4912,0.66128 0.6644,-0.34173 0.8879,-0.40768 1.0424,-0.30749 0.4418,0.28649 0.01,2.19865 -0.9287,4.1055 -0.9839,2.00007 -2.3585,2.80214 -4.0555,2.36622 z"
         id="path6028"
         transform="translate(-950.96343,-1477.6526)" />
      <path
         style="fill:#ffffff;fill-opacity:1;stroke-width:0.117749"
         d="m 1049.2384,875.53333 c -0.946,-0.59994 -2.2099,-2.32363 -2.2099,-3.01385 0,-0.3998 0.3992,-1.13328 1.197,-2.19948 0.4206,-0.5621 0.9915,-1.46288 1.2687,-2.00174 0.2772,-0.53885 0.6359,-1.15685 0.7972,-1.37333 0.2427,-0.32591 0.3189,-0.36641 0.4433,-0.2355 0.2307,0.24289 2.4045,4.25698 2.7175,5.01816 0.1525,0.37078 0.2785,0.91254 0.2801,1.20392 0,0.51035 -0.033,0.56461 -0.9755,1.47986 -1.5493,1.50464 -2.458,1.79441 -3.5184,1.12196 z"
         id="path6067"
         transform="translate(-950.96343,-1477.6526)" />
      <path
         style="fill:#ffffff;fill-opacity:1;stroke-width:0.117749"
         d="m 1044.9398,868.99729 c -0.2069,-0.0935 -0.6215,-0.39619 -0.9213,-0.67256 -0.499,-0.45997 -0.5387,-0.53671 -0.4693,-0.90666 0.042,-0.22229 0.2097,-0.70203 0.3733,-1.06609 0.5484,-1.22016 1.3044,-3.24371 1.5671,-4.19441 0.3024,-1.09477 0.4576,-1.31644 0.7953,-1.13574 0.3356,0.17963 2.6752,2.64781 3.122,3.29366 0.5602,0.80966 0.5259,1.2674 -0.1793,2.3989 -0.6061,0.97249 -1.455,1.81787 -2.1702,2.16126 -0.5847,0.28076 -1.6325,0.34095 -2.1176,0.12164 z"
         id="path6106"
         transform="translate(-950.96343,-1477.6526)" />
      <path
         style="fill:#ffffff;fill-opacity:1;stroke-width:0.117749"
         d="m 1041.4082,873.93019 c -0.3359,-0.16671 -0.7717,-0.48634 -0.9683,-0.71027 -0.4233,-0.48218 -0.4483,-0.37991 0.615,-2.52102 0.6839,-1.37716 1.1906,-2.07106 1.7186,-2.35368 0.1968,-0.1053 0.2728,-0.037 0.5957,0.53508 0.5227,0.92622 1.2215,1.64099 1.9554,2.00005 0.3468,0.1697 0.6614,0.40533 0.6989,0.52363 0.1095,0.34516 -0.2358,1.00354 -0.8201,1.56342 -1.245,1.19291 -2.6257,1.54317 -3.7952,0.96279 z"
         id="path6145"
         transform="translate(-950.96343,-1477.6526)" />
      <path
         style="fill:#ffffff;fill-opacity:1;stroke-width:0.117749"
         d="m 1029.8589,880.4629 c -0.1472,-0.0591 -0.2985,-0.18799 -0.3363,-0.28642 -0.073,-0.1903 0.6369,-2.46759 1.0297,-3.30339 0.205,-0.43601 0.2944,-0.5083 0.7114,-0.57497 0.6125,-0.098 1.3845,-0.82812 2.3069,-2.18188 0.3723,-0.54654 0.7323,-1.01094 0.7998,-1.03199 0.068,-0.021 0.412,0.20891 0.7654,0.51103 0.8182,0.69945 1.2277,0.86706 2.1184,0.86706 0.8461,0 1.1046,-0.10963 1.6052,-0.681 0.3331,-0.38007 0.4034,-0.4116 0.6587,-0.29529 0.1571,0.0716 0.5982,0.59018 0.9801,1.15236 l 0.6943,1.02216 -0.7367,1.43625 c -1.251,2.43903 -2.1928,3.24359 -3.9121,3.34214 -1.0311,0.0591 -1.5307,-0.0877 -1.5307,-0.44987 0,-0.13683 0.1862,-0.67225 0.4137,-1.18982 0.5199,-1.18233 0.9484,-2.78645 0.7874,-2.94746 -0.077,-0.0766 -0.4801,0.41987 -1.182,1.45487 -1.9288,2.84399 -2.4715,3.28443 -4.0303,3.27114 -0.4815,-0.004 -0.9958,-0.0558 -1.1429,-0.11492 z"
         id="path6184"
         transform="translate(-950.96343,-1477.6526)" />
      <path
         style="fill:#ffffff;fill-opacity:1;stroke-width:0.117749"
         d="m 1036.1316,872.7297 c -0.4957,-0.11962 -0.9729,-0.40844 -1.0863,-0.65745 -0.3047,-0.6688 0.6717,-2.89234 1.7571,-4.00156 l 0.7096,-0.72525 0.2518,0.30591 c 0.1385,0.16826 0.3998,0.49786 0.5806,0.73246 0.1809,0.2346 0.618,0.64018 0.9714,0.90127 0.5863,0.4331 0.6426,0.51477 0.6426,0.93144 0,0.3517 -0.1036,0.58772 -0.4508,1.02658 -0.9384,1.18609 -2.2422,1.76022 -3.376,1.4866 z"
         id="path6223"
         transform="translate(-950.96343,-1477.6526)" />
      <path
         style="fill:#ffffff;fill-opacity:1;stroke-width:0.117749"
         d="m 1039.2519,867.56292 c -0.6024,-0.26095 -1.0597,-0.74287 -1.0597,-1.11681 0,-0.17517 0.2688,-1.0263 0.5973,-1.89139 0.8112,-2.13651 1.5697,-4.35812 1.8783,-5.5016 0.1407,-0.52157 0.328,-1.00816 0.4161,-1.0813 0.1803,-0.14964 1.0598,0.25838 2.9648,1.37552 0.8098,0.47486 1.1071,0.71507 1.1636,0.94017 0.049,0.19676 -0.058,0.71152 -0.3079,1.4741 -0.9614,2.93535 -2.3661,4.97745 -3.9222,5.70196 -0.7021,0.3269 -1.1461,0.35239 -1.7303,0.0993 z"
         id="path6262"
         transform="translate(-950.96343,-1477.6526)" />
      <path
         style="fill:#ffffff;fill-opacity:1;stroke-width:0.117749"
         d="m 1034.3487,867.05317 c -1.3984,-0.34705 -2.8755,-2.37983 -3.8588,-5.31058 -0.4884,-1.45594 -0.4947,-1.43534 0.6885,-2.25646 2.9474,-2.04548 6.4937,-2.93857 8.371,-2.10815 0.5064,0.22398 0.5268,0.25269 0.5265,0.74007 -6e-4,1.051 -0.9062,3.93758 -1.8215,5.80576 -1.1543,2.35616 -2.5418,3.46785 -3.9057,3.12936 z"
         id="path6301"
         transform="translate(-950.96343,-1477.6526)" />
      <path
         style="fill:#ffffff;fill-opacity:1;stroke-width:0.117749"
         d="m 1007.6364,894.01354 c -1.0154,-0.22171 -2.6549,-1.10592 -2.9001,-1.564 -0.1775,-0.33179 0.014,-0.47418 1.1338,-0.84103 2.0744,-0.67982 3.451,-1.56113 5.181,-3.31701 2.0492,-2.07985 5.1456,-6.78091 7.5577,-11.47419 3.597,-6.99885 4.7027,-8.96232 6.3598,-11.29414 1.2898,-1.81488 3.1721,-3.76715 4.1316,-4.28514 l 0.6128,-0.3308 0.1072,0.27193 c 0.059,0.14955 0.2225,0.76855 0.3633,1.37555 0.3048,1.31409 0.913,2.94999 1.5024,4.04111 l 0.4272,0.7909 -0.4916,0.99197 c -0.5185,1.04634 -1.3607,2.09196 -1.9167,2.37945 -0.541,0.27976 -1.1786,0.21596 -1.7724,-0.17733 -0.6904,-0.45734 -1.0955,-0.97635 -1.9823,-2.53992 -0.8326,-1.46813 -0.9318,-1.60801 -1.0769,-1.51836 -0.5474,0.33832 0.8592,3.71166 2.1324,5.11383 0.2646,0.29143 0.5137,0.65921 0.5536,0.81729 0.184,0.73008 -0.7192,2.75093 -1.5961,3.57124 -1.3097,1.225 -2.5698,1.00295 -4.2719,-0.75273 -0.4946,-0.51016 -0.9582,-0.92757 -1.0303,-0.92757 -0.4417,0 0.3766,1.54758 1.3839,2.61735 0.7051,0.7488 1.231,1.08372 2.518,1.60352 0.1781,0.0719 0.3238,0.20787 0.3238,0.30209 0,0.22962 -0.9816,1.2217 -1.6876,1.70561 -1.4011,0.96032 -3.0001,1.09231 -4.6686,0.38536 -0.8623,-0.36534 -1.4153,-0.4723 -1.4153,-0.27375 0,0.0547 0.203,0.41239 0.4511,0.79481 0.5188,0.79989 1.2829,1.52775 1.8543,1.76649 0.4801,0.20062 1.449,0.21401 2.0679,0.0286 0.9118,-0.27317 0.8354,-0.0953 -1.3778,3.20877 -2.3121,3.45168 -3.3147,4.80258 -4.281,5.76823 -1.506,1.50505 -2.2676,1.75787 -5.485,1.82091 -1.2305,0.0241 -2.4492,-0.002 -2.7082,-0.059 z"
         id="path6340"
         transform="translate(-950.96343,-1477.6526)" />
      <path
         style="fill:#ffffff;fill-opacity:1;stroke-width:0.117749"
         d="m 1029.8909,874.35 c -0.3386,-0.14005 -0.7266,-0.5903 -0.9317,-1.08124 -0.2005,-0.47993 -0.1571,-0.57266 0.2679,-0.57266 0.7139,0 1.5521,-0.91436 2.7051,-2.95069 0.8299,-1.46586 0.9458,-1.51745 1.9052,-0.84816 0.783,0.54624 0.8325,0.75738 0.4033,1.72242 -1.1397,2.56324 -3.1023,4.24632 -4.3498,3.73033 z"
         id="path6379"
         transform="translate(-950.96343,-1477.6526)" />
      <path
         style="fill:#ffffff;fill-opacity:1;stroke-width:0.117749"
         d="m 1025.121,881.05516 c -0.2235,-0.22346 -0.2265,-0.26109 -0.054,-0.67706 0.2239,-0.53926 0.5725,-1.08257 1.5288,-2.3833 0.7845,-1.06699 1.349,-2.09992 1.5927,-2.91428 0.082,-0.27524 0.2028,-0.50043 0.2676,-0.50043 0.1777,0 1.1122,1.05747 1.3183,1.49179 0.1668,0.35135 0.1626,0.43358 -0.053,1.04642 -0.4784,1.36126 -1.9467,3.30889 -2.9603,3.92682 -0.533,0.3249 -1.321,0.32972 -1.6406,0.01 z"
         id="path6418"
         transform="translate(-950.96343,-1477.6526)" />
      <path
         style="fill:#ffffff;fill-opacity:1;stroke-width:0.117749"
         d="m 1030.3114,887.39528 c -0.6112,-0.17554 -1.4122,-0.7776 -1.6232,-1.22005 -0.1781,-0.37352 -0.1707,-0.4685 0.1395,-1.7853 0.5172,-2.19541 0.535,-2.26134 0.6248,-2.31152 0.047,-0.0261 0.5261,0.004 1.065,0.066 1.4484,0.16784 1.8593,0.0694 2.9087,-0.69693 0.6885,-0.50283 0.9304,-0.62358 1.0364,-0.51731 0.1924,0.19291 0.1337,1.31319 -0.1074,2.04874 -0.2151,0.65633 -0.9515,2.16289 -1.3274,2.71566 -0.4104,0.60348 -1.3599,1.51437 -1.7496,1.67839 -0.4282,0.18027 -0.4176,0.18002 -0.9668,0.0223 z"
         id="path6457"
         transform="translate(-950.96343,-1477.6526)" />
      <path
         style="fill:#ffffff;fill-opacity:1;stroke-width:0.117749"
         d="m 1023.6439,887.23963 c -0.7785,-0.39141 -1.701,-1.19865 -1.701,-1.48841 0,-0.51233 1.6996,-3.25791 2.0764,-3.35418 0.1451,-0.0371 0.4685,0.0498 0.7653,0.20571 0.3825,0.2008 0.7101,0.27002 1.2795,0.27031 0.864,4.4e-4 1.278,-0.17129 2.1406,-0.88799 0.303,-0.25179 0.5812,-0.4578 0.6182,-0.4578 0.1498,0 0.053,0.94666 -0.1604,1.56655 -0.3125,0.90825 -1.2082,2.60936 -1.7473,3.31834 -0.8636,1.13585 -2.0574,1.43781 -3.2713,0.82747 z"
         id="path6496"
         transform="translate(-950.96343,-1477.6526)" />
      <path
         style="fill:#ffffff;fill-opacity:1;stroke-width:0.117749"
         d="m 1020.1076,943.61039 c 0.1879,-0.90216 0.5773,-3.6121 0.9431,-6.5645 0.3748,-3.02454 0.8725,-6.40239 1.6656,-11.3039 1.0737,-6.6354 6.2045,-27.77508 8.0629,-33.22007 0.9329,-2.73344 2.2687,-5.05209 2.8611,-4.9663 0.1436,0.0208 0.433,0.30632 0.6928,0.68334 0.7843,1.13862 1.3272,1.62519 1.9111,1.71274 0.2856,0.0428 0.5461,0.14809 0.5791,0.23393 0.08,0.20738 -0.181,1.23516 -1.3122,5.17714 -3.6324,12.65741 -3.881,13.62256 -5.1538,20.00971 -1.2642,6.34419 -1.6819,9.73578 -1.9877,16.13921 -0.1942,4.06694 -0.1886,4.04644 -1.7118,6.33783 -1.3263,1.99525 -1.9114,2.7403 -3.0996,3.94715 -1.3195,1.34015 -2.5168,2.13753 -3.2096,2.13753 -0.2743,0 -0.301,-0.0358 -0.241,-0.32381 z"
         id="path6535"
         transform="translate(-950.96343,-1477.6526)" />
      <path
         style="fill:#ffffff;fill-opacity:1;stroke-width:0.117749"
         d="m 1018.0571,960.97803 c 0,-0.85562 1.618,-13.80091 1.7992,-14.39448 0.1419,-0.46496 0.1527,-0.47212 0.8471,-0.55836 2.1604,-0.26835 4.7714,-2.71164 6.4448,-6.03084 0.8012,-1.58922 0.9299,-1.77857 1.0558,-1.55366 0.195,0.34842 -0.2414,5.78725 -0.677,8.43723 -0.8767,5.33401 -2.7951,9.11775 -6.0551,11.94289 -2.099,1.81893 -3.4148,2.65018 -3.4148,2.15722 z"
         id="path6728"
         transform="translate(-950.96343,-1477.6526)" />
      <path
         style="fill:#ffffff;fill-opacity:1;stroke-width:0.235498"
         d="m 1008.0834,926.62274 c -0.202,-0.32693 1.193,-5.24035 3.7269,-13.12664 1.3734,-4.27428 3.0284,-9.78493 3.6778,-12.24589 1.8995,-7.19814 2.2881,-8.3206 3.8725,-11.18614 0.8236,-1.48953 1.6568,-2.92018 1.8516,-3.17922 0.35,-0.46559 0.3588,-0.46423 0.7589,0.11775 0.2226,0.3238 0.8757,1.04884 1.4513,1.61118 0.9782,0.95576 1.0368,1.0829 0.8982,1.94957 -0.082,0.50993 -0.6369,2.48724 -1.2342,4.39402 -0.5972,1.90678 -1.8123,5.95726 -2.7001,9.00107 -3.7503,12.8578 -4.1567,13.91651 -6.6213,17.24876 -2.2221,3.00437 -5.3369,5.9733 -5.6816,5.41554 z"
         id="path6875"
         transform="translate(-950.96343,-1477.6526)" />
      <path
         style="fill:#ffffff;fill-opacity:1;stroke-width:0.235498"
         d="m 1001.3368,1002.6595 c -0.6346,-0.1125 -0.8168,-0.2544 -0.7921,-0.6167 0.018,-0.2588 0.6232,-2.74895 1.3455,-5.53371 1.5727,-6.06317 3.2017,-14.1026 4.0269,-19.87299 0.5132,-3.58863 0.7381,-4.53015 1.5192,-6.35844 1.3391,-3.1347 2.0296,-5.39456 3.1012,-10.15019 0.5258,-2.33297 1.3145,-5.67241 1.7529,-7.42098 0.9444,-3.76741 3.6461,-18.22566 4.6206,-24.72727 0.3785,-2.52572 1.3259,-7.8774 2.1053,-11.89264 0.7793,-4.01524 1.6203,-8.36018 1.8688,-9.65541 0.2485,-1.29524 1.078,-4.52745 1.8432,-7.18269 2.7588,-9.57212 2.5893,-9.12075 3.9716,-10.57903 0.6848,-0.72248 1.2458,-1.40801 1.2466,-1.52339 10e-4,-0.11538 0.4425,0.29112 0.9813,0.90332 0.5389,0.6122 1.2246,1.20614 1.5237,1.31987 l 0.5439,0.20678 -0.8358,2.30462 c -3.8487,10.61293 -6.8466,23.46886 -10.3255,44.27906 -0.7095,4.24359 -1.5102,9.51717 -1.7795,11.71908 -0.2692,2.2019 -1.1702,8.61333 -2.0021,14.24761 -0.8318,5.63429 -1.8345,12.70668 -2.2281,15.71642 -1.6193,12.38139 -4.0318,20.11919 -7.2938,23.39428 -1.5974,1.6037 -2.6082,1.8806 -5.1938,1.4224 z"
         id="path6914"
         transform="translate(-950.96343,-1477.6526)" />
      <path
         style="fill:#ffffff;fill-opacity:1;stroke-width:0.235498"
         d="m 998.56969,973.74803 c -0.50446,-0.20818 -0.34033,-0.77439 1.22198,-4.2156 3.48433,-7.67465 10.16523,-26.92961 14.94893,-43.08395 2.0339,-6.86858 2.8013,-9.1846 2.8283,-8.53603 0.066,1.59083 -4.8283,27.05772 -7.0493,36.67802 -1.691,7.32434 -2.6556,10.55199 -3.9878,13.34287 -1.3256,2.77696 -2.6211,4.30587 -4.3374,5.11888 -1.2048,0.57069 -3.06336,0.92747 -3.62471,0.69581 z"
         id="path6953"
         transform="translate(-950.96343,-1477.6526)" />
      <path
         style="fill:#ffffff;fill-opacity:1;stroke-width:0.235498"
         d="m 1003.1341,943.12503 c -0.6121,-0.10022 -0.6639,-0.18074 -0.5525,-0.85765 0.2064,-1.25319 4.63,-13.66346 4.9407,-13.86081 0.1599,-0.10155 0.4804,-0.18626 0.7122,-0.18825 1.355,-0.0116 3.7023,-2.12902 5.7143,-5.15476 0.6316,-0.94985 1.1849,-1.61737 1.2296,-1.48337 0.1459,0.4378 -4.6866,15.18075 -5.6098,17.11418 -1.6406,3.43591 -3.7287,4.87373 -6.4345,4.43066 z"
         id="path6992"
         transform="translate(-950.96343,-1477.6526)" />
      <path
         style="fill:#ffffff;fill-opacity:1;stroke-width:0.0832611"
         d="m 1124.7063,888.89683 c -0.682,-0.21288 -1.7902,-1.28906 -2.2241,-2.15981 -0.2528,-0.50719 -0.3644,-0.43307 1.2579,-0.83527 1.8426,-0.45683 1.9136,-0.44591 2.3152,0.35605 0.4406,0.88006 0.8831,2.05124 0.8831,2.33741 0,0.20499 -0.047,0.28009 -0.2136,0.34354 -0.3066,0.1166 -1.5965,0.0898 -2.0185,-0.0419 z"
         id="path7258"
         transform="translate(-950.96343,-1477.6526)" />
      <path
         style="fill:#ffffff;fill-opacity:1;stroke-width:0.0832611"
         d="m 1132.059,906.59861 c -0.4238,-0.11194 -0.7439,-0.31555 -1.0949,-0.69634 -0.6425,-0.69697 -0.971,-1.40805 -1.8566,-4.01849 -0.6655,-1.96172 -0.8875,-2.50834 -1.957,-4.81906 -2.186,-4.72312 -2.5433,-5.96325 -1.718,-5.96325 0.3049,0 1.5211,-0.62681 1.9518,-1.00591 0.2039,-0.17944 0.4313,-0.32626 0.5054,-0.32626 0.2245,0 0.8462,0.64028 1.1965,1.2322 1.7573,2.96982 4.2731,9.83725 4.8048,13.1155 0.068,0.4203 0.1241,1.12543 0.1243,1.56695 3e-4,0.7632 -0.01,0.80508 -0.187,0.84976 -0.3517,0.0882 -1.519,0.13103 -1.7693,0.0649 z"
         id="path7297"
         transform="translate(-950.96343,-1477.6526)" />
      <path
         style="fill:#ffffff;fill-opacity:1;stroke-width:0.0832611"
         d="m 1137.103,907.78795 c -1.2025,-0.3233 -1.8598,-1.18806 -2.0832,-2.74071 -0.5241,-3.6417 -1.4755,-6.30963 -4.4895,-12.58941 -0.5102,-1.06285 -0.9275,-1.98159 -0.9275,-2.04166 0,-0.0676 0.193,-0.14588 0.5062,-0.20542 0.6937,-0.13182 1.3175,-0.52437 2.124,-1.33651 0.3751,-0.3778 0.739,-0.6869 0.8086,-0.6869 0.2354,0 0.5837,0.53576 1.2722,1.95663 2.4623,5.0813 4.4071,11.15601 4.9836,15.56636 0.1873,1.43266 0.1753,1.75598 -0.074,2.00551 -0.187,0.18706 -0.2664,0.2039 -0.9367,0.19889 -0.4028,-0.003 -0.9353,-0.0601 -1.1835,-0.12678 z"
         id="path7336"
         transform="translate(-950.96343,-1477.6526)" />
      <path
         style="fill:#ffffff;fill-opacity:1;stroke-width:0.0832611"
         d="m 1129.4363,888.27591 c -0.4844,-0.0977 -0.8474,-0.33357 -1.4155,-0.91965 -0.8577,-0.88481 -1.4116,-1.9657 -1.1919,-2.32562 0.1136,-0.18599 1.7265,-1.31167 2.814,-1.96388 0.8326,-0.49936 0.9236,-0.53568 1.0183,-0.40619 0.2175,0.29746 1.8557,4.65808 1.8557,4.93959 0,0.49095 -1.9149,0.91098 -3.0806,0.67575 z"
         id="path7375"
         transform="translate(-950.96343,-1477.6526)" />
      <path
         style="fill:#ffffff;fill-opacity:1;stroke-width:0.0832611"
         d="m 1135.2024,887.65485 c -1.1669,-0.38236 -2.3454,-1.67196 -3.238,-3.54314 -0.6401,-1.34174 -0.7213,-1.93326 -0.3534,-2.57249 0.2405,-0.41765 1.2582,-1.51147 1.4065,-1.51147 0.083,0 0.3089,0.36498 0.6262,1.01043 0.5679,1.15494 0.8614,1.59826 1.4672,2.2159 0.7337,0.74808 1.6026,1.04664 2.5433,0.87393 l 0.433,-0.0795 0.1706,0.72673 c 0.094,0.3997 0.1698,0.90943 0.1688,1.13272 0,0.48844 -0.2279,1.02042 -0.5358,1.26258 -0.5963,0.46904 -1.9763,0.71765 -2.6884,0.48431 z"
         id="path7414"
         transform="translate(-950.96343,-1477.6526)" />
      <path
         style="fill:#ffffff;fill-opacity:1;stroke-width:0.0832611"
         d="m 1141.4975,882.47831 c -0.8296,-0.2554 -1.557,-1.17758 -2.6487,-3.35789 -0.6727,-1.34333 -0.9663,-1.84028 -1.0875,-1.84028 -0.1416,0 -0.093,0.28919 0.3008,1.81088 0.5861,2.26215 0.61,2.36906 0.6132,2.74473 0,0.47979 -0.1517,0.55101 -1.1124,0.50883 -0.6359,-0.0279 -0.8493,-0.076 -1.3244,-0.29845 -0.6891,-0.32269 -1.3694,-0.97677 -1.9654,-1.88982 -0.5979,-0.9158 -0.5893,-1.12215 0.1027,-2.47267 0.9948,-1.94158 1.782,-3.23438 1.9693,-3.23438 0.044,0 0.1394,0.20299 0.2116,0.45109 0.4006,1.37801 2.1785,2.91618 3.5719,3.09028 0.6112,0.0763 0.9888,-0.11072 1.863,-0.92286 0.9059,-0.84159 1.1667,-1.18964 1.3134,-1.75302 0.1566,-0.60128 0.6182,-1.48146 0.7942,-1.51426 0.083,-0.0155 0.4535,0.33538 0.9774,0.92579 1.3864,1.56258 1.7461,1.76226 3.0688,1.70344 0.5538,-0.0246 0.9019,-0.006 0.9726,0.0522 0.1275,0.10472 0.8594,2.5644 0.9369,3.14817 0.07,0.53178 -0.077,0.85602 -0.5017,1.10204 -0.9037,0.52364 -1.9921,0.5885 -2.8481,0.16973 -0.9391,-0.45945 -2.0381,-1.75737 -2.9024,-3.42754 -0.1698,-0.32826 -0.3861,-0.66547 -0.4807,-0.74935 l -0.1718,-0.15252 0.048,0.62446 c 0.083,1.07526 0.839,3.18882 1.3806,3.86227 0.3124,0.38843 0.3188,0.46321 0.063,0.7395 -0.604,0.65178 -2.1498,0.98589 -3.1444,0.67966 z"
         id="path7453"
         transform="translate(-950.96343,-1477.6526)" />
      <path
         style="fill:#ffffff;fill-opacity:1;stroke-width:0.0832611"
         d="m 1144.5023,913.48884 c -1.3178,-1.04577 -2.2655,-2.12352 -2.8753,-3.26999 -0.6666,-1.25305 -0.9516,-2.25539 -1.4112,-4.963 -0.6363,-3.74926 -1.3087,-5.90897 -3.5385,-11.36513 -1.0811,-2.64514 -1.6915,-4.28676 -1.6205,-4.35778 0.025,-0.0252 0.3125,-0.0743 0.6386,-0.10909 0.9029,-0.0965 1.3501,-0.35807 2.2286,-1.30383 0.8366,-0.90054 0.8806,-0.91124 1.2327,-0.29937 0.6036,1.04901 2.3222,5.95372 3.3375,9.5254 1.7193,6.04783 2.7427,11.2901 2.9746,15.23678 0.056,0.95186 -0.023,1.33217 -0.2775,1.33217 -0.084,0 -0.3936,-0.19177 -0.689,-0.42616 z"
         id="path7492"
         transform="translate(-950.96343,-1477.6526)" />
      <path
         style="fill:#ffffff;fill-opacity:1;stroke-width:0.0832611"
         d="m 1150.2515,921.53205 c -2.8391,-0.58012 -3.5704,-2.30113 -3.997,-9.40716 -0.2139,-3.56113 -0.8262,-7.43884 -1.7459,-11.05639 -0.4636,-1.82317 -0.7591,-2.7455 -1.8242,-5.69312 -0.8524,-2.35886 -1.198,-3.58688 -1.1596,-4.12034 0.026,-0.35617 0.03,-0.36149 0.3174,-0.34714 1.2566,0.0629 2.7361,-0.76376 3.1972,-1.78637 0.2766,-0.61335 0.1461,-0.67674 -0.7898,-0.38348 -1.0543,0.3304 -1.9741,0.2956 -2.7637,-0.10456 -1.5718,-0.79648 -3.2012,-3.67968 -2.7982,-4.95139 0.1413,-0.44608 0.4309,-0.62327 0.7946,-0.48631 0.1302,0.049 0.5364,0.28907 0.9028,0.53347 1.3871,0.92539 1.9823,0.93184 3.1714,0.0344 0.3561,-0.2688 0.6579,-0.48873 0.6706,-0.48873 0.037,0 0.2526,0.7489 0.7899,2.74762 0.277,1.03036 0.6707,2.27903 0.8749,2.77482 1.0305,2.50276 2.4366,8.87977 3.8149,17.30218 1.0653,6.50994 1.6257,11.38967 1.6266,14.16411 l 5e-4,1.39462 -0.2706,-0.008 c -0.1488,-0.004 -0.5141,-0.0576 -0.8118,-0.11841 z"
         id="path7531"
         transform="translate(-950.96343,-1477.6526)" />
      <path
         style="fill:#ffffff;fill-opacity:1;stroke-width:0.0832611"
         d="m 1139.6271,876.16782 c -0.9041,-0.29593 -1.8683,-1.32559 -2.6067,-2.78379 l -0.181,-0.35751 1.3948,-2.75298 c 0.813,-1.60449 1.5199,-2.89383 1.6945,-3.09061 l 0.2997,-0.33763 0.1799,0.19316 c 0.099,0.10624 0.4137,0.64393 0.6994,1.19488 0.2856,0.55094 0.8918,1.56434 1.347,2.25199 1.0492,1.58492 1.2616,2.03039 1.2582,2.63782 0,0.60205 -0.2974,1.07162 -1.2327,1.96958 -1.051,1.009 -1.9826,1.36002 -2.8531,1.07509 z"
         id="path7570"
         transform="translate(-950.96343,-1477.6526)" />
      <path
         style="fill:#ffffff;fill-opacity:1;stroke-width:0.0832611"
         d="m 1161.1645,871.23814 c -0.6345,-0.27528 -1.5919,-1.32366 -2.1257,-2.3276 -0.3839,-0.72206 -0.3287,-0.97233 0.7387,-3.35169 0.4206,-0.9377 0.6534,-1.7052 0.8417,-2.77518 0.2187,-1.2424 0.138,-1.28595 -0.3332,-0.17992 -0.8283,1.94396 -1.5538,3.11664 -2.4425,3.94798 -0.7141,0.66809 -1.2973,0.94134 -2.0135,0.94356 -1.6589,0.005 -3.0339,-1.77306 -4.3276,-5.59661 -0.698,-2.06289 -0.9477,-3.64356 -0.6264,-3.9649 0.2362,-0.23616 1.0152,-0.32712 2.3729,-0.27703 1.727,0.0637 2.9566,0.37303 4.4532,1.12027 1.5649,0.78135 2.669,1.64992 4.9425,3.88821 1.6688,1.64293 2.5561,2.67898 2.8546,3.33304 0.1874,0.4107 0.2004,1.14268 0.029,1.62876 -0.1926,0.54581 -1.1295,1.8985 -1.8327,2.64603 -0.9516,1.01153 -1.7352,1.31034 -2.5309,0.96508 z"
         id="path7609"
         transform="translate(-950.96343,-1477.6526)" />
      <path
         style="fill:#ffffff;fill-opacity:1;stroke-width:0.0832611"
         d="m 1150.2099,868.17526 c -1.7779,-0.58544 -3.2672,-2.68056 -4.4021,-6.1928 -0.3534,-1.09368 -0.3715,-1.3441 -0.1148,-1.58336 0.2172,-0.20249 3.2506,-1.8234 3.7038,-1.97923 0.5312,-0.18259 0.5288,-0.18626 0.8226,1.29219 0.2379,1.19731 1.1687,4.04777 1.7401,5.3287 0.8617,1.9317 0.897,2.16947 0.3865,2.59909 -0.6119,0.51482 -1.5128,0.74065 -2.1361,0.53541 z"
         id="path7648"
         transform="translate(-950.96343,-1477.6526)" />
      <path
         style="fill:#ffffff;fill-opacity:1;stroke-width:0.0832611"
         d="m 1144.4509,869.70856 c -0.4808,-0.11777 -1.0172,-0.5024 -1.7827,-1.27819 -1.7015,-1.72441 -2.0094,-2.69224 -1.2369,-3.88744 0.5562,-0.86066 3.0115,-3.16565 3.3719,-3.16565 0.1636,0 0.2298,0.162 0.5717,1.39936 0.3901,1.41162 0.7937,2.57 1.2491,3.58505 0.1979,0.44122 0.4265,1.01452 0.508,1.27398 0.1915,0.60983 0.09,0.87971 -0.4946,1.31636 -0.8495,0.63442 -1.6103,0.89768 -2.1865,0.75653 z"
         id="path7687"
         transform="translate(-950.96343,-1477.6526)" />
      <path
         style="fill:#ffffff;fill-opacity:1;stroke-width:0.0832611"
         d="m 1147.8786,874.7318 c -1.175,-0.28348 -2.206,-1.12729 -3.1408,-2.57044 -0.2983,-0.46042 -0.3116,-0.50573 -0.1777,-0.60364 0.08,-0.0582 0.2219,-0.10589 0.3162,-0.10592 0.094,-4e-5 0.4087,-0.11234 0.6988,-0.24955 0.6677,-0.31589 1.2966,-0.95267 1.7011,-1.72244 0.3962,-0.75394 0.4943,-0.83822 0.7676,-0.65917 0.4695,0.30764 1.3437,1.64114 2.1998,3.35587 0.2333,0.46724 0.4242,0.92136 0.4242,1.00914 0,0.21482 -0.825,1.02117 -1.321,1.29112 -0.3913,0.21299 -1.1187,0.33934 -1.4682,0.25503 z"
         id="path7726"
         transform="translate(-950.96343,-1477.6526)" />
      <path
         style="fill:#ffffff;fill-opacity:1;stroke-width:0.0832611"
         d="m 1153.0062,873.11404 c -0.9363,-0.44292 -2.1719,-1.93009 -2.1719,-2.61408 0,-0.26853 0.5261,-0.8532 1.4007,-1.55682 0.7356,-0.5917 1.0562,-0.76679 1.2947,-0.70694 0.2768,0.0695 1.0876,0.92844 1.3311,1.41015 0.12,0.23744 0.4021,0.93752 0.627,1.55573 l 0.4088,1.12403 -0.3018,0.31412 c -0.7277,0.75731 -1.6374,0.92382 -2.5886,0.47381 z"
         id="path7765"
         transform="translate(-950.96343,-1477.6526)" />
      <path
         style="fill:#ffffff;fill-opacity:1;stroke-width:0.0832611"
         d="m 1159.3442,874.69967 c -0.4535,-0.20581 -1.2713,-0.9806 -1.7012,-1.61171 -0.486,-0.7135 -1.3285,-2.50402 -1.3758,-2.92418 -0.039,-0.3449 -0.025,-0.37299 0.2964,-0.60596 0.5286,-0.38287 1.2241,-0.72042 1.3696,-0.66461 0.073,0.028 0.3815,0.56534 0.6861,1.19421 0.5251,1.08448 0.5952,1.18476 1.3592,1.94597 0.5323,0.53034 0.9468,0.86638 1.2218,0.99066 0.6371,0.28782 0.6644,0.30678 0.6905,0.47968 0.039,0.25642 -0.4403,0.83485 -0.9182,1.10891 -0.5286,0.3031 -1.0866,0.33293 -1.6284,0.087 z"
         id="path7804"
         transform="translate(-950.96343,-1477.6526)" />
      <path
         style="fill:#ffffff;fill-opacity:1;stroke-width:0.0832611"
         d="m 1163.8593,881.61884 c -0.7347,-0.33368 -1.2819,-0.9846 -2.1878,-2.60225 -0.5549,-0.99095 -0.769,-1.25821 -0.9017,-1.12549 -0.035,0.0351 0.019,0.55835 0.1208,1.16271 0.1524,0.90709 0.1683,1.161 0.091,1.4551 -0.3202,1.2147 -2.099,0.89811 -3.7869,-0.67398 -0.7819,-0.72826 -1.264,-1.37428 -1.7904,-2.39896 -0.4688,-0.91271 -0.6824,-1.07565 -0.5615,-0.42832 0.041,0.21648 0.2417,1.01071 0.4472,1.76495 0.2055,0.75425 0.3737,1.51295 0.3737,1.68601 0,0.47985 -0.2575,0.60991 -1.2077,0.60991 -0.7108,0 -0.7968,-0.0196 -1.4077,-0.32145 -0.7417,-0.36639 -1.6845,-1.20551 -2.2588,-2.01031 -0.1965,-0.2754 -0.5318,-0.85631 -0.745,-1.29091 -0.5101,-1.03955 -0.4968,-1.29975 0.1108,-2.17869 0.5884,-0.85115 0.9993,-1.31746 1.1609,-1.31746 0.074,0 0.3515,0.15148 0.6155,0.33664 0.7305,0.51242 1.188,0.68635 1.8149,0.68997 0.7313,0.004 1.2249,-0.22758 1.9262,-0.90463 0.3066,-0.29606 0.5928,-0.53829 0.636,-0.53829 0.136,0 0.32,0.26816 0.7193,1.04862 0.4263,0.83303 0.8268,1.35056 1.2389,1.60095 0.1481,0.09 0.6905,0.30382 1.2055,0.47528 l 0.9362,0.31173 0.6457,-0.61605 c 0.8533,-0.81408 1.1426,-1.01847 1.2512,-0.88371 0.046,0.0567 0.2375,0.41184 0.4263,0.78921 0.4086,0.81713 0.7453,1.35242 1.5777,2.50877 1.164,1.61683 1.52,2.56821 1.0771,2.87843 -0.2602,0.18228 -1.0983,0.16703 -1.5272,-0.0278 z"
         id="path7843"
         transform="translate(-950.96343,-1477.6526)" />
      <path
         style="fill:#ffffff;fill-opacity:1;stroke-width:0.0832611"
         d="m 1178.7476,894.84831 c -2.2823,-0.32129 -4.1181,-1.53177 -5.4337,-3.58296 -0.2487,-0.38779 -1.4226,-2.15914 -2.6087,-3.93633 -1.186,-1.77719 -2.1612,-3.29462 -2.1671,-3.37207 -0.01,-0.11856 0.048,-0.13424 0.3639,-0.0992 0.2061,0.0229 0.7514,0.0416 1.2119,0.0416 0.7998,0 0.8655,-0.014 1.4691,-0.31244 0.7434,-0.36758 1.376,-0.99882 1.8015,-1.79751 0.2731,-0.51277 0.2965,-0.76255 0.071,-0.76255 -0.063,0 -0.4954,0.18645 -0.9614,0.41433 -1.2262,0.59965 -1.6192,0.69618 -2.648,0.65043 l -0.8574,-0.0381 -0.6888,-0.46002 c -0.7793,-0.52051 -2.2334,-1.67057 -2.5932,-2.05105 l -0.2393,-0.25299 0.6139,-0.18402 c 0.792,-0.23739 1.3333,-0.51043 1.9127,-0.96488 1.0468,-0.821 2.5521,-3.10846 2.0455,-3.10846 -0.061,0 -0.5388,0.42204 -1.0616,0.93786 -0.6501,0.64154 -1.117,1.02568 -1.4776,1.2158 -1.7217,0.90763 -3.002,-0.0161 -4.1341,-2.98267 -0.4136,-1.08372 -0.3975,-1.2931 0.1487,-1.9383 1.187,-1.40218 2.3031,-3.59795 2.4472,-4.81474 0.079,-0.66987 0.1389,-0.67866 0.6886,-0.10163 0.6723,0.70576 1.3216,1.82717 3.3161,5.72705 3.4686,6.78241 5.3514,10.3563 6.0457,11.47579 0.7998,1.28948 1.7537,2.50923 2.8375,3.62827 1.9848,2.04917 3.8497,3.30154 6.1369,4.12118 1.0543,0.37783 1.3058,0.75857 0.8081,1.22347 -0.5173,0.48324 -1.6929,0.92006 -3.2475,1.20675 -0.8263,0.15237 -3.0613,0.2214 -3.8002,0.11739 z"
         id="path7882"
         transform="translate(-950.96343,-1477.6526)" />
      <path
         style="fill:#ffffff;fill-opacity:1;stroke-width:0.0832611"
         d="m 1165.3218,888.11443 c -1.3262,-0.43642 -2.4488,-2.05188 -3.3204,-4.77805 -0.4825,-1.50922 -0.3779,-1.58461 0.8321,-0.59981 0.3487,0.28381 0.8061,0.58171 1.0163,0.66201 0.5679,0.21685 1.2814,0.14631 2.0315,-0.20084 0.5685,-0.2631 0.6122,-0.27103 0.8034,-0.14577 0.2272,0.14891 1.8272,2.48064 2.0219,2.94675 0.093,0.22368 0.1038,0.35047 0.04,0.49049 -0.127,0.27875 -1.1425,1.08687 -1.73,1.37669 -0.5391,0.26594 -1.302,0.37781 -1.6948,0.24853 z"
         id="path9092"
         transform="translate(-950.96343,-1477.6526)" />
      <path
         style="fill:#ffffff;fill-opacity:1;stroke-width:0.0832611"
         d="m 1171.0961,961.25119 c -1.7284,-0.87336 -3.4679,-2.59507 -5.0329,-4.98135 -1.9546,-2.98044 -3.0842,-6.51134 -3.6145,-11.29846 -0.1623,-1.46467 -0.3381,-5.60838 -0.2561,-6.03611 l 0.064,-0.33272 0.148,0.18272 c 0.081,0.10049 0.3081,0.54996 0.5038,0.99881 0.9567,2.19426 1.6813,3.37515 2.7025,4.40381 1.0645,1.07234 2.0224,1.63001 3.6244,2.11022 1.5367,0.46061 1.6535,0.80191 1.9973,5.83372 0.1736,2.54005 0.294,3.79679 0.4189,4.37121 0.1361,0.62613 0.4085,2.66319 0.498,3.72552 0.092,1.08935 0.047,1.39503 -0.2026,1.39503 -0.063,0 -0.4452,-0.16758 -0.8505,-0.3724 z"
         id="path9390"
         transform="translate(-950.96343,-1477.6526)" />
      <path
         style="fill:#ffffff;fill-opacity:1;stroke-width:0.117749"
         d="m 1159.8941,933.73535 c -1.8611,-0.99077 -3.3612,-2.06893 -4.4308,-3.1845 -2.1058,-2.1965 -2.8382,-4.70205 -3.3504,-11.46167 -0.2162,-2.85283 -0.6595,-6.40779 -1.4662,-11.75853 -1.078,-7.1489 -1.6287,-10.07319 -2.6611,-14.13008 -0.3521,-1.3835 -0.6401,-2.58758 -0.6401,-2.67575 0,-0.12254 0.2161,-0.15751 0.9174,-0.14843 0.7191,0.009 1.0233,-0.0421 1.4071,-0.23795 0.8569,-0.43715 1.7856,-1.93949 1.0607,-1.71587 -0.1457,0.0449 -0.408,0.15449 -0.5829,0.24343 -0.1748,0.0889 -0.6281,0.1617 -1.0071,0.1617 -2.0872,0 -3.9591,-2.34906 -4.3299,-5.43366 -0.088,-0.72984 0.01,-1.39577 0.2054,-1.39577 0.069,0 0.3844,0.15969 0.7016,0.35488 1.2077,0.74309 2.0615,0.74336 3.232,10e-4 0.3087,-0.19576 0.6568,-0.35592 0.7737,-0.35592 0.1538,0 0.2124,-0.0903 0.2124,-0.32705 0,-0.40428 0.2983,-0.85044 0.5685,-0.85044 0.1111,0 0.5011,0.30978 0.8666,0.68841 1.0586,1.0963 1.9255,1.38517 3.0559,1.01822 0.8434,-0.27381 1.3274,-0.57832 1.4915,-0.93837 0.074,-0.1635 0.2091,-0.29727 0.299,-0.29727 0.09,0 0.5018,0.25834 0.9151,0.57409 1.0362,0.7916 1.37,0.87867 2.9822,0.77793 l 1.3349,-0.0834 0.077,0.63149 c 0.043,0.34732 0.1896,1.22704 0.3267,1.95492 0.298,1.58174 0.2581,1.72628 -0.6389,2.31514 -0.825,0.54158 -1.3363,0.62768 -1.9941,0.33573 -0.9371,-0.41595 -1.8132,-1.64665 -2.6454,-3.71601 -0.2516,-0.62587 -0.5023,-1.13873 -0.5569,-1.13968 -0.136,-0.002 0,0.92512 0.3938,2.62965 0.3234,1.41062 0.3249,1.43436 0.1068,1.74059 -1.5114,2.12261 -3.7395,1.35953 -5.2811,-1.80867 -0.3236,-0.66505 -0.7047,-1.65957 -0.8469,-2.21005 -0.3718,-1.43884 -0.4979,-1.45667 -0.4164,-0.0589 0.1312,2.24985 0.8652,4.43302 2.045,6.08221 0.8378,1.1712 0.9859,1.52766 1.5036,3.61939 0.2182,0.88126 0.9538,3.80126 1.6347,6.48888 0.6809,2.68762 1.5099,6.10528 1.8422,7.5948 0.3323,1.48953 0.7826,3.42355 1.0007,4.29784 1.3584,5.44558 2.2143,11.47806 2.715,19.1342 0.1855,2.83727 0.1645,3.59134 -0.1004,3.59134 -0.079,0 -0.4031,-0.13857 -0.7213,-0.30794 z"
         id="path9613"
         transform="translate(-950.96343,-1477.6526)" />
      <path
         style="fill:#ffffff;fill-opacity:1;stroke-width:0.117749"
         d="m 1168.5973,944.182 c -1.6289,-0.93436 -3.4078,-3.13051 -5.4988,-6.78862 l -0.8782,-1.5365 -0.1387,-3.9977 c -0.2339,-6.7436 -0.4486,-8.47395 -2.0157,-16.24346 -1.4909,-7.39169 -1.9708,-9.37109 -3.9112,-16.13174 -1.5498,-5.39949 -2.3313,-8.22987 -2.3322,-8.4465 -5e-4,-0.1279 0.2262,-0.31914 0.6075,-0.51234 0.7525,-0.38135 1.7178,-1.33145 2.1865,-2.15212 l 0.3538,-0.61936 0.422,0.4931 c 1.7675,2.06491 3.6536,7.95167 6.7695,21.12813 2.121,8.96955 2.3531,10.13497 4.1981,21.07706 1.4334,8.50099 1.9681,13.02884 1.6396,13.88474 -0.1122,0.29232 -0.7445,0.22256 -1.4022,-0.15469 z"
         id="path9652"
         transform="translate(-950.96343,-1477.6526)" />
      <path
         style="fill:#ffffff;fill-opacity:1;stroke-width:0.117749"
         d="m 1185.077,943.94908 c -1.6093,-0.41863 -3.0532,-1.90016 -4.3179,-4.43047 -0.71,-1.42046 -1.2431,-2.92692 -2.0833,-5.88744 -0.386,-1.36 -1.2106,-4.03585 -1.8323,-5.94632 -1.0607,-3.25902 -1.8834,-6.10588 -1.7911,-6.19813 0.022,-0.0224 0.5632,0.71394 1.2018,1.63629 1.5354,2.21768 2.1913,3.0288 3.3165,4.10123 1.0703,1.02008 1.8973,1.47438 3.0236,1.66102 0.5273,0.0874 0.7823,0.183 0.7823,0.29336 0,0.2697 1.4617,4.53384 3.0723,8.96286 0.8314,2.28639 1.5451,4.33503 1.5859,4.55254 0.1075,0.57325 -0.035,0.88586 -0.4892,1.07578 -0.4825,0.20162 -1.968,0.3095 -2.4686,0.17928 z"
         id="path9691"
         transform="translate(-950.96343,-1477.6526)" />
      <path
         style="fill:#ffffff;fill-opacity:1;stroke-width:0.117749"
         d="m 1188.8677,974.24436 c -2.7926,-0.67595 -4.7091,-3.2665 -6.489,-8.77136 -1.7945,-5.55018 -4.6757,-18.94016 -7.2968,-33.91065 -0.3579,-2.04452 -0.7582,-4.2393 -0.8895,-4.8773 -0.5815,-2.82614 -1.3466,-7.99608 -1.274,-8.60835 0.062,-0.52201 0.9599,2.26986 2.2761,7.07655 1.3338,4.87129 1.7675,6.32577 3.4933,11.71601 2.125,6.63698 2.3113,7.23005 3.2331,10.29523 1.8923,6.29249 6.2737,18.06994 9.0265,24.26408 1.0159,2.286 1.1104,2.58103 0.9059,2.8275 -0.1909,0.22994 -2.0168,0.22278 -2.9856,-0.0117 z"
         id="path9730"
         transform="translate(-950.96343,-1477.6526)" />
      <path
         style="fill:#ffffff;fill-opacity:1;stroke-width:0.117749"
         d="m 1181.6966,927.33688 c -1.9816,-1.25668 -5.5226,-5.66517 -7.0391,-8.76356 -0.8849,-1.80784 -1.3598,-3.25997 -4.3371,-13.26077 -3.8097,-12.79694 -4.1967,-14.21445 -4.1153,-15.07233 0.034,-0.35531 0.1161,-0.45321 0.6022,-0.71536 0.7959,-0.42915 1.3973,-1.05835 1.8536,-1.93913 0.2165,-0.41787 0.4361,-0.75976 0.488,-0.75976 0.2144,0 1.1953,1.43317 1.85,2.70323 1.6581,3.21628 2.5208,5.82739 4.709,14.25262 1.3393,5.15724 1.8023,6.73241 3.8417,13.07013 2.2369,6.95151 3.2328,10.4382 3.0609,10.71643 -0.1179,0.19075 -0.3347,0.13584 -0.9139,-0.2315 z"
         id="path9845"
         transform="translate(-950.96343,-1477.6526)" />
      <path
         style="fill:#ffffff;fill-opacity:1;stroke-width:0.235498"
         d="m 1185.8493,1003.357 c -1.3658,-0.229 -2.1026,-0.8124 -3.2996,-2.6129 -1.5551,-2.33932 -3.0108,-5.85893 -4.0111,-9.69834 -0.8514,-3.26812 -2.7144,-15.35295 -4.7124,-30.56784 -1.833,-13.95782 -3.425,-25.25873 -3.9651,-28.14585 -0.3146,-1.68169 -0.801,-4.54125 -1.0809,-6.35458 -1.1793,-7.63861 -4.5712,-21.8625 -7.1782,-30.10185 -0.9764,-3.08554 -1.7752,-5.7084 -1.7752,-5.82857 0,-0.12018 0.1781,-0.2185 0.3957,-0.2185 0.2176,0 0.8622,-0.50102 1.4325,-1.11337 0.9109,-0.97814 1.0647,-1.06362 1.2661,-0.70373 0.126,0.22531 0.6296,0.78011 1.119,1.2329 0.4894,0.45278 1.016,1.21985 1.1703,1.70459 1.2273,3.85633 3.4277,11.57826 4.0426,14.18697 0.8395,3.56176 1.3538,6.426 4.7081,26.21888 3.5005,20.65574 5.8283,31.57357 8.0361,37.68965 1.5079,4.17732 1.5511,4.3535 2.5631,10.45708 1.1466,6.91489 2.4363,13.18909 3.922,19.08043 0.6312,2.50293 0.9983,4.39143 0.8755,4.50403 -0.3142,0.2882 -2.4306,0.4516 -3.5085,0.271 z"
         id="path9955"
         transform="translate(-950.96343,-1477.6526)" />
    </g>
  </g>
</svg>
