<?xml version="1.0" encoding="UTF-8"?>
<!DOCTYPE svg PUBLIC "-//W3C//DTD SVG 1.1//EN" "http://www.w3.org/Graphics/SVG/1.1/DTD/svg11.dtd">
<!-- Creator: CorelDRAW X8 -->
<svg xmlns="http://www.w3.org/2000/svg" xml:space="preserve" width="76.2mm" height="50.8mm" version="1.1" style="shape-rendering:geometricPrecision; text-rendering:geometricPrecision; image-rendering:optimizeQuality; fill-rule:evenodd; clip-rule:evenodd"
viewBox="0 0 7620 5080"
 xmlns:xlink="http://www.w3.org/1999/xlink">
 <defs>
  <style type="text/css">
   <![CDATA[
    .str0 {stroke:#40BDAD;stroke-width:16.93}
    .fil0 {fill:#40BDAD}
    .fil1 {fill:white}
   ]]>
  </style>
 </defs>
 <g id="Слой_x0020_1">
  <metadata id="CorelCorpID_0Corel-Layer"/>
  <rect class="fil0 str0" x="-8" width="7628" height="5080"/>
  <g id="Flag_of_the_Bukharan_People_x0027_s_Soviet_Republic.svg">
   <path id="path13" class="fil1" d="M4200 2200l133 189 209 -62 -129 180 125 192 -213 -79 -129 180 1 -229 -206 -81 209 -62 0 -228zm5 117z"/>
   <path id="path21" class="fil1" d="M4145 3322c-101,36 -216,60 -330,60 -497,0 -904,-384 -904,-863 0,-480 407,-863 904,-863 114,0 229,24 330,60 -38,-12 -63,-12 -89,-12 -356,0 -649,371 -649,815 0,443 293,815 649,815 26,0 64,0 89,-12l0 0z"/>
  </g>
 </g>
</svg>
