<?xml version="1.0" encoding="UTF-8"?>
<!DOCTYPE svg PUBLIC "-//W3C//DTD SVG 1.1//EN" "http://www.w3.org/Graphics/SVG/1.1/DTD/svg11.dtd">
<!-- Creator: CorelDRAW X8 -->
<svg xmlns="http://www.w3.org/2000/svg" xml:space="preserve" width="76.2mm" height="50.8mm" version="1.1" style="shape-rendering:geometricPrecision; text-rendering:geometricPrecision; image-rendering:optimizeQuality; fill-rule:evenodd; clip-rule:evenodd"
viewBox="0 0 7620 5080"
 xmlns:xlink="http://www.w3.org/1999/xlink">
 <defs>
  <style type="text/css">
   <![CDATA[
    .str0 {stroke:#C2FFBA;stroke-width:16.93}
    .fil1 {fill:black}
    .fil0 {fill:#C2FFBA}
   ]]>
  </style>
 </defs>
 <g id="Слой_x0020_1">
  <metadata id="CorelCorpID_0Corel-Layer"/>
  <rect class="fil0 str0" x="-8" width="7628" height="5080"/>
  <g id="_2431786854864">
   <path class="fil1" d="M4539 2732c35,0 59,-9 85,-16 66,-16 385,-96 421,-89 60,12 114,135 60,179 -28,22 -113,60 -130,60 -13,0 -403,-120 -436,-123l0 -11zm-2482 -565c38,9 79,23 118,34l1577 452c41,12 80,23 121,35l124 44c-19,0 -42,6 -57,10l-176 42c-80,21 -154,38 -235,55 -144,31 -322,81 -470,112 -220,47 -476,116 -705,167 -38,8 -77,19 -117,29 -38,9 -79,17 -118,26 0,47 22,80 22,129 33,-1 215,-48 265,-59 260,-59 543,-134 799,-190 256,-56 546,-136 796,-188 54,-12 232,-61 270,-61l562 159c144,41 118,50 204,21 162,-54 272,-147 200,-335 -12,-31 -28,-60 -51,-84 -61,-61 -77,-65 -191,-70 -59,-2 -698,178 -742,165l-2157 -621 -39 128z"/>
   <path class="fil1" d="M5763 1642l0 1610c0,15 -2,15 -5,28l134 0 0 -1672c-169,0 -129,-6 -129,34z"/>
  </g>
 </g>
</svg>
