<?xml version="1.0" encoding="utf-8"?>
<svg version="1.1" xmlns="http://www.w3.org/2000/svg" xmlns:xlink="http://www.w3.org/1999/xlink" x="0px" y="0px"
	 width="1200px" height="600px" viewBox="0 0 1200 600" enable-background="new 0 0 1200 600" xml:space="preserve">
<rect x="0" fill="#ffc000" width="1200" height="150"/>
<rect x="0" fill="#ed2939" width="1200" height="600"/>
<rect x="0" fill="#00b9e4" width="1200" height="150"/>
<path
     d="M 567.83603,173.97229 C 496.35649,173.97229 438.34411,230.4327 438.34411,300 C 438.34411,369.5673 496.35649,426.02771 567.83603,426.02771 C 612.62688,426.02771 652.13174,403.86266 675.38626,370.19043 C 655.62888,391.5578 627.01182,405.02309 595.17321,405.02309 C 535.60693,405.02309 487.26328,357.97275 487.26328,300 C 487.26328,242.02725 535.60693,194.97691 595.17321,194.97691 C 627.01182,194.97691 655.62888,208.4422 675.38626,229.80957 C 652.13174,196.13734 612.62688,173.97229 567.83603,173.97229 z M 762.62084,349.47365 L 725.50436,332.3335 L 711.7664,370.0154 L 697.97413,332.35229 L 660.8824,349.54309 L 678.49367,313.41956 L 639.77598,300.04912 L 678.47436,286.62583 L 660.81102,250.52638 L 697.92752,267.66651 L 711.66547,229.9846 L 725.45774,267.64771 L 762.54948,250.45691 L 744.9382,286.58046 L 783.6559,299.95088 L 744.95753,313.37417 L 762.62084,349.47365 z"
     id="circle2671"
     style="fill:#ffc000;fill-opacity:1" />
  <path
     d="M 0,525 L 0,450 L 600.00001,450 L 1200,450 L 1200,525 L 1200,600 L 600.00001,600 L 0,600 L 0,525 z"
     id="path3567"
     style="fill:#ffc000;fill-opacity:1;stroke:#ececec;stroke-width:0;stroke-linecap:round;stroke-linejoin:miter;stroke-miterlimit:4;stroke-dasharray:none;stroke-opacity:1" />
</svg>
