<?xml version="1.0" encoding="UTF-8"?>
<!DOCTYPE svg PUBLIC "-//W3C//DTD SVG 1.1//EN" "http://www.w3.org/Graphics/SVG/1.1/DTD/svg11.dtd">
<!-- Creator: CorelDRAW X8 -->
<svg xmlns="http://www.w3.org/2000/svg" xml:space="preserve" width="135.467mm" height="76.2mm" version="1.1" style="shape-rendering:geometricPrecision; text-rendering:geometricPrecision; image-rendering:optimizeQuality; fill-rule:evenodd; clip-rule:evenodd"
viewBox="0 0 13547 7620"
 xmlns:xlink="http://www.w3.org/1999/xlink">
 <defs>
  <style type="text/css">
   <![CDATA[
    .str0 {stroke:#FFB700;stroke-width:16.93}
    .fil1 {fill:#010000}
    .fil2 {fill:#6B4D00}
    .fil0 {fill:#FFB700}
   ]]>
  </style>
 </defs>
 <g id="Слой_x0020_1">
  <metadata id="CorelCorpID_0Corel-Layer"/>
  <rect class="fil0 str0" x="-25" y="-34" width="13547" height="7671"/>
  <g id="_1372371824400">
   <path class="fil1" d="M4402 1751c-105,-50 -236,42 -269,113 -54,117 40,198 40,319 0,117 -70,140 -85,194 72,-16 161,-114 161,-203 0,-181 -81,-342 136,-347 -15,53 -136,10 -127,169l21 203c116,-30 72,-133 61,-219 -3,-33 38,-73 78,-77 -94,142 -33,56 -33,212 0,89 -121,101 -144,203 68,-18 296,-140 296,-262 0,-91 -68,-124 -68,-187 0,-54 144,-110 212,-110 154,0 262,126 262,280 0,385 -764,564 -851,1079 -51,303 163,479 397,544 247,68 375,-12 398,85 40,177 124,136 124,442 0,229 -218,434 -362,527 -275,177 -468,79 -239,430 118,180 229,360 349,540 223,336 197,237 350,310 123,59 69,53 131,98l63 -188c41,5 113,16 131,37 20,21 51,147 51,-35 0,-26 -8,-34 -17,-51l143 -45 49 73c29,-41 -7,-117 -33,-229 -14,-60 -48,-108 -105,-132 -160,-68 -281,54 -375,54 -41,0 -188,-199 -218,-240 -110,-145 -75,-184 -146,-319 273,-145 611,-216 883,-353 159,-79 241,-136 263,-354 20,-198 75,-347 276,-351l0 17c-344,80 -109,348 -318,605 -167,206 -97,44 -97,224 0,113 -164,126 -178,178 -15,42 258,211 390,373 74,91 79,175 202,176 101,0 213,77 213,179 52,-35 42,-169 152,-169 29,0 33,6 59,8l31 80 30 -130c127,-43 93,-56 146,45 15,-40 22,-26 22,-71 0,-158 7,-271 -169,-271 -116,0 -169,69 -238,85 -56,-38 -294,-256 -313,-314 -40,-125 254,-138 254,-372 0,-250 -311,-321 -330,-347 96,-131 613,282 703,330 119,64 239,116 368,173 85,38 311,180 377,81 -38,-56 -210,-93 -102,-254 -110,-53 -170,-47 -260,-137 -98,-97 -80,-217 -158,-241 -209,-63 -357,-166 -460,-335 -171,-283 -53,-239 -375,-421 -284,-162 -427,-195 -753,-195 -289,0 -560,195 -745,195 -197,0 -373,-128 -373,-322 0,-416 838,-599 838,-1101 0,-221 -220,-423 -440,-423 -158,0 -196,19 -279,144z"/>
   <path class="fil1" d="M8347 6001c-13,-55 -55,-122 5,-173 48,-41 84,-91 148,-74 186,50 203,70 363,-15 141,103 72,79 277,138 60,17 106,30 125,88 28,90 -34,94 -63,138 114,9 170,-87 178,-204 13,-189 -110,-186 -152,-245 81,-43 203,-29 255,32 90,106 45,148 -10,231 279,0 84,-407 -33,-501 -82,-67 -300,-44 -171,-161 94,-85 248,79 272,86 0,-168 -169,-238 -344,-208 -197,32 -229,177 -325,242 -85,-7 -395,-361 -460,-438 -68,-80 -149,-150 -216,-232 -88,-110 15,-218 33,-346 63,-452 -541,-799 -854,-933 -470,-201 -813,-287 -1138,-657 -221,-253 -377,-532 -484,-862 -19,-61 -73,-331 -115,-342 -121,81 -13,698 24,805 153,450 500,749 895,976 68,39 632,284 639,301 -104,50 -815,-358 -912,-426 -126,-90 -263,-203 -359,-319 -38,-46 -268,-392 -287,-398 0,397 359,788 604,954 158,107 313,201 494,285 71,33 525,211 536,252l-9 20 -778 -352c-1,179 225,375 350,447 97,56 177,83 312,73 109,-8 241,56 277,125 -63,-5 -197,-157 -330,-68 -78,163 284,327 423,339l-101 51c-72,150 208,190 247,226 31,29 51,96 101,144 64,61 90,54 170,85 92,37 540,370 557,434 -114,26 -270,19 -259,166 7,91 43,297 115,316z"/>
   <path class="fil1" d="M8491 4206c23,48 -51,161 -87,143 -15,-7 62,-140 87,-143zm-152 -296l33 0c14,59 17,-3 17,118 0,44 -7,67 -42,77 7,-67 20,-131 -8,-195zm169 -59c0,19 -3,10 -9,34 -26,-7 -80,-179 -78,-195 11,-65 87,90 87,161zm-423 -77l-26 0c-15,-63 -108,-169 -87,-180 42,-19 113,107 113,180zm160 -25c-19,-5 -112,-202 -95,-210 40,-20 123,153 95,210zm-414 -415c43,-20 217,108 204,139 -7,17 -199,-99 -204,-139zm-331 -17c61,0 214,80 184,110 -20,20 -178,-69 -184,-110zm575 -15c55,-28 211,108 213,168l-213 -168zm-617 -146l214 99 -15 27 -197 -104 -2 -22zm237 -59l187 95 -14 23 -172 -94 -1 -24zm-25 -880c38,-52 181,-59 203,33 -17,9 -25,17 -51,17 -54,0 -130,-20 -152,-50zm-712 -34l60 67c-92,22 -130,159 -153,254l73 -54c-78,173 -73,204 -73,385 0,411 449,520 740,666 230,115 657,428 657,748l0 101c0,154 -227,513 285,82 122,-102 130,-342 130,-505 0,-244 -147,-378 -245,-525l135 -161c-46,24 -83,34 -144,34 -78,0 -118,-86 -147,-141 -48,-91 -105,-98 -141,-147l69 -4 -159 -121 18 -60c-27,1 -190,78 -190,-60 0,-86 90,-85 144,-85 141,0 188,22 257,-81 16,-23 130,-216 132,-224 -37,-54 -244,-152 -372,-152 -176,0 -32,-74 -150,-147 -31,-19 -197,-70 -240,-73 11,-83 56,-318 -51,-356l-17 -8 -84 160c0,-83 -53,-259 -107,-141 -40,87 -49,139 -101,221 -78,121 -139,327 -326,327z"/>
   <path class="fil1" d="M8914 3800c0,393 102,184 -216,598 -40,52 -65,2 -168,85 -43,35 -135,95 -158,138 32,60 114,113 170,152 80,58 119,107 205,11 57,-63 248,-324 311,-341 42,31 266,452 398,254 -134,0 -138,-28 -174,-139 -42,-131 19,-116 29,-243 8,-98 74,-134 153,-162 119,-42 117,111 153,138 11,-49 17,-6 17,-93 0,-141 -201,-254 -364,-254 0,-73 30,-119 101,-119 81,0 94,48 136,60 -9,-106 -149,-204 -263,-204 -79,0 -92,39 -143,51 -41,-173 179,-276 194,-93 98,-66 -40,-195 -161,-195 -156,0 -220,193 -220,356z"/>
   <polygon class="fil2" points="8347,6001 8347,6010 8357,6003 "/>
  </g>
 </g>
</svg>
