<?xml version="1.0" encoding="UTF-8" standalone="no"?>
<svg
   xmlns:dc="http://purl.org/dc/elements/1.1/"
   xmlns:cc="http://creativecommons.org/ns#"
   xmlns:rdf="http://www.w3.org/1999/02/22-rdf-syntax-ns#"
   xmlns:svg="http://www.w3.org/2000/svg"
   xmlns="http://www.w3.org/2000/svg"
   xmlns:sodipodi="http://sodipodi.sourceforge.net/DTD/sodipodi-0.dtd"
   xmlns:inkscape="http://www.inkscape.org/namespaces/inkscape"
   width="703.18683mm"
   height="306.16071mm"
   viewBox="0 0 703.18683 306.16071"
   version="1.1"
   id="svg8"
   inkscape:version="1.0.2 (e86c870879, 2021-01-15, custom)"
   sodipodi:docname="Flag of Khalaj People (Fictive).svg">
  <defs
     id="defs2" />
  <sodipodi:namedview
     id="base"
     pagecolor="#ffffff"
     bordercolor="#666666"
     borderopacity="1.0"
     inkscape:pageopacity="0.0"
     inkscape:pageshadow="2"
     inkscape:zoom="0.35"
     inkscape:cx="1105.1331"
     inkscape:cy="623.42554"
     inkscape:document-units="mm"
     inkscape:current-layer="layer1"
     inkscape:document-rotation="0"
     showgrid="false"
     fit-margin-top="0"
     fit-margin-left="0"
     fit-margin-right="0"
     fit-margin-bottom="0"
     inkscape:window-width="1920"
     inkscape:window-height="1017"
     inkscape:window-x="-8"
     inkscape:window-y="-8"
     inkscape:window-maximized="1" />
  <metadata
     id="metadata5">
    <rdf:RDF>
      <cc:Work
         rdf:about="">
        <dc:format>image/svg+xml</dc:format>
        <dc:type
           rdf:resource="http://purl.org/dc/dcmitype/StillImage" />
        <dc:title></dc:title>
      </cc:Work>
    </rdf:RDF>
  </metadata>
  <g
     inkscape:label="Layer 1"
     inkscape:groupmode="layer"
     id="layer1"
     transform="translate(131.94826,-41.004068)">
    <g
       inkscape:label="Layer 1"
       id="layer1-9"
       transform="translate(-136.86075,70.198824)">
      <rect
         style="fill:#00b9e4;fill-opacity:1;stroke-width:0.264999"
         id="rect833"
         width="235.10118"
         height="306.16071"
         x="4.9124932"
         y="-29.194756" />
      <path
         style="fill:#ffffff;fill-opacity:1;stroke:none;stroke-width:0.240783;stroke-miterlimit:4;stroke-dasharray:none"
         d="m 125.95902,183.92892 c -0.6376,-0.41951 -0.73146,-0.64178 -0.86418,-2.04653 -0.0819,-0.86674 -0.14965,-5.69941 -0.15059,-10.73926 -10e-4,-6.96095 -0.074,-9.25665 -0.30267,-9.55155 -0.33243,-0.4288 -4.14691,-2.17972 -15.68226,-7.19845 l -7.67671,-3.33996 h -2.238809 -2.23881 l -1.19179,1.98634 c -1.73526,2.89212 -2.0816,3.64733 -3.28835,7.17043 -1.03775,3.0297 -1.08984,3.31036 -1.08984,5.87205 v 2.69029 l -0.9313,0.90939 c -0.89474,0.87368 -0.96799,0.89942 -1.86596,0.65563 -1.04703,-0.28428 -3.7101,-1.78668 -5.23058,-2.95088 -1.3826,-1.05864 -2.80673,-2.42203 -2.80673,-2.68702 0,-0.12133 0.37377,-0.83588 0.83059,-1.5879 0.76181,-1.25409 0.93538,-1.39415 2.09624,-1.69166 2.51648,-0.64497 4.06119,-3.01896 8.15528,-12.53358 1.98291,-4.60826 3.06031,-6.73248 3.50035,-6.90134 0.76356,-0.29301 12.733249,4.21549 23.910369,9.00608 4.14084,1.77479 5.47774,2.25207 5.77844,2.06294 0.52422,-0.32972 0.77201,-6.04621 0.69153,-15.9538 l -0.0596,-7.33192 -2.37478,-1.39971 c -1.30613,-0.76984 -3.85225,-2.35703 -5.65805,-3.52706 -4.71018,-3.05189 -7.37028,-4.44975 -8.11299,-4.26334 -1.33168,0.33422 -3.13776,2.42841 -5.65509,6.5572 -1.38747,2.27566 -1.43345,2.40475 -1.44077,4.04528 -0.007,1.64789 -0.76982,6.76568 -1.04966,7.04552 -0.14457,0.14457 -4.844859,-2.48953 -7.081869,-3.96875 -1.38613,-0.91659 -2.4547,-2.26785 -2.4547,-3.10409 0,-0.4161 0.24544,-0.60821 1.16893,-0.91494 2.23231,-0.74146 5.28839,-3.01786 6.60136,-4.91719 0.42339,-0.61248 1.854869,-3.27787 3.181069,-5.92308 1.94377,-3.87701 2.56988,-4.91564 3.22937,-5.35709 1.68688,-1.12915 3.51751,-0.65177 10.93314,2.8511 2.49051,1.17642 4.57284,2.13895 4.62739,2.13895 0.0545,0 1.01637,0.54172 2.13735,1.20384 1.12098,0.66211 2.142,1.20384 2.26892,1.20384 0.47347,0 0.61023,-0.94717 0.71093,-4.92361 0.092,-3.63392 -0.15456,-11.34221 -0.5873,-18.358631 l -0.15146,-2.45581 -1.83127,-1.41618 c -1.91447,-1.4805 -6.26709,-4.14563 -6.77056,-4.14563 -0.61992,0 -2.07681,1.03993 -2.80528,2.00242 -1.94056,2.56395 -3.92688,7.67436 -4.60658,11.851861 -0.3335,2.04972 -0.48571,2.51723 -0.81963,2.51755 -0.41505,5.1e-4 -3.85904,-2.24669 -7.71967,-5.03684 -1.835889,-1.32685 -2.070869,-1.576141 -1.805759,-1.915771 0.16763,-0.21472 1.998239,-2.17811 4.068029,-4.36308 5.52294,-5.83029 10.2741,-11.41739 10.99542,-12.93002 0.20819,-0.43657 0.49635,-0.79377 0.64036,-0.79377 0.66938,0 3.41176,1.94519 6.14971,4.36203 3.95027,3.48697 5.12816,4.08762 5.69209,2.9026 0.1054,-0.22151 0.22947,-3.50569 0.27571,-7.29819 l 0.0841,-6.89544 -1.46094,-1.12416 c -0.80352,-0.6183 -1.46094,-1.3105 -1.46094,-1.53824 0,-0.46499 0.39079,-1.03832 2.67587,-3.92589 0.87582,-1.10674 1.75938,-2.33729 1.96346,-2.73455 0.38585,-0.75113 1.54831,-1.96325 1.71344,-1.78665 0.39396,0.42129 5.44487,7.77995 5.44487,7.93261 0,0.10726 0.0659,0.36676 0.14647,0.5767 0.10005,0.26072 -0.43435,0.97853 -1.68635,2.26508 l -1.83281,1.88338 0.24989,5.03785 c 0.35929,7.24344 0.61849,8.52898 1.71962,8.52898 0.96204,0 2.00749,-0.70859 7.7411,-5.24685 2.75561,-2.18112 2.87706,-2.24816 3.79253,-2.0935 0.87697,0.14817 1.16889,0.44256 4.01509,4.04913 4.05824,5.14237 7.63664,9.35301 10.53784,12.39966 1.30644,1.371931 2.26058,2.559561 2.12775,2.648441 -0.13244,0.0886 -2.1677,1.55422 -4.52278,3.25687 l -4.28196,3.09571 -1.1424,-1.12522 -1.14241,-1.12524 -0.16515,-3.29078 -0.16515,-3.290811 -1.33426,-2.53198 c -0.73383,-1.39259 -1.732,-3.16298 -2.21816,-3.93419 l -0.88392,-1.40221 -1.92615,0.15385 c -1.82562,0.14584 -1.97526,0.20235 -2.86734,1.08292 l -0.94118,0.92906 0.27455,1.66241 c 0.2651,1.60526 0.38193,1.8067 3.39703,5.856981 1.91692,2.57503 3.52223,4.48062 4.15779,4.93552 1.31563,0.94164 1.39651,1.49538 0.38679,2.64841 -0.78355,0.89474 -4.6973,2.99096 -5.5843,2.99096 -0.21926,0 -0.82971,-0.28526 -1.35657,-0.63392 l -0.9579,-0.63391 v -3.40519 -3.40518 l -1.50102,-2.16068 c -2.5418,-3.658831 -4.42583,-5.293641 -5.58707,-4.848031 -0.19121,0.0734 -0.53112,0.4134 -0.75535,0.75563 -0.3726,0.56866 -0.38127,0.91695 -0.10063,4.045811 0.16888,1.88296 0.37312,7.26985 0.45385,11.97085 l 0.1468,8.54727 0.60192,0.068 c 0.40049,0.0453 1.4882,-0.47301 3.25037,-1.5487 7.46705,-4.55812 9.1561,-5.53603 12.02466,-6.96204 1.71394,-0.85203 3.35413,-1.54913 3.64489,-1.54913 0.41811,0 0.74466,0.41528 1.56194,1.98633 1.44714,2.78185 3.69817,6.61089 6.62208,11.26435 l 2.50144,3.98111 2.17268,1.06497 c 2.23001,1.09304 3.61484,2.1311 3.61484,2.70964 0,0.68822 -1.70171,1.90794 -5.41729,3.88288 l -3.85228,2.04762 -0.31944,-0.88832 c -0.17569,-0.48857 -0.58496,-2.13429 -0.90948,-3.65715 -1.64351,-7.71224 -4.75696,-13.27169 -7.76997,-13.8743 -0.60256,-0.12051 -0.86311,-0.0163 -1.46488,0.58537 -1.3449,1.3449 -0.93895,2.87389 1.61941,6.09923 1.95676,2.46692 3.21279,4.36568 4.24565,6.4182 l 0.88393,1.75656 -0.4681,0.65112 c -0.25746,0.35811 -0.77595,0.93801 -1.1522,1.28864 -0.95931,0.89398 -4.81558,3.33515 -5.26847,3.33515 -0.60839,0 -1.61728,-0.62052 -2.49686,-1.53569 l -0.82124,-0.85447 0.98354,-1.06701 c 1.12588,-1.22142 1.5404,-2.40602 1.26666,-3.61974 -0.42986,-1.90596 -3.3857,-6.18635 -5.04349,-7.30352 -1.74275,-1.17445 -3.60247,-0.49253 -7.37219,2.70318 l -2.27211,1.92615 0.008,2.64845 c 0.006,1.98839 0.62556,20.66024 0.69733,21.00701 0.0413,0.19949 2.71748,0.003 4.2388,-0.31127 2.99928,-0.61953 4.90632,-1.53712 13.71089,-6.59727 5.91184,-3.39763 11.23159,-5.79198 12.8686,-5.79198 0.56097,0 1.97797,1.99428 2.74119,3.85792 0.24276,0.59281 0.59005,1.3487 0.77175,1.67974 1.17671,2.14397 2.25248,4.34075 2.50099,5.10709 0.35226,1.08632 5.00142,8.17831 6.67601,10.18382 1.81609,2.17498 1.90991,2.41801 1.19069,3.08456 -0.69831,0.64716 -4.57374,2.82952 -6.37927,3.59233 -2.00509,0.84714 -1.65485,1.45289 -4.81825,-8.33351 -0.9362,-2.89632 -2.1097,-6.15761 -2.60776,-7.24735 l -0.90555,-1.98132 -3.49113,-0.15759 -3.49114,-0.15759 -1.02327,1.07075 c -0.60809,0.63632 -1.02111,1.29624 -1.01797,1.62651 0.009,0.9222 0.78491,2.35991 3.62022,6.70607 2.60157,3.98786 3.59753,5.92526 3.59753,6.99817 0,0.94841 -1.4266,2.02612 -3.63326,2.74475 -2.33383,0.76004 -3.03982,0.70482 -4.06243,-0.3178 -0.6068,-0.6068 -0.66324,-0.84152 -0.81897,-3.40548 -0.16625,-2.73721 -0.17513,-2.76885 -1.47717,-5.26204 -1.7571,-3.36458 -2.70577,-4.60362 -3.53204,-4.61319 -0.35353,-0.004 -2.14123,0.77221 -3.97267,1.72513 -5.57589,2.90118 -6.8698,3.508 -8.71929,4.08915 l -1.77788,0.55863 0.17368,10.52373 0.17367,10.52376 -0.56271,0.12437 c -0.3095,0.0684 -2.36707,0.1541 -4.57239,0.19043 -3.63949,0.0599 -4.0757,0.0226 -4.72496,-0.40457 z"
         id="path907-3-1" />
      <rect
         style="fill:#e30a17;fill-opacity:1;stroke-width:0.264999"
         id="rect833-6"
         width="235.10118"
         height="306.16071"
         x="238.95534"
         y="-29.194756" />
      <circle
         cx="-140.55228"
         cy="364.44342"
         r="50"
         fill="#ffffff"
         id="circle2294-0"
         style="fill:#ffffff;fill-opacity:1;stroke-width:0.555555"
         transform="rotate(-90)" />
      <circle
         cx="-129.4411"
         cy="364.44342"
         r="41.666668"
         fill="#ed2939"
         id="circle2296-2"
         style="fill:#e30a17;fill-opacity:1;stroke-width:0.555555"
         transform="rotate(-90)" />
      <path
         d="m 336.66567,84.996696 14.9461,-5.315 -6.80999,-14.32668 14.32666,6.81 5.31499,-14.946098 5.315,14.946098 14.32668,-6.81 -6.81,14.32668 14.9461,5.315 -14.9461,5.31499 6.81,14.326674 -14.32668,-6.809994 -5.315,14.946104 -5.31499,-14.946104 -14.32666,6.809994 6.80999,-14.326674 z"
         fill="#ffffff"
         id="path2298-7"
         style="fill:#ffffff;fill-opacity:1;stroke-width:0.555555" />
      <rect
         style="display:inline;fill:#3f9c35;fill-opacity:1;stroke-width:0.264999"
         id="rect833-9"
         width="235.10118"
         height="306.16071"
         x="472.99817"
         y="-29.194756" />
      <path
         d="M 590.5137,-0.25308934 559.67978,94.841528 640.54874,36.046837 h -100 l 80.86896,58.794691 z"
         id="path5720-2"
         style="fill:#ffffff;fill-opacity:1;stroke-width:70.0771" />
      <path
         d="m 590.51369,76.338283 -30.83392,95.094617 80.86896,-58.79469 h -99.99999 l 80.86895,58.79469 z"
         id="path5720-2-2"
         style="fill:#ffffff;fill-opacity:1;stroke-width:70.0771" />
      <path
         d="m 590.51369,151.86358 -30.83392,95.09462 80.86895,-58.79469 h -99.99998 l 80.86895,58.79469 z"
         id="path5720-2-2-2"
         style="fill:#ffffff;fill-opacity:1;stroke-width:70.0771" />
    </g>
  </g>
</svg>
