<?xml version="1.0" encoding="utf-8"?>
<!-- Generator: Adobe Illustrator 25.2.1, SVG Export Plug-In . SVG Version: 6.00 Build 0)  -->
<svg version="1.1" id="Слой_1" xmlns="http://www.w3.org/2000/svg" xmlns:xlink="http://www.w3.org/1999/xlink" x="0px" y="0px"
	 viewBox="0 0 1200 600" style="enable-background:new 0 0 1200 600;" xml:space="preserve">
<style type="text/css">
	.st0{fill:#509E2F;}
	.st1{fill:#EF3340;}
	.st2{fill:#00B5E2;}
	.st3{fill:#FFFFFF;}
	.st4{clip-path:url(#SVGID_2_);stroke:#FFFFFF;stroke-width:30;}
	.st5{fill:#F6B721;stroke:#000000;stroke-width:2.115;stroke-miterlimit:2.1203;}
	.st6{fill:#F6B721;stroke:#000000;stroke-width:2.1164;stroke-miterlimit:2.3934;}
	.st7{fill:#F6B721;stroke:#000000;stroke-width:0.7;}
</style>
<rect class="st0" width="1200" height="600"/>
<rect class="st1" width="1200" height="400"/>
<rect class="st2" width="1200" height="200"/>
<circle class="st3" cx="570" cy="300" r="90"/>
<circle class="st1" cx="590" cy="300" r="75"/>
<path class="st3" d="M670,250l9.6,26.9l25.8-12.3l-12.3,25.8L720,300l-26.9,9.6l12.3,25.8l-25.8-12.3L670,350l-9.6-26.9l-25.8,12.3
	l12.3-25.8L620,300l26.9-9.6l-12.3-25.8l25.8,12.3L670,250z"/>
<g>
	<defs>
		<rect id="SVGID_1_" width="1200" height="600"/>
	</defs>
	<clipPath id="SVGID_2_">
		<use xlink:href="#SVGID_1_"  style="overflow:visible;"/>
	</clipPath>
	<path class="st4" d="M0,0v600l400-300L0,0z"/>
</g>
<path class="st1" d="M0,0v600l400-300L0,0z"/>
<g transform="matrix(.59833794 0 0 .59833794 702.503953 176.755522)">
	<g transform="matrix(.88589821 0 0 .88589821 59.304729 -35.612069)">
		<path class="st5" d="M-1322.2,270.9c0,0-5.3-56.8,6.1-91.6c7.8-24,19.9-43.7,39.4-59.8c30.5-25.1,77.5-31.7,110.5-16.7
			c-28.9,1.5-67.6,11.3-88.6,28.8c-16.1,13.4-28.6,32.2-34.8,52.2c-10.6,34-5.3,88.6-5.3,88.6L-1322.2,270.9z"/>
		<path d="M-1301.6,178c-9.8,29.5-9.8,62-8.8,89.9l3.6-0.1c-1-27.8-0.7-59.8,8.6-88.6c9.4-28.8,27.8-54.2,63.7-69.4
			C-1277.2,119.4-1296.5,162.9-1301.6,178z"/>
	</g>
	<g>
		<path class="st6" d="M-1112.2,199.8h23.1v51.7h-23.1V199.8z"/>
		<g transform="matrix(5.2941999 0 0 4.822969 -1068.4839 -764.28781)">
			<path class="st7" d="M11.4,219.1c-2.6-0.8-5,0.4-10.2-7.3c0,0-2.3,0.8-3.5,0.8c-0.6,0-1.3-0.1-1.8-0.3c-1.1-0.4-2.9-1.8-2.9-1.8
				l-0.5-4.5c0,0-0.9-0.2-1.2-0.6c-0.2-0.4-0.2-1,0-1.4c0.4-0.5,0.9-0.7,1.6-0.9c1.3-0.4,2.7-0.4,4-0.1c1.1,0.3,2,0.9,3.1,1.2
				c3.4,1.1,10.7,1.8,10.7,1.8L11.4,219.1z"/>
			<path class="st7" d="M-8.5,209.7c0,0,1.8,0,2.6-0.1c0.6-0.1,1.1-0.4,1.8-0.1c0.4,0.2,0.8,1,0.8,1s-0.6,0.8-1,1
				c-1.2,0.5-2.9,0.6-4-0.1c-0.3-0.2-0.4-0.6-0.4-1C-8.8,210.1-8.5,209.7-8.5,209.7z"/>
			<path class="st7" d="M-8.6,208c0,0,1.8,0,2.6-0.1c0.6-0.1,1.5-0.6,2.1-0.3c0.4,0.2,0.8,1,0.8,1s-0.6,0.8-1,1
				c-1.2,0.5-3.2,0.7-4.3,0c-0.3-0.2-0.4-0.6-0.4-1C-8.8,208.4-8.6,208-8.6,208z"/>
			<path class="st7" d="M-8.6,206.1c0,0,1.8,0,2.6-0.1c0.6-0.1,1.5-0.6,2.1-0.3c0.4,0.2,0.8,1,0.8,1s-0.6,0.8-1,1
				c-1.2,0.5-3.2,0.7-4.3,0c-0.3-0.2-0.4-0.6-0.4-1C-8.8,206.5-8.6,206.1-8.6,206.1L-8.6,206.1z"/>
		</g>
		<g>
			<path class="st6" d="M-1087,206.5h12l7.5-5l-7.5-5.1h-12l-13.3-4.2l-13.3,4.2h-12.9l-7.5,5.1l7.5,5h12.9l13.2,4.8L-1087,206.5z"
				/>
			<path class="st6" d="M-894.4,56.2c-1.9,0-3.8,0.1-5.8,0.1l1.8,103.8l-15.4-69.1c-4,0.7-8,1.5-11.9,2.6l19.7,70.8l-42.6-98.2
				c-4,1.5-7.8,3.1-11.7,4.9l47,98.8l-43.6-63.3c-3.4,2-6.7,4.2-9.9,6.5l41.7,54.4l-74.5-70.1c-3,2.7-5.8,5.6-8.6,8.6l79.5,70.1
				l-63.1-38.2c-2.2,3-4.3,6.2-6.2,9.4l74.9,40.7l2.9-4.5l1.3,1.2l6.2-5.7l3-1.9v0.2l6.6-2.5v0.1l5.7-1.4h5.7l5.9,1.4v-0.1l6.6,2.5
				v-0.2l3,1.9l6.2,5.7l1.3-1.2l2.1,3.4l-1.5,0.6l3.2,7.2l1.8,7l85.8-15.4c-0.5-3.7-1.3-7.3-2.2-10.8l-84.1,19l112.2-40.4
				c-1.3-3.7-2.8-7.3-4.4-10.8l-100.3,39.6l65.1-35.4c-1.9-3.3-4-6.4-6.2-9.5l-63,38.1l79.4-70.1c-2.7-3-5.6-5.8-8.6-8.6l-74.5,70.1
				l41.6-54.4c-3.2-2.3-6.4-4.5-9.8-6.5l-39.3,57l-1.1-0.6l43.8-92c-3.8-1.8-7.8-3.4-11.7-4.9l-40.2,92.7l-0.6-0.3l18.1-65
				c-3.9-1.1-7.9-1.9-12-2.6l-14.3,63.3l1.8-97.9C-889.6,56.2-892,56.2-894.4,56.2L-894.4,56.2z"/>
			<path class="st6" d="M-894.4,146.8c-33.5,0-61,24.7-61,55.6s27.5,55.7,61,55.7s61.2-24.9,61.2-55.7S-861,146.8-894.4,146.8
				L-894.4,146.8z"/>
		</g>
	</g>
	<g transform="matrix(5.2941999 0 0 4.822969 -1066.4839 -776.28781)">
		<path class="st7" d="M35.4,223.1c-1.4,2.5,0.5,4.8-0.5,6.7c0,0-2.2-0.4-3.3-0.5c-0.8,0-2,0-2.6,0.3c-1.2,0.6-2.3,1.4-2.8,2.4
			c-1,1.7,0.2,3.3,2,2.4c1.6,1.6,3.5,0.6,5.9-0.3c0.5-0.2,1.2,0,1.8,0.1c0.6,0.1,1.3,0.2,1.9,0c1.4-0.6,2.3-2.3,3.2-5.1l1.4,0.6
			c0-1.2-0.5-2.1-1.1-2.9l1.6,0.6c0-1.2-0.5-2-1-2.7l1.6,0.6c0,0-0.1-0.6-0.2-1.5c0-0.6,0.1-1.4,0-1.8c-0.2-0.7-0.4-0.9-0.6-1.4
			c-0.1-0.4-0.3-1.2-0.3-1.2c-4.7-2.3-3.7-7.6-2.8-9.8l-8.9,6.8C28.7,217.8,31.2,222.4,35.4,223.1L35.4,223.1z"/>
		<path d="M35.6,218.7c-0.6-0.3-1.6-0.8-1.8-1.8l0.7-1.6C34.2,217.1,35.3,218.4,35.6,218.7L35.6,218.7z M34.6,219.6
			c-0.6-0.3-1.6-0.8-1.8-1.8l0.7-1.6C33.2,218,34.3,219.3,34.6,219.6L34.6,219.6z M33.7,220.8c-0.6-0.3-1.6-0.8-1.8-1.8l0.7-1.6
			C32.3,219.1,33.4,220.4,33.7,220.8L33.7,220.8z M32.6,231.2c0,0-1.3-0.1-2.1,0.1c-0.5,0.1-1,0.3-1.5,0.6c-0.5,0.4-1.1,0.9-1.3,1.6
			c-0.1,0.3,0,0.7,0.1,0.9c0.1,0.3,0.1,0.5,0.1,0.5l0.6-0.3c0,0-0.1-0.2-0.1-0.4c-0.1-0.2-0.1-0.5-0.1-0.6c0.1-0.5,0.6-0.9,1-1.2
			C30.5,231.4,31.6,231.7,32.6,231.2L32.6,231.2z M37.3,230.9c0.5-0.7,1.3-1.5,1.6-2.5c0.3-1,0.4-2,0.1-2.8
			C38.3,225.9,37.1,230.7,37.3,230.9L37.3,230.9z M40.7,223.2c-0.2,1-1.6,1-2.3,0.7c-0.6-0.3-1.1-1.1-0.8-1.9
			C37.9,223.1,39.5,223.6,40.7,223.2z M40.9,220.7c-0.2,1-1.6,1-2.3,0.7c-0.6-0.3-1.1-1.1-0.8-1.9C38.1,220.6,39.7,221.1,40.9,220.7
			z"/>
		<path class="st7" d="M63.1,182.1c0.3,1.4-0.3,2.3-1,2.7c-1.1,0.6-2.1,0.2-3-0.7c-1.2-1.1-2-2.5-3-3.5c-1.3-1.2-2.9-1.5-4.3-1.5
			c-1.4,0.1-2.6,0.7-3.5,1.7c-1.8,1.9-2.2,5.4-0.4,8.3c1.7,2.7,7,4.6,9,6.3c1.8,1.5,2.6,2.4,2.9,3.5s0.5,2.4-0.1,3.8
			c-0.6,1.6-2.2,2.3-4.4,2.3c-3,0.1-5.9-2.7-8.8-3.2c-5.4-0.9-7,1.4-12.1,1.5c-10,0.1-14.1-3.2-14.1-3.2L9.6,213.9
			c-3.3,1.4-3.5,6.4,0,9.1c-1,0.6-2,1.9-2.4,3c-0.6,1.4-1,2.2-1.7,3.2c0,0-2.2-0.4-3.3-0.5c-0.8,0-2,0-2.7,0.3
			c-1.2,0.6-2.2,1.4-2.8,2.4c-1,1.7,0.2,3.3,2,2.4c1.6,1.6,3.5,0.6,5.9-0.3c0.5-0.2,1.2,0,1.8,0.1c0.6,0.1,1.3,0.3,1.9,0
			c1.3-0.6,2-2.2,2.9-3.3c0.5-0.5,1.3-1.6,1.3-1.6l0.9,1.2c0.6-1,0.6-2,0.5-3.1l1.1,1.3c0.6-1,0.5-2,0.4-2.9l1.1,1.3
			c0,0,0.2-0.6,0.6-1.4c0.3-0.5,0.8-1.2,0.9-1.6c0.2-0.7,0.2-1.5,0.2-1.5c0.6,0.6,1.1,0.9,1.9,0.8c0.1-1.2,0.2-1.6,0.5-2.1
			c3.9-0.2,7.5-0.9,10.8-2.3c2.5-1,4.8-2.4,6.8-4.3c0.5-0.5,1-0.8,1.5-1.3c0.5-0.5,2.5-0.3,3.5,0.1c0.5,0.2,1.1,1,1.1,1
			c0.8,2.3,2.8,7.8,8.1,8.9c-1.4,2.5,0.5,4.8-0.5,6.7c0,0-2.2-0.5-3.3-0.5c-0.8,0-1.9,0-2.6,0.3c-1.2,0.6-2.3,1.4-2.8,2.4
			c-1,1.7,0.2,3.3,2,2.5c1.6,1.6,3.5,0.6,5.9-0.3c0.5-0.2,1.2,0,1.8,0.1c0.6,0.1,1.3,0.2,1.9,0c1.4-0.6,2.3-2.3,3.2-5.1l1.3,0.6
			c0-1.2-0.5-2.1-1.1-2.9l1.6,0.6c0-1.2-0.5-2-1.1-2.7l1.6,0.6c0,0-0.1-0.6-0.2-1.5c0-0.6,0.1-1.4,0-1.8c-0.2-0.7-0.4-0.9-0.6-1.4
			c-0.1-0.4-0.3-1.2-0.3-1.2c-2.8-1.4-3.4-3.8-3.5-5.9c0-2.8-0.5-4.4-2.2-6.1c0.6-0.1,1.3,0,1.8,0c3.4,0,6.1-1.7,7-4.2
			c0.5-1.7,0.6-3.6-0.1-5c-1-2.1-2-3-3.9-4.6c-2.2-1.8-7.2-3.8-8.6-5.9c-1.4-2.2-1-4.5,0.2-5.9c1.2-1.3,3.1-1.9,5.2-0.1
			c1.2,1.1,2,2.6,3,3.5c1.2,1.1,3.3,2,5.1,0.9c1.9-1.2,2.1-3,1.9-4.5c0.3-1.2,1.4-2.3,3.3-2.4c-0.6-1.3-3.3-2.5-4.5,0.1
			c-1.4-2.1-4.1-1.1-4.6,0.9C60.5,180.1,62,180.6,63.1,182.1z"/>
		<path d="M49.4,205.8c1.2-0.2,2.5,0.6,3.8,1.1c0.8,0.3,1.5,0.2,1.7,0.4l-1.2,0.2l1.5,2.8C54.6,209,50.7,206.2,49.4,205.8
			L49.4,205.8z M46.5,213.8c0.3,2.4,1,4.3,2.3,5.7s3.1,2.3,5.4,2.9c-0.8-1.3-3.5-2.3-4.7-3.5C47.8,217.3,47.5,214.6,46.5,213.8z
			 M53.5,229.4c0.4-0.8,1-1.7,1.1-2.7c0.1-1,0-2-0.4-2.8C53.6,224.3,53.2,229.3,53.5,229.4z M45.4,212.5c0.5-0.9-0.7-1.8-1.3-2
			c-0.7-0.2-1.6,0.2-1.8,1C43.1,210.8,44.7,211.4,45.4,212.5L45.4,212.5z M30.4,211.7c0.5,1.8,5.4,4.1,6.4,3.5l1.4-0.9
			C36.5,215.4,31.8,213.5,30.4,211.7L30.4,211.7z M27.9,212.1c-0.1,1.4,5.6,4.9,6.9,4.6l1.5-0.8C34.3,217.1,28,213,27.9,212.1
			L27.9,212.1z M26.6,213.8c0.2,1.8,4.8,4.7,5.9,4.2l1.5-0.7C31.6,218,27.5,215.6,26.6,213.8L26.6,213.8z M25.2,215.5
			c-0.1,1.4,2.8,3.6,4.2,3.9l1.6-0.6C29,219.1,25.8,216.9,25.2,215.5L25.2,215.5z M22.9,215.9c-0.2,1.2,2.3,4.1,3.4,4.3l1.7-0.4
			C26.4,220.2,23.1,216.8,22.9,215.9L22.9,215.9z M21.6,217.7c-0.1,0.6,0.7,2.4,1.8,2.9l1.7-0.2C23,220.2,21.8,218.1,21.6,217.7
			L21.6,217.7z M19.6,218.7c0,0.7,0.2,1.8,1,2.3l1.7-0.1C20.6,220.6,19.8,219.1,19.6,218.7L19.6,218.7z M11.4,221.1
			c0.2,1,1.6,1,2.3,0.7c0.6-0.3,1.1-1.1,0.8-1.9C14.2,221,12.6,221.5,11.4,221.1z M11.5,223.5c0.2,1,1.6,1,2.3,0.7
			c0.6-0.3,1.1-1.1,0.8-1.9C14.3,223.4,12.7,223.9,11.5,223.5z M7.5,230.5c0.7-0.5,1.7-1,2.3-1.8c0.6-0.8,1.1-1.7,1.1-2.6
			C10.2,226.1,7.3,230.2,7.5,230.5z M49.4,231.1c0,0-1.3-0.1-2.1,0.1c-0.5,0.1-1,0.3-1.5,0.6c-0.5,0.4-1.1,0.9-1.3,1.6
			c-0.1,0.3,0,0.7,0.1,0.9c0.1,0.3,0.1,0.5,0.1,0.5l0.6-0.3c0,0-0.1-0.2-0.1-0.4c-0.1-0.2-0.1-0.5-0.1-0.6c0.1-0.5,0.6-0.9,1-1.2
			C47.2,231.4,48.3,231.7,49.4,231.1L49.4,231.1z M3.3,230.5c0,0-1.3-0.1-2.1,0.1c-0.5,0.1-1,0.3-1.5,0.6c-0.5,0.4-1.1,0.9-1.3,1.6
			c-0.1,0.3,0,0.7,0.1,0.9c0.1,0.3,0.1,0.5,0.1,0.5l0.6-0.3c0,0-0.1-0.2-0.1-0.4C-1,233.3-1,233-1,232.9c0.1-0.5,0.6-0.9,1-1.2
			C1.1,230.7,2.2,231,3.3,230.5L3.3,230.5z"/>
		<path class="st7" d="M21.9,207.9l-0.8,0.5c-5.6,2.2-10,2.1-15.7,0l-0.8,2.3c-0.6,2.6-0.3,4.8,0.6,6.7c0.5-0.3,1.1-0.8,1.6-1.3
			c0.3,0.9,0.1,2.2,1.1,3.2c1.1-0.6,1.7-1.4,2.1-2c0.2,1.2,0.6,2.1,1.6,2.8c0.9-0.7,1.4-1.6,1.6-2.8c0.4,0.6,1,1.6,2.1,2.2
			c0.9-1,0.9-1.6,1.2-2.7c0.5,1.1,1.1,1.6,2.1,2.2c0.9-1,0.8-2.3,1.1-3.2c0.4,0.7,1,1.2,1.6,1.3c0.5-0.7,0.8-1.7,0.8-2.7
			c0.9,0.7,1.7,0.9,2.2,0.9c0.2-1.2,0.2-2.2,0-3.3c0.8,0.3,1,0.5,2,0.5c0.7-2.5-0.1-5.1-2.5-7L21.9,207.9z"/>
		<path d="M25.9,212.5l-1.3-0.1l-0.4,0.9c0-1.2-0.7-2.3-0.8-2.9C23.6,211,24.6,211.8,25.9,212.5L25.9,212.5z M23.4,215l-1.1-0.4
			l-0.5,0.8c0.1-1.2-0.1-3.2-0.1-3.8C21.8,212.3,22.4,214.2,23.4,215L23.4,215z M20.4,216.4l-0.7-0.4l-0.5,0.8
			c0.1-1.2-0.1-3.6-0.1-4.2C19.3,213.3,20,215.6,20.4,216.4z M17.2,217.4l-0.7-0.4l-0.5,0.8c0.1-1.2,0.2-3.3,0.1-4
			C16.3,214.5,16.8,216.6,17.2,217.4z M13.9,217.8l-0.7-0.4l-0.5,0.8c0.1-1.2,0.2-3.3,0.1-4C13,214.9,13.5,217,13.9,217.8z M9.2,218
			l0.7-0.4l0.5,0.8c-0.1-1.2-0.2-2.7-0.1-3.4C10,215.7,9.6,217.2,9.2,218z M6.1,216.6l0.7-0.4l0.5,0.8c-0.1-1.2-0.2-2.7-0.1-3.4
			C6.9,214.4,6.5,215.8,6.1,216.6z"/>
		<path class="st7" d="M3.8,200.8c0,0-2.1,3.7-2.5,5.5c-0.3,1.2-0.2,3.1-0.2,3.1c0.7,0,1.4-0.2,2-0.9c0.1,1,0,2.1,0.6,3.1
			c0.7-0.3,1.5-0.6,2.2-1.9c0.1,1.3,0.3,2.1,1,3.3c0.9-0.3,1.6-1.3,2.3-2c0,0.9,0.2,2,1.1,3.4c1.1-0.7,1.7-2.2,2-3.1
			c0.3,0.8,0.9,2.4,2,3.1c0.8-1.4,1.1-2.4,1.1-3.4c0.7,0.7,1.4,1.7,2.3,2c0.7-1.2,1-2,1-3.3c0.7,1.3,1.5,1.6,2.2,1.9
			c0.7-1,0.6-2.1,0.6-3.1c0.7,0.7,1.6,1.2,2.3,1.3c0.1-0.1,0.7-2,0.4-3.1c0.8,0.7,1.5,1.1,2.6,1.1c0.2-1,0-2-0.2-2.9
			c1.3,0.5,2.7,0.6,3.6,0.1c-2.3-4.3-5.9-5-9.9-5.7C15.9,203.5,10.4,204.3,3.8,200.8L3.8,200.8z"/>
		<path d="M27.8,205.4l-0.8-0.1l-0.1,1c-0.4-1.1-1.1-2.7-1.5-3.3c0.3,0.7,2.1,2.2,3.3,2.4L27.8,205.4z M25.3,207.5l-1.1-0.7l0.1,1.5
			c-0.4-1.1-1-2.8-1.3-3.3C23.6,205.6,24.6,207,25.3,207.5L25.3,207.5z M22.6,209.6l-0.9-0.8l-0.1,1.5c-0.2-1.2-0.5-2.9-0.7-3.5
			C21.2,207.4,22,208.9,22.6,209.6z M19.6,210.7l-0.7-0.4l-0.4,0.9c0-1.2-0.1-2.9-0.2-3.6C18.5,208.3,19.1,209.9,19.6,210.7
			L19.6,210.7z M13,212.2l-0.6-0.5l-0.6,0.8c0.3-1.2,0.6-3,0.6-3.6C12.5,209.6,12.6,211.4,13,212.2z M16.3,211.7l-0.7-0.4l-0.4,0.9
			c0-1.2-0.1-2.9-0.2-3.6C15.2,209.4,15.8,211,16.3,211.7L16.3,211.7z M8.4,211.9l0.7-0.4l0.4,0.9c0-1.2,0.1-2.9,0.2-3.6
			C9.5,209.5,8.9,211.2,8.4,211.9L8.4,211.9z M5.1,210.7l0.7-0.4l0.4,0.9c0-1.2,0.3-3.4,0.4-4C6.4,207.9,5.6,210,5.1,210.7
			L5.1,210.7z M2.3,209l0.8-0.3l0.3,0.9c0.2-1.2,0.5-2.7,0.7-3.3C3.7,207.1,2.9,208.4,2.3,209L2.3,209z"/>
		<path class="st7" d="M21.6,197.1c0.7,0.2,1,0,1.9,0.1c-0.4-1.9-0.6-2.6-2.1-3.9c1.1,0.3,1.3,0,2,0.1c-1.6-2.9-1.3-5.8-3.6-7.3
			c0.7-2,0.3-2.4-0.4-4.1c-0.2-0.4-0.1-1.4-0.1-1.4s-2,0.4-2.7,1.3c-0.4,0.5-0.9,1.2-0.9,1.2c0.2-1.1,0.1-1.6-0.8-2.3
			c-0.4,0.5-0.8,1.6-1.2,2c-0.1-1-0.3-1.8-1.2-2.5c-0.7,0.7-1.1,1.4-1.2,2.5c-0.4-0.4-0.8-1.5-1.2-2c-0.8,0.7-1,1.2-0.8,2.3
			c0,0-0.5-0.7-0.9-1.2c-0.7-0.9-2.7-1.3-2.7-1.3s0,1-0.1,1.4c-0.2,1.1-1.4,2.4-0.4,4.1c-2.9,2-2.2,4.7-3.8,7.5c0.7-0.1,0.8,0.3,2,0
			c-1.5,1.3-1.6,1.6-2.1,3.5c0.6-0.2,1,0,2.1-0.3c-0.4,0.9-1.1,1.5-1.6,1.9c-1.1,1-1.5,2-1.8,3.2c0.7,0,1.4-0.2,2.1-0.4
			c-0.2,0.9-0.4,1.6-0.1,2.9c1.1-0.4,1.6-0.9,2.3-1.3c-0.1,0.9-0.1,1.9,0.1,2.7c0.7-0.2,1.4-0.7,2.1-1.5c0,1.1,0.3,1.9,0.7,2.6
			c0.7-0.4,1.3-0.8,1.8-1.3c0.2,0.8,0.3,1.5,1,2.6c1.2-0.5,1.4-1.3,1.8-2c0.2,0.7,0.5,1.4,1.3,2.4c1.1-0.8,1.1-1.6,1.4-2.4
			c0.3,0.6,0.8,1.6,1.6,2c0.6-0.7,0.7-1.7,0.9-2.3c0.6,0.7,1.2,1.3,2.2,1.7c0.5-1,0.5-1.8,0.5-2.6c0.8,0.9,1.6,1.2,2.4,1.4
			c0.2-0.9,0.1-1.7,0-2.6c0.9,0.7,1.7,1,2.6,0.8c0-1-0.2-1.7-0.5-2.5c0.9,0.2,1.7,0.2,2.4,0.1c0,0-0.5-1.1-1-1.7
			c-0.7-0.7-1.8-1.2-2.5-2C22.6,198.2,21.6,197.1,21.6,197.1L21.6,197.1z"/>
		<path d="M6.5,182.2c0,0,0.1,0.7,0,1c-0.2,0.6-0.5,1.2-0.5,1.9c0,0.5,0.4,1.3,0.4,1.3s0.3-1.1,0.8-1.3c0.5-0.2,1.5,0.3,1.5,0.3
			s-0.1-1-0.2-1.3C8.1,183.2,6.5,182.2,6.5,182.2L6.5,182.2z M18.4,182.2c0,0-1.6,1-1.9,1.9c-0.1,0.4-0.2,1.3-0.2,1.3s1-0.5,1.5-0.3
			c0.5,0.2,0.8,1.3,0.8,1.3s0.5-0.9,0.4-1.3c0-0.7-0.3-1.2-0.5-1.9C18.4,182.8,18.4,182.2,18.4,182.2z M6,187.8
			c-0.7,0.5-1,1.3-0.8,2c0.1,0.5,0.6,1,1.2,1.2c0,0,0,0-0.1,0.1c-0.2,0.2-0.5,0.6-0.6,1c-0.4,1.7-0.2,3.3,0.8,4.4
			c-0.5,0.7-1.4,2.4-1.9,3.3c0.8-0.7,1.7-2.1,2.3-2.9c0.3,0.2,0.6,0.4,0.9,0.5c-0.4,0.7-1.1,2.7-1.3,3.7c0.7-1,1.4-2.6,1.9-3.5
			c0.2,0.1,0.5,0.1,0.8,0.1c-0.2,0.6-0.1,1.3,0.2,1.8c-0.4,0.7-1.1,2.7-1.4,3.8c0.7-0.9,1.3-2.4,1.8-3.3c0.3,0.3,0.6,0.4,1.1,0.6
			c-0.2,0.9-0.3,2.8-0.3,3.8c0.5-1,0.7-2.6,1-3.6c0.2,0,0.3,0.1,0.5,0.1c0.1,0,0.2,0,0.3,0c0.2,1,0.3,2.6,0.7,3.6
			c0.1-1,0-2.8-0.1-3.7c0.3-0.1,0.6-0.2,0.9-0.3c0.4,0.9,0.9,2.6,1.5,3.5c-0.2-1.1-0.7-3.2-0.9-3.9c0.1-0.1,0.2-0.1,0.2-0.2
			c0.3-0.4,0.5-1,0.4-1.6c0.8,0.8,2.2,2.1,3.2,2.7c-0.6-0.9-2.1-2.5-2.8-3.2c0.7-0.2,1.4-0.4,1.9-0.9c0.8,0.7,2.4,2.8,3.5,3.5
			c-0.6-0.9-2.4-3.3-3-3.9c0.9-1.1,1.2-2.7,0.7-4.3c-0.1-0.4-0.4-0.7-0.6-1c0,0,0,0-0.1-0.1c0.6-0.3,1.1-0.7,1.2-1.2
			c0.2-0.7-0.1-1.5-0.8-2c0.2,0.6,0.3,1.1,0.2,1.9c-0.1,0.5-0.5,0.9-1.3,1l-0.8,0.1l0.7,0.5c0,0,0.2,0.1,0.4,0.3
			c0.2,0.2,0.4,0.5,0.5,0.7c0.4,1.5,0,2.8-0.8,3.7s-2.1,1.5-3.6,1.3c-1-0.2-1.1-0.4-1.1-1.3c0.2,0,0.4-0.1,0.7-0.2
			c0.2-0.1,0.3-0.2,0.4-0.3c0.1-0.1,0.2-0.2,0.2-0.2c0.3-0.1,0.7-0.1,0.7-0.1l0.3,0.1l0-0.4c0-0.3,0.1-0.5-0.1-1.1
			c-0.2-0.4-0.5-0.7-0.7-0.8c-0.1-0.1-0.2-0.1-0.2-0.1c0,0,0-0.1-0.1-0.1c-0.3-1.1-0.3-2-0.1-2.9c0.2-0.5,0.7-1,1.4-1.1
			c0.7-0.1,1.6,0.1,2.1,0.2c-0.4-0.5-1.2-1-2.2-0.8c-0.8,0.1-1.6,0.7-1.8,1.5c-0.3,1-0.2,2.1,0.1,3.2c0,0.2,0.1,0.3,0.2,0.4
			s0.2,0.2,0.3,0.2c0.2,0.1,0.3,0.2,0.5,0.5c0.1,0.3,0.1,0.3,0.1,0.5c-0.2,0-0.3-0.2-0.7,0c-0.2,0.1-0.3,0.3-0.4,0.4
			c-0.1,0.1-0.2,0.2-0.1,0.2c-0.1,0-0.3,0.1-0.4,0.1c-0.2,0-0.3,0-0.3,0s-0.1,0-0.3,0c-0.2,0-0.3-0.1-0.4-0.1c0,0,0-0.1-0.1-0.2
			c-0.1-0.1-0.2-0.3-0.4-0.4c-0.3-0.2-0.5,0-0.7,0c0-0.2-0.1-0.2,0.1-0.5c0.1-0.3,0.3-0.4,0.5-0.5c0.1-0.1,0.2-0.1,0.3-0.2
			c0.1-0.1,0.2-0.2,0.2-0.4c0.3-1.1,0.4-2.2,0.1-3.2c-0.2-0.8-1-1.4-1.8-1.5c-1-0.2-1.8,0.3-2.2,0.8c0.4-0.1,1.3-0.3,2.1-0.2
			c0.7,0.1,1.2,0.6,1.4,1.1c0.3,0.9,0.2,1.8-0.1,2.9c0,0,0,0-0.1,0.1c0,0-0.1,0.1-0.2,0.1c-0.2,0.1-0.5,0.4-0.7,0.8
			c-0.2,0.5-0.2,0.7-0.1,1.1l0,0.4l0.3-0.1c0,0,0.4,0,0.7,0.1c0,0,0.1,0.1,0.2,0.2c0.1,0.1,0.2,0.2,0.4,0.3c0.2,0.1,0.5,0.2,0.7,0.2
			c0.1,1-0.1,1.2-1.1,1.3c-1.5,0.3-2.8-0.4-3.6-1.3s-1.2-2.2-0.8-3.7c0-0.2,0.3-0.5,0.5-0.7c0.2-0.2,0.4-0.3,0.4-0.3l0.7-0.5
			l-0.8-0.1c-0.7-0.1-1.1-0.5-1.3-1C5.6,188.9,5.8,188.4,6,187.8L6,187.8z M9.2,189.4c-0.2,0-0.5,0.1-0.9,0.3
			c0.1,0.7,0.9,1.7,2.2,0.9C10.3,190,9.9,189.4,9.2,189.4z M15.2,189.4c-0.7,0-1.1,0.6-1.3,1.2c1.3,0.8,2.1-0.2,2.2-0.9
			C15.8,189.5,15.5,189.4,15.2,189.4z M12.2,197.3c0.1,0.1,0.2,0.1,0.4,0.2c0.3,0.1,0.6,0.3,1,0.3c0.3,0,0.6,0,0.9,0
			c0.2,0.5,0.1,0.9-0.2,1.3c-0.4,0.5-1,0.8-2.1,0.8s-1.7-0.4-2.1-0.8c-0.3-0.4-0.4-0.8-0.2-1.3c0.3,0,0.6,0,0.9,0
			c0.4,0,0.7-0.1,1-0.3C12,197.4,12.1,197.4,12.2,197.3z M4.2,198.7c-1.1,0.8-2,2.4-3.1,2.8l1-0.1l0.1,1.1
			C2.7,200.1,3.8,200.3,4.2,198.7z M6.2,199.2c-0.9,1-1.9,3.8-3,4.3l1-0.3l0.3,1C4.7,201.9,6,200.8,6.2,199.2z M21.7,199.6
			c0.3,1.3,2.2,1.8,2.7,3.8l0.1-1l1.2,0.1C23.5,201.3,23.5,201.1,21.7,199.6z M19.5,199.7c0,1.3,2.5,3.3,2.7,5.4l0.3-1l0.9,0.4
			C22.2,203.4,20.3,200.5,19.5,199.7z M7.5,201.4c-0.8,1.1-1.1,2.8-2,3.5l0.9-0.5l0.5,1C6.7,203.1,7.6,203,7.5,201.4z M18.2,201.5
			c-0.1,1.3,1.6,2.5,1.3,4.8l0.5-0.9l0.9,0.5C19.9,205,19,202.3,18.2,201.5z M16.2,201.9c-0.3,1.6,1,2.8,0.5,5.1l0.6-0.9l0.8,0.6
			C17.3,205.8,16.8,203.1,16.2,201.9z M9.5,202.8c-0.6,1.2-0.5,2.8-1.3,3.7l0.8-0.6l0.6,0.9C9,204.5,9.8,204.3,9.5,202.8L9.5,202.8z
			 M14,203c-0.4,1.5,0.7,2.1,0,4.3l0.7-0.8l0.7,0.6C14.7,206.1,14.5,204.2,14,203z M12.1,203.9c-0.5,1.3-0.1,2.3-0.9,3.2l0.8-0.7
			l0.6,0.9C11.8,205,12.5,205.4,12.1,203.9L12.1,203.9z"/>
	</g>
	<path d="M-911.2,158.5c-5.2-0.2-11.5,2.6-13.7,4.6c2.3-0.2,10.6-2.3,14.6-1.4c3.7,0.8,9.5,5.1,10.2,7.7c1.1,4.4,0.3,8.8-1.6,13.8
		c-0.1,0.1-0.1,0.2-0.3,0.4c-0.2,0.2-0.6,0.3-1.1,0.6c-1.2,0.6-2.9,1.7-4.1,3.7c-1.5,2.4-1.2,3.4-1.2,5l0,1.8l1.9-0.3
		c0,0,2.3,0,3.7,0.7c0.1,0,0.4,0.5,0.9,1c0.4,0.6,0.8,1.2,1.9,1.8c1.2,0.7,2.5,1.1,3.5,1.2l3.7,0.3c1.1,0,2.4-0.2,3.7-0.7
		c1.2-0.4,1.6-1,2.1-1.5c0.5-0.5,0.9-0.9,1-0.9c1.5-0.5,3.8-0.1,3.8-0.1l1.8,0.6l0.3-1.8c0.2-1.5,0.7-2.5-0.4-5.1
		c-0.9-2.1-2.4-3.5-3.4-4.3c-0.5-0.4-0.8-0.6-1-0.8c-0.2-0.2-0.2-0.3-0.3-0.4c-1-5.2-1.1-9.7,0.6-13.9c1-2.5,7.5-5.8,11.2-6
		c4.1-0.2,12,3.2,14.2,3.7c-2-2.6-9.3-7.2-14.9-6.8c-4.6,0.3-12.3,4.1-13.9,8c-2,4.8-1.8,10-0.8,15.4c0.2,0.8,0.6,1.5,1.1,2
		c0.5,0.5,1,0.9,1.4,1.2c0.9,0.7,1.8,1.3,2.4,2.8c0.5,1.3,0.3,1.3,0.1,2.4c-1.1-0.2-1.7-1-3.5-0.4c-1.2,0.4-1.9,1.2-2.5,1.7
		c-0.5,0.4-0.8,0.8-0.9,0.9c-0.5,0.2-1.5,0.4-2.3,0.4c-0.8,0-1.6-0.1-1.6-0.1s-0.7,0-1.6-0.1c-0.8-0.1-1.8-0.4-2.3-0.7c0,0,0,0,0,0
		c0-0.1-0.4-0.5-0.7-1c-0.5-0.6-1.1-1.5-2.2-2.1c-1.7-0.9-2.4-0.1-3.6-0.1c0-1.1-0.3-1.1,0.5-2.3c0.9-1.4,1.9-1.9,2.9-2.4
		c0.5-0.3,1.1-0.6,1.6-1c0.6-0.4,1.1-1,1.4-1.8c1.9-5.2,2.9-10.3,1.7-15.3c-1-4.1-8-9-12.5-10.1
		C-909.8,158.6-910.5,158.5-911.2,158.5L-911.2,158.5z M-913.4,167.7c-0.8-0.1-1.7,0-2.7,0.2c-1.7,0.4-3.7,1.4-5.8,2.9
		c1.8,4.4,8.5,9.4,16.6,2.5C-907.1,170.7-909.7,168-913.4,167.7L-913.4,167.7z M-871.4,171c-0.8-0.1-1.7,0-2.7,0.2
		c-1.7,0.4-3.7,1.4-5.8,2.9c1.8,4.4,8.5,9.4,16.6,2.5C-865.1,174-867.7,171.3-871.4,171z"/>
</g>
</svg>
