<?xml version="1.0" encoding="utf-8"?>
<!-- Generator: Adobe Illustrator 22.0.0, SVG Export Plug-In . SVG Version: 6.00 Build 0)  -->
<svg version="1.1" id="Слой_1" xmlns="http://www.w3.org/2000/svg" xmlns:xlink="http://www.w3.org/1999/xlink" x="0px" y="0px"
	 viewBox="0 0 900 600" style="enable-background:new 0 0 900 600;" xml:space="preserve">
<style type="text/css">
	.st0{fill:#FFFFFF;}
	.st1{fill:#00B9E4;}
	.st2{fill:#ED2939;}
</style>
<g>
	<rect x="0.4" y="-0.5" class="st0" width="900" height="600"/>
	<rect x="0.4" y="-0.5" class="st1" width="450" height="600"/>
</g>
<g>
	<path class="st2" d="M430.8,459.5c-88.4,0-160-71.6-160-160s71.6-160,160-160c47.3,0,89.8,20.5,119.1,53.2
		c-35.4-56-97.9-93.2-169.1-93.2c-110.5,0-200,89.5-200,200s89.5,200,200,200c71.2,0,133.6-37.2,169.1-93.2
		C520.6,439,478.1,459.5,430.8,459.5z"/>
	<polygon class="st2" points="539.1,299.5 720,358.3 608.2,204.4 608.2,394.6 720,240.7 	"/>
</g>
</svg>
