<?xml version="1.0" encoding="UTF-8"?>
<!DOCTYPE svg PUBLIC "-//W3C//DTD SVG 1.1//EN" "http://www.w3.org/Graphics/SVG/1.1/DTD/svg11.dtd">
<!-- Creator: CorelDRAW X8 -->
<svg xmlns="http://www.w3.org/2000/svg" xml:space="preserve" width="86.6986mm" height="57.8272mm" version="1.1" style="shape-rendering:geometricPrecision; text-rendering:geometricPrecision; image-rendering:optimizeQuality; fill-rule:evenodd; clip-rule:evenodd"
viewBox="0 0 8670 5783"
 xmlns:xlink="http://www.w3.org/1999/xlink"
 xmlns:dc="http://purl.org/dc/elements/1.1/"
 xmlns:cc="http://creativecommons.org/ns#"
 xmlns:rdf="http://www.w3.org/1999/02/22-rdf-syntax-ns#"
 xmlns:svg="http://www.w3.org/2000/svg"
 xmlns:sodipodi="http://sodipodi.sourceforge.net/DTD/sodipodi-0.dtd"
 xmlns:inkscape="http://www.inkscape.org/namespaces/inkscape"
 inkscape:version="0.48.2 r9819"
 sodipodi:docname="MAA Flag.svg">
 <defs>
  <style type="text/css">
   <![CDATA[
    .str0 {stroke:#E61E25;stroke-width:20}
    .fil1 {fill:#E61E25}
    .fil0 {fill:white}
   ]]>
  </style>
 </defs>
 <g id="Слой_x0020_1">
  <metadata id="CorelCorpID_0Corel-Layer"/>
  <g id="Flag_of_the_Arab_Movement_of_Azawad.svg">
   <sodipodi:namedview pagecolor="#ffffff" bordercolor="#666666" borderopacity="1" objecttolerance="10" gridtolerance="10" guidetolerance="10" inkscape:pageopacity="0" inkscape:pageshadow="2" inkscape:window-width="1680" inkscape:window-height="988" id="namedview69" showgrid="false" inkscape:zoom="0.71555556" inkscape:cx="466.1274" inkscape:cy="316.81429" inkscape:window-x="-8" inkscape:window-y="-8" inkscape:window-maximized="1" inkscape:current-layer="g3377" fit-margin-top="0" fit-margin-left="0" fit-margin-right="0" fit-margin-bottom="0"/>
   <rect id="rect11-7" class="fil0" x="6" y="2" width="8656" height="5776"/>
   <g id="g11-4-4">
    <g id="g4145">
     <g id="__x0023_ffc400ff">
      <g id="g3370">
       <g id="g3377">
        <g id="g3009">
        </g>
        <g id="g3010">
         <circle id="circle6" class="fil1" transform="matrix(0.00278075 -0.547522 0.601302 0.00253204 1754.76 1598.98)" r="1588" sodipodi:ry="60" sodipodi:rx="60" sodipodi:cy="120" sodipodi:cx="120"/>
         <circle id="circle8" class="fil0" transform="matrix(0.00278075 -0.547522 0.601302 0.00253204 1755.86 1381.68)" r="1270" sodipodi:ry="48" sodipodi:rx="48" sodipodi:cy="120" sodipodi:cx="135"/>
         <g id="g10">
          <g id="c-7">
           <g>
            <path id="t" class="fil1" d="M1248 1082l521 -3 1 250 -522 -247zm0 0l0 0 0 0z" inkscape:connector-curvature="0"/>
           </g>
           <g>
            <g>
             <path class="fil1" d="M1248 1082l423 292 152 -204 -575 -88zm0 0l0 0 0 0z"/>
            </g>
           </g>
          </g>
          <g>
           <g>
            <g>
             <path class="fil1" d="M1741 733l164 475 -247 79 83 -554zm0 0l0 0 0 0z"/>
            </g>
            <g>
             <g>
              <path class="fil1" d="M1741 733l-158 477 248 76 -90 -553zm0 0l0 0 0 0z"/>
             </g>
            </g>
           </g>
          </g>
          <g>
           <g>
            <g>
             <path class="fil1" d="M2238 1076l-419 297 -154 -202 573 -95zm0 0l0 0 0 0z"/>
            </g>
            <g>
             <g>
              <path class="fil1" d="M2238 1076l-520 3 1 251 519 -254zm0 0l0 0 0 0z"/>
             </g>
            </g>
           </g>
          </g>
          <g>
           <g>
            <g>
             <path class="fil1" d="M2053 1638l-424 -293 152 -203 272 496zm0 0l0 0 0 0z"/>
            </g>
            <g>
             <g>
              <path class="fil1" d="M2053 1638l-164 -476 -247 79 411 397zm0 0l0 0 0 0z"/>
             </g>
            </g>
           </g>
          </g>
          <g id="_1686426927200">
           <g>
            <g>
             <path class="fil1" d="M1440 1641l158 -477 249 76 -407 401zm0 0l0 0 0 0z"/>
            </g>
            <g>
             <g>
              <path class="fil1" d="M1440 1641l420 -297 -154 -202 -266 499zm0 0l0 0 0 0z"/>
             </g>
            </g>
           </g>
          </g>
         </g>
        </g>
       </g>
      </g>
     </g>
    </g>
   </g>
  </g>
  <rect class="fil1 str0" x="1586" y="2265" width="351" height="3505"/>
  <g id="g11-4-4_0">
   <g id="g4145_1">
    <g id="__x0023_ffc400ff_2">
     <g id="g3370_3">
      <g id="g3377_4">
       <g id="g3009_5">
       </g>
       <g id="g3010_6">
        <circle id="circle6_7" class="fil1" transform="matrix(0.651589 -0.201374 0.223339 0.728271 3034.25 4336.72)" r="1588" sodipodi:ry="60" sodipodi:rx="60" sodipodi:cy="120" sodipodi:cx="120"/>
        <circle id="circle8_8" class="fil0" transform="matrix(0.651589 -0.201374 0.223339 0.728271 3292.84 4256.8)" r="1270" sodipodi:ry="48" sodipodi:rx="48" sodipodi:cy="120" sodipodi:cx="135"/>
        <g id="g10_9">
         <g id="c-7_10">
          <g>
           <path id="t_11" class="fil1" d="M3458 3530l199 629 -297 96 98 -725zm0 0l0 0 0 0z" inkscape:connector-curvature="0"/>
          </g>
          <g>
           <g>
            <path class="fil1" d="M3458 3530l-188 621 299 108 -111 -729zm0 0l0 0 0 0z"/>
           </g>
          </g>
         </g>
         <g>
          <g>
           <g>
            <path class="fil1" d="M4058 3996l-503 376 -187 -269 690 -107zm0 0l0 0 0 0z"/>
           </g>
           <g>
            <g>
             <path class="fil1" d="M4058 3996l-627 -12 3 328 624 -316zm0 0l0 0 0 0z"/>
            </g>
           </g>
          </g>
         </g>
         <g>
          <g>
           <g>
            <path class="fil1" d="M3837 4726l-510 -396 181 -262 329 658zm0 0l0 0 0 0z"/>
           </g>
           <g>
            <g>
             <path class="fil1" d="M3837 4726l-199 -629 -297 96 496 533zm0 0l0 0 0 0z"/>
            </g>
           </g>
          </g>
         </g>
         <g>
          <g>
           <g>
            <path class="fil1" d="M3100 4711l188 -621 299 108 -487 513zm0 0l0 0 0 0z"/>
           </g>
           <g>
            <g>
             <path class="fil1" d="M3100 4711l504 -376 -187 -269 -317 645zm0 0l0 0 0 0z"/>
            </g>
           </g>
          </g>
         </g>
         <g>
          <g>
           <g>
            <path class="fil1" d="M2866 3972l627 13 3 328 -630 -341zm0 0l0 0 0 0z"/>
           </g>
           <g>
            <g>
             <path class="fil1" d="M2866 3972l511 397 181 -262 -692 -135zm0 0l0 0 0 0z"/>
            </g>
           </g>
          </g>
         </g>
        </g>
       </g>
      </g>
     </g>
    </g>
   </g>
  </g>
 </g>
</svg>
