<svg xmlns="http://www.w3.org/2000/svg" height="600" width="900">
<path d="M0 0h900v600H0z" fill="#060"/>
<path d="M325.578 116.453c-49.26 0-89.236 40.041-89.236 89.302 0 49.26 39.975 89.235 89.236 89.235 13.677 0 26.618-3.129 38.207-8.636-34.043-.138-84.106-29.446-84.106-80.599 0-51.148 49.183-80.53 84.106-80.666-11.589-5.506-24.53-8.636-38.207-8.636zm248.844-.577c49.26 0 89.236 40.041 89.236 89.302 0 49.26-39.975 89.235-89.236 89.235-13.675 0-26.617-3.129-38.207-8.636 34.042-.138 84.106-29.446 84.106-80.6 0-51.147-49.183-80.53-84.106-80.665 11.59-5.506 24.532-8.636 38.207-8.636zm-214.3 279.013c0 49.26 40.041 89.235 89.302 89.235 49.26 0 89.235-39.975 89.235-89.235 0-13.677-3.129-26.619-8.636-38.207-.138 34.042-29.445 84.106-80.6 84.106-51.147 0-80.53-49.184-80.665-84.106-5.506 11.588-8.636 24.53-8.636 38.207z" fill="#fff"/>
</svg>
