<?xml version="1.0"?>
<svg width="2400" height="1443.9999999999998" xmlns="http://www.w3.org/2000/svg" xmlns:svg="http://www.w3.org/2000/svg" version="1.1">
 <g class="layer">
  <title>Layer 1</title>
  <path d="m-4.83,-4l2404.01,0l0,1444l-2404.01,0l0,-1444z" fill="#065e01" id="Rectángulo-1" transform="matrix(1 0 0 1 0 0)"/>
  <path d="m1,-1.15l2398.13,0l0,481.31l-2398.13,0l0,-481.31z" fill="#000000" id="Rectángulo-1-cop" transform="matrix(1 0 0 1 0 0)"/>
  <path d="m-0.83,962.66l2400.48,0l0,481.31l-2400.48,0l0,-481.31z" fill="#00a400" id="svg_1"/>
  <path d="m1200,730.5l-1203,721.5l0,-1443l1203,721.5z" fill="#065e01" id="Polígono-1"/>
  <rect fill="#d8d8d8" height="64" id="svg_3" width="2403.53" x="-3.71" y="677"/>
  <path class="st2" d="m1473.11,620.65c-48.33,-76.92 -150.17,-100.45 -227.59,-52.5s-101.08,149.28 -52.75,226.33s150.17,100.45 227.59,52.5c21.38,-13.16 39.47,-31.25 52.75,-52.5c-48.33,54.4 -131.82,59.59 -186.48,11.51s-59.97,-131.06 -11.64,-185.34s131.82,-59.59 186.48,-11.51c4.05,3.42 7.97,7.34 11.64,11.51z" fill="#000000" id="svg_7"/>
  <path class="st2" d="m1501.11,706.47l187.2,-60.38l-115.66,158.29l0,-195.81l115.66,158.29" fill="#000000" id="svg_6"/>
 </g>

</svg>
